<svg xmlns="http://www.w3.org/2000/svg" width="57.376" height="57.376" viewBox="0 0 57.376 57.376">
  <path id="timer" d="M28.688,57.376a28.142,28.142,0,0,1-11.15-2.27A28.07,28.07,0,0,1,2.27,39.838,28.142,28.142,0,0,1,0,28.688,28.546,28.546,0,0,1,3.025,15.856L9.469,19.05a21.284,21.284,0,0,0-2.3,9.638,21.071,21.071,0,0,0,2.886,10.787A21.352,21.352,0,0,0,17.9,47.319a21.6,21.6,0,0,0,21.572,0,21.352,21.352,0,0,0,7.845-7.845A21.072,21.072,0,0,0,50.2,28.688,20.8,20.8,0,0,0,46.31,16.362,21.159,21.159,0,0,0,36.252,8.573l2.521-6.724A28.226,28.226,0,0,1,52.193,12.27a27.8,27.8,0,0,1,5.183,16.417,28.142,28.142,0,0,1-2.27,11.15A28.07,28.07,0,0,1,39.838,55.106a28.142,28.142,0,0,1-11.15,2.27Zm0-25.1a3.387,3.387,0,0,1-3.082-1.793q-1.793-1.9-4.651-5.212t-6.3-7.368q-3.446-4.061-5.659-7.172T7.2,7.2q.421-.419,3.53,1.793T17.9,14.652q4.063,3.447,7.368,6.332t5.212,4.622a3.387,3.387,0,0,1,1.793,3.082,3.538,3.538,0,0,1-3.586,3.586Zm0-25.1a3.422,3.422,0,0,1-2.55-1.065A3.519,3.519,0,0,1,25.1,3.557a3.44,3.44,0,0,1,1.036-2.521A3.428,3.428,0,0,1,28.659,0a3.524,3.524,0,0,1,2.55,1.036,3.426,3.426,0,0,1,1.065,2.55,3.538,3.538,0,0,1-3.586,3.586Z" fill="#fff"/>
</svg>
