<svg xmlns="http://www.w3.org/2000/svg" width="14.907" height="16.625" viewBox="0 0 14.907 16.625">
  <path id="Union_1" data-name="Union 1" d="M11207.96-753.116h-4.076l-.053-.005a.542.542,0,0,1-.3-.153.537.537,0,0,1-.159-.388c0-.01,0-.019,0-.029v-1.717a.53.53,0,0,1,.172-.4l1.549-1.549v-2.635a5.821,5.821,0,0,1,3.44-5.264v-.012a5.677,5.677,0,0,1,1.72-.459v-1.146h1.146v1.146a5.7,5.7,0,0,1,1.72.459v.012a5.817,5.817,0,0,1,3.438,5.264v1.146h0v1.489l1.546,1.549a.507.507,0,0,1,.172.4v1.717a.288.288,0,0,1,0,.029.531.531,0,0,1-.156.388c-.013.013-.025.025-.039.036a.537.537,0,0,1-.341.123h-4.051a2.867,2.867,0,0,1-2.866,2.866A2.867,2.867,0,0,1,11207.96-753.116Zm2.866,1.72a1.72,1.72,0,0,0,1.72-1.72h-3.44A1.722,1.722,0,0,0,11210.826-751.4Zm6.307-2.866v-.918l-1.549-1.548a.525.525,0,0,1-.172-.4v-2.866a4.582,4.582,0,0,0-2.292-3.972v.008a4.53,4.53,0,0,0-2.14-.62h-.31a4.523,4.523,0,0,0-2.137.62v-.009a4.585,4.585,0,0,0-2.295,3.973v2.866a.277.277,0,0,1,0,.028.514.514,0,0,1-.173.371l-1.548,1.548v.918Z" transform="translate(-11203.372 766.875)" fill="#020621"/>
</svg>
