<svg xmlns="http://www.w3.org/2000/svg" xmlns:xlink="http://www.w3.org/1999/xlink" width="264" height="209" viewBox="0 0 264 209">
  <defs>
    <linearGradient id="linear-gradient" x1="0.5" y1="1" x2="0.5" gradientUnits="objectBoundingBox">
      <stop offset="0" stop-color="gray" stop-opacity="0.251"/>
      <stop offset="0.54" stop-color="gray" stop-opacity="0.122"/>
      <stop offset="1" stop-color="gray" stop-opacity="0.102"/>
    </linearGradient>
    <linearGradient id="linear-gradient-2" x1="0.5" y1="1" x2="0.5" y2="0" xlink:href="#linear-gradient"/>
    <linearGradient id="linear-gradient-3" x1="0.5" y1="1" x2="0.5" gradientUnits="objectBoundingBox">
      <stop offset="0" stop-opacity="0.122"/>
      <stop offset="0.55" stop-opacity="0.09"/>
      <stop offset="1" stop-opacity="0.02"/>
    </linearGradient>
    <linearGradient id="linear-gradient-4" x1="0.5" y1="1.001" x2="0.5" y2="0.001" xlink:href="#linear-gradient-3"/>
    <linearGradient id="linear-gradient-5" x1="0.5" y1="1" x2="0.5" y2="0" xlink:href="#linear-gradient-3"/>
    <linearGradient id="linear-gradient-7" x1="0.5" y1="1" x2="0.5" y2="0" xlink:href="#linear-gradient-3"/>
    <linearGradient id="linear-gradient-9" x1="0.501" y1="1" x2="0.501" y2="-0.04" xlink:href="#linear-gradient"/>
    <linearGradient id="linear-gradient-10" x1="0.5" y1="1" x2="0.5" y2="0" xlink:href="#linear-gradient"/>
    <linearGradient id="linear-gradient-11" x1="246.583" y1="-1170.459" x2="246.583" y2="-1171.347" xlink:href="#linear-gradient"/>
    <linearGradient id="linear-gradient-12" x1="1.415" y1="-0.941" x2="1.415" y2="-1.927" xlink:href="#linear-gradient"/>
  </defs>
  <g id="Group_16079" data-name="Group 16079" transform="translate(-212 -380)">
    <rect id="Rectangle_5726" data-name="Rectangle 5726" width="264" height="179" rx="89.5" transform="translate(212 410)" fill="#f4f5fa"/>
    <g id="Group_15977" data-name="Group 15977" transform="translate(230.03 380)">
      <path id="Path_9093" data-name="Path 9093" d="M533.275,629.343c-.134-.131-.274-.274-.373-.386a1.644,1.644,0,0,1-.386-.742h.1l.047-.211a20.244,20.244,0,0,0-6.073-19.148.224.224,0,0,0,.027-.049,21.135,21.135,0,0,0,.241-12.557,36.4,36.4,0,0,0,3.249-4.876c3.35-2.561,6.829-6.268,7.9-11.084a13.936,13.936,0,0,0,.274-1.583,1.693,1.693,0,0,0,.252-1.95,1.85,1.85,0,0,0-.121-.255.635.635,0,0,0-.047-.071,1.571,1.571,0,0,0-.1-.14l-.063-.071a1.431,1.431,0,0,0-.1-.1l-.071-.06-.11-.077-.077-.047-.118-.058-.074-.033-.131-.044-.066-.019a1.685,1.685,0,0,0-.186-.038h0a2.931,2.931,0,0,0-1.241.123s-.986,1.709-.6,2.361c-.3.378-1.1,1.389-2.192,2.687a14.794,14.794,0,0,0-.326-3.238,13.964,13.964,0,0,0-.4-1.556,1.675,1.675,0,0,0-.575-1.879,1.866,1.866,0,0,0-.214-.184l-.071-.047a1.6,1.6,0,0,0-.145-.088l-.085-.038a1.335,1.335,0,0,0-.134-.052l-.088-.025-.132-.027h-.3l-.14.014h-.068a1.548,1.548,0,0,0-.186.044h0a2.932,2.932,0,0,0-1.079.625s-.192,1.964.427,2.4a94.615,94.615,0,0,1-3.654,11.5,21.919,21.919,0,0,1-2.019,1.55v-.422a2.179,2.179,0,0,0,0-.233h0a2.167,2.167,0,0,0-.036-.222l.036-.019.148-.082.214-.131.137-.088q.153-.107.3-.222l.112-.1c.068-.058.131-.118.2-.178l.093-.132q.118-.121.227-.252l.079-.1a3.074,3.074,0,0,0,.2-.274l.079-.118q.085-.131.162-.274l.049-.088c.063-.118.121-.238.175-.362l.044-.11q.06-.148.11-.3a.408.408,0,0,1,.036-.107c.041-.131.077-.274.1-.405a.174.174,0,0,1,.014-.082q.033-.175.055-.353v-.121c0-.145.022-.29.022-.441a4.808,4.808,0,0,0-.619-2.361l.227-.06.167-.052c.063-.022.093-.041.085-.055-.118-.159-.238-.31-.362-.457l-.121-.137a1.989,1.989,0,0,0-.274-.274l-.14-.142c-.088-.085-.175-.17-.274-.249l-.137-.123c-.11-.1-.219-.184-.332-.274l-.071-.058c-.134-.1-.274-.192-.4-.274l-.153-.093c-.088-.055-.178-.107-.274-.156l-.178-.093-.249-.121-.184-.082c-.088-.036-.178-.071-.274-.1l-.167-.06c-.134-.044-.274-.082-.4-.118l-.208-.047-.222-.047-.225-.036-.205-.025-.23-.019h-.43a3.777,3.777,0,0,0-.381.019h0c-2.98.244-5.588,2.846-5.588,6.98v3.435h4.657v1.556a4.83,4.83,0,0,0-2.805,4.383v13.25l-3.909,18.162H512.9v.049h0l-.767,3.419,5.81.929a.3.3,0,0,0,.183-.342,1.074,1.074,0,0,0-.068-.274,4.607,4.607,0,0,0-.331-.652c-.205-.353-.449-.731-.614-1.074a2.4,2.4,0,0,1-.189-.548,2.117,2.117,0,0,1-.038-.3l4.276-14.053h-.019l.1-.331s5.457,2.339,6.849,7.016a10.98,10.98,0,0,1,.123,7.043h-.019v.047c-.06.151-.1.236-.1.236h.1v2.572h5.9C534.541,630.483,533.856,629.91,533.275,629.343Z" transform="translate(-417.634 -448.368)" fill="url(#linear-gradient)"/>
      <path id="Path_9094" data-name="Path 9094" d="M542.189,619.748s10.174-10.7,6.848-20.978l-2.668.548s-3.58,15.067-7.4,17.228S542.189,619.748,542.189,619.748Z" transform="translate(-436.3 -466.512)" fill="#f7a51a"/>
      <path id="Path_9095" data-name="Path 9095" d="M542.189,619.748s10.174-10.7,6.848-20.978l-2.668.548s-3.58,15.067-7.4,17.228S542.189,619.748,542.189,619.748Z" transform="translate(-436.3 -466.512)" opacity="0.05"/>
      <path id="Path_9096" data-name="Path 9096" d="M559.437,599.4l.444-.09c3.315,10.281-6.848,20.978-6.848,20.978l-.312-.052C553.892,618.949,562.53,608.988,559.437,599.4Z" transform="translate(-447.105 -466.904)" fill="#fff" opacity="0.2"/>
      <path id="Path_9097" data-name="Path 9097" d="M570.262,593.028s.74-.92-.419-2.074-2.578.214-2.578.214-.2,2.046.479,2.37S570.262,593.028,570.262,593.028Z" transform="translate(-457.646 -460.501)" fill="#985454"/>
      <path id="Path_9098" data-name="Path 9098" d="M572.8,593.111s.74-.92-.419-2.074a1.449,1.449,0,0,0-1.235-.452,1.468,1.468,0,0,1,1.531.392c1.159,1.153.419,2.074.419,2.074a8.2,8.2,0,0,1-1.7.548A8.945,8.945,0,0,0,572.8,593.111Z" transform="translate(-460.486 -460.515)" fill="#fff" opacity="0.2"/>
      <rect id="Rectangle_5703" data-name="Rectangle 5703" width="219.815" height="133.628" rx="8" transform="translate(6.555)" fill="url(#linear-gradient-2)"/>
      <rect id="Rectangle_5704" data-name="Rectangle 5704" width="214.122" height="128.774" rx="11" transform="translate(9.051 1.361)" fill="#fff"/>
      <rect id="Rectangle_5705" data-name="Rectangle 5705" width="6.24" height="17.718" transform="translate(25.772 21.575)" fill="#e0e0e0"/>
      <rect id="Rectangle_5706" data-name="Rectangle 5706" width="6.24" height="17.718" transform="translate(33.758 21.575)" fill="#e0e0e0"/>
      <rect id="Rectangle_5707" data-name="Rectangle 5707" width="6.24" height="17.718" transform="translate(41.743 21.575)" fill="#e0e0e0"/>
      <rect id="Rectangle_5708" data-name="Rectangle 5708" width="6.24" height="17.718" transform="translate(55.719 21.575)" fill="#e0e0e0"/>
      <rect id="Rectangle_5709" data-name="Rectangle 5709" width="6.24" height="17.718" transform="translate(63.705 21.575)" fill="#e0e0e0"/>
      <rect id="Rectangle_5710" data-name="Rectangle 5710" width="6.24" height="17.718" transform="translate(71.69 21.575)" fill="#e0e0e0"/>
      <rect id="Rectangle_5711" data-name="Rectangle 5711" width="6.24" height="17.718" transform="translate(85.667 21.575)" fill="#e0e0e0"/>
      <rect id="Rectangle_5712" data-name="Rectangle 5712" width="6.24" height="17.718" transform="translate(93.652 21.575)" fill="#e0e0e0"/>
      <rect id="Rectangle_5713" data-name="Rectangle 5713" width="6.24" height="17.718" transform="translate(101.637 21.575)" fill="#e0e0e0"/>
      <rect id="Rectangle_5714" data-name="Rectangle 5714" width="6.24" height="17.718" transform="translate(115.614 21.575)" fill="#e0e0e0"/>
      <rect id="Rectangle_5715" data-name="Rectangle 5715" width="6.24" height="17.718" transform="translate(123.599 21.575)" fill="#e0e0e0"/>
      <rect id="Rectangle_5716" data-name="Rectangle 5716" width="6.24" height="17.718" transform="translate(131.584 21.575)" fill="#e0e0e0"/>
      <rect id="Rectangle_5717" data-name="Rectangle 5717" width="54.404" height="7.985" transform="translate(25.772 110.918)" fill="#bdbdbd"/>
      <rect id="Rectangle_5718" data-name="Rectangle 5718" width="94.334" height="7.985" transform="translate(25.772 97.443)" fill="#e0e0e0"/>
      <path id="Path_9099" data-name="Path 9099" d="M791.418,327.881a1.315,1.315,0,0,1,1.266-1.37h1.882V315.28H777.8v12.93h13.62Z" transform="translate(-610.527 -260.681)" fill="url(#linear-gradient-3)"/>
      <path id="Path_9100" data-name="Path 9100" d="M792.676,401.078a1.315,1.315,0,0,1-1.266-1.37v-.329H777.79v12.93h16.768V401.078Z" transform="translate(-610.52 -321.743)" fill="url(#linear-gradient-4)"/>
      <rect id="Rectangle_5719" data-name="Rectangle 5719" width="13.62" height="6.747" transform="translate(167.27 69.216)" fill="url(#linear-gradient-5)"/>
      <path id="Path_9101" data-name="Path 9101" d="M847.872,399.749a1.315,1.315,0,0,1-1.266,1.37H844.73V412.35H861.5V399.42H847.872Z" transform="translate(-659.122 -321.772)" fill="url(#linear-gradient-3)"/>
      <path id="Path_9102" data-name="Path 9102" d="M844.72,315.28v11.232H846.6a1.315,1.315,0,0,1,1.266,1.37v.329h13.62V315.28Z" transform="translate(-659.115 -260.681)" fill="url(#linear-gradient-7)"/>
      <rect id="Rectangle_5720" data-name="Rectangle 5720" width="13.62" height="6.747" transform="translate(188.75 69.216)" fill="url(#linear-gradient-5)"/>
      <path id="Path_9103" data-name="Path 9103" d="M793.283,332.1a1.208,1.208,0,0,1,1.208-1.205h1.792V320.91H780.29v11.481h12.993Z" transform="translate(-612.335 -264.769)" fill="#f7a51a"/>
      <path id="Path_9104" data-name="Path 9104" d="M794.491,397.106a1.208,1.208,0,0,1-1.208-1.205v-.29H780.29v11.481h15.99v-9.985Z" transform="translate(-612.335 -319.005)" fill="#f7a51a"/>
      <rect id="Rectangle_5721" data-name="Rectangle 5721" width="12.993" height="5.988" transform="translate(167.955 69.118)" fill="#f7a51a"/>
      <path id="Path_9105" data-name="Path 9105" d="M847.13,395.9a1.208,1.208,0,0,1-1.208,1.205H844.13v9.982h15.99V395.61H847.13Z" transform="translate(-658.686 -319.005)" fill="#f7a51a"/>
      <path id="Path_9106" data-name="Path 9106" d="M844.14,320.91v9.982h1.792a1.208,1.208,0,0,1,1.208,1.205v.29h12.993V320.91Z" transform="translate(-658.694 -264.769)" fill="#f7a51a"/>
      <rect id="Rectangle_5722" data-name="Rectangle 5722" width="12.993" height="5.988" transform="translate(188.443 69.118)" fill="#f7a51a"/>
      <g id="Group_15977-2" data-name="Group 15977" transform="translate(6.196 120.304)" opacity="0.2">
        <path id="Path_9107" data-name="Path 9107" d="M189.917,555.223l.025-.082S189.638,555.1,189.917,555.223Z" transform="translate(-189.799 -555.133)" fill="url(#linear-gradient-9)"/>
      </g>
      <g id="Group_15978" data-name="Group 15978" transform="translate(-0.03 118.613)" opacity="0.2">
        <path id="Path_9108" data-name="Path 9108" d="M201.682,555.77a1.974,1.974,0,0,0-.107-.274c0-.027-.03-.052-.044-.079a1.691,1.691,0,0,0-.09-.153c-.019-.027-.041-.052-.06-.079s-.064-.078-.1-.115l-.071-.068a1.136,1.136,0,0,0-.11-.09l-.077-.055-.121-.071-.077-.041-.137-.058-.068-.027q-.1-.033-.194-.055h0a3.1,3.1,0,0,0-1.318.036s-1.257,1.855-.773,2.52l-.159-.049s-9.339,10.41-14.606,12.355q-.2-.137-.419-.257v-1.948a2.3,2.3,0,0,0,0-.244h0a2.283,2.283,0,0,0-.038-.233l.038-.022.156-.088.227-.137.145-.093q.162-.112.315-.236l.118-.1c.071-.06.14-.123.208-.189l.121-.118a3.488,3.488,0,0,0,.241-.274l.085-.1q.11-.134.208-.274l.085-.126q.09-.137.173-.274l.052-.093c.066-.123.129-.252.184-.384l.047-.115q.063-.159.118-.32a.364.364,0,0,1,.038-.112,3.893,3.893,0,0,0,.11-.427.172.172,0,0,1,.016-.088q.036-.184.058-.373v-.126c.014-.153.025-.31.025-.466a5.084,5.084,0,0,0-1.134-3.208c.4-.625.66-.992.66-.992-.241-.164-.477-.318-.712-.46l-.227-.134c-.156-.093-.315-.186-.468-.274l-.274-.14c-.14-.074-.274-.145-.419-.214l-.274-.123c-.134-.06-.274-.12-.4-.173l-.274-.1c-.131-.052-.274-.1-.394-.142l-.247-.082c-.134-.044-.274-.079-.4-.115l-.219-.06c-.151-.036-.3-.068-.447-.1l-.159-.033c-.2-.036-.4-.063-.6-.082h0a7.122,7.122,0,0,0-3.586.548,6.638,6.638,0,0,1,.805-3.348l-.123-.041-.044.041s-.148.033-.375.074a3.132,3.132,0,0,0-.195.364,4.172,4.172,0,0,1,.573-1.427l-.123-.041a1.685,1.685,0,0,0-.044-2.266c-.989-1.482-2.8-.329-2.8-.329a7.67,7.67,0,0,0-.274,1.5c-.14-.055-.236-.1-.3-.131A37.348,37.348,0,0,0,172,560.158c-3.265,4.638-4.619,11.484-4.882,12.96h0l-.019.118h0c-.019.107-.027.164-.027.164l8.492.2V587.13l-6.2,13.067s2.342.085,5.9.548l-.978,6.991h0l-.326,1.961h5.884c.655-1.307-2.616-1.961-2.616-1.961h-.074l1.277-6.523q.846.142,1.74.312a17.045,17.045,0,0,0,2.649.3h0a14.072,14.072,0,0,0,2.205-.1,15.442,15.442,0,0,1-.244,6.01h-.036l-.326,1.961h5.884c.57-1.14-1.844-1.783-2.465-1.918l.027-.192a32.823,32.823,0,0,0,.233-6.659,8.061,8.061,0,0,0,2.093-1.249h0l.082-.071h0l.025-.025-4.383-12.292c.822-3.479-2.033-7.122-.51-8.961a4.525,4.525,0,0,0,.422-4.556c4.109-1.8,12.434-6.3,14.768-14.1a14.754,14.754,0,0,0,.416-1.671S202.195,557.476,201.682,555.77Z" transform="translate(-167.07 -548.959)" fill="url(#linear-gradient-10)"/>
      </g>
      <path id="Path_9109" data-name="Path 9109" d="M190.137,563.769s-4.462,14.072,3.013,21.863l2.161-1.644s-4.421-15.36-1.948-18.968C189,563.55,190.137,563.769,190.137,563.769Z" transform="translate(-182.889 -441.091)" fill="#ff5252"/>
      <path id="Path_9110" data-name="Path 9110" d="M197.376,560.877s.907-.756,0-2.118-2.57-.3-2.57-.3-.605,1.964,0,2.419S197.376,560.877,197.376,560.877Z" transform="translate(-187.043 -436.958)" fill="#f6b9ad"/>
      <rect id="Rectangle_5723" data-name="Rectangle 5723" width="4.232" height="6.273" rx="2.116" transform="translate(16.152 142.062) rotate(180)" fill="#f6b9ad"/>
      <path id="Path_9111" data-name="Path 9111" d="M204.3,590.5s-4.367-15.171-1.989-18.9c.211-.038.345-.068.345-.068l.038-.038.112.038c-2.465,3.608,1.948,18.968,1.948,18.968l-2.161,1.644-.189-.2Z" transform="translate(-192.173 -446.705)" fill="#fff" opacity="0.2"/>
      <circle id="Ellipse_294" data-name="Ellipse 294" cx="4.687" cy="4.687" r="4.687" transform="translate(9.273 128.607)" fill="#f6b9ad"/>
      <path id="Path_9112" data-name="Path 9112" d="M219.1,596.8v-2.041a2.1,2.1,0,0,0-.049-.444,4.687,4.687,0,0,0-1.879-8.846h.274a4.687,4.687,0,0,1,2.145,8.846,2.1,2.1,0,0,1,.049.444V596.8a2.1,2.1,0,0,1-2.381,2.1A2.123,2.123,0,0,0,219.1,596.8Z" transform="translate(-203.476 -456.855)" fill="#fff" opacity="0.2"/>
      <path id="Path_9113" data-name="Path 9113" d="M200.76,641.335s9.04,1.022,9.374,0c1.079-3.306-1.813-6.868-.362-8.61,1.5-1.8.362-4.238.362-4.238a4.687,4.687,0,0,0-4.687-4.687h0a4.687,4.687,0,0,0-4.687,4.687Z" transform="translate(-191.561 -484.685)" fill="#ff5252"/>
      <path id="Path_9114" data-name="Path 9114" d="M221.437,632.725c1.5-1.8.362-4.238.362-4.238a4.687,4.687,0,0,0-4.687-4.687,1.848,1.848,0,0,0-.3.016,4.682,4.682,0,0,1,4.383,4.671s1.14,2.438-.362,4.238c-1.455,1.745,1.438,5.306.362,8.61-.1.315-1.035.436-2.274.452,1.529.016,2.756-.088,2.874-.452C222.889,638.029,219.985,634.467,221.437,632.725Z" transform="translate(-203.214 -484.685)" fill="#fff" opacity="0.2"/>
      <path id="Path_9115" data-name="Path 9115" d="M205.078,686.72h0c3.306,4.679,4.758,11.744,3.816,18.543l-.027.2h-2.824s.874-2.57,0-7.106a11.232,11.232,0,0,0-4.273-6.8l-2.717,13.908H196.43l2.622-18.746Z" transform="translate(-188.417 -530.369)" fill="#f6b9ad"/>
      <path id="Path_9116" data-name="Path 9116" d="M279.211,579.95s1.1-.458.619-2.024-2.37-1.041-2.37-1.041-1.153,1.7-.71,2.312S279.211,579.95,279.211,579.95Z" transform="translate(-246.661 -450.56)" fill="#f6b9ad"/>
      <path id="Path_9117" data-name="Path 9117" d="M219.675,601.352s14.042-4.55,16.042-15.165l-2.6-.8s-10.336,11.538-14.708,11.621S219.675,601.352,219.675,601.352Z" transform="translate(-203.168 -456.797)" fill="#ff5252"/>
      <path id="Path_9118" data-name="Path 9118" d="M242.21,588.34l.433.134c-1.989,10.618-16.034,15.168-16.034,15.168l-.249-.195C228.012,602.867,240.356,598.243,242.21,588.34Z" transform="translate(-210.148 -458.939)" fill="#fff" opacity="0.2"/>
      <g id="Group_15979" data-name="Group 15979" transform="translate(10.032 156.351)" opacity="0.2">
        <path id="Path_9119" data-name="Path 9119" d="M206.52,704.37l-2.72,13.908h.6l2.641-13.5A6.485,6.485,0,0,0,206.52,704.37Z" transform="translate(-203.8 -699.535)" fill="#fff"/>
        <path id="Path_9120" data-name="Path 9120" d="M226.41,686.72h-.6c3.306,4.679,4.758,11.744,3.816,18.543l-.027.2h.6l.027-.2C231.163,698.464,229.7,691.4,226.41,686.72Z" transform="translate(-219.781 -686.72)" fill="#fff"/>
      </g>
      <path id="Path_9121" data-name="Path 9121" d="M281.018,580.013s1.1-.457.619-2.024a1.449,1.449,0,0,0-.868-.989,1.468,1.468,0,0,1,1.159,1.074c.468,1.567-.619,2.024-.619,2.024a8.194,8.194,0,0,1-1.759-.331,8.953,8.953,0,0,0,1.468.247Z" transform="translate(-248.767 -450.706)" fill="#fff" opacity="0.2"/>
      <path id="Path_9122" data-name="Path 9122" d="M185.687,685.94l-5.687,12a70.48,70.48,0,0,1,9.9,1.2c6.3,1.2,9.3-1.8,9.3-1.8l-4.063-11.4Z" transform="translate(-176.488 -529.803)" fill="#263238"/>
      <path id="Path_9123" data-name="Path 9123" d="M198.33,754.94s3.013.6,2.4,1.8h-5.4l.3-1.8Z" transform="translate(-187.618 -579.901)" fill="#ff5252"/>
      <path id="Path_9124" data-name="Path 9124" d="M233.37,754.94s3.013.6,2.4,1.8h-5.4l.3-1.8Z" transform="translate(-213.06 -579.901)" fill="#ff5252"/>
      <path id="Path_9125" data-name="Path 9125" d="M189.131,582.962s-7.2,10.2-3.9,14.387l-12.9-.3S175.93,573.963,189.131,582.962Z" transform="translate(-170.919 -453.522)" fill="#fccc63"/>
      <path id="Path_9126" data-name="Path 9126" d="M189.138,583.056a10.95,10.95,0,0,0-5.024-2.046,12.7,12.7,0,0,1,3.526,1.748s-7.2,10.2-3.9,14.4l-11.355-.274c-.03.17-.044.274-.044.274l12.9.3C181.936,593.255,189.138,583.056,189.138,583.056Z" transform="translate(-170.926 -453.617)" fill="#fff" opacity="0.2"/>
      <path id="Path_9127" data-name="Path 9127" d="M227.837,685.94h-.89l4.063,11.4a9.181,9.181,0,0,1-5.969,2.074c4.641.148,6.868-2.074,6.868-2.074Z" transform="translate(-209.19 -529.803)" fill="#fff" opacity="0.2"/>
      <path id="Path_9128" data-name="Path 9128" d="M204.69,754.94h-.6s3.013.6,2.4,1.8h.589C207.69,755.54,204.69,754.94,204.69,754.94Z" transform="translate(-193.979 -579.901)" fill="#fff" opacity="0.2"/>
      <path id="Path_9129" data-name="Path 9129" d="M239.73,754.94h-.6s3.013.6,2.4,1.8h.6C242.73,755.54,239.73,754.94,239.73,754.94Z" transform="translate(-219.42 -579.901)" fill="#fff" opacity="0.2"/>
      <g id="Group_15980" data-name="Group 15980" transform="translate(225.877 124.159)" opacity="0.2">
        <path id="Path_9130" data-name="Path 9130" d="M991.73,569.225l.027.066C991.977,569.149,991.73,569.225,991.73,569.225Z" transform="translate(-991.73 -569.205)" fill="url(#linear-gradient-11)"/>
      </g>
      <g id="Group_15981" data-name="Group 15981" transform="translate(205.574 122.952)" opacity="0.2">
        <path id="Path_9131" data-name="Path 9131" d="M941.366,616.356l4.758-1.37-1.011-2.871h0l-.014-.041h-.016l-5.3-15.387-1.37-11.519a4.308,4.308,0,0,0-.074-.436c4.331-7.418,0-17.743-.386-18.642-.049.033-.126.077-.236.137a6.321,6.321,0,0,0-.378-1.2s-1.6-.773-2.271.548c-.583,1.148.019,1.737.186,1.868l-.1.047a3.456,3.456,0,0,1,.608,1.118,2.6,2.6,0,0,0-.2-.274,1.824,1.824,0,0,1-.318-.025l-.038-.03-.1.047a6.738,6.738,0,0,1,1.1,3.586,5.211,5.211,0,0,0-.671-.619,5.3,5.3,0,0,0-3.657-1.041h0l-.238.027h0q-.2.027-.4.074l-.1.022-.167.044-.192.06-.137.047-.236.093-.088.038a2.846,2.846,0,0,0-.274.14,5.171,5.171,0,0,1-.978.49c-.047.014-.1.022-.142.033h0a1.718,1.718,0,0,1-1.156-.186l-.118-.071a1.581,1.581,0,0,1-.132-.1.762.762,0,0,0,0,.331,1,1,0,0,0,.427.636.953.953,0,0,0,.2.1.8.8,0,0,0,.326.052.739.739,0,0,0,.112-.014l-.027.016a2.037,2.037,0,0,1-.2.112h-.014q-.111.053-.222.1h0a2.6,2.6,0,0,1-1.192.159h0l-.131-.016a.786.786,0,0,1-.194-.036,1.445,1.445,0,0,0,.082.123l.03.036.063.077.036.038.068.068.038.036.082.066.033.025.121.079.041.022.088.047.058.025.077.033.063.022.077.025.063.019.088.019.107.019h.592a1.5,1.5,0,0,0,.433-.162,2.548,2.548,0,0,1-.274.145h0l-.131.066-.137.066-.134.06-.14.058-.134.052-.145.052-.134.044-.153.047-.129.036-.167.041-.12.027-.192.036-.1.016-.29.038h0a1.263,1.263,0,0,1,.479.184,1.207,1.207,0,0,0,.3.115,1.068,1.068,0,0,0,.137,0h.282l.145-.019h.241a1.961,1.961,0,0,1,.8.156,1.4,1.4,0,0,1,.364.249c-.033.071-.066.145-.1.219s-.049.129-.071.192q-.066.194-.115.394a4.222,4.222,0,0,0-.085,1.474,1.613,1.613,0,0,0,.041.274l.014.074q.022.107.049.211v.055q.036.129.077.255l.019.049q.036.1.077.205l.025.06a4.194,4.194,0,0,0,.241.474l.027.047q.063.1.131.2v.019q.079.112.164.219v.016q.079.1.164.192l.019.022a4.248,4.248,0,0,0,.4.381h0a4.245,4.245,0,0,0,1.222.71,1.9,1.9,0,0,0,0,.2h0a1.937,1.937,0,0,0,0,.2l.186,1.572q-.126.088-.247.184c-3.931-1.255-10.914-12.62-10.914-12.62l-.134.016c.493-.471-.258-2.17-.258-2.17a2.562,2.562,0,0,0-1.1-.225h-.384l-.055.016h-.036l-.058.025h-.03l-.085.044h0l-.079.049-.027.019-.055.041-.03.025-.047.044-.03.03-.044.047-.03.033-.044.055-.027.036-.044.068-.022.033c-.022.036-.041.071-.063.11-.668,1.315.225,1.9.225,1.9a12.207,12.207,0,0,0,.093,1.422c.978,8.785,11.174,14.475,11.695,14.76a18.186,18.186,0,0,0,1.37,11.464.2.2,0,0,0,.027.038,17.724,17.724,0,0,0-3.312,17.272l.06.178h.088a1.235,1.235,0,0,1-.016.123,1.367,1.367,0,0,1-.063.216,1.64,1.64,0,0,1-.181.345h0c-.079.118-.175.238-.274.362l-.1.129c-.422.51-.846,1.005-.471,1.142h0l.274-.033,4.9-.482-.274-2.235h.09s-.044-.066-.115-.192v-.041h-.016a9.594,9.594,0,0,1-.616-6.136c.74-4.21,5.243-6.8,5.243-6.8l.121.274h-.016l5.164,11.779v.148a2,2,0,0,1-.041.351,2.166,2.166,0,0,1-.071.274c-.172.5-.5,1.1-.627,1.542a1.408,1.408,0,0,0-.041.184.548.548,0,0,0,0,.211.244.244,0,0,0,.181.181h0l.066-.019.142-.041Zm-5.545-34.6q-.151-.063-.3-.112l-.173-1.471a1.891,1.891,0,0,0-.071-.331,4.234,4.234,0,0,0,.822-.682C936.014,580.1,935.915,580.984,935.822,581.757Z" transform="translate(-917.614 -564.8)" fill="url(#linear-gradient-12)"/>
      </g>
      <path id="Path_9132" data-name="Path 9132" d="M918.342,580.884s-.989-.644-.249-2.1,2.518-.6,2.518-.6.822,1.882.274,2.4S918.342,580.884,918.342,580.884Z" transform="translate(-712.188 -451.381)" fill="#ca7070"/>
      <path id="_Path_" data-name="&lt;Path&gt;" d="M960.644,768.13l-4.139.488a1.369,1.369,0,0,1-.274,1.1c-.482.709-1.509,1.619-.951,1.822l5.679-.671Z" transform="translate(-739.271 -589.477)" fill="#00695c"/>
      <path id="Path_9133" data-name="Path 9133" d="M956.562,770.926a1.37,1.37,0,0,0,.274-1.1l-.3.036a1.369,1.369,0,0,1-.274,1.1c-.482.71-1.509,1.619-.951,1.822l.3-.036C955.056,772.545,956.083,771.635,956.562,770.926Z" transform="translate(-739.292 -590.712)" fill="#fff" opacity="0.2"/>
      <path id="_Path_2" data-name="&lt;Path&gt;" d="M1016.6,758.65l-3.805,1.1a1.986,1.986,0,0,1-.014,1.383c-.318.929-1.137,2.172-.548,2.345l5.5-1.57Z" transform="translate(-780.586 -582.594)" fill="#00695c"/>
      <path id="Path_9134" data-name="Path 9134" d="M991.6,572.409s6.082,13.45-.433,22.066l-2.339-1.389s2.589-15.773-.293-19.063C992.7,572.067,991.6,572.409,991.6,572.409Z" transform="translate(-763.529 -447.355)" fill="#00695c"/>
      <path id="Path_9135" data-name="Path 9135" d="M987.692,570.464s-.989-.644-.249-2.1,2.518-.6,2.518-.6.822,1.882.274,2.4S987.692,570.464,987.692,570.464Z" transform="translate(-762.54 -443.816)" fill="#ca7070"/>
      <path id="Path_9136" data-name="Path 9136" d="M1013.079,761.1a1.986,1.986,0,0,0,.014-1.383l3.52-1.011-.016-.047-3.805,1.1a1.986,1.986,0,0,1-.014,1.383c-.318.929-1.137,2.172-.548,2.345l.23-.066C1012.016,763.161,1012.772,761.988,1013.079,761.1Z" transform="translate(-780.586 -582.602)" fill="#fff" opacity="0.2"/>
      <rect id="Rectangle_5724" data-name="Rectangle 5724" width="4.232" height="6.273" rx="2.116" transform="matrix(0.993, -0.117, 0.117, 0.993, 220.766, 139.111)" fill="#ca7070"/>
      <path id="Path_9137" data-name="Path 9137" d="M989.112,600.591s2.556-15.579-.241-19a1.97,1.97,0,0,1-.351-.027l-.044-.033-.107.049c2.882,3.287.293,19.063.293,19.063L991,602.032c.055-.074.11-.148.162-.225Z" transform="translate(-763.413 -453.995)" fill="#fff" opacity="0.2"/>
      <circle id="Ellipse_295" data-name="Ellipse 295" cx="4.687" cy="4.687" r="4.687" transform="matrix(0.993, -0.117, 0.117, 0.993, 217.444, 132.272)" fill="#ca7070"/>
      <path id="Path_9138" data-name="Path 9138" d="M966.633,608.228l-.238-2.027a2.1,2.1,0,0,1,0-.447,4.687,4.687,0,0,1,.822-9l-.274.022a4.687,4.687,0,0,0-1.1,9.04,2.1,2.1,0,0,0,0,.447l.238,2.027a2.1,2.1,0,0,0,2.611,1.805A2.123,2.123,0,0,1,966.633,608.228Z" transform="translate(-744.857 -465.045)" fill="#fff" opacity="0.2"/>
      <path id="Path_9139" data-name="Path 9139" d="M977.365,651.662s-8.856,2.074-9.314,1.1A19.979,19.979,0,0,1,966.545,640a4.687,4.687,0,0,1,4.109-5.2h0a4.687,4.687,0,0,1,5.2,4.109Z" transform="translate(-747.25 -492.643)" fill="#00695c"/>
      <path id="Path_9140" data-name="Path 9140" d="M969.864,696.46l6.246,18.138-4.054.479-5.835-13.316s-4.989,2.874-5.808,7.536.822,7.057.822,7.057l-4.334.526-.068-.2a19.491,19.491,0,0,1,3.723-19.11h0" transform="translate(-739.749 -537.441)" fill="#263238"/>
      <path id="Path_9141" data-name="Path 9141" d="M968.387,652.758A19.979,19.979,0,0,1,966.88,640a4.687,4.687,0,0,1,3.805-5.158,1.244,1.244,0,0,0-.3.025h0a4.687,4.687,0,0,0-4.109,5.2,19.977,19.977,0,0,0,1.507,12.76c.162.348,1.4.307,2.926.11C969.474,653.068,968.526,653.06,968.387,652.758Z" transform="translate(-747.054 -492.701)" fill="#fff" opacity="0.2"/>
      <path id="Path_9142" data-name="Path 9142" d="M932.8,605.65s-13-6.988-13.061-17.79l2.7-.32s8.106,13.2,12.393,14.064S932.8,605.65,932.8,605.65Z" transform="translate(-713.584 -458.358)" fill="#00695c"/>
      <g id="Group_15982" data-name="Group 15982" transform="translate(216.039 160.123)" opacity="0.2">
        <path id="Path_9143" data-name="Path 9143" d="M994.35,716.165l5.728,13.072.6-.071-5.835-13.316S994.657,715.951,994.35,716.165Z" transform="translate(-983.794 -711.642)" fill="#fff"/>
        <path id="Path_9144" data-name="Path 9144" d="M961.2,700.49h0l-.6.071h0a19.491,19.491,0,0,0-3.723,19.11l.068.2.6-.071-.068-.2A19.491,19.491,0,0,1,961.2,700.49Z" transform="translate(-955.817 -700.49)" fill="#fff"/>
      </g>
      <path id="Path_9145" data-name="Path 9145" d="M920.249,589.06l-.449.052c.057,10.8,13.061,17.79,13.061,17.79l.274-.148C931.634,605.894,920.3,599.135,920.249,589.06Z" transform="translate(-713.627 -459.462)" fill="#fff" opacity="0.2"/>
      <path id="Path_9146" data-name="Path 9146" d="M956.647,594.448a7.566,7.566,0,0,1,.764,1.808,5.061,5.061,0,0,0,2.517,3.03,4.758,4.758,0,0,0,2.159.323,4.017,4.017,0,0,0,2.983-1.3,3.86,3.86,0,0,0,.721-2.016,6.487,6.487,0,0,0-2.394-5.723,5.759,5.759,0,0,0-6.1-.548,5.73,5.73,0,0,1-1.082.548,1.893,1.893,0,0,1-1.712-.353,1.046,1.046,0,0,0,1.164,1.227,2.92,2.92,0,0,1-2.211.384,1.9,1.9,0,0,0,2.482.671,6.393,6.393,0,0,1-2.627.866c.195-.019.614.29.857.331a5.154,5.154,0,0,0,.9-.041A1.745,1.745,0,0,1,956.647,594.448Z" transform="translate(-737.958 -459.705)" fill="#263238"/>
      <g id="Group_15983" data-name="Group 15983" transform="translate(215.35 129.713)" opacity="0.2">
        <path id="Path_9147" data-name="Path 9147" d="M958.776,593.637a2.89,2.89,0,0,1-1.068.411,2.91,2.91,0,0,0,1.37-.447,1.06,1.06,0,0,1-1.189-1.008,1.782,1.782,0,0,1-.274-.184,1.046,1.046,0,0,0,1.161,1.227Z" transform="translate(-956.42 -591.607)" fill="#fff"/>
        <path id="Path_9148" data-name="Path 9148" d="M963.787,590.6a5.734,5.734,0,0,0,1.082-.548,5.205,5.205,0,0,1,1.75-.573,5.27,5.27,0,0,0-2.049.605,5.724,5.724,0,0,1-1.082.548c-.052.016-.107.025-.159.036A1.8,1.8,0,0,0,963.787,590.6Z" transform="translate(-960.582 -589.48)" fill="#fff"/>
        <path id="Path_9149" data-name="Path 9149" d="M954.459,601.827c-.244-.041-.663-.351-.857-.331a6.393,6.393,0,0,0,2.627-.866,1.673,1.673,0,0,1-.589.2,6.4,6.4,0,0,1-2.339.7c.195-.019.614.29.857.331a2.014,2.014,0,0,0,.63-.025A1.312,1.312,0,0,1,954.459,601.827Z" transform="translate(-953.3 -597.576)" fill="#fff"/>
        <path id="Path_9150" data-name="Path 9150" d="M966.65,610.769a4.758,4.758,0,0,1-2.159-.323,5.092,5.092,0,0,1-2.518-3.03,7.649,7.649,0,0,0-.764-1.808,1.745,1.745,0,0,0-1.583-.789,3.008,3.008,0,0,0-.447.041h.148a1.745,1.745,0,0,1,1.583.789,7.565,7.565,0,0,1,.764,1.808,5.062,5.062,0,0,0,2.518,3.03,4.76,4.76,0,0,0,2.159.323,3.8,3.8,0,0,0,.523-.052Z" transform="translate(-957.569 -600.614)" fill="#fff"/>
        <path id="Path_9151" data-name="Path 9151" d="M955.825,599.139a1.918,1.918,0,0,1-1.644-.794,2.793,2.793,0,0,1-.362-.055A1.918,1.918,0,0,0,955.825,599.139Z" transform="translate(-953.678 -595.877)" fill="#fff"/>
      </g>
      <path id="Path_9152" data-name="Path 9152" d="M918.647,580.833s-.989-.644-.249-2.1a1.449,1.449,0,0,1,1.033-.822,1.468,1.468,0,0,0-1.331.849c-.742,1.457.249,2.1.249,2.1a8.2,8.2,0,0,0,1.789,0A8.942,8.942,0,0,1,918.647,580.833Z" transform="translate(-712.192 -451.366)" fill="#fff" opacity="0.2"/>
      <path id="_Path_3" data-name="&lt;Path&gt;" d="M570.49,768.38h4.167a1.37,1.37,0,0,0,.394,1.071c.562.649,1.687,1.43,1.159,1.7h-5.72Z" transform="translate(-460.007 -589.659)" fill="#f7a51a"/>
      <path id="Path_9153" data-name="Path 9153" d="M584.944,769.451a1.37,1.37,0,0,1-.394-1.071h.3a1.37,1.37,0,0,0,.395,1.071c.562.649,1.687,1.43,1.159,1.7h-.3C586.639,770.881,585.514,770.1,584.944,769.451Z" transform="translate(-470.212 -589.659)" fill="#fff" opacity="0.2"/>
      <path id="_Path_4" data-name="&lt;Path&gt;" d="M514.313,765.24l3.906.638a1.986,1.986,0,0,0,.178,1.37c.425.885,1.37,2.022.808,2.266l-5.646-.912Z" transform="translate(-418.673 -587.379)" fill="#f7a51a"/>
      <path id="Path_9154" data-name="Path 9154" d="M520.064,767.268a1.986,1.986,0,0,1-.178-1.37l-3.616-.592v-.047l3.906.638a1.986,1.986,0,0,0,.178,1.37c.425.885,1.37,2.022.808,2.266l-.236-.038C521.362,769.188,520.469,768.112,520.064,767.268Z" transform="translate(-420.64 -587.394)" fill="#fff" opacity="0.2"/>
      <rect id="Rectangle_5725" data-name="Rectangle 5725" width="4.232" height="6.273" rx="2.116" transform="translate(106.45 145.662) rotate(180)" fill="#985454"/>
      <circle id="Ellipse_296" data-name="Ellipse 296" cx="4.687" cy="4.687" r="4.687" transform="translate(99.572 132.206)" fill="#985454"/>
      <path id="Path_9155" data-name="Path 9155" d="M548.729,609.97v-2.041a2.1,2.1,0,0,0-.049-.444,4.687,4.687,0,0,0-1.879-8.846h.274a4.687,4.687,0,0,1,2.145,8.854,2.1,2.1,0,0,1,.049.444v2.033a2.1,2.1,0,0,1-2.381,2.1A2.123,2.123,0,0,0,548.729,609.97Z" transform="translate(-442.807 -466.418)" fill="#fff" opacity="0.2"/>
      <path id="Path_9156" data-name="Path 9156" d="M530.39,654.518s9.04,1.022,9.374,0a20,20,0,0,0,0-12.85,4.687,4.687,0,0,0-4.687-4.687h0a4.687,4.687,0,0,0-4.687,4.663Z" transform="translate(-430.892 -494.255)" fill="#f7a51a"/>
      <path id="Path_9157" data-name="Path 9157" d="M519.572,701l-4.082,18.746h4.082l4.232-13.908s5.292,2.268,6.651,6.8,0,7.106,0,7.106h4.383l.044-.2A19.491,19.491,0,0,0,528.943,701h0" transform="translate(-420.074 -540.737)" fill="#263238"/>
      <path id="Path_9158" data-name="Path 9158" d="M551.056,654.547a20,20,0,0,0,0-12.851,4.687,4.687,0,0,0-4.382-4.676h.3a4.687,4.687,0,0,1,4.687,4.652,19.993,19.993,0,0,1,0,12.85c-.121.364-1.356.468-2.893.452C550.015,654.969,550.952,654.851,551.056,654.547Z" transform="translate(-442.715 -494.284)" fill="#fff" opacity="0.2"/>
      <g id="Group_15984" data-name="Group 15984" transform="translate(98.89 160.326)" opacity="0.2">
        <path id="Path_9159" data-name="Path 9159" d="M532.931,719.145,528.775,732.8h-.605L532.4,718.89S532.605,718.975,532.931,719.145Z" transform="translate(-528.17 -714.052)" fill="#fff"/>
        <path id="Path_9160" data-name="Path 9160" d="M562.39,701.23H563a19.491,19.491,0,0,1,5.939,18.543l-.044.2h-.605l.044-.2A19.491,19.491,0,0,0,562.39,701.23Z" transform="translate(-553.016 -701.23)" fill="#fff"/>
      </g>
      <path id="Path_9161" data-name="Path 9161" d="M543.357,609s13.681-5.547,14.9-16.28l-2.652-.608s-9.481,12.251-13.837,12.645S543.357,609,543.357,609Z" transform="translate(-437.997 -461.676)" fill="#f7a51a"/>
      <path id="Path_9162" data-name="Path 9162" d="M565.4,594.5l.441.1c-1.222,10.733-14.9,16.28-14.9,16.28l-.274-.178C552.276,610.01,564.256,604.5,565.4,594.5Z" transform="translate(-445.609 -463.412)" fill="#fff" opacity="0.2"/>
      <path id="Path_9163" data-name="Path 9163" d="M598.351,586.855s1.052-.534.474-2.063-2.438-.868-2.438-.868-1.03,1.781-.548,2.359S598.351,586.855,598.351,586.855Z" transform="translate(-478.319 -455.63)" fill="#985454"/>
      <path id="Path_9164" data-name="Path 9164" d="M600.335,586.873s1.052-.534.474-2.063a1.449,1.449,0,0,0-.94-.92,1.468,1.468,0,0,1,1.233.989c.581,1.529-.474,2.063-.474,2.063a8.2,8.2,0,0,1-1.778-.2A8.943,8.943,0,0,0,600.335,586.873Z" transform="translate(-480.598 -455.708)" fill="#fff" opacity="0.2"/>
      <path id="Path_9165" data-name="Path 9165" d="M530.747,599.894l-.274,6.3H523.86v-3.326c0-6.717,7.1-9.267,11.1-3.868A41.5,41.5,0,0,1,530.747,599.894Z" transform="translate(-426.151 -464.559)" fill="#263238"/>
      <path id="Path_9166" data-name="Path 9166" d="M543.64,596.111a6.683,6.683,0,0,1,4.78,2.9,41.211,41.211,0,0,1-4.2.9l-.3,6.3h.915l.3-6.3a40.5,40.5,0,0,0,4.2-.9A6.474,6.474,0,0,0,543.64,596.111Z" transform="translate(-440.513 -464.568)" fill="#fff" opacity="0.2"/>
    </g>
  </g>
</svg>
