<svg xmlns="http://www.w3.org/2000/svg" width="517.721" height="548.099" viewBox="0 0 517.721 548.099">
  <g id="Group_14905" data-name="Group 14905" transform="matrix(-0.695, 0.719, -0.719, -0.695, 651.987, 246.36)" style="mix-blend-mode: multiply;isolation: isolate">
    <text id="TERRACE_" data-name="TERRACE " transform="translate(246.246 110.855)" fill="#f7f9f9" font-size="9" font-family="Quicksand-Bold, Quicksand" font-weight="700"><tspan x="0" y="0">TERRACE </tspan></text>
    <text id="BEDROOM_" data-name="BEDROOM " transform="translate(384.045 386.255)" fill="#f7f9f9" font-size="9" font-family="Quicksand-Bold, Quicksand" font-weight="700"><tspan x="0" y="0">BEDROOM </tspan></text>
    <text id="DRESSING_ROOM" data-name="DRESSING
ROOM" transform="translate(319.091 356.392)" fill="#f7f9f9" font-size="9" font-family="Quicksand-Bold, Quicksand" font-weight="700"><tspan x="-21.933" y="0">DRESSING</tspan><tspan x="-13.563" y="11">ROOM</tspan></text>
    <text id="BATHROOM_" data-name="BATHROOM " transform="translate(127.264 352.554)" fill="#f7f9f9" font-size="9" font-family="Quicksand-Bold, Quicksand" font-weight="700"><tspan x="0" y="0">BATHROOM </tspan></text>
    <text id="LIVING_ROOM" data-name="LIVING
ROOM" transform="translate(249.256 214.964)" fill="#f7f9f9" font-size="9" font-family="Quicksand-Bold, Quicksand" font-weight="700"><tspan x="-14.494" y="0">LIVING</tspan><tspan x="-13.563" y="11">ROOM</tspan></text>
    <path id="Path_16" data-name="Path 16" d="M171.676,152.8h31.6s2.054-28.458-31.6-28.085" transform="translate(17.198 11.882)" fill="none" stroke="#dbdbdb" stroke-linejoin="round" stroke-width="1.098"/>
    <path id="Path_17" data-name="Path 17" d="M176.486,196.235h-31.6s-2.054-28.459,31.6-28.086" transform="translate(11.867 20.519)" fill="none" stroke="#dbdbdb" stroke-linejoin="round" stroke-width="1.098"/>
    <path id="Path_18" data-name="Path 18" d="M212.213,319.351h-31.6s-2.055-28.459,31.6-28.086" transform="translate(18.972 45.004)" fill="none" stroke="#dbdbdb" stroke-linejoin="round" stroke-width="1.098"/>
    <path id="Path_19" data-name="Path 19" d="M220.9,383.169v-31.6s28.458-2.055,28.085,31.6" transform="translate(26.988 56.993)" fill="none" stroke="#dbdbdb" stroke-linejoin="round" stroke-width="1.098"/>
    <path id="Path_20" data-name="Path 20" d="M258.071,234.493h31.6s2.055,28.459-31.6,28.085" transform="translate(34.38 33.714)" fill="none" stroke="#dbdbdb" stroke-linejoin="round" stroke-width="1.098"/>
    <path id="Path_21" data-name="Path 21" d="M223.863,156.586v-31.6s28.459-2.055,28.086,31.6" transform="translate(27.577 11.932)" fill="none" stroke="#dbdbdb" stroke-linejoin="round" stroke-width="1.098"/>
    <rect id="Rectangle_4" data-name="Rectangle 4" width="12.988" height="23.378" transform="translate(400.769 357.815) rotate(-90)" fill="none" stroke="#dbdbdb" stroke-miterlimit="10" stroke-width="1.14"/>
    <g id="Group_31" data-name="Group 31" transform="translate(292.722 397.457)">
      <rect id="Rectangle_5" data-name="Rectangle 5" width="62.621" height="22.421" fill="none" stroke="#dbdbdb" stroke-miterlimit="10" stroke-width="1.098"/>
      <line id="Line_248" data-name="Line 248" y1="22.421" x2="62.621" fill="none" stroke="#dbdbdb" stroke-miterlimit="10" stroke-width="1.098"/>
      <line id="Line_249" data-name="Line 249" x2="62.621" y2="22.421" fill="none" stroke="#dbdbdb" stroke-miterlimit="10" stroke-width="1.098"/>
    </g>
    <g id="Group_32" data-name="Group 32" transform="translate(409.72 64.969)">
      <rect id="Rectangle_6" data-name="Rectangle 6" width="68.951" height="16.206" transform="translate(68.951 16.206) rotate(180)" fill="none" stroke="#dbdbdb" stroke-miterlimit="10" stroke-width="1.193"/>
      <line id="Line_250" data-name="Line 250" x1="68.951" y2="16.206" transform="translate(0 0)" fill="none" stroke="#dbdbdb" stroke-miterlimit="10" stroke-width="1.193"/>
      <line id="Line_251" data-name="Line 251" x1="68.951" y1="16.206" transform="translate(0 0)" fill="none" stroke="#dbdbdb" stroke-miterlimit="10" stroke-width="1.193"/>
    </g>
    <g id="Group_33" data-name="Group 33" transform="translate(340.769 64.969)">
      <rect id="Rectangle_7" data-name="Rectangle 7" width="68.952" height="16.206" transform="translate(68.952 16.206) rotate(180)" fill="none" stroke="#dbdbdb" stroke-miterlimit="10" stroke-width="1.193"/>
      <line id="Line_252" data-name="Line 252" x1="68.952" y2="16.206" transform="translate(0 0)" fill="none" stroke="#dbdbdb" stroke-miterlimit="10" stroke-width="1.193"/>
      <line id="Line_253" data-name="Line 253" x1="68.952" y1="16.206" transform="translate(0 0)" fill="none" stroke="#dbdbdb" stroke-miterlimit="10" stroke-width="1.193"/>
    </g>
    <g id="Group_34" data-name="Group 34" transform="translate(378.327 253.546)">
      <rect id="Rectangle_8" data-name="Rectangle 8" width="83.122" height="68.264" transform="translate(0 83.122) rotate(-90)" fill="none" stroke="#dbdbdb" stroke-miterlimit="10" stroke-width="1.14"/>
      <rect id="Rectangle_9" data-name="Rectangle 9" width="68.264" height="15.735" transform="translate(68.264 15.735) rotate(180)" fill="none" stroke="#dbdbdb" stroke-miterlimit="10" stroke-width="1.14"/>
    </g>
    <rect id="Rectangle_10" data-name="Rectangle 10" width="18.558" height="18.558" transform="translate(471.796 272.104) rotate(180)" fill="none" stroke="#dbdbdb" stroke-miterlimit="10" stroke-width="1.14"/>
    <rect id="Rectangle_11" data-name="Rectangle 11" width="18.558" height="18.558" transform="translate(371.74 272.104) rotate(180)" fill="none" stroke="#dbdbdb" stroke-miterlimit="10" stroke-width="1.14"/>
    <g id="Group_35" data-name="Group 35" transform="translate(293.03 324.385)">
      <path id="Path_22" data-name="Path 22" d="M317.064,281.352h3.8v72.3H258.554v-72.3H290.3" transform="translate(-258.554 -281.352)" fill="none" stroke="#dbdbdb" stroke-miterlimit="10" stroke-width="1.483"/>
    </g>
    <path id="Path_23" data-name="Path 23" d="M448.38,325.632v20.83l-124.683-.05v41.611l-79.371-.032" transform="translate(31.646 51.839)" fill="none" stroke="#dbdbdb" stroke-miterlimit="10" stroke-width="3"/>
    <line id="Line_254" data-name="Line 254" y2="154.738" transform="translate(480.026 144.407)" fill="none" stroke="#dbdbdb" stroke-miterlimit="10" stroke-width="3"/>
    <path id="Path_24" data-name="Path 24" d="M162.718,107.193h10.218V65.632H464.609V95.055" transform="translate(15.417 0.132)" fill="none" stroke="#dbdbdb" stroke-miterlimit="10" stroke-width="3"/>
    <path id="Path_25" data-name="Path 25" d="M247.887,432.794l-17.561-.007V391.226H85.2V100.3H98.559" transform="translate(0 7.026)" fill="none" stroke="#dbdbdb" stroke-miterlimit="10" stroke-width="3"/>
    <path id="Path_26" data-name="Path 26" d="M246.742,169.057H307.93V65.678" transform="translate(32.127 0.141)" fill="none" stroke="#dbdbdb" stroke-miterlimit="10" stroke-width="3"/>
    <path id="Path_27" data-name="Path 27" d="M171.241,148.145v4.512h63.687" transform="translate(17.112 16.542)" fill="none" stroke="#dbdbdb" stroke-miterlimit="10" stroke-width="3"/>
    <line id="Line_255" data-name="Line 255" y2="29.276" transform="translate(188.353 107.325)" fill="none" stroke="#dbdbdb" stroke-miterlimit="10" stroke-width="3"/>
    <line id="Line_256" data-name="Line 256" y1="19.47" transform="translate(188.353 169.198)" fill="none" stroke="#dbdbdb" stroke-miterlimit="10" stroke-width="3"/>
    <path id="Path_28" data-name="Path 28" d="M85.2,269.171H188.353v-77.6" transform="translate(0 25.179)" fill="none" stroke="#dbdbdb" stroke-miterlimit="10" stroke-width="3"/>
    <line id="Line_257" data-name="Line 257" y2="34.518" transform="translate(230.275 363.734)" fill="none" stroke="#dbdbdb" stroke-miterlimit="10" stroke-width="3"/>
    <path id="Path_29" data-name="Path 29" d="M171.241,256.3h41.922v41.919" transform="translate(17.112 38.051)" fill="none" stroke="#dbdbdb" stroke-miterlimit="10" stroke-width="3"/>
    <path id="Path_30" data-name="Path 30" d="M257.351,237.051V221.632H445.334" transform="translate(34.237 31.156)" fill="none" stroke="#dbdbdb" stroke-miterlimit="10" stroke-width="3"/>
    <path id="Path_31" data-name="Path 31" d="M321.106,359.879l-63.755.05V257.919" transform="translate(34.237 38.373)" fill="none" stroke="#dbdbdb" stroke-miterlimit="10" stroke-width="3"/>
    <line id="Line_258" data-name="Line 258" x1="28.085" y1="0.011" transform="translate(247.887 439.82)" fill="none" stroke="#dbdbdb" stroke-linecap="round" stroke-linejoin="round" stroke-width="1" stroke-dasharray="7 11"/>
    <line id="Line_259" data-name="Line 259" x1="0.011" y2="28.085" transform="translate(230.939 334.899)" fill="none" stroke="#dbdbdb" stroke-linecap="round" stroke-linejoin="round" stroke-width="1" stroke-dasharray="7 11"/>
    <line id="Line_260" data-name="Line 260" x1="0.011" y2="28.085" transform="translate(291.583 267.636)" fill="none" stroke="#dbdbdb" stroke-linecap="round" stroke-linejoin="round" stroke-width="1" stroke-dasharray="7 11"/>
    <line id="Line_261" data-name="Line 261" x1="28.085" y1="0.011" transform="translate(324.038 324.39)" fill="none" stroke="#dbdbdb" stroke-linecap="round" stroke-linejoin="round" stroke-width="1" stroke-dasharray="7 11"/>
    <path id="Path_32" data-name="Path 32" d="M284.417,286.6V255s28.458-2.055,28.085,31.6" transform="translate(39.62 37.788)" fill="none" stroke="#dbdbdb" stroke-linejoin="round" stroke-width="1.098"/>
    <line id="Line_262" data-name="Line 262" x1="0.011" y2="28.085" transform="translate(188.342 188.666)" fill="none" stroke="#dbdbdb" stroke-linecap="round" stroke-linejoin="round" stroke-width="1" stroke-dasharray="7 11"/>
    <line id="Line_263" data-name="Line 263" x1="28.085" y1="0.011" transform="translate(251.235 169.661)" fill="none" stroke="#dbdbdb" stroke-linecap="round" stroke-linejoin="round" stroke-width="1" stroke-dasharray="7 11"/>
    <line id="Line_264" data-name="Line 264" x1="0.011" y2="28.085" transform="translate(188.335 136.211)" fill="none" stroke="#dbdbdb" stroke-linecap="round" stroke-linejoin="round" stroke-width="1" stroke-dasharray="7 11"/>
    <g id="Group_41" data-name="Group 41" transform="translate(85.197 294.35)">
      <g id="Group_36" data-name="Group 36" transform="translate(71.167 80.148)">
        <rect id="Rectangle_12" data-name="Rectangle 12" width="73.291" height="22.421" transform="translate(73.291 22.421) rotate(180)" fill="none" stroke="#dbdbdb" stroke-miterlimit="10" stroke-width="1.098"/>
        <line id="Line_265" data-name="Line 265" x1="73.291" y2="22.421" fill="none" stroke="#dbdbdb" stroke-miterlimit="10" stroke-width="1.098"/>
        <line id="Line_266" data-name="Line 266" x1="73.291" y1="22.421" fill="none" stroke="#dbdbdb" stroke-miterlimit="10" stroke-width="1.098"/>
      </g>
      <g id="Group_37" data-name="Group 37" transform="translate(20.78 73.569)">
        <rect id="Rectangle_13" data-name="Rectangle 13" width="22.937" height="9.62" transform="translate(0 20.126)" fill="none" stroke="#dbdbdb" stroke-miterlimit="10" stroke-width="1.021"/>
        <path id="Path_33" data-name="Path 33" d="M105.474,337.609a13.377,13.377,0,0,1-2.338-7.655c0-6.788,4.81-12.29,10.742-12.29s10.743,5.5,10.743,12.29a13.355,13.355,0,0,1-2.456,7.821" transform="translate(-102.41 -317.664)" fill="none" stroke="#dbdbdb" stroke-miterlimit="10" stroke-width="1.021"/>
      </g>
      <g id="Group_38" data-name="Group 38">
        <path id="Path_34" data-name="Path 34" d="M107.2,288.628A12.862,12.862,0,0,1,94.34,275.766h0A12.863,12.863,0,0,1,107.2,262.9h35.473a12.863,12.863,0,0,1,12.863,12.863h0a12.862,12.862,0,0,1-12.863,12.863Z" transform="translate(-83.379 -254.986)" fill="none" stroke="#dbdbdb" stroke-miterlimit="10" stroke-width="1.098"/>
        <rect id="Rectangle_14" data-name="Rectangle 14" width="83.122" height="41.561" fill="none" stroke="#dbdbdb" stroke-miterlimit="10" stroke-width="1.093"/>
      </g>
      <g id="Group_40" data-name="Group 40" transform="translate(109.397)">
        <ellipse id="Ellipse_1" data-name="Ellipse 1" cx="13.188" cy="9.379" rx="13.188" ry="9.379" fill="none" stroke="#dbdbdb" stroke-miterlimit="10" stroke-width="1.021"/>
        <g id="Group_39" data-name="Group 39" transform="translate(8.975 1.312)">
          <rect id="Rectangle_15" data-name="Rectangle 15" width="2.232" height="8.016" transform="translate(3.097 0.936)" fill="none" stroke="#dbdbdb" stroke-miterlimit="10" stroke-width="1.021"/>
          <rect id="Rectangle_16" data-name="Rectangle 16" width="2.232" height="3.613" fill="none" stroke="#dbdbdb" stroke-miterlimit="10" stroke-width="0.685"/>
          <rect id="Rectangle_17" data-name="Rectangle 17" width="2.232" height="3.613" transform="translate(5.553)" fill="none" stroke="#dbdbdb" stroke-miterlimit="10" stroke-width="0.685"/>
        </g>
      </g>
    </g>
    <g id="Group_47" data-name="Group 47" transform="translate(189.099 101.282)">
      <g id="Group_42" data-name="Group 42" transform="translate(176.592 68.21)">
        <rect id="Rectangle_18" data-name="Rectangle 18" width="36.708" height="72.732" transform="translate(36.708 72.732) rotate(180)" fill="none" stroke="#dbdbdb" stroke-miterlimit="10" stroke-width="1.098"/>
        <path id="Path_35" data-name="Path 35" d="M329.551,152.153v72.732h-10.39V152.153" transform="translate(-319.161 -152.153)" fill="none" stroke="#dbdbdb" stroke-miterlimit="10" stroke-width="1.098"/>
        <line id="Line_267" data-name="Line 267" x1="36.266" transform="translate(0.442 36.366)" fill="none" stroke="#dbdbdb" stroke-miterlimit="10" stroke-width="1.098"/>
      </g>
      <rect id="Rectangle_19" data-name="Rectangle 19" width="25.976" height="46.756" transform="translate(253.708 125.557) rotate(180)" fill="none" stroke="#dbdbdb" stroke-miterlimit="10" stroke-width="1.098"/>
      <g id="Group_43" data-name="Group 43" transform="translate(270.146 63.015)">
        <rect id="Rectangle_20" data-name="Rectangle 20" width="9.817" height="59.733" transform="translate(15.448 70.161) rotate(180)" fill="none" stroke="#dbdbdb" stroke-miterlimit="10" stroke-width="1.098"/>
        <rect id="Rectangle_21" data-name="Rectangle 21" width="21.08" height="80.589" transform="translate(21.08 80.589) rotate(180)" fill="none" stroke="#dbdbdb" stroke-miterlimit="10" stroke-width="0.903"/>
      </g>
      <g id="Group_44" data-name="Group 44" transform="translate(103.203 128.259)">
        <rect id="Rectangle_22" data-name="Rectangle 22" width="63.83" height="22.421" transform="translate(63.83 22.421) rotate(180)" fill="none" stroke="#dbdbdb" stroke-miterlimit="10" stroke-width="1.098"/>
        <line id="Line_268" data-name="Line 268" x1="63.83" y2="22.421" transform="translate(0 0)" fill="none" stroke="#dbdbdb" stroke-miterlimit="10" stroke-width="1.098"/>
        <line id="Line_269" data-name="Line 269" x1="63.83" y1="22.421" transform="translate(0 0)" fill="none" stroke="#dbdbdb" stroke-miterlimit="10" stroke-width="1.098"/>
      </g>
      <g id="Group_45" data-name="Group 45" transform="translate(0 67.521)">
        <rect id="Rectangle_23" data-name="Rectangle 23" width="57.159" height="20.077" transform="translate(57.159 20.077) rotate(180)" fill="none" stroke="#dbdbdb" stroke-miterlimit="10" stroke-width="1.098"/>
        <line id="Line_270" data-name="Line 270" x1="57.159" y2="20.077" transform="translate(0)" fill="none" stroke="#dbdbdb" stroke-miterlimit="10" stroke-width="1.098"/>
        <line id="Line_271" data-name="Line 271" x1="57.159" y1="20.077" transform="translate(0)" fill="none" stroke="#dbdbdb" stroke-miterlimit="10" stroke-width="1.098"/>
      </g>
      <g id="Group_46" data-name="Group 46" transform="translate(184.375)">
        <path id="Path_36" data-name="Path 36" d="M333.08,125.042a7.5,7.5,0,0,1,0-15.009" transform="translate(-325.654 -92.32)" fill="none" stroke="#dbdbdb" stroke-linecap="round" stroke-linejoin="round" stroke-width="1.193"/>
        <path id="Path_37" data-name="Path 37" d="M345.176,102.684a7.5,7.5,0,0,1,15.009,0" transform="translate(-321.772 -95.258)" fill="none" stroke="#dbdbdb" stroke-linecap="round" stroke-linejoin="round" stroke-width="1.193"/>
        <path id="Path_38" data-name="Path 38" d="M364.786,102.684a7.5,7.5,0,0,1,15.009,0" transform="translate(-317.872 -95.258)" fill="none" stroke="#dbdbdb" stroke-linecap="round" stroke-linejoin="round" stroke-width="1.193"/>
        <path id="Path_39" data-name="Path 39" d="M379.795,131.23a7.5,7.5,0,0,1-15.009,0" transform="translate(-317.872 -88.104)" fill="none" stroke="#dbdbdb" stroke-linecap="round" stroke-linejoin="round" stroke-width="1.193"/>
        <path id="Path_40" data-name="Path 40" d="M360.185,131.23a7.5,7.5,0,0,1-15.009,0" transform="translate(-321.772 -88.104)" fill="none" stroke="#dbdbdb" stroke-linecap="round" stroke-linejoin="round" stroke-width="1.193"/>
        <path id="Path_41" data-name="Path 41" d="M390.335,110.033a7.5,7.5,0,0,1,0,15.009" transform="translate(-312.791 -92.32)" fill="none" stroke="#dbdbdb" stroke-linecap="round" stroke-linejoin="round" stroke-width="1.193"/>
        <path id="Path_42" data-name="Path 42" d="M348.7,137.036a17.792,17.792,0,0,1-17.792-17.791h0A17.792,17.792,0,0,1,348.7,101.452h37.14a17.792,17.792,0,0,1,17.792,17.792h0a17.791,17.791,0,0,1-17.792,17.791Z" transform="translate(-324.609 -94.026)" fill="none" stroke="#dbdbdb" stroke-miterlimit="10" stroke-width="1.193"/>
      </g>
    </g>
    <g id="Group_58" data-name="Group 58" transform="translate(85.197 121.568)">
      <text id="KITCHEN" transform="translate(38.863 58.807)" fill="#f7f9f9" font-size="9" font-family="Quicksand-Bold, Quicksand" font-weight="700"><tspan x="0" y="0">KITCHEN</tspan></text>
      <rect id="Rectangle_24" data-name="Rectangle 24" width="31.179" height="30.852" transform="translate(0.159 172.905) rotate(-90)" fill="none" stroke="#dbdbdb" stroke-miterlimit="10" stroke-width="1.098"/>
      <g id="Group_53" data-name="Group 53" transform="translate(0.159 48.105)">
        <rect id="Rectangle_25" data-name="Rectangle 25" width="31.179" height="30.852" transform="translate(0 31.179) rotate(-90)" fill="none" stroke="#dbdbdb" stroke-miterlimit="10" stroke-width="1.098"/>
        <g id="Group_52" data-name="Group 52" transform="translate(4.228 4.623)">
          <g id="Group_48" data-name="Group 48" transform="translate(14.396)">
            <path id="Path_43" data-name="Path 43" d="M104.757,156.16a3.935,3.935,0,1,1-3.893,3.935A3.914,3.914,0,0,1,104.757,156.16Z" transform="translate(-100.864 -156.16)" fill="none" stroke="#dbdbdb" stroke-miterlimit="10" stroke-width="1.098"/>
            <path id="Path_44" data-name="Path 44" d="M104.386,158.042a1.679,1.679,0,1,1-1.66,1.678A1.67,1.67,0,0,1,104.386,158.042Z" transform="translate(-100.494 -155.786)" fill="none" stroke="#dbdbdb" stroke-miterlimit="10" stroke-width="1.098"/>
          </g>
          <g id="Group_49" data-name="Group 49">
            <path id="Path_45" data-name="Path 45" d="M92.749,156.16a3.935,3.935,0,1,1-3.893,3.935A3.914,3.914,0,0,1,92.749,156.16Z" transform="translate(-88.856 -156.16)" fill="none" stroke="#dbdbdb" stroke-miterlimit="10" stroke-width="1.098"/>
            <path id="Path_46" data-name="Path 46" d="M92.378,158.042a1.679,1.679,0,1,1-1.66,1.678A1.67,1.67,0,0,1,92.378,158.042Z" transform="translate(-88.486 -155.786)" fill="none" stroke="#dbdbdb" stroke-miterlimit="10" stroke-width="1.098"/>
          </g>
          <g id="Group_50" data-name="Group 50" transform="translate(14.396 14.034)">
            <path id="Path_47" data-name="Path 47" d="M104.757,167.866a3.935,3.935,0,1,1-3.893,3.935A3.914,3.914,0,0,1,104.757,167.866Z" transform="translate(-100.864 -167.866)" fill="none" stroke="#dbdbdb" stroke-miterlimit="10" stroke-width="1.098"/>
            <path id="Path_48" data-name="Path 48" d="M104.386,169.748a1.679,1.679,0,1,1-1.66,1.678A1.67,1.67,0,0,1,104.386,169.748Z" transform="translate(-100.494 -167.492)" fill="none" stroke="#dbdbdb" stroke-miterlimit="10" stroke-width="1.098"/>
          </g>
          <g id="Group_51" data-name="Group 51" transform="translate(0 14.034)">
            <path id="Path_49" data-name="Path 49" d="M92.749,167.866a3.935,3.935,0,1,1-3.893,3.935A3.914,3.914,0,0,1,92.749,167.866Z" transform="translate(-88.856 -167.866)" fill="none" stroke="#dbdbdb" stroke-miterlimit="10" stroke-width="1.098"/>
            <path id="Path_50" data-name="Path 50" d="M92.378,169.748a1.679,1.679,0,1,1-1.66,1.678A1.67,1.67,0,0,1,92.378,169.748Z" transform="translate(-88.486 -167.492)" fill="none" stroke="#dbdbdb" stroke-miterlimit="10" stroke-width="1.098"/>
          </g>
        </g>
      </g>
      <g id="Group_55" data-name="Group 55" transform="translate(0.159 79.397)">
        <path id="Path_51" data-name="Path 51" d="M85.33,240.492V178.4h30.852v62.087" transform="translate(-85.33 -178.405)" fill="none" stroke="#dbdbdb" stroke-miterlimit="10" stroke-width="1.098"/>
        <g id="Group_54" data-name="Group 54" transform="translate(5.229 23.298)">
          <rect id="Rectangle_26" data-name="Rectangle 26" width="30.28" height="19.487" rx="4.487" transform="translate(0 30.28) rotate(-90)" fill="none" stroke="#dbdbdb" stroke-miterlimit="10" stroke-width="1.098"/>
          <rect id="Rectangle_27" data-name="Rectangle 27" width="2.698" height="8.232" transform="translate(0 16.489) rotate(-90)" fill="none" stroke="#dbdbdb" stroke-miterlimit="10" stroke-width="1.098"/>
        </g>
      </g>
      <g id="Group_56" data-name="Group 56" transform="translate(78.674 100.248)">
        <rect id="Rectangle_28" data-name="Rectangle 28" width="73.291" height="25.459" transform="translate(25.459 0) rotate(90)" fill="none" stroke="#dbdbdb" stroke-miterlimit="10" stroke-width="1.171"/>
        <line id="Line_272" data-name="Line 272" x2="25.459" y2="73.291" transform="translate(0)" fill="none" stroke="#dbdbdb" stroke-miterlimit="10" stroke-width="1.171"/>
        <line id="Line_273" data-name="Line 273" x1="25.459" y2="73.291" transform="translate(0)" fill="none" stroke="#dbdbdb" stroke-miterlimit="10" stroke-width="1.171"/>
      </g>
      <g id="Group_57" data-name="Group 57" transform="translate(32.347 0)">
        <path id="Path_52" data-name="Path 52" d="M149.9,140.378a6.386,6.386,0,0,1-12.77,0" transform="translate(-107.217 -106.571)" fill="none" stroke="#dbdbdb" stroke-miterlimit="10" stroke-width="1.193"/>
        <path id="Path_53" data-name="Path 53" d="M135.9,140.378a6.386,6.386,0,0,1-12.77,0" transform="translate(-110 -106.571)" fill="none" stroke="#dbdbdb" stroke-miterlimit="10" stroke-width="1.193"/>
        <path id="Path_54" data-name="Path 54" d="M123.13,118.5a6.386,6.386,0,0,1,12.77,0" transform="translate(-110 -112.179)" fill="none" stroke="#dbdbdb" stroke-miterlimit="10" stroke-width="1.193"/>
        <path id="Path_55" data-name="Path 55" d="M137.125,118.5a6.386,6.386,0,0,1,12.77,0" transform="translate(-107.217 -112.179)" fill="none" stroke="#dbdbdb" stroke-miterlimit="10" stroke-width="1.193"/>
        <path id="Path_56" data-name="Path 56" d="M154.623,117.447a13.748,13.748,0,0,1,13.747,13.747h0a13.747,13.747,0,0,1-13.747,13.746h-28.7a13.747,13.747,0,0,1-13.747-13.746h0a13.748,13.748,0,0,1,13.747-13.747Z" transform="translate(-112.178 -111.131)" fill="none" stroke="#dbdbdb" stroke-miterlimit="10" stroke-width="1.193"/>
      </g>
      <path id="Path_57" data-name="Path 57" d="M116.208,156.643s1.308-26.157-31.011-26.157" transform="translate(-85.197 -108.538)" fill="none" stroke="#dbdbdb" stroke-miterlimit="10" stroke-width="1.098"/>
    </g>
    <line id="Line_274" data-name="Line 274" y2="4.096" transform="translate(99.783 105.377)" fill="none" stroke="#dbdbdb" stroke-miterlimit="10" stroke-width="1"/>
    <g id="Group_59" data-name="Group 59" transform="translate(99.396 104.49)">
      <line id="Line_275" data-name="Line 275" y2="4.096" transform="translate(3.085 0.887)" fill="none" stroke="#dbdbdb" stroke-miterlimit="10" stroke-width="1"/>
      <line id="Line_276" data-name="Line 276" y2="4.096" transform="translate(5.782 0.887)" fill="none" stroke="#dbdbdb" stroke-miterlimit="10" stroke-width="1"/>
      <line id="Line_277" data-name="Line 277" y2="4.096" transform="translate(8.48 0.887)" fill="none" stroke="#dbdbdb" stroke-miterlimit="10" stroke-width="1"/>
      <line id="Line_278" data-name="Line 278" y2="4.096" transform="translate(11.177 0.887)" fill="none" stroke="#dbdbdb" stroke-miterlimit="10" stroke-width="1"/>
      <line id="Line_279" data-name="Line 279" y2="4.096" transform="translate(13.874 0.887)" fill="none" stroke="#dbdbdb" stroke-miterlimit="10" stroke-width="1"/>
      <line id="Line_280" data-name="Line 280" y2="4.096" transform="translate(16.572 0.887)" fill="none" stroke="#dbdbdb" stroke-miterlimit="10" stroke-width="1"/>
      <line id="Line_281" data-name="Line 281" y2="4.096" transform="translate(19.269 0.887)" fill="none" stroke="#dbdbdb" stroke-miterlimit="10" stroke-width="1"/>
      <line id="Line_282" data-name="Line 282" y2="4.096" transform="translate(21.967 0.887)" fill="none" stroke="#dbdbdb" stroke-miterlimit="10" stroke-width="1"/>
      <line id="Line_283" data-name="Line 283" y2="4.096" transform="translate(24.664 0.887)" fill="none" stroke="#dbdbdb" stroke-miterlimit="10" stroke-width="1"/>
      <line id="Line_284" data-name="Line 284" y2="4.096" transform="translate(27.362 0.887)" fill="none" stroke="#dbdbdb" stroke-miterlimit="10" stroke-width="1"/>
      <line id="Line_285" data-name="Line 285" y2="4.096" transform="translate(30.059 0.887)" fill="none" stroke="#dbdbdb" stroke-miterlimit="10" stroke-width="1"/>
      <line id="Line_286" data-name="Line 286" y2="4.096" transform="translate(32.757 0.887)" fill="none" stroke="#dbdbdb" stroke-miterlimit="10" stroke-width="1"/>
      <line id="Line_287" data-name="Line 287" y2="4.096" transform="translate(35.454 0.887)" fill="none" stroke="#dbdbdb" stroke-miterlimit="10" stroke-width="1"/>
      <line id="Line_288" data-name="Line 288" y2="4.096" transform="translate(38.152 0.887)" fill="none" stroke="#dbdbdb" stroke-miterlimit="10" stroke-width="1"/>
      <line id="Line_289" data-name="Line 289" y2="4.096" transform="translate(40.849 0.887)" fill="none" stroke="#dbdbdb" stroke-miterlimit="10" stroke-width="1"/>
      <line id="Line_290" data-name="Line 290" y2="4.096" transform="translate(43.547 0.887)" fill="none" stroke="#dbdbdb" stroke-miterlimit="10" stroke-width="1"/>
      <line id="Line_291" data-name="Line 291" y2="4.096" transform="translate(46.244 0.887)" fill="none" stroke="#dbdbdb" stroke-miterlimit="10" stroke-width="1"/>
      <line id="Line_292" data-name="Line 292" y2="4.096" transform="translate(48.942 0.887)" fill="none" stroke="#dbdbdb" stroke-miterlimit="10" stroke-width="1"/>
      <line id="Line_293" data-name="Line 293" y2="4.096" transform="translate(51.639 0.887)" fill="none" stroke="#dbdbdb" stroke-miterlimit="10" stroke-width="1"/>
      <line id="Line_294" data-name="Line 294" y2="4.096" transform="translate(54.336 0.887)" fill="none" stroke="#dbdbdb" stroke-miterlimit="10" stroke-width="1"/>
      <line id="Line_295" data-name="Line 295" y2="4.096" transform="translate(57.034 0.887)" fill="none" stroke="#dbdbdb" stroke-miterlimit="10" stroke-width="1"/>
      <line id="Line_296" data-name="Line 296" y2="4.096" transform="translate(59.731 0.887)" fill="none" stroke="#dbdbdb" stroke-miterlimit="10" stroke-width="1"/>
      <line id="Line_297" data-name="Line 297" y2="4.096" transform="translate(62.429 0.887)" fill="none" stroke="#dbdbdb" stroke-miterlimit="10" stroke-width="1"/>
      <line id="Line_298" data-name="Line 298" y2="4.096" transform="translate(65.126 0.887)" fill="none" stroke="#dbdbdb" stroke-miterlimit="10" stroke-width="1"/>
      <line id="Line_299" data-name="Line 299" y2="4.096" transform="translate(67.824 0.887)" fill="none" stroke="#dbdbdb" stroke-miterlimit="10" stroke-width="1"/>
      <line id="Line_300" data-name="Line 300" y2="4.096" transform="translate(70.521 0.887)" fill="none" stroke="#dbdbdb" stroke-miterlimit="10" stroke-width="1"/>
      <line id="Line_301" data-name="Line 301" y2="4.096" transform="translate(73.219 0.887)" fill="none" stroke="#dbdbdb" stroke-miterlimit="10" stroke-width="1"/>
      <rect id="Rectangle_29" data-name="Rectangle 29" width="5.67" height="78.739" transform="translate(78.739 0) rotate(90)" fill="none" stroke="#dbdbdb" stroke-miterlimit="10" stroke-width="1.483"/>
      <line id="Line_302" data-name="Line 302" y2="4.096" transform="translate(3.085 0.887)" fill="none" stroke="#dbdbdb" stroke-miterlimit="10" stroke-width="1"/>
      <line id="Line_303" data-name="Line 303" y2="4.096" transform="translate(5.782 0.887)" fill="none" stroke="#dbdbdb" stroke-miterlimit="10" stroke-width="1"/>
      <line id="Line_304" data-name="Line 304" y2="4.096" transform="translate(8.48 0.887)" fill="none" stroke="#dbdbdb" stroke-miterlimit="10" stroke-width="1"/>
      <line id="Line_305" data-name="Line 305" y2="4.096" transform="translate(11.177 0.887)" fill="none" stroke="#dbdbdb" stroke-miterlimit="10" stroke-width="1"/>
      <line id="Line_306" data-name="Line 306" y2="4.096" transform="translate(13.874 0.887)" fill="none" stroke="#dbdbdb" stroke-miterlimit="10" stroke-width="1"/>
      <line id="Line_307" data-name="Line 307" y2="4.096" transform="translate(16.572 0.887)" fill="none" stroke="#dbdbdb" stroke-miterlimit="10" stroke-width="1"/>
      <line id="Line_308" data-name="Line 308" y2="4.096" transform="translate(19.269 0.887)" fill="none" stroke="#dbdbdb" stroke-miterlimit="10" stroke-width="1"/>
      <line id="Line_309" data-name="Line 309" y2="4.096" transform="translate(21.967 0.887)" fill="none" stroke="#dbdbdb" stroke-miterlimit="10" stroke-width="1"/>
      <line id="Line_310" data-name="Line 310" y2="4.096" transform="translate(24.664 0.887)" fill="none" stroke="#dbdbdb" stroke-miterlimit="10" stroke-width="1"/>
      <line id="Line_311" data-name="Line 311" y2="4.096" transform="translate(27.362 0.887)" fill="none" stroke="#dbdbdb" stroke-miterlimit="10" stroke-width="1"/>
      <line id="Line_312" data-name="Line 312" y2="4.096" transform="translate(30.059 0.887)" fill="none" stroke="#dbdbdb" stroke-miterlimit="10" stroke-width="1"/>
      <line id="Line_313" data-name="Line 313" y2="4.096" transform="translate(32.757 0.887)" fill="none" stroke="#dbdbdb" stroke-miterlimit="10" stroke-width="1"/>
      <line id="Line_314" data-name="Line 314" y2="4.096" transform="translate(35.454 0.887)" fill="none" stroke="#dbdbdb" stroke-miterlimit="10" stroke-width="1"/>
      <line id="Line_315" data-name="Line 315" y2="4.096" transform="translate(38.152 0.887)" fill="none" stroke="#dbdbdb" stroke-miterlimit="10" stroke-width="1"/>
      <line id="Line_316" data-name="Line 316" y2="4.096" transform="translate(40.849 0.887)" fill="none" stroke="#dbdbdb" stroke-miterlimit="10" stroke-width="1"/>
      <line id="Line_317" data-name="Line 317" y2="4.096" transform="translate(43.547 0.887)" fill="none" stroke="#dbdbdb" stroke-miterlimit="10" stroke-width="1"/>
      <line id="Line_318" data-name="Line 318" y2="4.096" transform="translate(46.244 0.887)" fill="none" stroke="#dbdbdb" stroke-miterlimit="10" stroke-width="1"/>
      <line id="Line_319" data-name="Line 319" y2="4.096" transform="translate(48.942 0.887)" fill="none" stroke="#dbdbdb" stroke-miterlimit="10" stroke-width="1"/>
      <line id="Line_320" data-name="Line 320" y2="4.096" transform="translate(51.639 0.887)" fill="none" stroke="#dbdbdb" stroke-miterlimit="10" stroke-width="1"/>
      <line id="Line_321" data-name="Line 321" y2="4.096" transform="translate(54.336 0.887)" fill="none" stroke="#dbdbdb" stroke-miterlimit="10" stroke-width="1"/>
      <line id="Line_322" data-name="Line 322" y2="4.096" transform="translate(57.034 0.887)" fill="none" stroke="#dbdbdb" stroke-miterlimit="10" stroke-width="1"/>
      <line id="Line_323" data-name="Line 323" y2="4.096" transform="translate(59.731 0.887)" fill="none" stroke="#dbdbdb" stroke-miterlimit="10" stroke-width="1"/>
      <line id="Line_324" data-name="Line 324" y2="4.096" transform="translate(62.429 0.887)" fill="none" stroke="#dbdbdb" stroke-miterlimit="10" stroke-width="1"/>
      <line id="Line_325" data-name="Line 325" y2="4.096" transform="translate(65.126 0.887)" fill="none" stroke="#dbdbdb" stroke-miterlimit="10" stroke-width="1"/>
      <line id="Line_326" data-name="Line 326" y2="4.096" transform="translate(67.824 0.887)" fill="none" stroke="#dbdbdb" stroke-miterlimit="10" stroke-width="1"/>
      <line id="Line_327" data-name="Line 327" y2="4.096" transform="translate(70.521 0.887)" fill="none" stroke="#dbdbdb" stroke-miterlimit="10" stroke-width="1"/>
      <line id="Line_328" data-name="Line 328" y2="4.096" transform="translate(73.219 0.887)" fill="none" stroke="#dbdbdb" stroke-miterlimit="10" stroke-width="1"/>
      <line id="Line_329" data-name="Line 329" y2="4.096" transform="translate(75.841 0.887)" fill="none" stroke="#dbdbdb" stroke-miterlimit="10" stroke-width="1"/>
    </g>
    <g id="Group_61" data-name="Group 61" transform="translate(477.191 95.386)">
      <rect id="Rectangle_30" data-name="Rectangle 30" width="5.67" height="48.905" fill="none" stroke="#dbdbdb" stroke-miterlimit="10" stroke-width="1.483"/>
      <g id="Group_60" data-name="Group 60" transform="translate(0.687 3.085)">
        <line id="Line_330" data-name="Line 330" x1="4.096" fill="none" stroke="#dbdbdb" stroke-miterlimit="10" stroke-width="1"/>
        <line id="Line_331" data-name="Line 331" x1="4.096" transform="translate(0 2.697)" fill="none" stroke="#dbdbdb" stroke-miterlimit="10" stroke-width="1"/>
        <line id="Line_332" data-name="Line 332" x1="4.096" transform="translate(0 5.395)" fill="none" stroke="#dbdbdb" stroke-miterlimit="10" stroke-width="1"/>
        <line id="Line_333" data-name="Line 333" x1="4.096" transform="translate(0 8.092)" fill="none" stroke="#dbdbdb" stroke-miterlimit="10" stroke-width="1"/>
        <line id="Line_334" data-name="Line 334" x1="4.096" transform="translate(0 10.79)" fill="none" stroke="#dbdbdb" stroke-miterlimit="10" stroke-width="1"/>
        <line id="Line_335" data-name="Line 335" x1="4.096" transform="translate(0 13.487)" fill="none" stroke="#dbdbdb" stroke-miterlimit="10" stroke-width="1"/>
        <line id="Line_336" data-name="Line 336" x1="4.096" transform="translate(0 16.185)" fill="none" stroke="#dbdbdb" stroke-miterlimit="10" stroke-width="1"/>
        <line id="Line_337" data-name="Line 337" x1="4.096" transform="translate(0 18.882)" fill="none" stroke="#dbdbdb" stroke-miterlimit="10" stroke-width="1"/>
        <line id="Line_338" data-name="Line 338" x1="4.096" transform="translate(0 21.58)" fill="none" stroke="#dbdbdb" stroke-miterlimit="10" stroke-width="1"/>
        <line id="Line_339" data-name="Line 339" x1="4.096" transform="translate(0 24.277)" fill="none" stroke="#dbdbdb" stroke-miterlimit="10" stroke-width="1"/>
        <line id="Line_340" data-name="Line 340" x1="4.096" transform="translate(0 26.975)" fill="none" stroke="#dbdbdb" stroke-miterlimit="10" stroke-width="1"/>
        <line id="Line_341" data-name="Line 341" x1="4.096" transform="translate(0 29.672)" fill="none" stroke="#dbdbdb" stroke-miterlimit="10" stroke-width="1"/>
        <line id="Line_342" data-name="Line 342" x1="4.096" transform="translate(0 32.37)" fill="none" stroke="#dbdbdb" stroke-miterlimit="10" stroke-width="1"/>
        <line id="Line_343" data-name="Line 343" x1="4.096" transform="translate(0 35.067)" fill="none" stroke="#dbdbdb" stroke-miterlimit="10" stroke-width="1"/>
        <line id="Line_344" data-name="Line 344" x1="4.096" transform="translate(0 37.765)" fill="none" stroke="#dbdbdb" stroke-miterlimit="10" stroke-width="1"/>
        <line id="Line_345" data-name="Line 345" x1="4.096" transform="translate(0 40.462)" fill="none" stroke="#dbdbdb" stroke-miterlimit="10" stroke-width="1"/>
        <line id="Line_346" data-name="Line 346" x1="4.096" transform="translate(0 43.159)" fill="none" stroke="#dbdbdb" stroke-miterlimit="10" stroke-width="1"/>
        <line id="Line_347" data-name="Line 347" x1="4.096" transform="translate(0 45.857)" fill="none" stroke="#dbdbdb" stroke-miterlimit="10" stroke-width="1"/>
        <line id="Line_348" data-name="Line 348" x1="4.096" fill="none" stroke="#dbdbdb" stroke-miterlimit="10" stroke-width="1"/>
        <line id="Line_349" data-name="Line 349" x1="4.096" transform="translate(0 2.697)" fill="none" stroke="#dbdbdb" stroke-miterlimit="10" stroke-width="1"/>
        <line id="Line_350" data-name="Line 350" x1="4.096" transform="translate(0 5.395)" fill="none" stroke="#dbdbdb" stroke-miterlimit="10" stroke-width="1"/>
        <line id="Line_351" data-name="Line 351" x1="4.096" transform="translate(0 8.092)" fill="none" stroke="#dbdbdb" stroke-miterlimit="10" stroke-width="1"/>
        <line id="Line_352" data-name="Line 352" x1="4.096" transform="translate(0 10.79)" fill="none" stroke="#dbdbdb" stroke-miterlimit="10" stroke-width="1"/>
        <line id="Line_353" data-name="Line 353" x1="4.096" transform="translate(0 13.487)" fill="none" stroke="#dbdbdb" stroke-miterlimit="10" stroke-width="1"/>
        <line id="Line_354" data-name="Line 354" x1="4.096" transform="translate(0 16.185)" fill="none" stroke="#dbdbdb" stroke-miterlimit="10" stroke-width="1"/>
        <line id="Line_355" data-name="Line 355" x1="4.096" transform="translate(0 18.882)" fill="none" stroke="#dbdbdb" stroke-miterlimit="10" stroke-width="1"/>
        <line id="Line_356" data-name="Line 356" x1="4.096" transform="translate(0 21.58)" fill="none" stroke="#dbdbdb" stroke-miterlimit="10" stroke-width="1"/>
        <line id="Line_357" data-name="Line 357" x1="4.096" transform="translate(0 24.277)" fill="none" stroke="#dbdbdb" stroke-miterlimit="10" stroke-width="1"/>
        <line id="Line_358" data-name="Line 358" x1="4.096" transform="translate(0 26.975)" fill="none" stroke="#dbdbdb" stroke-miterlimit="10" stroke-width="1"/>
        <line id="Line_359" data-name="Line 359" x1="4.096" transform="translate(0 29.672)" fill="none" stroke="#dbdbdb" stroke-miterlimit="10" stroke-width="1"/>
        <line id="Line_360" data-name="Line 360" x1="4.096" transform="translate(0 32.37)" fill="none" stroke="#dbdbdb" stroke-miterlimit="10" stroke-width="1"/>
        <line id="Line_361" data-name="Line 361" x1="4.096" transform="translate(0 35.067)" fill="none" stroke="#dbdbdb" stroke-miterlimit="10" stroke-width="1"/>
        <line id="Line_362" data-name="Line 362" x1="4.096" transform="translate(0 37.765)" fill="none" stroke="#dbdbdb" stroke-miterlimit="10" stroke-width="1"/>
        <line id="Line_363" data-name="Line 363" x1="4.096" transform="translate(0 40.462)" fill="none" stroke="#dbdbdb" stroke-miterlimit="10" stroke-width="1"/>
        <line id="Line_364" data-name="Line 364" x1="4.096" transform="translate(0 43.159)" fill="none" stroke="#dbdbdb" stroke-miterlimit="10" stroke-width="1"/>
        <line id="Line_365" data-name="Line 365" x1="4.096" transform="translate(0 45.857)" fill="none" stroke="#dbdbdb" stroke-miterlimit="10" stroke-width="1"/>
      </g>
    </g>
    <g id="Group_62" data-name="Group 62" transform="translate(476.991 299.051)">
      <line id="Line_366" data-name="Line 366" x1="4.096" transform="translate(0.687 3.085)" fill="none" stroke="#dbdbdb" stroke-miterlimit="10" stroke-width="1"/>
      <line id="Line_367" data-name="Line 367" x1="4.096" transform="translate(0.687 5.782)" fill="none" stroke="#dbdbdb" stroke-miterlimit="10" stroke-width="1"/>
      <line id="Line_368" data-name="Line 368" x1="4.096" transform="translate(0.687 8.479)" fill="none" stroke="#dbdbdb" stroke-miterlimit="10" stroke-width="1"/>
      <line id="Line_369" data-name="Line 369" x1="4.096" transform="translate(0.687 11.177)" fill="none" stroke="#dbdbdb" stroke-miterlimit="10" stroke-width="1"/>
      <line id="Line_370" data-name="Line 370" x1="4.096" transform="translate(0.687 13.874)" fill="none" stroke="#dbdbdb" stroke-miterlimit="10" stroke-width="1"/>
      <line id="Line_371" data-name="Line 371" x1="4.096" transform="translate(0.687 16.572)" fill="none" stroke="#dbdbdb" stroke-miterlimit="10" stroke-width="1"/>
      <line id="Line_372" data-name="Line 372" x1="4.096" transform="translate(0.687 19.269)" fill="none" stroke="#dbdbdb" stroke-miterlimit="10" stroke-width="1"/>
      <line id="Line_373" data-name="Line 373" x1="4.096" transform="translate(0.687 21.967)" fill="none" stroke="#dbdbdb" stroke-miterlimit="10" stroke-width="1"/>
      <line id="Line_374" data-name="Line 374" x1="4.096" transform="translate(0.687 24.664)" fill="none" stroke="#dbdbdb" stroke-miterlimit="10" stroke-width="1"/>
      <line id="Line_375" data-name="Line 375" x1="4.096" transform="translate(0.687 27.362)" fill="none" stroke="#dbdbdb" stroke-miterlimit="10" stroke-width="1"/>
      <line id="Line_376" data-name="Line 376" x1="4.096" transform="translate(0.687 30.059)" fill="none" stroke="#dbdbdb" stroke-miterlimit="10" stroke-width="1"/>
      <line id="Line_377" data-name="Line 377" x1="4.096" transform="translate(0.687 32.757)" fill="none" stroke="#dbdbdb" stroke-miterlimit="10" stroke-width="1"/>
      <line id="Line_378" data-name="Line 378" x1="4.096" transform="translate(0.687 35.454)" fill="none" stroke="#dbdbdb" stroke-miterlimit="10" stroke-width="1"/>
      <line id="Line_379" data-name="Line 379" x1="4.096" transform="translate(0.687 38.152)" fill="none" stroke="#dbdbdb" stroke-miterlimit="10" stroke-width="1"/>
      <line id="Line_380" data-name="Line 380" x1="4.096" transform="translate(0.687 40.849)" fill="none" stroke="#dbdbdb" stroke-miterlimit="10" stroke-width="1"/>
      <line id="Line_381" data-name="Line 381" x1="4.096" transform="translate(0.687 43.547)" fill="none" stroke="#dbdbdb" stroke-miterlimit="10" stroke-width="1"/>
      <line id="Line_382" data-name="Line 382" x1="4.096" transform="translate(0.687 46.244)" fill="none" stroke="#dbdbdb" stroke-miterlimit="10" stroke-width="1"/>
      <line id="Line_383" data-name="Line 383" x1="4.096" transform="translate(0.687 48.942)" fill="none" stroke="#dbdbdb" stroke-miterlimit="10" stroke-width="1"/>
      <line id="Line_384" data-name="Line 384" x1="4.096" transform="translate(0.687 51.639)" fill="none" stroke="#dbdbdb" stroke-miterlimit="10" stroke-width="1"/>
      <line id="Line_385" data-name="Line 385" x1="4.096" transform="translate(0.687 54.336)" fill="none" stroke="#dbdbdb" stroke-miterlimit="10" stroke-width="1"/>
      <line id="Line_386" data-name="Line 386" x1="4.096" transform="translate(0.687 57.034)" fill="none" stroke="#dbdbdb" stroke-miterlimit="10" stroke-width="1"/>
      <line id="Line_387" data-name="Line 387" x1="4.096" transform="translate(0.687 59.731)" fill="none" stroke="#dbdbdb" stroke-miterlimit="10" stroke-width="1"/>
      <line id="Line_388" data-name="Line 388" x1="4.096" transform="translate(0.687 62.429)" fill="none" stroke="#dbdbdb" stroke-miterlimit="10" stroke-width="1"/>
      <line id="Line_389" data-name="Line 389" x1="4.096" transform="translate(0.687 65.126)" fill="none" stroke="#dbdbdb" stroke-miterlimit="10" stroke-width="1"/>
      <line id="Line_390" data-name="Line 390" x1="4.096" transform="translate(0.687 67.824)" fill="none" stroke="#dbdbdb" stroke-miterlimit="10" stroke-width="1"/>
      <line id="Line_391" data-name="Line 391" x1="4.096" transform="translate(0.687 70.521)" fill="none" stroke="#dbdbdb" stroke-miterlimit="10" stroke-width="1"/>
      <line id="Line_392" data-name="Line 392" x1="4.096" transform="translate(0.687 73.219)" fill="none" stroke="#dbdbdb" stroke-miterlimit="10" stroke-width="1"/>
      <rect id="Rectangle_31" data-name="Rectangle 31" width="5.67" height="78.739" transform="translate(5.67 78.739) rotate(180)" fill="none" stroke="#dbdbdb" stroke-miterlimit="10" stroke-width="1.483"/>
      <line id="Line_393" data-name="Line 393" x1="4.096" transform="translate(0.687 3.085)" fill="none" stroke="#dbdbdb" stroke-miterlimit="10" stroke-width="1"/>
      <line id="Line_394" data-name="Line 394" x1="4.096" transform="translate(0.687 5.782)" fill="none" stroke="#dbdbdb" stroke-miterlimit="10" stroke-width="1"/>
      <line id="Line_395" data-name="Line 395" x1="4.096" transform="translate(0.687 8.479)" fill="none" stroke="#dbdbdb" stroke-miterlimit="10" stroke-width="1"/>
      <line id="Line_396" data-name="Line 396" x1="4.096" transform="translate(0.687 11.177)" fill="none" stroke="#dbdbdb" stroke-miterlimit="10" stroke-width="1"/>
      <line id="Line_397" data-name="Line 397" x1="4.096" transform="translate(0.687 13.874)" fill="none" stroke="#dbdbdb" stroke-miterlimit="10" stroke-width="1"/>
      <line id="Line_398" data-name="Line 398" x1="4.096" transform="translate(0.687 16.572)" fill="none" stroke="#dbdbdb" stroke-miterlimit="10" stroke-width="1"/>
      <line id="Line_399" data-name="Line 399" x1="4.096" transform="translate(0.687 19.269)" fill="none" stroke="#dbdbdb" stroke-miterlimit="10" stroke-width="1"/>
      <line id="Line_400" data-name="Line 400" x1="4.096" transform="translate(0.687 21.967)" fill="none" stroke="#dbdbdb" stroke-miterlimit="10" stroke-width="1"/>
      <line id="Line_401" data-name="Line 401" x1="4.096" transform="translate(0.687 24.664)" fill="none" stroke="#dbdbdb" stroke-miterlimit="10" stroke-width="1"/>
      <line id="Line_402" data-name="Line 402" x1="4.096" transform="translate(0.687 27.362)" fill="none" stroke="#dbdbdb" stroke-miterlimit="10" stroke-width="1"/>
      <line id="Line_403" data-name="Line 403" x1="4.096" transform="translate(0.687 30.059)" fill="none" stroke="#dbdbdb" stroke-miterlimit="10" stroke-width="1"/>
      <line id="Line_404" data-name="Line 404" x1="4.096" transform="translate(0.687 32.757)" fill="none" stroke="#dbdbdb" stroke-miterlimit="10" stroke-width="1"/>
      <line id="Line_405" data-name="Line 405" x1="4.096" transform="translate(0.687 35.454)" fill="none" stroke="#dbdbdb" stroke-miterlimit="10" stroke-width="1"/>
      <line id="Line_406" data-name="Line 406" x1="4.096" transform="translate(0.687 38.152)" fill="none" stroke="#dbdbdb" stroke-miterlimit="10" stroke-width="1"/>
      <line id="Line_407" data-name="Line 407" x1="4.096" transform="translate(0.687 40.849)" fill="none" stroke="#dbdbdb" stroke-miterlimit="10" stroke-width="1"/>
      <line id="Line_408" data-name="Line 408" x1="4.096" transform="translate(0.687 43.547)" fill="none" stroke="#dbdbdb" stroke-miterlimit="10" stroke-width="1"/>
      <line id="Line_409" data-name="Line 409" x1="4.096" transform="translate(0.687 46.244)" fill="none" stroke="#dbdbdb" stroke-miterlimit="10" stroke-width="1"/>
      <line id="Line_410" data-name="Line 410" x1="4.096" transform="translate(0.687 48.942)" fill="none" stroke="#dbdbdb" stroke-miterlimit="10" stroke-width="1"/>
      <line id="Line_411" data-name="Line 411" x1="4.096" transform="translate(0.687 51.639)" fill="none" stroke="#dbdbdb" stroke-miterlimit="10" stroke-width="1"/>
      <line id="Line_412" data-name="Line 412" x1="4.096" transform="translate(0.687 54.336)" fill="none" stroke="#dbdbdb" stroke-miterlimit="10" stroke-width="1"/>
      <line id="Line_413" data-name="Line 413" x1="4.096" transform="translate(0.687 57.034)" fill="none" stroke="#dbdbdb" stroke-miterlimit="10" stroke-width="1"/>
      <line id="Line_414" data-name="Line 414" x1="4.096" transform="translate(0.687 59.731)" fill="none" stroke="#dbdbdb" stroke-miterlimit="10" stroke-width="1"/>
      <line id="Line_415" data-name="Line 415" x1="4.096" transform="translate(0.687 62.429)" fill="none" stroke="#dbdbdb" stroke-miterlimit="10" stroke-width="1"/>
      <line id="Line_416" data-name="Line 416" x1="4.096" transform="translate(0.687 65.126)" fill="none" stroke="#dbdbdb" stroke-miterlimit="10" stroke-width="1"/>
      <line id="Line_417" data-name="Line 417" x1="4.096" transform="translate(0.687 67.824)" fill="none" stroke="#dbdbdb" stroke-miterlimit="10" stroke-width="1"/>
      <line id="Line_418" data-name="Line 418" x1="4.096" transform="translate(0.687 70.521)" fill="none" stroke="#dbdbdb" stroke-miterlimit="10" stroke-width="1"/>
      <line id="Line_419" data-name="Line 419" x1="4.096" transform="translate(0.687 73.219)" fill="none" stroke="#dbdbdb" stroke-miterlimit="10" stroke-width="1"/>
      <line id="Line_420" data-name="Line 420" x1="4.096" transform="translate(0.687 75.841)" fill="none" stroke="#dbdbdb" stroke-miterlimit="10" stroke-width="1"/>
    </g>
  </g>
</svg>
