<svg xmlns="http://www.w3.org/2000/svg" width="614.537" height="650.642" viewBox="0 0 614.537 650.642">
  <g id="Group_71" data-name="Group 71" transform="matrix(-0.695, 0.719, -0.719, -0.695, 754.546, 295.457)" style="mix-blend-mode: multiply;isolation: isolate">
    <text id="TERRACE_" data-name="TERRACE " transform="translate(276.611 120.81)" fill="#f7f9f9" font-size="12" font-family="Quicksand-Bold, Quicksand" font-weight="700"><tspan x="0" y="0">TERRACE </tspan></text>
    <text id="BEDROOM_" data-name="BEDROOM " transform="translate(440.393 448.136)" fill="#f7f9f9" font-size="12" font-family="Quicksand-Bold, Quicksand" font-weight="700"><tspan x="0" y="0">BEDROOM </tspan></text>
    <text id="DRESSING_ROOM" data-name="DRESSING
ROOM" transform="translate(366.043 412.642)" fill="#f7f9f9" font-size="12" font-family="Quicksand-Bold, Quicksand" font-weight="700"><tspan x="-29.244" y="0">DRESSING</tspan><tspan x="-18.084" y="15">ROOM</tspan></text>
    <text id="BATHROOM_" data-name="BATHROOM " transform="translate(135.195 408.08)" fill="#f7f9f9" font-size="12" font-family="Quicksand-Bold, Quicksand" font-weight="700"><tspan x="0" y="0">BATHROOM </tspan></text>
    <text id="LIVING_ROOM" data-name="LIVING
ROOM" transform="translate(282.549 244.548)" fill="#f7f9f9" font-size="12" font-family="Quicksand-Bold, Quicksand" font-weight="700"><tspan x="-19.326" y="0">LIVING</tspan><tspan x="-18.084" y="15">ROOM</tspan></text>
    <path id="Path_16" data-name="Path 16" d="M171.676,158.1H209.23s2.441-33.823-37.554-33.38" transform="translate(36.747 25.388)" fill="none" stroke="#dbdbdb" stroke-linejoin="round" stroke-width="1.098"/>
    <path id="Path_17" data-name="Path 17" d="M182.448,201.531H144.895s-2.441-33.825,37.554-33.382" transform="translate(25.354 43.841)" fill="none" stroke="#dbdbdb" stroke-linejoin="round" stroke-width="1.098"/>
    <path id="Path_18" data-name="Path 18" d="M218.175,324.647H180.622s-2.442-33.825,37.554-33.382" transform="translate(40.535 96.156)" fill="none" stroke="#dbdbdb" stroke-linejoin="round" stroke-width="1.098"/>
    <path id="Path_19" data-name="Path 19" d="M220.9,389.131V351.578s33.823-2.442,33.38,37.554" transform="translate(57.662 121.773)" fill="none" stroke="#dbdbdb" stroke-linejoin="round" stroke-width="1.098"/>
    <path id="Path_20" data-name="Path 20" d="M258.071,234.493h37.554s2.442,33.825-37.554,33.38" transform="translate(73.457 72.034)" fill="none" stroke="#dbdbdb" stroke-linejoin="round" stroke-width="1.098"/>
    <path id="Path_21" data-name="Path 21" d="M223.863,162.548V124.995s33.825-2.442,33.382,37.554" transform="translate(58.922 25.494)" fill="none" stroke="#dbdbdb" stroke-linejoin="round" stroke-width="1.098"/>
    <rect id="Rectangle_4" data-name="Rectangle 4" width="15.437" height="27.786" transform="translate(460.27 413.03) rotate(-90)" fill="none" stroke="#dbdbdb" stroke-miterlimit="10" stroke-width="1.14"/>
    <g id="Group_31" data-name="Group 31" transform="translate(331.85 460.147)">
      <rect id="Rectangle_5" data-name="Rectangle 5" width="74.428" height="26.648" fill="none" stroke="#dbdbdb" stroke-miterlimit="10" stroke-width="1.098"/>
      <line id="Line_248" data-name="Line 248" y1="26.648" x2="74.428" fill="none" stroke="#dbdbdb" stroke-miterlimit="10" stroke-width="1.098"/>
      <line id="Line_249" data-name="Line 249" x2="74.428" y2="26.648" fill="none" stroke="#dbdbdb" stroke-miterlimit="10" stroke-width="1.098"/>
    </g>
    <g id="Group_32" data-name="Group 32" transform="translate(470.908 64.969)">
      <rect id="Rectangle_6" data-name="Rectangle 6" width="81.952" height="19.261" transform="translate(81.952 19.261) rotate(180)" fill="none" stroke="#dbdbdb" stroke-miterlimit="10" stroke-width="1.193"/>
      <line id="Line_250" data-name="Line 250" x1="81.952" y2="19.261" transform="translate(0 0)" fill="none" stroke="#dbdbdb" stroke-miterlimit="10" stroke-width="1.193"/>
      <line id="Line_251" data-name="Line 251" x1="81.952" y1="19.261" transform="translate(0 0)" fill="none" stroke="#dbdbdb" stroke-miterlimit="10" stroke-width="1.193"/>
    </g>
    <g id="Group_33" data-name="Group 33" transform="translate(388.956 64.969)">
      <rect id="Rectangle_7" data-name="Rectangle 7" width="81.952" height="19.261" transform="translate(81.952 19.261) rotate(180)" fill="none" stroke="#dbdbdb" stroke-miterlimit="10" stroke-width="1.193"/>
      <line id="Line_252" data-name="Line 252" x1="81.952" y2="19.261" transform="translate(0 0)" fill="none" stroke="#dbdbdb" stroke-miterlimit="10" stroke-width="1.193"/>
      <line id="Line_253" data-name="Line 253" x1="81.952" y1="19.261" transform="translate(0 0)" fill="none" stroke="#dbdbdb" stroke-miterlimit="10" stroke-width="1.193"/>
    </g>
    <g id="Group_34" data-name="Group 34" transform="translate(433.595 289.102)">
      <rect id="Rectangle_8" data-name="Rectangle 8" width="98.794" height="81.134" transform="translate(0 98.794) rotate(-90)" fill="none" stroke="#dbdbdb" stroke-miterlimit="10" stroke-width="1.14"/>
      <rect id="Rectangle_9" data-name="Rectangle 9" width="81.134" height="18.702" transform="translate(81.134 18.702) rotate(180)" fill="none" stroke="#dbdbdb" stroke-miterlimit="10" stroke-width="1.14"/>
    </g>
    <rect id="Rectangle_10" data-name="Rectangle 10" width="22.057" height="22.057" transform="translate(544.689 311.159) rotate(180)" fill="none" stroke="#dbdbdb" stroke-miterlimit="10" stroke-width="1.14"/>
    <rect id="Rectangle_11" data-name="Rectangle 11" width="22.057" height="22.057" transform="translate(425.767 311.159) rotate(180)" fill="none" stroke="#dbdbdb" stroke-miterlimit="10" stroke-width="1.14"/>
    <g id="Group_35" data-name="Group 35" transform="translate(332.217 373.297)">
      <path id="Path_22" data-name="Path 22" d="M328.1,281.352h4.52V367.28H258.554V281.352H296.28" transform="translate(-258.554 -281.352)" fill="none" stroke="#dbdbdb" stroke-miterlimit="10" stroke-width="1.483"/>
    </g>
    <path id="Path_23" data-name="Path 23" d="M486.854,325.632V350.39l-148.192-.059v49.456l-94.337-.038" transform="translate(67.617 110.761)" fill="none" stroke="#dbdbdb" stroke-miterlimit="10" stroke-width="3"/>
    <line id="Line_254" data-name="Line 254" y2="183.913" transform="translate(554.47 159.385)" fill="none" stroke="#dbdbdb" stroke-miterlimit="10" stroke-width="3"/>
    <path id="Path_24" data-name="Path 24" d="M162.718,115.03h12.145v-49.4H521.53V100.6" transform="translate(32.94 0.282)" fill="none" stroke="#dbdbdb" stroke-miterlimit="10" stroke-width="3"/>
    <path id="Path_25" data-name="Path 25" d="M278.561,495.485l-20.872-.008v-49.4H85.2V100.3h15.882" transform="translate(0 15.012)" fill="none" stroke="#dbdbdb" stroke-miterlimit="10" stroke-width="3"/>
    <path id="Path_26" data-name="Path 26" d="M246.742,188.549h72.725V65.678" transform="translate(68.644 0.301)" fill="none" stroke="#dbdbdb" stroke-miterlimit="10" stroke-width="3"/>
    <path id="Path_27" data-name="Path 27" d="M171.241,148.145v5.362h75.7" transform="translate(36.562 35.343)" fill="none" stroke="#dbdbdb" stroke-miterlimit="10" stroke-width="3"/>
    <line id="Line_255" data-name="Line 255" y2="34.796" transform="translate(207.803 115.311)" fill="none" stroke="#dbdbdb" stroke-miterlimit="10" stroke-width="3"/>
    <line id="Line_256" data-name="Line 256" y1="23.141" transform="translate(207.803 188.85)" fill="none" stroke="#dbdbdb" stroke-miterlimit="10" stroke-width="3"/>
    <path id="Path_28" data-name="Path 28" d="M85.2,283.8H207.8V191.575" transform="translate(0 53.797)" fill="none" stroke="#dbdbdb" stroke-miterlimit="10" stroke-width="3"/>
    <line id="Line_257" data-name="Line 257" y2="41.026" transform="translate(257.63 420.066)" fill="none" stroke="#dbdbdb" stroke-miterlimit="10" stroke-width="3"/>
    <path id="Path_29" data-name="Path 29" d="M171.241,256.3h49.827v49.823" transform="translate(36.562 81.3)" fill="none" stroke="#dbdbdb" stroke-miterlimit="10" stroke-width="3"/>
    <path id="Path_30" data-name="Path 30" d="M257.351,239.958V221.632H480.778" transform="translate(73.152 66.569)" fill="none" stroke="#dbdbdb" stroke-miterlimit="10" stroke-width="3"/>
    <path id="Path_31" data-name="Path 31" d="M333.127,379.1l-75.776.059V257.919" transform="translate(73.152 81.988)" fill="none" stroke="#dbdbdb" stroke-miterlimit="10" stroke-width="3"/>
    <line id="Line_258" data-name="Line 258" x1="33.381" y1="0.013" transform="translate(278.561 510.497)" fill="none" stroke="#dbdbdb" stroke-linecap="round" stroke-linejoin="round" stroke-width="1" stroke-dasharray="7 11"/>
    <line id="Line_259" data-name="Line 259" x1="0.013" y2="33.381" transform="translate(258.419 385.794)" fill="none" stroke="#dbdbdb" stroke-linecap="round" stroke-linejoin="round" stroke-width="1" stroke-dasharray="7 11"/>
    <line id="Line_260" data-name="Line 260" x1="0.013" y2="33.381" transform="translate(330.496 305.849)" fill="none" stroke="#dbdbdb" stroke-linecap="round" stroke-linejoin="round" stroke-width="1" stroke-dasharray="7 11"/>
    <line id="Line_261" data-name="Line 261" x1="33.381" y1="0.013" transform="translate(369.071 373.304)" fill="none" stroke="#dbdbdb" stroke-linecap="round" stroke-linejoin="round" stroke-width="1" stroke-dasharray="7 11"/>
    <path id="Path_32" data-name="Path 32" d="M284.417,292.559V255.006s33.823-2.442,33.38,37.554" transform="translate(84.652 80.738)" fill="none" stroke="#dbdbdb" stroke-linejoin="round" stroke-width="1.098"/>
    <line id="Line_262" data-name="Line 262" x1="0.013" y2="33.381" transform="translate(207.79 211.989)" fill="none" stroke="#dbdbdb" stroke-linecap="round" stroke-linejoin="round" stroke-width="1" stroke-dasharray="7 11"/>
    <line id="Line_263" data-name="Line 263" x1="33.381" y1="0.013" transform="translate(282.541 189.401)" fill="none" stroke="#dbdbdb" stroke-linecap="round" stroke-linejoin="round" stroke-width="1" stroke-dasharray="7 11"/>
    <line id="Line_264" data-name="Line 264" x1="0.013" y2="33.381" transform="translate(207.782 149.644)" fill="none" stroke="#dbdbdb" stroke-linecap="round" stroke-linejoin="round" stroke-width="1" stroke-dasharray="7 11"/>
    <g id="Group_41" data-name="Group 41" transform="translate(85.197 337.599)">
      <g id="Group_36" data-name="Group 36" transform="translate(84.585 95.26)">
        <rect id="Rectangle_12" data-name="Rectangle 12" width="87.11" height="26.648" transform="translate(87.11 26.648) rotate(180)" fill="none" stroke="#dbdbdb" stroke-miterlimit="10" stroke-width="1.098"/>
        <line id="Line_265" data-name="Line 265" x1="87.11" y2="26.648" fill="none" stroke="#dbdbdb" stroke-miterlimit="10" stroke-width="1.098"/>
        <line id="Line_266" data-name="Line 266" x1="87.11" y1="26.648" fill="none" stroke="#dbdbdb" stroke-miterlimit="10" stroke-width="1.098"/>
      </g>
      <g id="Group_37" data-name="Group 37" transform="translate(24.699 87.44)">
        <rect id="Rectangle_13" data-name="Rectangle 13" width="27.262" height="11.433" transform="translate(0 23.921)" fill="none" stroke="#dbdbdb" stroke-miterlimit="10" stroke-width="1.021"/>
        <path id="Path_33" data-name="Path 33" d="M105.915,341.369a15.9,15.9,0,0,1-2.779-9.1c0-8.068,5.717-14.607,12.767-14.607s12.769,6.539,12.769,14.607a15.873,15.873,0,0,1-2.92,9.3" transform="translate(-102.273 -317.664)" fill="none" stroke="#dbdbdb" stroke-miterlimit="10" stroke-width="1.021"/>
      </g>
      <g id="Group_38" data-name="Group 38">
        <path id="Path_34" data-name="Path 34" d="M109.628,293.479A15.287,15.287,0,0,1,94.34,278.191h0A15.288,15.288,0,0,1,109.628,262.9H151.79a15.288,15.288,0,0,1,15.288,15.288h0a15.287,15.287,0,0,1-15.288,15.288Z" transform="translate(-81.312 -253.493)" fill="none" stroke="#dbdbdb" stroke-miterlimit="10" stroke-width="1.098"/>
        <rect id="Rectangle_14" data-name="Rectangle 14" width="98.794" height="49.397" fill="none" stroke="#dbdbdb" stroke-miterlimit="10" stroke-width="1.093"/>
      </g>
      <g id="Group_40" data-name="Group 40" transform="translate(130.024)">
        <ellipse id="Ellipse_1" data-name="Ellipse 1" cx="15.674" cy="11.147" rx="15.674" ry="11.147" fill="none" stroke="#dbdbdb" stroke-miterlimit="10" stroke-width="1.021"/>
        <g id="Group_39" data-name="Group 39" transform="translate(10.667 1.56)">
          <rect id="Rectangle_15" data-name="Rectangle 15" width="2.652" height="9.527" transform="translate(3.681 1.112)" fill="none" stroke="#dbdbdb" stroke-miterlimit="10" stroke-width="1.021"/>
          <rect id="Rectangle_16" data-name="Rectangle 16" width="2.653" height="4.294" fill="none" stroke="#dbdbdb" stroke-miterlimit="10" stroke-width="0.685"/>
          <rect id="Rectangle_17" data-name="Rectangle 17" width="2.652" height="4.294" transform="translate(6.6)" fill="none" stroke="#dbdbdb" stroke-miterlimit="10" stroke-width="0.685"/>
        </g>
      </g>
    </g>
    <g id="Group_47" data-name="Group 47" transform="translate(208.69 108.128)">
      <g id="Group_42" data-name="Group 42" transform="translate(209.888 81.071)">
        <rect id="Rectangle_18" data-name="Rectangle 18" width="43.629" height="86.445" transform="translate(43.629 86.445) rotate(180)" fill="none" stroke="#dbdbdb" stroke-miterlimit="10" stroke-width="1.098"/>
        <path id="Path_35" data-name="Path 35" d="M331.51,152.153V238.6H319.161V152.153" transform="translate(-319.161 -152.153)" fill="none" stroke="#dbdbdb" stroke-miterlimit="10" stroke-width="1.098"/>
        <line id="Line_267" data-name="Line 267" x1="43.104" transform="translate(0.526 43.223)" fill="none" stroke="#dbdbdb" stroke-miterlimit="10" stroke-width="1.098"/>
      </g>
      <rect id="Rectangle_19" data-name="Rectangle 19" width="30.873" height="55.572" transform="translate(301.544 149.23) rotate(180)" fill="none" stroke="#dbdbdb" stroke-miterlimit="10" stroke-width="1.098"/>
      <g id="Group_43" data-name="Group 43" transform="translate(321.082 74.896)">
        <rect id="Rectangle_20" data-name="Rectangle 20" width="11.668" height="70.995" transform="translate(18.361 83.389) rotate(180)" fill="none" stroke="#dbdbdb" stroke-miterlimit="10" stroke-width="1.098"/>
        <rect id="Rectangle_21" data-name="Rectangle 21" width="25.055" height="95.784" transform="translate(25.055 95.784) rotate(180)" fill="none" stroke="#dbdbdb" stroke-miterlimit="10" stroke-width="0.903"/>
      </g>
      <g id="Group_44" data-name="Group 44" transform="translate(122.662 152.442)">
        <rect id="Rectangle_22" data-name="Rectangle 22" width="75.865" height="26.648" transform="translate(75.865 26.648) rotate(180)" fill="none" stroke="#dbdbdb" stroke-miterlimit="10" stroke-width="1.098"/>
        <line id="Line_268" data-name="Line 268" x1="75.865" y2="26.648" transform="translate(0 0)" fill="none" stroke="#dbdbdb" stroke-miterlimit="10" stroke-width="1.098"/>
        <line id="Line_269" data-name="Line 269" x1="75.865" y1="26.648" transform="translate(0 0)" fill="none" stroke="#dbdbdb" stroke-miterlimit="10" stroke-width="1.098"/>
      </g>
      <g id="Group_45" data-name="Group 45" transform="translate(0 80.252)">
        <rect id="Rectangle_23" data-name="Rectangle 23" width="67.936" height="23.863" transform="translate(67.936 23.863) rotate(180)" fill="none" stroke="#dbdbdb" stroke-miterlimit="10" stroke-width="1.098"/>
        <line id="Line_270" data-name="Line 270" x1="67.936" y2="23.863" transform="translate(0)" fill="none" stroke="#dbdbdb" stroke-miterlimit="10" stroke-width="1.098"/>
        <line id="Line_271" data-name="Line 271" x1="67.936" y1="23.863" transform="translate(0)" fill="none" stroke="#dbdbdb" stroke-miterlimit="10" stroke-width="1.098"/>
      </g>
      <g id="Group_46" data-name="Group 46" transform="translate(219.139)">
        <path id="Path_36" data-name="Path 36" d="M334.48,127.872a8.92,8.92,0,0,1,0-17.839" transform="translate(-325.654 -88.98)" fill="none" stroke="#dbdbdb" stroke-linecap="round" stroke-linejoin="round" stroke-width="1.193"/>
        <path id="Path_37" data-name="Path 37" d="M345.176,104.084a8.92,8.92,0,0,1,17.839,0" transform="translate(-317.359 -95.258)" fill="none" stroke="#dbdbdb" stroke-linecap="round" stroke-linejoin="round" stroke-width="1.193"/>
        <path id="Path_38" data-name="Path 38" d="M364.786,104.084a8.92,8.92,0,0,1,17.839,0" transform="translate(-309.026 -95.258)" fill="none" stroke="#dbdbdb" stroke-linecap="round" stroke-linejoin="round" stroke-width="1.193"/>
        <path id="Path_39" data-name="Path 39" d="M382.625,131.23a8.92,8.92,0,0,1-17.839,0" transform="translate(-309.026 -79.973)" fill="none" stroke="#dbdbdb" stroke-linecap="round" stroke-linejoin="round" stroke-width="1.193"/>
        <path id="Path_40" data-name="Path 40" d="M363.015,131.23a8.92,8.92,0,0,1-17.839,0" transform="translate(-317.359 -79.973)" fill="none" stroke="#dbdbdb" stroke-linecap="round" stroke-linejoin="round" stroke-width="1.193"/>
        <path id="Path_41" data-name="Path 41" d="M390.335,110.033a8.92,8.92,0,0,1,0,17.839" transform="translate(-298.17 -88.98)" fill="none" stroke="#dbdbdb" stroke-linecap="round" stroke-linejoin="round" stroke-width="1.193"/>
        <path id="Path_42" data-name="Path 42" d="M352.057,143.745A21.147,21.147,0,0,1,330.91,122.6h0a21.147,21.147,0,0,1,21.147-21.147H396.2A21.146,21.146,0,0,1,417.347,122.6h0A21.146,21.146,0,0,1,396.2,143.745Z" transform="translate(-323.421 -92.626)" fill="none" stroke="#dbdbdb" stroke-miterlimit="10" stroke-width="1.193"/>
      </g>
    </g>
    <g id="Group_58" data-name="Group 58" transform="translate(85.197 132.239)">
      <text id="KITCHEN" transform="translate(46.191 71.199)" fill="#f7f9f9" font-size="12" font-family="Quicksand-Bold, Quicksand" font-weight="700"><tspan x="0" y="0">KITCHEN</tspan></text>
      <rect id="Rectangle_24" data-name="Rectangle 24" width="37.058" height="36.669" transform="translate(0.189 205.506) rotate(-90)" fill="none" stroke="#dbdbdb" stroke-miterlimit="10" stroke-width="1.098"/>
      <g id="Group_53" data-name="Group 53" transform="translate(0.189 57.175)">
        <rect id="Rectangle_25" data-name="Rectangle 25" width="37.058" height="36.669" transform="translate(0 37.058) rotate(-90)" fill="none" stroke="#dbdbdb" stroke-miterlimit="10" stroke-width="1.098"/>
        <g id="Group_52" data-name="Group 52" transform="translate(5.025 5.494)">
          <g id="Group_48" data-name="Group 48" transform="translate(17.11)">
            <path id="Path_43" data-name="Path 43" d="M105.491,156.16a4.677,4.677,0,1,1-4.627,4.677A4.652,4.652,0,0,1,105.491,156.16Z" transform="translate(-100.864 -156.16)" fill="none" stroke="#dbdbdb" stroke-miterlimit="10" stroke-width="1.098"/>
            <path id="Path_44" data-name="Path 44" d="M104.7,158.042a1.995,1.995,0,1,1-1.974,1.995A1.985,1.985,0,0,1,104.7,158.042Z" transform="translate(-100.073 -155.36)" fill="none" stroke="#dbdbdb" stroke-miterlimit="10" stroke-width="1.098"/>
          </g>
          <g id="Group_49" data-name="Group 49">
            <path id="Path_45" data-name="Path 45" d="M93.483,156.16a4.677,4.677,0,1,1-4.627,4.677A4.652,4.652,0,0,1,93.483,156.16Z" transform="translate(-88.856 -156.16)" fill="none" stroke="#dbdbdb" stroke-miterlimit="10" stroke-width="1.098"/>
            <path id="Path_46" data-name="Path 46" d="M92.692,158.042a1.995,1.995,0,1,1-1.974,1.995A1.985,1.985,0,0,1,92.692,158.042Z" transform="translate(-88.065 -155.36)" fill="none" stroke="#dbdbdb" stroke-miterlimit="10" stroke-width="1.098"/>
          </g>
          <g id="Group_50" data-name="Group 50" transform="translate(17.11 16.68)">
            <path id="Path_47" data-name="Path 47" d="M105.491,167.866a4.677,4.677,0,1,1-4.627,4.677A4.652,4.652,0,0,1,105.491,167.866Z" transform="translate(-100.864 -167.866)" fill="none" stroke="#dbdbdb" stroke-miterlimit="10" stroke-width="1.098"/>
            <path id="Path_48" data-name="Path 48" d="M104.7,169.748a2,2,0,1,1-1.974,1.995A1.985,1.985,0,0,1,104.7,169.748Z" transform="translate(-100.073 -167.066)" fill="none" stroke="#dbdbdb" stroke-miterlimit="10" stroke-width="1.098"/>
          </g>
          <g id="Group_51" data-name="Group 51" transform="translate(0 16.68)">
            <path id="Path_49" data-name="Path 49" d="M93.483,167.866a4.677,4.677,0,1,1-4.627,4.677A4.652,4.652,0,0,1,93.483,167.866Z" transform="translate(-88.856 -167.866)" fill="none" stroke="#dbdbdb" stroke-miterlimit="10" stroke-width="1.098"/>
            <path id="Path_50" data-name="Path 50" d="M92.692,169.748a2,2,0,1,1-1.974,1.995A1.985,1.985,0,0,1,92.692,169.748Z" transform="translate(-88.065 -167.066)" fill="none" stroke="#dbdbdb" stroke-miterlimit="10" stroke-width="1.098"/>
          </g>
        </g>
      </g>
      <g id="Group_55" data-name="Group 55" transform="translate(0.189 94.367)">
        <path id="Path_51" data-name="Path 51" d="M85.33,252.2V178.4H122V252.2" transform="translate(-85.33 -178.405)" fill="none" stroke="#dbdbdb" stroke-miterlimit="10" stroke-width="1.098"/>
        <g id="Group_54" data-name="Group 54" transform="translate(6.215 27.691)">
          <rect id="Rectangle_26" data-name="Rectangle 26" width="35.989" height="23.161" rx="4.487" transform="translate(0 35.989) rotate(-90)" fill="none" stroke="#dbdbdb" stroke-miterlimit="10" stroke-width="1.098"/>
          <rect id="Rectangle_27" data-name="Rectangle 27" width="3.207" height="9.784" transform="translate(0 19.598) rotate(-90)" fill="none" stroke="#dbdbdb" stroke-miterlimit="10" stroke-width="1.098"/>
        </g>
      </g>
      <g id="Group_56" data-name="Group 56" transform="translate(93.508 119.15)">
        <rect id="Rectangle_28" data-name="Rectangle 28" width="87.11" height="30.259" transform="translate(30.259 0) rotate(90)" fill="none" stroke="#dbdbdb" stroke-miterlimit="10" stroke-width="1.171"/>
        <line id="Line_272" data-name="Line 272" x2="30.259" y2="87.11" transform="translate(0)" fill="none" stroke="#dbdbdb" stroke-miterlimit="10" stroke-width="1.171"/>
        <line id="Line_273" data-name="Line 273" x1="30.259" y2="87.11" transform="translate(0)" fill="none" stroke="#dbdbdb" stroke-miterlimit="10" stroke-width="1.171"/>
      </g>
      <g id="Group_57" data-name="Group 57" transform="translate(38.446 0)">
        <path id="Path_52" data-name="Path 52" d="M152.3,140.378a7.59,7.59,0,0,1-15.178,0" transform="translate(-101.578 -100.197)" fill="none" stroke="#dbdbdb" stroke-miterlimit="10" stroke-width="1.193"/>
        <path id="Path_53" data-name="Path 53" d="M138.308,140.378a7.59,7.59,0,0,1-15.178,0" transform="translate(-107.524 -100.197)" fill="none" stroke="#dbdbdb" stroke-miterlimit="10" stroke-width="1.193"/>
        <path id="Path_54" data-name="Path 54" d="M123.13,119.688a7.59,7.59,0,0,1,15.178,0" transform="translate(-107.524 -112.179)" fill="none" stroke="#dbdbdb" stroke-miterlimit="10" stroke-width="1.193"/>
        <path id="Path_55" data-name="Path 55" d="M137.125,119.688a7.59,7.59,0,0,1,15.178,0" transform="translate(-101.578 -112.179)" fill="none" stroke="#dbdbdb" stroke-miterlimit="10" stroke-width="1.193"/>
        <path id="Path_56" data-name="Path 56" d="M162.626,117.447a16.34,16.34,0,0,1,16.34,16.34h0a16.338,16.338,0,0,1-16.34,16.338H128.518a16.338,16.338,0,0,1-16.34-16.338h0a16.34,16.34,0,0,1,16.34-16.34Z" transform="translate(-112.178 -109.941)" fill="none" stroke="#dbdbdb" stroke-miterlimit="10" stroke-width="1.193"/>
      </g>
      <path id="Path_57" data-name="Path 57" d="M122.055,161.575s1.555-31.089-36.858-31.089" transform="translate(-85.197 -104.4)" fill="none" stroke="#dbdbdb" stroke-miterlimit="10" stroke-width="1.098"/>
    </g>
    <line id="Line_274" data-name="Line 274" y2="4.869" transform="translate(102.533 112.996)" fill="none" stroke="#dbdbdb" stroke-miterlimit="10" stroke-width="1"/>
    <g id="Group_59" data-name="Group 59" transform="translate(102.073 111.942)">
      <line id="Line_275" data-name="Line 275" y2="4.869" transform="translate(3.666 1.054)" fill="none" stroke="#dbdbdb" stroke-miterlimit="10" stroke-width="1"/>
      <line id="Line_276" data-name="Line 276" y2="4.869" transform="translate(6.872 1.054)" fill="none" stroke="#dbdbdb" stroke-miterlimit="10" stroke-width="1"/>
      <line id="Line_277" data-name="Line 277" y2="4.869" transform="translate(10.078 1.054)" fill="none" stroke="#dbdbdb" stroke-miterlimit="10" stroke-width="1"/>
      <line id="Line_278" data-name="Line 278" y2="4.869" transform="translate(13.284 1.054)" fill="none" stroke="#dbdbdb" stroke-miterlimit="10" stroke-width="1"/>
      <line id="Line_279" data-name="Line 279" y2="4.869" transform="translate(16.49 1.054)" fill="none" stroke="#dbdbdb" stroke-miterlimit="10" stroke-width="1"/>
      <line id="Line_280" data-name="Line 280" y2="4.869" transform="translate(19.697 1.054)" fill="none" stroke="#dbdbdb" stroke-miterlimit="10" stroke-width="1"/>
      <line id="Line_281" data-name="Line 281" y2="4.869" transform="translate(22.903 1.054)" fill="none" stroke="#dbdbdb" stroke-miterlimit="10" stroke-width="1"/>
      <line id="Line_282" data-name="Line 282" y2="4.869" transform="translate(26.109 1.054)" fill="none" stroke="#dbdbdb" stroke-miterlimit="10" stroke-width="1"/>
      <line id="Line_283" data-name="Line 283" y2="4.869" transform="translate(29.315 1.054)" fill="none" stroke="#dbdbdb" stroke-miterlimit="10" stroke-width="1"/>
      <line id="Line_284" data-name="Line 284" y2="4.869" transform="translate(32.521 1.054)" fill="none" stroke="#dbdbdb" stroke-miterlimit="10" stroke-width="1"/>
      <line id="Line_285" data-name="Line 285" y2="4.869" transform="translate(35.727 1.054)" fill="none" stroke="#dbdbdb" stroke-miterlimit="10" stroke-width="1"/>
      <line id="Line_286" data-name="Line 286" y2="4.869" transform="translate(38.933 1.054)" fill="none" stroke="#dbdbdb" stroke-miterlimit="10" stroke-width="1"/>
      <line id="Line_287" data-name="Line 287" y2="4.869" transform="translate(42.139 1.054)" fill="none" stroke="#dbdbdb" stroke-miterlimit="10" stroke-width="1"/>
      <line id="Line_288" data-name="Line 288" y2="4.869" transform="translate(45.345 1.054)" fill="none" stroke="#dbdbdb" stroke-miterlimit="10" stroke-width="1"/>
      <line id="Line_289" data-name="Line 289" y2="4.869" transform="translate(48.551 1.054)" fill="none" stroke="#dbdbdb" stroke-miterlimit="10" stroke-width="1"/>
      <line id="Line_290" data-name="Line 290" y2="4.869" transform="translate(51.757 1.054)" fill="none" stroke="#dbdbdb" stroke-miterlimit="10" stroke-width="1"/>
      <line id="Line_291" data-name="Line 291" y2="4.869" transform="translate(54.963 1.054)" fill="none" stroke="#dbdbdb" stroke-miterlimit="10" stroke-width="1"/>
      <line id="Line_292" data-name="Line 292" y2="4.869" transform="translate(58.169 1.054)" fill="none" stroke="#dbdbdb" stroke-miterlimit="10" stroke-width="1"/>
      <line id="Line_293" data-name="Line 293" y2="4.869" transform="translate(61.375 1.054)" fill="none" stroke="#dbdbdb" stroke-miterlimit="10" stroke-width="1"/>
      <line id="Line_294" data-name="Line 294" y2="4.869" transform="translate(64.581 1.054)" fill="none" stroke="#dbdbdb" stroke-miterlimit="10" stroke-width="1"/>
      <line id="Line_295" data-name="Line 295" y2="4.869" transform="translate(67.788 1.054)" fill="none" stroke="#dbdbdb" stroke-miterlimit="10" stroke-width="1"/>
      <line id="Line_296" data-name="Line 296" y2="4.869" transform="translate(70.994 1.054)" fill="none" stroke="#dbdbdb" stroke-miterlimit="10" stroke-width="1"/>
      <line id="Line_297" data-name="Line 297" y2="4.869" transform="translate(74.2 1.054)" fill="none" stroke="#dbdbdb" stroke-miterlimit="10" stroke-width="1"/>
      <line id="Line_298" data-name="Line 298" y2="4.869" transform="translate(77.406 1.054)" fill="none" stroke="#dbdbdb" stroke-miterlimit="10" stroke-width="1"/>
      <line id="Line_299" data-name="Line 299" y2="4.869" transform="translate(80.612 1.054)" fill="none" stroke="#dbdbdb" stroke-miterlimit="10" stroke-width="1"/>
      <line id="Line_300" data-name="Line 300" y2="4.869" transform="translate(83.818 1.054)" fill="none" stroke="#dbdbdb" stroke-miterlimit="10" stroke-width="1"/>
      <line id="Line_301" data-name="Line 301" y2="4.869" transform="translate(87.024 1.054)" fill="none" stroke="#dbdbdb" stroke-miterlimit="10" stroke-width="1"/>
      <rect id="Rectangle_29" data-name="Rectangle 29" width="6.739" height="93.585" transform="translate(93.585 0) rotate(90)" fill="none" stroke="#dbdbdb" stroke-miterlimit="10" stroke-width="1.483"/>
      <line id="Line_302" data-name="Line 302" y2="4.869" transform="translate(3.666 1.054)" fill="none" stroke="#dbdbdb" stroke-miterlimit="10" stroke-width="1"/>
      <line id="Line_303" data-name="Line 303" y2="4.869" transform="translate(6.872 1.054)" fill="none" stroke="#dbdbdb" stroke-miterlimit="10" stroke-width="1"/>
      <line id="Line_304" data-name="Line 304" y2="4.869" transform="translate(10.078 1.054)" fill="none" stroke="#dbdbdb" stroke-miterlimit="10" stroke-width="1"/>
      <line id="Line_305" data-name="Line 305" y2="4.869" transform="translate(13.284 1.054)" fill="none" stroke="#dbdbdb" stroke-miterlimit="10" stroke-width="1"/>
      <line id="Line_306" data-name="Line 306" y2="4.869" transform="translate(16.49 1.054)" fill="none" stroke="#dbdbdb" stroke-miterlimit="10" stroke-width="1"/>
      <line id="Line_307" data-name="Line 307" y2="4.869" transform="translate(19.697 1.054)" fill="none" stroke="#dbdbdb" stroke-miterlimit="10" stroke-width="1"/>
      <line id="Line_308" data-name="Line 308" y2="4.869" transform="translate(22.903 1.054)" fill="none" stroke="#dbdbdb" stroke-miterlimit="10" stroke-width="1"/>
      <line id="Line_309" data-name="Line 309" y2="4.869" transform="translate(26.109 1.054)" fill="none" stroke="#dbdbdb" stroke-miterlimit="10" stroke-width="1"/>
      <line id="Line_310" data-name="Line 310" y2="4.869" transform="translate(29.315 1.054)" fill="none" stroke="#dbdbdb" stroke-miterlimit="10" stroke-width="1"/>
      <line id="Line_311" data-name="Line 311" y2="4.869" transform="translate(32.521 1.054)" fill="none" stroke="#dbdbdb" stroke-miterlimit="10" stroke-width="1"/>
      <line id="Line_312" data-name="Line 312" y2="4.869" transform="translate(35.727 1.054)" fill="none" stroke="#dbdbdb" stroke-miterlimit="10" stroke-width="1"/>
      <line id="Line_313" data-name="Line 313" y2="4.869" transform="translate(38.933 1.054)" fill="none" stroke="#dbdbdb" stroke-miterlimit="10" stroke-width="1"/>
      <line id="Line_314" data-name="Line 314" y2="4.869" transform="translate(42.139 1.054)" fill="none" stroke="#dbdbdb" stroke-miterlimit="10" stroke-width="1"/>
      <line id="Line_315" data-name="Line 315" y2="4.869" transform="translate(45.345 1.054)" fill="none" stroke="#dbdbdb" stroke-miterlimit="10" stroke-width="1"/>
      <line id="Line_316" data-name="Line 316" y2="4.869" transform="translate(48.551 1.054)" fill="none" stroke="#dbdbdb" stroke-miterlimit="10" stroke-width="1"/>
      <line id="Line_317" data-name="Line 317" y2="4.869" transform="translate(51.757 1.054)" fill="none" stroke="#dbdbdb" stroke-miterlimit="10" stroke-width="1"/>
      <line id="Line_318" data-name="Line 318" y2="4.869" transform="translate(54.963 1.054)" fill="none" stroke="#dbdbdb" stroke-miterlimit="10" stroke-width="1"/>
      <line id="Line_319" data-name="Line 319" y2="4.869" transform="translate(58.169 1.054)" fill="none" stroke="#dbdbdb" stroke-miterlimit="10" stroke-width="1"/>
      <line id="Line_320" data-name="Line 320" y2="4.869" transform="translate(61.375 1.054)" fill="none" stroke="#dbdbdb" stroke-miterlimit="10" stroke-width="1"/>
      <line id="Line_321" data-name="Line 321" y2="4.869" transform="translate(64.581 1.054)" fill="none" stroke="#dbdbdb" stroke-miterlimit="10" stroke-width="1"/>
      <line id="Line_322" data-name="Line 322" y2="4.869" transform="translate(67.788 1.054)" fill="none" stroke="#dbdbdb" stroke-miterlimit="10" stroke-width="1"/>
      <line id="Line_323" data-name="Line 323" y2="4.869" transform="translate(70.994 1.054)" fill="none" stroke="#dbdbdb" stroke-miterlimit="10" stroke-width="1"/>
      <line id="Line_324" data-name="Line 324" y2="4.869" transform="translate(74.2 1.054)" fill="none" stroke="#dbdbdb" stroke-miterlimit="10" stroke-width="1"/>
      <line id="Line_325" data-name="Line 325" y2="4.869" transform="translate(77.406 1.054)" fill="none" stroke="#dbdbdb" stroke-miterlimit="10" stroke-width="1"/>
      <line id="Line_326" data-name="Line 326" y2="4.869" transform="translate(80.612 1.054)" fill="none" stroke="#dbdbdb" stroke-miterlimit="10" stroke-width="1"/>
      <line id="Line_327" data-name="Line 327" y2="4.869" transform="translate(83.818 1.054)" fill="none" stroke="#dbdbdb" stroke-miterlimit="10" stroke-width="1"/>
      <line id="Line_328" data-name="Line 328" y2="4.869" transform="translate(87.024 1.054)" fill="none" stroke="#dbdbdb" stroke-miterlimit="10" stroke-width="1"/>
      <line id="Line_329" data-name="Line 329" y2="4.869" transform="translate(90.141 1.054)" fill="none" stroke="#dbdbdb" stroke-miterlimit="10" stroke-width="1"/>
    </g>
    <g id="Group_61" data-name="Group 61" transform="translate(551.101 101.122)">
      <rect id="Rectangle_30" data-name="Rectangle 30" width="6.739" height="58.126" fill="none" stroke="#dbdbdb" stroke-miterlimit="10" stroke-width="1.483"/>
      <g id="Group_60" data-name="Group 60" transform="translate(0.816 3.666)">
        <line id="Line_330" data-name="Line 330" x1="4.868" fill="none" stroke="#dbdbdb" stroke-miterlimit="10" stroke-width="1"/>
        <line id="Line_331" data-name="Line 331" x1="4.868" transform="translate(0 3.206)" fill="none" stroke="#dbdbdb" stroke-miterlimit="10" stroke-width="1"/>
        <line id="Line_332" data-name="Line 332" x1="4.868" transform="translate(0 6.412)" fill="none" stroke="#dbdbdb" stroke-miterlimit="10" stroke-width="1"/>
        <line id="Line_333" data-name="Line 333" x1="4.868" transform="translate(0 9.618)" fill="none" stroke="#dbdbdb" stroke-miterlimit="10" stroke-width="1"/>
        <line id="Line_334" data-name="Line 334" x1="4.868" transform="translate(0 12.824)" fill="none" stroke="#dbdbdb" stroke-miterlimit="10" stroke-width="1"/>
        <line id="Line_335" data-name="Line 335" x1="4.868" transform="translate(0 16.03)" fill="none" stroke="#dbdbdb" stroke-miterlimit="10" stroke-width="1"/>
        <line id="Line_336" data-name="Line 336" x1="4.868" transform="translate(0 19.236)" fill="none" stroke="#dbdbdb" stroke-miterlimit="10" stroke-width="1"/>
        <line id="Line_337" data-name="Line 337" x1="4.868" transform="translate(0 22.442)" fill="none" stroke="#dbdbdb" stroke-miterlimit="10" stroke-width="1"/>
        <line id="Line_338" data-name="Line 338" x1="4.868" transform="translate(0 25.649)" fill="none" stroke="#dbdbdb" stroke-miterlimit="10" stroke-width="1"/>
        <line id="Line_339" data-name="Line 339" x1="4.868" transform="translate(0 28.855)" fill="none" stroke="#dbdbdb" stroke-miterlimit="10" stroke-width="1"/>
        <line id="Line_340" data-name="Line 340" x1="4.868" transform="translate(0 32.061)" fill="none" stroke="#dbdbdb" stroke-miterlimit="10" stroke-width="1"/>
        <line id="Line_341" data-name="Line 341" x1="4.868" transform="translate(0 35.267)" fill="none" stroke="#dbdbdb" stroke-miterlimit="10" stroke-width="1"/>
        <line id="Line_342" data-name="Line 342" x1="4.868" transform="translate(0 38.473)" fill="none" stroke="#dbdbdb" stroke-miterlimit="10" stroke-width="1"/>
        <line id="Line_343" data-name="Line 343" x1="4.868" transform="translate(0 41.679)" fill="none" stroke="#dbdbdb" stroke-miterlimit="10" stroke-width="1"/>
        <line id="Line_344" data-name="Line 344" x1="4.868" transform="translate(0 44.885)" fill="none" stroke="#dbdbdb" stroke-miterlimit="10" stroke-width="1"/>
        <line id="Line_345" data-name="Line 345" x1="4.868" transform="translate(0 48.091)" fill="none" stroke="#dbdbdb" stroke-miterlimit="10" stroke-width="1"/>
        <line id="Line_346" data-name="Line 346" x1="4.868" transform="translate(0 51.297)" fill="none" stroke="#dbdbdb" stroke-miterlimit="10" stroke-width="1"/>
        <line id="Line_347" data-name="Line 347" x1="4.868" transform="translate(0 54.503)" fill="none" stroke="#dbdbdb" stroke-miterlimit="10" stroke-width="1"/>
        <line id="Line_348" data-name="Line 348" x1="4.868" fill="none" stroke="#dbdbdb" stroke-miterlimit="10" stroke-width="1"/>
        <line id="Line_349" data-name="Line 349" x1="4.868" transform="translate(0 3.206)" fill="none" stroke="#dbdbdb" stroke-miterlimit="10" stroke-width="1"/>
        <line id="Line_350" data-name="Line 350" x1="4.868" transform="translate(0 6.412)" fill="none" stroke="#dbdbdb" stroke-miterlimit="10" stroke-width="1"/>
        <line id="Line_351" data-name="Line 351" x1="4.868" transform="translate(0 9.618)" fill="none" stroke="#dbdbdb" stroke-miterlimit="10" stroke-width="1"/>
        <line id="Line_352" data-name="Line 352" x1="4.868" transform="translate(0 12.824)" fill="none" stroke="#dbdbdb" stroke-miterlimit="10" stroke-width="1"/>
        <line id="Line_353" data-name="Line 353" x1="4.868" transform="translate(0 16.03)" fill="none" stroke="#dbdbdb" stroke-miterlimit="10" stroke-width="1"/>
        <line id="Line_354" data-name="Line 354" x1="4.868" transform="translate(0 19.236)" fill="none" stroke="#dbdbdb" stroke-miterlimit="10" stroke-width="1"/>
        <line id="Line_355" data-name="Line 355" x1="4.868" transform="translate(0 22.442)" fill="none" stroke="#dbdbdb" stroke-miterlimit="10" stroke-width="1"/>
        <line id="Line_356" data-name="Line 356" x1="4.868" transform="translate(0 25.649)" fill="none" stroke="#dbdbdb" stroke-miterlimit="10" stroke-width="1"/>
        <line id="Line_357" data-name="Line 357" x1="4.868" transform="translate(0 28.855)" fill="none" stroke="#dbdbdb" stroke-miterlimit="10" stroke-width="1"/>
        <line id="Line_358" data-name="Line 358" x1="4.868" transform="translate(0 32.061)" fill="none" stroke="#dbdbdb" stroke-miterlimit="10" stroke-width="1"/>
        <line id="Line_359" data-name="Line 359" x1="4.868" transform="translate(0 35.267)" fill="none" stroke="#dbdbdb" stroke-miterlimit="10" stroke-width="1"/>
        <line id="Line_360" data-name="Line 360" x1="4.868" transform="translate(0 38.473)" fill="none" stroke="#dbdbdb" stroke-miterlimit="10" stroke-width="1"/>
        <line id="Line_361" data-name="Line 361" x1="4.868" transform="translate(0 41.679)" fill="none" stroke="#dbdbdb" stroke-miterlimit="10" stroke-width="1"/>
        <line id="Line_362" data-name="Line 362" x1="4.868" transform="translate(0 44.885)" fill="none" stroke="#dbdbdb" stroke-miterlimit="10" stroke-width="1"/>
        <line id="Line_363" data-name="Line 363" x1="4.868" transform="translate(0 48.091)" fill="none" stroke="#dbdbdb" stroke-miterlimit="10" stroke-width="1"/>
        <line id="Line_364" data-name="Line 364" x1="4.868" transform="translate(0 51.297)" fill="none" stroke="#dbdbdb" stroke-miterlimit="10" stroke-width="1"/>
        <line id="Line_365" data-name="Line 365" x1="4.868" transform="translate(0 54.503)" fill="none" stroke="#dbdbdb" stroke-miterlimit="10" stroke-width="1"/>
      </g>
    </g>
    <g id="Group_62" data-name="Group 62" transform="translate(550.863 343.187)">
      <line id="Line_366" data-name="Line 366" x1="4.868" transform="translate(0.816 3.666)" fill="none" stroke="#dbdbdb" stroke-miterlimit="10" stroke-width="1"/>
      <line id="Line_367" data-name="Line 367" x1="4.868" transform="translate(0.816 6.872)" fill="none" stroke="#dbdbdb" stroke-miterlimit="10" stroke-width="1"/>
      <line id="Line_368" data-name="Line 368" x1="4.868" transform="translate(0.816 10.078)" fill="none" stroke="#dbdbdb" stroke-miterlimit="10" stroke-width="1"/>
      <line id="Line_369" data-name="Line 369" x1="4.868" transform="translate(0.816 13.284)" fill="none" stroke="#dbdbdb" stroke-miterlimit="10" stroke-width="1"/>
      <line id="Line_370" data-name="Line 370" x1="4.868" transform="translate(0.816 16.49)" fill="none" stroke="#dbdbdb" stroke-miterlimit="10" stroke-width="1"/>
      <line id="Line_371" data-name="Line 371" x1="4.868" transform="translate(0.816 19.696)" fill="none" stroke="#dbdbdb" stroke-miterlimit="10" stroke-width="1"/>
      <line id="Line_372" data-name="Line 372" x1="4.868" transform="translate(0.816 22.903)" fill="none" stroke="#dbdbdb" stroke-miterlimit="10" stroke-width="1"/>
      <line id="Line_373" data-name="Line 373" x1="4.868" transform="translate(0.816 26.109)" fill="none" stroke="#dbdbdb" stroke-miterlimit="10" stroke-width="1"/>
      <line id="Line_374" data-name="Line 374" x1="4.868" transform="translate(0.816 29.315)" fill="none" stroke="#dbdbdb" stroke-miterlimit="10" stroke-width="1"/>
      <line id="Line_375" data-name="Line 375" x1="4.868" transform="translate(0.816 32.521)" fill="none" stroke="#dbdbdb" stroke-miterlimit="10" stroke-width="1"/>
      <line id="Line_376" data-name="Line 376" x1="4.868" transform="translate(0.816 35.727)" fill="none" stroke="#dbdbdb" stroke-miterlimit="10" stroke-width="1"/>
      <line id="Line_377" data-name="Line 377" x1="4.868" transform="translate(0.816 38.933)" fill="none" stroke="#dbdbdb" stroke-miterlimit="10" stroke-width="1"/>
      <line id="Line_378" data-name="Line 378" x1="4.868" transform="translate(0.816 42.139)" fill="none" stroke="#dbdbdb" stroke-miterlimit="10" stroke-width="1"/>
      <line id="Line_379" data-name="Line 379" x1="4.868" transform="translate(0.816 45.345)" fill="none" stroke="#dbdbdb" stroke-miterlimit="10" stroke-width="1"/>
      <line id="Line_380" data-name="Line 380" x1="4.868" transform="translate(0.816 48.551)" fill="none" stroke="#dbdbdb" stroke-miterlimit="10" stroke-width="1"/>
      <line id="Line_381" data-name="Line 381" x1="4.868" transform="translate(0.816 51.757)" fill="none" stroke="#dbdbdb" stroke-miterlimit="10" stroke-width="1"/>
      <line id="Line_382" data-name="Line 382" x1="4.868" transform="translate(0.816 54.963)" fill="none" stroke="#dbdbdb" stroke-miterlimit="10" stroke-width="1"/>
      <line id="Line_383" data-name="Line 383" x1="4.868" transform="translate(0.816 58.169)" fill="none" stroke="#dbdbdb" stroke-miterlimit="10" stroke-width="1"/>
      <line id="Line_384" data-name="Line 384" x1="4.868" transform="translate(0.816 61.375)" fill="none" stroke="#dbdbdb" stroke-miterlimit="10" stroke-width="1"/>
      <line id="Line_385" data-name="Line 385" x1="4.868" transform="translate(0.816 64.581)" fill="none" stroke="#dbdbdb" stroke-miterlimit="10" stroke-width="1"/>
      <line id="Line_386" data-name="Line 386" x1="4.868" transform="translate(0.816 67.788)" fill="none" stroke="#dbdbdb" stroke-miterlimit="10" stroke-width="1"/>
      <line id="Line_387" data-name="Line 387" x1="4.868" transform="translate(0.816 70.994)" fill="none" stroke="#dbdbdb" stroke-miterlimit="10" stroke-width="1"/>
      <line id="Line_388" data-name="Line 388" x1="4.868" transform="translate(0.816 74.2)" fill="none" stroke="#dbdbdb" stroke-miterlimit="10" stroke-width="1"/>
      <line id="Line_389" data-name="Line 389" x1="4.868" transform="translate(0.816 77.406)" fill="none" stroke="#dbdbdb" stroke-miterlimit="10" stroke-width="1"/>
      <line id="Line_390" data-name="Line 390" x1="4.868" transform="translate(0.816 80.612)" fill="none" stroke="#dbdbdb" stroke-miterlimit="10" stroke-width="1"/>
      <line id="Line_391" data-name="Line 391" x1="4.868" transform="translate(0.816 83.818)" fill="none" stroke="#dbdbdb" stroke-miterlimit="10" stroke-width="1"/>
      <line id="Line_392" data-name="Line 392" x1="4.868" transform="translate(0.816 87.024)" fill="none" stroke="#dbdbdb" stroke-miterlimit="10" stroke-width="1"/>
      <rect id="Rectangle_31" data-name="Rectangle 31" width="6.739" height="93.585" transform="translate(6.739 93.585) rotate(180)" fill="none" stroke="#dbdbdb" stroke-miterlimit="10" stroke-width="1.483"/>
      <line id="Line_393" data-name="Line 393" x1="4.868" transform="translate(0.816 3.666)" fill="none" stroke="#dbdbdb" stroke-miterlimit="10" stroke-width="1"/>
      <line id="Line_394" data-name="Line 394" x1="4.868" transform="translate(0.816 6.872)" fill="none" stroke="#dbdbdb" stroke-miterlimit="10" stroke-width="1"/>
      <line id="Line_395" data-name="Line 395" x1="4.868" transform="translate(0.816 10.078)" fill="none" stroke="#dbdbdb" stroke-miterlimit="10" stroke-width="1"/>
      <line id="Line_396" data-name="Line 396" x1="4.868" transform="translate(0.816 13.284)" fill="none" stroke="#dbdbdb" stroke-miterlimit="10" stroke-width="1"/>
      <line id="Line_397" data-name="Line 397" x1="4.868" transform="translate(0.816 16.49)" fill="none" stroke="#dbdbdb" stroke-miterlimit="10" stroke-width="1"/>
      <line id="Line_398" data-name="Line 398" x1="4.868" transform="translate(0.816 19.696)" fill="none" stroke="#dbdbdb" stroke-miterlimit="10" stroke-width="1"/>
      <line id="Line_399" data-name="Line 399" x1="4.868" transform="translate(0.816 22.903)" fill="none" stroke="#dbdbdb" stroke-miterlimit="10" stroke-width="1"/>
      <line id="Line_400" data-name="Line 400" x1="4.868" transform="translate(0.816 26.109)" fill="none" stroke="#dbdbdb" stroke-miterlimit="10" stroke-width="1"/>
      <line id="Line_401" data-name="Line 401" x1="4.868" transform="translate(0.816 29.315)" fill="none" stroke="#dbdbdb" stroke-miterlimit="10" stroke-width="1"/>
      <line id="Line_402" data-name="Line 402" x1="4.868" transform="translate(0.816 32.521)" fill="none" stroke="#dbdbdb" stroke-miterlimit="10" stroke-width="1"/>
      <line id="Line_403" data-name="Line 403" x1="4.868" transform="translate(0.816 35.727)" fill="none" stroke="#dbdbdb" stroke-miterlimit="10" stroke-width="1"/>
      <line id="Line_404" data-name="Line 404" x1="4.868" transform="translate(0.816 38.933)" fill="none" stroke="#dbdbdb" stroke-miterlimit="10" stroke-width="1"/>
      <line id="Line_405" data-name="Line 405" x1="4.868" transform="translate(0.816 42.139)" fill="none" stroke="#dbdbdb" stroke-miterlimit="10" stroke-width="1"/>
      <line id="Line_406" data-name="Line 406" x1="4.868" transform="translate(0.816 45.345)" fill="none" stroke="#dbdbdb" stroke-miterlimit="10" stroke-width="1"/>
      <line id="Line_407" data-name="Line 407" x1="4.868" transform="translate(0.816 48.551)" fill="none" stroke="#dbdbdb" stroke-miterlimit="10" stroke-width="1"/>
      <line id="Line_408" data-name="Line 408" x1="4.868" transform="translate(0.816 51.757)" fill="none" stroke="#dbdbdb" stroke-miterlimit="10" stroke-width="1"/>
      <line id="Line_409" data-name="Line 409" x1="4.868" transform="translate(0.816 54.963)" fill="none" stroke="#dbdbdb" stroke-miterlimit="10" stroke-width="1"/>
      <line id="Line_410" data-name="Line 410" x1="4.868" transform="translate(0.816 58.169)" fill="none" stroke="#dbdbdb" stroke-miterlimit="10" stroke-width="1"/>
      <line id="Line_411" data-name="Line 411" x1="4.868" transform="translate(0.816 61.375)" fill="none" stroke="#dbdbdb" stroke-miterlimit="10" stroke-width="1"/>
      <line id="Line_412" data-name="Line 412" x1="4.868" transform="translate(0.816 64.581)" fill="none" stroke="#dbdbdb" stroke-miterlimit="10" stroke-width="1"/>
      <line id="Line_413" data-name="Line 413" x1="4.868" transform="translate(0.816 67.788)" fill="none" stroke="#dbdbdb" stroke-miterlimit="10" stroke-width="1"/>
      <line id="Line_414" data-name="Line 414" x1="4.868" transform="translate(0.816 70.994)" fill="none" stroke="#dbdbdb" stroke-miterlimit="10" stroke-width="1"/>
      <line id="Line_415" data-name="Line 415" x1="4.868" transform="translate(0.816 74.2)" fill="none" stroke="#dbdbdb" stroke-miterlimit="10" stroke-width="1"/>
      <line id="Line_416" data-name="Line 416" x1="4.868" transform="translate(0.816 77.406)" fill="none" stroke="#dbdbdb" stroke-miterlimit="10" stroke-width="1"/>
      <line id="Line_417" data-name="Line 417" x1="4.868" transform="translate(0.816 80.612)" fill="none" stroke="#dbdbdb" stroke-miterlimit="10" stroke-width="1"/>
      <line id="Line_418" data-name="Line 418" x1="4.868" transform="translate(0.816 83.818)" fill="none" stroke="#dbdbdb" stroke-miterlimit="10" stroke-width="1"/>
      <line id="Line_419" data-name="Line 419" x1="4.868" transform="translate(0.816 87.024)" fill="none" stroke="#dbdbdb" stroke-miterlimit="10" stroke-width="1"/>
      <line id="Line_420" data-name="Line 420" x1="4.868" transform="translate(0.816 90.141)" fill="none" stroke="#dbdbdb" stroke-miterlimit="10" stroke-width="1"/>
    </g>
  </g>
</svg>
