<svg xmlns="http://www.w3.org/2000/svg" width="16.317" height="12.238" viewBox="0 0 16.317 12.238">
  <g id="camera" transform="translate(0 -4.5)">
    <path id="Path_1594" data-name="Path 1594" d="M15.3,14.7V8.579a1.02,1.02,0,0,0-1.02-1.02h-1.2a3.059,3.059,0,0,1-2.162-.9l-.846-.844a1.02,1.02,0,0,0-.719-.3H6.963a1.02,1.02,0,0,0-.721.3L5.4,6.663a3.059,3.059,0,0,1-2.163.9H2.04a1.02,1.02,0,0,0-1.02,1.02V14.7a1.02,1.02,0,0,0,1.02,1.02H14.277A1.02,1.02,0,0,0,15.3,14.7ZM2.04,6.54A2.04,2.04,0,0,0,0,8.579V14.7a2.04,2.04,0,0,0,2.04,2.04H14.277a2.04,2.04,0,0,0,2.04-2.04V8.579a2.04,2.04,0,0,0-2.04-2.04h-1.2a2.04,2.04,0,0,1-1.442-.6L10.8,5.1a2.04,2.04,0,0,0-1.442-.6H6.963a2.04,2.04,0,0,0-1.442.6l-.844.844a2.04,2.04,0,0,1-1.442.6Z" transform="translate(0)" fill="#fff" fill-rule="evenodd"/>
    <path id="Path_1595" data-name="Path 1595" d="M13.694,17.369a2.55,2.55,0,1,0-2.55-2.55A2.55,2.55,0,0,0,13.694,17.369Zm0,1.02a3.569,3.569,0,1,0-3.569-3.569A3.569,3.569,0,0,0,13.694,18.389Z" transform="translate(-5.536 -3.691)" fill="#fff" fill-rule="evenodd"/>
    <path id="Path_1596" data-name="Path 1596" d="M5.52,14.01a.51.51,0,1,1-.51-.51A.51.51,0,0,1,5.52,14.01Z" transform="translate(-2.46 -4.921)" fill="#fff"/>
  </g>
</svg>
