<svg xmlns="http://www.w3.org/2000/svg" width="273" height="196.369" viewBox="0 0 273 196.369">
  <g id="Group_15952" data-name="Group 15952" transform="translate(0 -0.104)">
    <line id="Line_532" data-name="Line 532" x2="43.881" transform="translate(0 195.973)" fill="none" stroke="#3f3d56" stroke-miterlimit="10" stroke-width="1"/>
    <rect id="Rectangle_5633" data-name="Rectangle 5633" width="194.819" height="131.906" rx="19.398" transform="translate(64.235 33.8)" fill="#f2f2f2"/>
    <rect id="Rectangle_5634" data-name="Rectangle 5634" width="194.819" height="131.906" rx="19.398" transform="translate(58.287 25.473)" fill="none" stroke="#3f3d56" stroke-miterlimit="10" stroke-width="1"/>
    <line id="Line_533" data-name="Line 533" x2="194.819" transform="translate(58.287 38.119)" fill="none" stroke="#3f3d56" stroke-miterlimit="10" stroke-width="1"/>
    <rect id="Rectangle_5635" data-name="Rectangle 5635" width="53.132" height="8.195" rx="4.097" transform="translate(174.729 67.768)" fill="#f7a51a" opacity="0.3"/>
    <rect id="Rectangle_5636" data-name="Rectangle 5636" width="73.487" height="6.609" rx="3.304" transform="translate(164.552 90.501)" fill="#f7a51a" opacity="0.3"/>
    <rect id="Rectangle_5637" data-name="Rectangle 5637" width="73.487" height="6.609" rx="3.304" transform="translate(164.552 108.476)" fill="#f7a51a" opacity="0.3"/>
    <rect id="Rectangle_5638" data-name="Rectangle 5638" width="73.487" height="6.609" rx="3.304" transform="translate(164.552 126.451)" fill="#f7a51a" opacity="0.3"/>
    <rect id="Rectangle_5639" data-name="Rectangle 5639" width="53.132" height="8.195" rx="4.097" transform="translate(177.373 65.124)" fill="none" stroke="#3f3d56" stroke-miterlimit="10" stroke-width="1"/>
    <rect id="Rectangle_5640" data-name="Rectangle 5640" width="73.487" height="6.609" rx="3.304" transform="translate(167.196 87.857)" fill="none" stroke="#3f3d56" stroke-miterlimit="10" stroke-width="1"/>
    <rect id="Rectangle_5641" data-name="Rectangle 5641" width="73.487" height="6.609" rx="3.304" transform="translate(167.196 105.833)" fill="none" stroke="#3f3d56" stroke-miterlimit="10" stroke-width="1"/>
    <rect id="Rectangle_5642" data-name="Rectangle 5642" width="73.487" height="6.609" rx="3.304" transform="translate(167.196 123.808)" fill="none" stroke="#3f3d56" stroke-miterlimit="10" stroke-width="1"/>
    <circle id="Ellipse_266" data-name="Ellipse 266" cx="3.965" cy="3.965" r="3.965" transform="translate(69.125 29.438)" fill="#f7a51a" opacity="0.3"/>
    <circle id="Ellipse_267" data-name="Ellipse 267" cx="3.965" cy="3.965" r="3.965" transform="translate(80.227 29.438)" fill="#f7a51a" opacity="0.3"/>
    <circle id="Ellipse_268" data-name="Ellipse 268" cx="3.965" cy="3.965" r="3.965" transform="translate(91.33 29.438)" fill="#f7a51a" opacity="0.3"/>
    <circle id="Ellipse_269" data-name="Ellipse 269" cx="3.965" cy="3.965" r="3.965" transform="translate(70.711 27.852)" fill="none" stroke="#3f3d56" stroke-miterlimit="10" stroke-width="1"/>
    <circle id="Ellipse_270" data-name="Ellipse 270" cx="3.965" cy="3.965" r="3.965" transform="translate(81.813 27.852)" fill="none" stroke="#3f3d56" stroke-miterlimit="10" stroke-width="1"/>
    <circle id="Ellipse_271" data-name="Ellipse 271" cx="3.965" cy="3.965" r="3.965" transform="translate(92.916 27.852)" fill="none" stroke="#3f3d56" stroke-miterlimit="10" stroke-width="1"/>
    <path id="Path_9001" data-name="Path 9001" d="M509.647,580.29a39.415,39.415,0,0,1-.617-10.14s-3.357-14.747-6-16.122h0c-.04.052-1.322,1.732-1.485,6.932a21.38,21.38,0,0,1-2.035,8.749,77.525,77.525,0,0,1,.259,10.581Z" transform="translate(-389.807 -428.462)" fill="#f7a51a"/>
    <path id="Path_9002" data-name="Path 9002" d="M443.2,298.379H382.284A6.284,6.284,0,0,0,376,304.663v81.273a6.284,6.284,0,0,0,6.284,6.284h21.373c-.714-2.96-1.6-7.584-.7-10.8v0h0c.042-.15.086-.3.136-.442a16.785,16.785,0,0,0,.606-6.438,13.379,13.379,0,0,0,0-5.612c-.66-3.081-1.122-6.108-1.122-6.108a39.473,39.473,0,0,1-.046-6.567c.007-.055.015-.107.023-.16l-.175-.04s.935-4.237,1.266-6.933c.078-.637.181-1.443.292-2.3a5.529,5.529,0,0,1-.9-.227c-2.971-1.045-3.907-10.509-3.907-10.509v-3s-.99-4.594,2.476-6.63a40.323,40.323,0,0,1,4.765-2.534c.025-.018.05-.035.076-.055a2.924,2.924,0,0,0,.87-1.119q.007-.113,0-.225a5.372,5.372,0,0,0-1.515-2.906l-1.817-2.183a2.134,2.134,0,0,1-.468-.757,1.744,1.744,0,0,1-.049-.477q0-.089,0-.178.015-.814.044-1.627c.017-.474.136-1.072.6-1.169.241-.051.561.038.688-.173a.414.414,0,0,0,.031-.28c0,.007,0,.014,0,.021l0-.026a5.932,5.932,0,0,1-.172-1.159,1.544,1.544,0,0,1,.075-.521c.269-.786,1.194-1.109,2.012-1.258a3.492,3.492,0,0,0,2.249-.93,7.118,7.118,0,0,1,.446-.628,1.752,1.752,0,0,1,.837-.422,4.625,4.625,0,0,1,3.042.27,2.68,2.68,0,0,0,1.227.4c.451-.029.836-.346,1.281-.423a1.822,1.822,0,0,1,1.76,1.052,2.6,2.6,0,0,1,.326,1.328,1.827,1.827,0,0,1-.466,1.253c-.309.328-.771.554-.9.986-.052.176-.04.365-.086.543-.006.022-.015.043-.023.064l.026.032a5.612,5.612,0,0,1-2.731,8.728c0,.056,0,.111,0,.167a2.425,2.425,0,0,0,.751,1.867l4.9,2.011s2.952-.358,4.017,4.047a7.618,7.618,0,0,1,.182,2.236,6.669,6.669,0,0,0,.808,3.347c1.211,2.421.935,7.978-1.541,8.529a7.877,7.877,0,0,1-3.348.278l-.005.1c.039,1.043.41,10.037,1.757,11.125.373.3.3.5,0,.641h0s0,.058.008.162a11.355,11.355,0,0,0,1.151,4.588c1.046,1.651.936,11.17.936,11.17l.715,5.612s-.44,3.466,0,4.072c.25.343.553,5.658.768,10.2H443.2a6.284,6.284,0,0,0,6.284-6.284V304.663a6.284,6.284,0,0,0-6.284-6.284Z" transform="translate(-298.945 -240.392)" fill="#f7a51a"/>
    <rect id="Rectangle_5643" data-name="Rectangle 5643" width="73.487" height="93.841" rx="23.772" transform="translate(70.711 50.85)" fill="none" stroke="#3f3d56" stroke-miterlimit="10" stroke-width="1"/>
    <path id="Path_9003" data-name="Path 9003" d="M176.63,399.906s-2.465-.729-2.993.064.721,6.542.721,6.542l5.431.33-1.9-4.786Z" transform="translate(-149.979 -314.857)" fill="#2f2e41"/>
    <path id="Path_9004" data-name="Path 9004" d="M101.9,579.347s4.942,10.849,1.136,10.508-5.283-10.508-5.283-10.508Z" transform="translate(-94.253 -447.089)" fill="#a0616a"/>
    <path id="Path_9005" data-name="Path 9005" d="M233.914,572.277s-2.168,11.723,1.442,10.471,2.581-11.475,2.581-11.475Z" transform="translate(-193.943 -441.149)" fill="#a0616a"/>
    <path id="Path_9006" data-name="Path 9006" d="M151.628,384.933s-.057,5.453,2.045,5.737-1.193,3.181-1.193,3.181l-3.749.738-5.4-.4-2.386-3.067s4.2-1.988,2.386-8.179Z" transform="translate(-126.027 -302.604)" fill="#a0616a"/>
    <path id="Path_9007" data-name="Path 9007" d="M151.628,384.933s-.057,5.453,2.045,5.737-1.193,3.181-1.193,3.181l-3.749.738-5.4-.4-2.386-3.067s4.2-1.988,2.386-8.179Z" transform="translate(-126.027 -302.604)" opacity="0.1"/>
    <path id="Path_9008" data-name="Path 9008" d="M150.007,564.922s2.67,5.737.568,23.743c0,0,.625,6.362.114,7.555s-4.715,17.381-4.715,17.381-5.4,1.193-6.135-2.386c0,0,.738-5.112.682-5.907s1.193-9.486,1.193-9.486l-2.556-16.813-1.931,15.166s0,4.374-.625,5.339,0,20.392,0,20.392,1.761,2.954-.909,3.011-5.055-.057-5.283-1.931a17.42,17.42,0,0,0-.909-4.885c-.568-1.136-1.306-14.144-1.136-18.688s-3.749-27.89-2.5-30.332S150.007,564.922,150.007,564.922Z" transform="translate(-114.75 -436.469)" fill="#2f2e41"/>
    <circle id="Ellipse_272" data-name="Ellipse 272" cx="6.816" cy="6.816" r="6.816" transform="translate(15.887 70.742)" fill="#a0616a"/>
    <path id="Path_9009" data-name="Path 9009" d="M134.8,408.942s4.147,3.067,10.168.625c0,0,1.988-.966,1.818-2.443S150.933,419,150.933,419l4.374,23.232-.227,9.486s-1.931-.966-7.952,1.193-15.848-2.443-15.848-2.443l.341-24.368.341-14.2.909-3.124S133.324,407.919,134.8,408.942Z" transform="translate(-118.914 -320.308)" fill="#f2f2f2"/>
    <path id="Path_9010" data-name="Path 9010" d="M182.063,399.879s1-.163,1.969,1.371a8.209,8.209,0,0,0,3.238,2.5s5.51.341,6.305,3.295,2.783,6.987,3.749,14.428,2.9,19.313,3.181,20.278-.4,3.919.4,4.828-5.623.909-5.623.909-.568-4.658-.966-4.658-.284,3.124.114,5.4-2.9,0-2.9,0-2.556-10.395-5-19.767-3.862-14.541-3.408-16.643,1.7-8.123.8-8.691S182.063,399.879,182.063,399.879Z" transform="translate(-156.273 -315.058)" fill="#2f2e41"/>
    <path id="Path_9011" data-name="Path 9011" d="M105.819,399.874a61.868,61.868,0,0,0-5.233,3.477c-3.749,2.67-6.305,4.715-6.305,4.715s-1.477,1.136-2.386,7.9-2.954,24.254-2.159,26.47,1.079,3.522.8,4.828,5.964,1.25,6.078.966-.17-5.453.114-5.567,1.818,3.067,2.1,5.737,3.579,4.771,4.317,4.771,4.544-15.393,4.6-25.9-1.25-19.369-2.215-20.619S105.819,399.874,105.819,399.874Z" transform="translate(-88.22 -315.058)" fill="#2f2e41"/>
    <path id="Path_9012" data-name="Path 9012" d="M174.8,733.262a1.6,1.6,0,0,1,2.045-.852,2.76,2.76,0,0,0,2.67-1.022s.852-.114.284.966-1.022,1.818-1.022,1.818,3.408,7.782,1.193,9.656a4.75,4.75,0,0,1-4.771.738s-2.5-1.761-2.386-6.419a10.377,10.377,0,0,0-1.477-3.862c-1.363-2.386-2.386-6.021-.738-6.7a8.925,8.925,0,0,1,2.071-.707s-.771,3.526,1.22,4.758Z" transform="translate(-147.215 -555.619)" fill="#3f3d56"/>
    <path id="Path_9013" data-name="Path 9013" d="M144.292,775.866s-1.363-2.556.909-2.84,4.715-.454,4.6.738-.4,3.01-.4,3.01l.4,1.306s.114,3.238.511,3.635,2.556,3.806-2.045,3.806-5.964-.511-5.567-1.59.511-6.419.511-6.419Z" transform="translate(-127.268 -589.418)" fill="#3f3d56"/>
    <path id="Path_9014" data-name="Path 9014" d="M136.243,337.473s3.181.852,4.828,1.193,1.477-.625,1.477-.625,2.158.284,2.045.057.909-1.42-.284-2.783a2.619,2.619,0,0,1-.852-2.386h-1.022l-.284-.4h-1.59s-1.193-.454-4.317,0-7.384.568-7.725,2.442-2.1,4.2-1.477,5.283,4.2,5.51,4.544,7.384,1.932,2.291,1.875,1.117-1.648-5.264-.284-5.434S136.868,339.688,136.243,337.473Z" transform="translate(-115.698 -265.368)" fill="#2f2e41"/>
    <path id="Path_9015" data-name="Path 9015" d="M1003.541,86.584a6.075,6.075,0,0,0-5.237,3.661c-1.309,3.165.377,6.883,2.908,9.191s5.782,3.627,8.736,5.361a23.415,23.415,0,0,1,9.518,9.713c1.985,4.15,2.2,9.292-.137,13.257-2.166,3.68-6.1,5.883-9.86,7.914" transform="translate(-756.414 -84.583)" fill="none" stroke="#3f3d56" stroke-miterlimit="10" stroke-width="1"/>
    <ellipse id="Ellipse_273" data-name="Ellipse 273" cx="4.5" cy="2.5" rx="4.5" ry="2.5" transform="translate(246 0.104)" fill="#f7a51a"/>
    <ellipse id="Ellipse_274" data-name="Ellipse 274" cx="4.5" cy="2" rx="4.5" ry="2" transform="translate(250 15.104)" fill="#f7a51a"/>
    <ellipse id="Ellipse_275" data-name="Ellipse 275" cx="4.5" cy="2" rx="4.5" ry="2" transform="translate(241 17.104)" fill="#f7a51a"/>
    <ellipse id="Ellipse_276" data-name="Ellipse 276" cx="4.5" cy="2" rx="4.5" ry="2" transform="translate(255 30.104)" fill="#f7a51a"/>
    <ellipse id="Ellipse_277" data-name="Ellipse 277" cx="4.5" cy="2" rx="4.5" ry="2" transform="translate(264 30.104)" fill="#f7a51a"/>
  </g>
</svg>
