<svg xmlns="http://www.w3.org/2000/svg" width="232.842" height="162" viewBox="0 0 232.842 162">
  <g id="Group_15946" data-name="Group 15946" transform="translate(-214 -414)">
    <g id="Group_15945" data-name="Group 15945" transform="translate(214 414)">
      <ellipse id="Ellipse_287" data-name="Ellipse 287" cx="46.392" cy="3.523" rx="46.392" ry="3.523" transform="translate(0 154.953)" fill="#e6e6e6" opacity="0.37"/>
      <path id="Path_9069" data-name="Path 9069" d="M568.568,625.315H404.017A5.517,5.517,0,0,1,398.5,619.8h0a743.745,743.745,0,0,1,175.585,0h0a5.517,5.517,0,0,1-5.517,5.517Z" transform="translate(-341.244 -485.269)" fill="#2f2e41"/>
      <path id="Path_9070" data-name="Path 9070" d="M574.085,351.542,398.5,351.217l20.35-34.241.1-.162V241.352a6.974,6.974,0,0,1,6.975-6.975H545.69a6.974,6.974,0,0,1,6.975,6.975v75.981Z" transform="translate(-341.244 -216.688)" fill="#3f3d56"/>
      <path id="Path_9071" data-name="Path 9071" d="M485.884,250.957a2.274,2.274,0,0,0-2.272,2.272v68.806a2.275,2.275,0,0,0,2.272,2.272h121.06a2.275,2.275,0,0,0,2.272-2.272V253.228a2.274,2.274,0,0,0-2.272-2.272Z" transform="translate(-401.366 -228.4)" fill="#fff"/>
      <path id="Path_9072" data-name="Path 9072" d="M475.65,531.718a.976.976,0,0,0-.885.567l-6.27,13.631a.974.974,0,0,0,.884,1.381H601.243a.974.974,0,0,0,.871-1.409L595.3,532.256a.969.969,0,0,0-.871-.538Z" transform="translate(-390.624 -426.724)" fill="#2f2e41"/>
      <circle id="Ellipse_288" data-name="Ellipse 288" cx="1.461" cy="1.461" r="1.461" transform="translate(143.101 18.5)" fill="#fff"/>
      <path id="Path_9073" data-name="Path 9073" d="M645.574,593.619a.975.975,0,0,0-.94.72l-1.573,5.842a.974.974,0,0,0,.94,1.227h29.912a.973.973,0,0,0,.92-1.292l-2.022-5.842a.974.974,0,0,0-.92-.655Z" transform="translate(-513.973 -470.45)" fill="#2f2e41"/>
      <path id="Path_9074" data-name="Path 9074" d="M398.121,337.135v1.3H264.306l.1-.162v-1.136Z" transform="translate(-186.7 -238.145)" fill="#2f2e41"/>
      <path id="Path_10340" data-name="Path 10340" d="M22.719,0A22.719,22.719,0,1,1,0,22.719,22.719,22.719,0,0,1,22.719,0Z" transform="translate(184.969 0)" fill="#1bcf88"/>
      <path id="Path_9075" data-name="Path 9075" d="M894.48,251.648H875.656a1.3,1.3,0,0,1-1.3-1.3V238.991a1.3,1.3,0,0,1,1.3-1.3H894.48a1.3,1.3,0,0,1,1.3,1.3V250.35A1.3,1.3,0,0,1,894.48,251.648Zm-18.824-12.658V250.35h18.825V238.991Z" transform="translate(-677.38 -219.031)" fill="#fff"/>
      <path id="Path_9076" data-name="Path 9076" d="M902.622,214H890.938v-5.193c0-3.761,2.457-6.491,5.842-6.491s5.842,2.73,5.842,6.491Zm-10.386-1.3h9.088v-3.895c0-3.057-1.868-5.193-4.544-5.193s-4.544,2.135-4.544,5.193Z" transform="translate(-689.092 -194.045)" fill="#fff"/>
      <circle id="Ellipse_290" data-name="Ellipse 290" cx="1.298" cy="1.298" r="1.298" transform="translate(206.39 24.017)" fill="#fff"/>
      <path id="Path_9077" data-name="Path 9077" d="M627.571,357.115H534.012a1.735,1.735,0,0,1-1.733-1.733V332.174a1.735,1.735,0,0,1,1.733-1.733h93.559a1.735,1.735,0,0,1,1.733,1.733v23.208A1.735,1.735,0,0,1,627.571,357.115Zm-93.559-25.98a1.041,1.041,0,0,0-1.04,1.04v23.208a1.041,1.041,0,0,0,1.04,1.04h93.559a1.041,1.041,0,0,0,1.04-1.04V332.174a1.041,1.041,0,0,0-1.04-1.04Z" transform="translate(-435.743 -284.546)" fill="#e6e6e6"/>
      <circle id="Ellipse_291" data-name="Ellipse 291" cx="7.058" cy="7.058" r="7.058" transform="translate(105.749 51.283)" fill="#e6e6e6"/>
      <path id="Path_9078" data-name="Path 9078" d="M640.373,356.8a1.176,1.176,0,0,0,0,2.353h55.453a1.176,1.176,0,0,0,0-2.353Z" transform="translate(-511.267 -303.169)" fill="#e6e6e6"/>
      <path id="Path_9079" data-name="Path 9079" d="M640.373,380.842a1.176,1.176,0,1,0,0,2.353h23.861a1.176,1.176,0,1,0,0-2.353Z" transform="translate(-511.267 -320.148)" fill="#e6e6e6"/>
    </g>
    <g id="humaaans_standing-5" data-name="humaaans/standing-5" transform="translate(162.044 398.956)">
      <g id="humaaan-10" transform="translate(51.956 42.538)">
        <g id="Head_Front_Short-1" data-name="Head/Front/Short-1" transform="translate(38.468 0)">
          <g id="Head" transform="translate(0.036 1.189)">
            <path id="Path_9080" data-name="Path 9080" d="M2.7,11.278A8.859,8.859,0,0,1,.346,4.913c.491-7,10.233-5.459,12.127-1.927s1.67,12.491-.779,13.122c-.977.252-3.057-.365-5.175-1.641l1.329,9.4H0Z" transform="translate(0 0)" fill="#b28b67" fill-rule="evenodd"/>
          </g>
          <path id="Hair" d="M65.249,33.226A8.627,8.627,0,0,0,62.513,36.4a1.962,1.962,0,0,0-2.088,3.23c-.454.641-.963,1.31-1.546,2-2.176-1.305-3.794-5.11-1.717-8.782,1.787-7.357,11.915-2.79,13.864-4.031C71.452,31.49,70.079,33.642,65.249,33.226Z" transform="translate(-56.2 -28.538)" fill="#191847" fill-rule="evenodd"/>
        </g>
        <g id="Bottom_Standing_Baggy-Pants" data-name="Bottom/Standing/Baggy-Pants" transform="translate(0 53.449)">
          <path id="Leg" d="M139.748,0,155.8,40.623l10.765,34.343h4.251L154.356,0Z" transform="translate(-101.56)" fill="#997659" fill-rule="evenodd"/>
          <path id="Leg-2" data-name="Leg" d="M62.547,0c-.171,14.275-2.663,33.494-3.062,34.384q-.4.89-27.494,22.632l2.928,3.133q31.97-18.641,33.45-21.127C69.849,36.535,74.665,13.657,78.532,0Z" transform="translate(-27.591)" fill="#b28b67" fill-rule="evenodd"/>
          <g id="Accessories_Shoe_Flat-Sneaker" data-name="Accessories/Shoe/Flat-Sneaker" transform="matrix(0.643, 0.766, -0.766, 0.643, 5.177, 54.274)">
            <path id="shoe" d="M.549,1.985A7.021,7.021,0,0,0,0,4.177,16.408,16.408,0,0,0,.295,6.759H18.738q.719-2.377-.83-2.566T15.335,3.85L6.762.028a.327.327,0,0,0-.432.166l0,.008L5.776,1.539a5.881,5.881,0,0,1-2.33.669A5.277,5.277,0,0,1,1.434,1.62h0a.654.654,0,0,0-.867.322Q.557,1.963.549,1.985Z" transform="translate(0 0)" fill="#e4e4e4" fill-rule="evenodd"/>
          </g>
          <g id="Accessories_Shoe_Flat-Sneaker-2" data-name="Accessories/Shoe/Flat-Sneaker" transform="translate(62.714 71.395)">
            <path id="shoe-2" data-name="shoe" d="M1.592,22.146a7.021,7.021,0,0,0-.549,2.192,16.408,16.408,0,0,0,.295,2.581H19.781q.719-2.377-.83-2.566t-2.573-.342L7.805,20.19a.327.327,0,0,0-.432.166l0,.008L6.819,21.7a5.881,5.881,0,0,1-2.33.669,5.277,5.277,0,0,1-2.012-.588h0a.654.654,0,0,0-.867.322Q1.6,22.124,1.592,22.146Z" transform="translate(-1.043 -20.161)" fill="#e4e4e4" fill-rule="evenodd"/>
          </g>
          <path id="Pant" d="M145.989,71.428l20.21-2.194L151.221,0h-18.1Z" transform="translate(-97.009 0)" fill="#69a1ac" fill-rule="evenodd"/>
          <path id="Pant-2" data-name="Pant" d="M45.324,51.961,58.581,67.652Q79.526,44.777,83,37.8T89.254,0H68.875q-1.515,27.117-2.043,28.379T45.324,51.961Z" transform="translate(-36.743)" fill="#89c5cc" fill-rule="evenodd"/>
        </g>
        <g id="Body_Turtle-Neck" data-name="Body/Turtle-Neck" transform="translate(7.533 16.733)">
          <path id="Skin" d="M84.139,80.938l9.61,9.315a29.172,29.172,0,0,1,6.873,3.925c.4.482.839,1.4-1.051.991s-3.9-.763-4.251-.152.691,1.546.035,2.345q-.657.8-4.415-5.084l-9.993-5.854Zm-46.994-8.43,7.429.028q-8.487,27.319-9.01,28.608c-.785,1.933.876,4.877,1.587,6.459-2.314,1.029-2.067-2.781-4.986-1.432-2.664,1.231-4.691,3.463-7.768,1.576-.378-.232-.793-1.105.209-1.788,2.5-1.7,6.093-4.677,6.579-5.657Q32.177,98.3,37.144,72.507Z" transform="translate(-23.979 -48.175)" fill="#b28b67" fill-rule="evenodd"/>
          <path id="Clothes-Back" d="M0,.754,2.879,0C8.9,15.766,33.515,24.718,35.5,30.635c.727,2.17-.781,3.431.107,4.034l-3.557,3.1c-.708-.69-1.962.795-4.912.091S1.675,19.9,0,.754Z" transform="translate(35.867 2.644) rotate(5)" fill="#db2721" fill-rule="evenodd"/>
          <path id="Clothes-Front" d="M78.113.457c-.338,21.488,12.164,26.969,9.379,35.589-2.3,7.118-24.31,14.771-28.119,7.793a21.687,21.687,0,0,1-2.321-9.954q-1.46,4.28-2.31,7.369c-.977,3.553-4.765,4.117-4.765,5.486l-4.99-1.369c.338-1.859-2.014-2.765-1.383-6.919Q47.843,10.535,66.384-2.021l.131-1.857a1.312,1.312,0,0,1,1.4-1.214l9.235.642a1.307,1.307,0,0,1,1.214,1.394h0Z" transform="translate(-37.376 5.096)" fill="#ff4133" fill-rule="evenodd"/>
        </g>
      </g>
    </g>
  </g>
</svg>
