<svg xmlns="http://www.w3.org/2000/svg" width="17.295" height="17.295" viewBox="0 0 17.295 17.295">
  <path id="chat" d="M15.133,14.052v3.243q-.118-.068-.338-.2a9.353,9.353,0,0,1-.912-.743A13.943,13.943,0,0,1,12.5,14.93a7.075,7.075,0,0,1-1.689.2,9.59,9.59,0,0,1-2.272-.253,6.711,6.711,0,0,1-1.7-.625,5.356,5.356,0,0,1-1.123-.828,3.309,3.309,0,0,1-.659-.845,1.593,1.593,0,0,1-.194-.692H6.486a9.393,9.393,0,0,0,3.876-.76,6.238,6.238,0,0,0,2.694-2.246,6.1,6.1,0,0,0,1-3.479Q17.295,7.043,17.295,10a4.922,4.922,0,0,1-2.162,4.054ZM14.052,5.4Zm-7.567,5.4a7.075,7.075,0,0,1-1.689-.2,14.7,14.7,0,0,1-1.351,1.4,7.015,7.015,0,0,1-.98.777l-.3.186V9.728A4.921,4.921,0,0,1,0,5.675,5.04,5.04,0,0,1,.87,2.829,6.089,6.089,0,0,1,3.234.76,7.085,7.085,0,0,1,6.494,0a7.085,7.085,0,0,1,3.26.76A6.03,6.03,0,0,1,12.11,2.829a5.066,5.066,0,0,1,.861,2.846,4.447,4.447,0,0,1-.878,2.719,5.5,5.5,0,0,1-2.348,1.8A8.353,8.353,0,0,1,6.486,10.809Zm0-9.728a6.379,6.379,0,0,0-2.711.574A4.938,4.938,0,0,0,1.807,3.226a3.605,3.605,0,0,0,0,4.341A5.005,5.005,0,0,0,3.775,9.146a6.315,6.315,0,0,0,2.71.583A6.281,6.281,0,0,0,9.2,9.146a5.019,5.019,0,0,0,1.967-1.579,3.605,3.605,0,0,0,0-4.341A4.969,4.969,0,0,0,9.2,1.655,6.337,6.337,0,0,0,6.486,1.081Z" fill="#020621"/>
</svg>
