<svg xmlns="http://www.w3.org/2000/svg" width="50.548" height="50.548" viewBox="0 0 50.548 50.548">
  <g id="close-outline" transform="translate(0 0.001)">
    <path id="Path_7294" data-name="Path 7294" d="M27.524,2.25A25.118,25.118,0,0,0,2.25,27.524,25.118,25.118,0,0,0,27.524,52.8,25.118,25.118,0,0,0,52.8,27.524,25.118,25.118,0,0,0,27.524,2.25Zm0,46.937A21.663,21.663,0,1,1,49.187,27.524,21.727,21.727,0,0,1,27.524,49.187Z" transform="translate(-2.25 -2.251)" fill="#fff"/>
    <path id="Path_7295" data-name="Path 7295" d="M32.511,35.4,22.762,25.65,13.013,35.4l-2.888-2.888,9.749-9.749-9.749-9.749,2.888-2.888,9.749,9.749,9.749-9.749L35.4,13.013,25.65,22.762,35.4,32.511Z" transform="translate(2.512 2.511)" fill="#fff"/>
  </g>
</svg>
