<svg xmlns="http://www.w3.org/2000/svg" width="815.263" height="381.254" viewBox="0 0 815.263 381.254">
  <g id="Group_16243" data-name="Group 16243" transform="translate(-138.389 -1256)">
    <path id="Path_6309" data-name="Path 6309" d="M-9.972,157.556,804.681,99.939V441.434L-9.972,481.193Z" transform="translate(148.972 1156.061)" fill="#224d5c" opacity="0.95"/>
    <g id="Group_14727" data-name="Group 14727" transform="translate(441.196 1614.725) rotate(180)" opacity="0.35" style="mix-blend-mode: multiply;isolation: isolate">
      <text id="TERRACE_" data-name="TERRACE " transform="translate(173.026 90.085)" fill="#f7f9f9" font-size="5" font-family="Quicksand-Bold, Quicksand" font-weight="700"><tspan x="0" y="0">TERRACE </tspan></text>
      <text id="BEDROOM_" data-name="BEDROOM " transform="translate(248.176 240.276)" fill="#f7f9f9" font-size="5" font-family="Quicksand-Bold, Quicksand" font-weight="700"><tspan x="0" y="0">BEDROOM </tspan></text>
      <text id="DRESSING_ROOM" data-name="DRESSING
ROOM" transform="translate(212.755 223.99)" fill="#f7f9f9" font-size="5" font-family="Quicksand-Bold, Quicksand" font-weight="700"><tspan x="-12.185" y="0">DRESSING</tspan><tspan x="-7.535" y="6">ROOM</tspan></text>
      <text id="BATHROOM_" data-name="BATHROOM " transform="translate(108.138 221.897)" fill="#f7f9f9" font-size="5" font-family="Quicksand-Bold, Quicksand" font-weight="700"><tspan x="0" y="0">BATHROOM </tspan></text>
      <text id="LIVING_ROOM" data-name="LIVING
ROOM" transform="translate(173.032 145.861)" fill="#f7f9f9" font-size="4" font-family="Quicksand-Bold, Quicksand" font-weight="700"><tspan x="-6.442" y="0">LIVING</tspan><tspan x="-6.028" y="5">ROOM</tspan></text>
      <path id="Path_16" data-name="Path 16" d="M171.676,140.034h17.231s1.12-15.52-17.231-15.316" transform="translate(-29.938 -20.684)" fill="none" stroke="#dbdbdb" stroke-linejoin="round" stroke-width="1.098"/>
      <path id="Path_17" data-name="Path 17" d="M162.11,183.464H144.879s-1.12-15.52,17.231-15.317" transform="translate(-20.657 -35.718)" fill="none" stroke="#dbdbdb" stroke-linejoin="round" stroke-width="1.098"/>
      <path id="Path_18" data-name="Path 18" d="M197.837,306.58H180.606s-1.121-15.52,17.231-15.317" transform="translate(-33.025 -78.339)" fill="none" stroke="#dbdbdb" stroke-linejoin="round" stroke-width="1.098"/>
      <path id="Path_19" data-name="Path 19" d="M220.9,368.793V351.562s15.52-1.121,15.316,17.231" transform="translate(-46.978 -99.21)" fill="none" stroke="#dbdbdb" stroke-linejoin="round" stroke-width="1.098"/>
      <path id="Path_20" data-name="Path 20" d="M258.071,234.493H275.3s1.121,15.52-17.231,15.316" transform="translate(-59.847 -58.687)" fill="none" stroke="#dbdbdb" stroke-linejoin="round" stroke-width="1.098"/>
      <path id="Path_21" data-name="Path 21" d="M223.863,142.21V124.979s15.52-1.121,15.317,17.231" transform="translate(-48.004 -20.77)" fill="none" stroke="#dbdbdb" stroke-linejoin="round" stroke-width="1.098"/>
      <rect id="Rectangle_4" data-name="Rectangle 4" width="7.083" height="12.749" transform="translate(257.296 224.674) rotate(-90)" fill="none" stroke="#dbdbdb" stroke-miterlimit="10" stroke-width="1.14"/>
      <g id="Group_31" data-name="Group 31" transform="translate(198.372 246.293)">
        <rect id="Rectangle_5" data-name="Rectangle 5" width="34.151" height="12.227" fill="none" stroke="#dbdbdb" stroke-miterlimit="10" stroke-width="1.098"/>
        <line id="Line_248" data-name="Line 248" y1="12.227" x2="34.151" fill="none" stroke="#dbdbdb" stroke-miterlimit="10" stroke-width="1.098"/>
        <line id="Line_249" data-name="Line 249" x2="34.151" y2="12.227" fill="none" stroke="#dbdbdb" stroke-miterlimit="10" stroke-width="1.098"/>
      </g>
      <g id="Group_32" data-name="Group 32" transform="translate(262.178 64.969)">
        <rect id="Rectangle_6" data-name="Rectangle 6" width="37.603" height="8.838" transform="translate(37.603 8.838) rotate(180)" fill="none" stroke="#dbdbdb" stroke-miterlimit="10" stroke-width="1.193"/>
        <line id="Line_250" data-name="Line 250" x1="37.603" y2="8.838" transform="translate(0 0)" fill="none" stroke="#dbdbdb" stroke-miterlimit="10" stroke-width="1.193"/>
        <line id="Line_251" data-name="Line 251" x1="37.603" y1="8.838" transform="translate(0 0)" fill="none" stroke="#dbdbdb" stroke-miterlimit="10" stroke-width="1.193"/>
      </g>
      <g id="Group_33" data-name="Group 33" transform="translate(224.575 64.969)">
        <rect id="Rectangle_7" data-name="Rectangle 7" width="37.603" height="8.838" transform="translate(37.603 8.838) rotate(180)" fill="none" stroke="#dbdbdb" stroke-miterlimit="10" stroke-width="1.193"/>
        <line id="Line_252" data-name="Line 252" x1="37.603" y2="8.838" transform="translate(0 0)" fill="none" stroke="#dbdbdb" stroke-miterlimit="10" stroke-width="1.193"/>
        <line id="Line_253" data-name="Line 253" x1="37.603" y1="8.838" transform="translate(0 0)" fill="none" stroke="#dbdbdb" stroke-miterlimit="10" stroke-width="1.193"/>
      </g>
      <g id="Group_34" data-name="Group 34" transform="translate(245.057 167.811)">
        <rect id="Rectangle_8" data-name="Rectangle 8" width="45.331" height="37.228" transform="translate(0 45.331) rotate(-90)" fill="none" stroke="#dbdbdb" stroke-miterlimit="10" stroke-width="1.14"/>
        <rect id="Rectangle_9" data-name="Rectangle 9" width="37.228" height="8.581" transform="translate(37.228 8.581) rotate(180)" fill="none" stroke="#dbdbdb" stroke-miterlimit="10" stroke-width="1.14"/>
      </g>
      <rect id="Rectangle_10" data-name="Rectangle 10" width="10.121" height="10.121" transform="translate(296.031 177.931) rotate(180)" fill="none" stroke="#dbdbdb" stroke-miterlimit="10" stroke-width="1.14"/>
      <rect id="Rectangle_11" data-name="Rectangle 11" width="10.121" height="10.121" transform="translate(241.465 177.931) rotate(180)" fill="none" stroke="#dbdbdb" stroke-miterlimit="10" stroke-width="1.14"/>
      <g id="Group_35" data-name="Group 35" transform="translate(198.54 206.443)">
        <path id="Path_22" data-name="Path 22" d="M290.463,281.352h2.074V320.78H258.554V281.352h17.311" transform="translate(-258.554 -281.352)" fill="none" stroke="#dbdbdb" stroke-miterlimit="10" stroke-width="1.483"/>
      </g>
      <path id="Path_23" data-name="Path 23" d="M355.608,325.632v11.36l-68-.027v22.693l-43.286-.017" transform="translate(-55.088 -90.238)" fill="none" stroke="#dbdbdb" stroke-miterlimit="10" stroke-width="3"/>
      <line id="Line_254" data-name="Line 254" y2="84.387" transform="translate(300.52 108.291)" fill="none" stroke="#dbdbdb" stroke-miterlimit="10" stroke-width="3"/>
      <path id="Path_24" data-name="Path 24" d="M162.718,88.3h5.573V65.632H327.356V81.678" transform="translate(-26.837 -0.23)" fill="none" stroke="#dbdbdb" stroke-miterlimit="10" stroke-width="3"/>
      <path id="Path_25" data-name="Path 25" d="M173.921,281.627l-9.577,0V258.958H85.2V100.3h7.287" transform="translate(0 -12.231)" fill="none" stroke="#dbdbdb" stroke-miterlimit="10" stroke-width="3"/>
      <path id="Path_26" data-name="Path 26" d="M246.742,122.057h33.369V65.678" transform="translate(-55.925 -0.246)" fill="none" stroke="#dbdbdb" stroke-miterlimit="10" stroke-width="3"/>
      <path id="Path_27" data-name="Path 27" d="M171.241,148.145v2.46h34.732" transform="translate(-29.787 -28.794)" fill="none" stroke="#dbdbdb" stroke-miterlimit="10" stroke-width="3"/>
      <line id="Line_255" data-name="Line 255" y2="15.966" transform="translate(141.454 88.068)" fill="none" stroke="#dbdbdb" stroke-miterlimit="10" stroke-width="3"/>
      <line id="Line_256" data-name="Line 256" y1="10.618" transform="translate(141.454 121.811)" fill="none" stroke="#dbdbdb" stroke-miterlimit="10" stroke-width="3"/>
      <path id="Path_28" data-name="Path 28" d="M85.2,233.892h56.257V191.575" transform="translate(0 -43.829)" fill="none" stroke="#dbdbdb" stroke-miterlimit="10" stroke-width="3"/>
      <line id="Line_257" data-name="Line 257" y2="18.824" transform="translate(164.316 227.903)" fill="none" stroke="#dbdbdb" stroke-miterlimit="10" stroke-width="3"/>
      <path id="Path_29" data-name="Path 29" d="M171.241,256.3H194.1V279.16" transform="translate(-29.787 -66.236)" fill="none" stroke="#dbdbdb" stroke-miterlimit="10" stroke-width="3"/>
      <path id="Path_30" data-name="Path 30" d="M257.351,230.041v-8.409H359.869" transform="translate(-59.597 -54.235)" fill="none" stroke="#dbdbdb" stroke-miterlimit="10" stroke-width="3"/>
      <path id="Path_31" data-name="Path 31" d="M292.12,313.524l-34.769.027V257.919" transform="translate(-59.597 -66.797)" fill="none" stroke="#dbdbdb" stroke-miterlimit="10" stroke-width="3"/>
      <line id="Line_258" data-name="Line 258" x1="15.316" y1="0.006" transform="translate(173.921 269.396)" fill="none" stroke="#dbdbdb" stroke-linecap="round" stroke-linejoin="round" stroke-width="1" stroke-dasharray="7 11"/>
      <line id="Line_259" data-name="Line 259" x1="0.006" y2="15.316" transform="translate(164.679 212.177)" fill="none" stroke="#dbdbdb" stroke-linecap="round" stroke-linejoin="round" stroke-width="1" stroke-dasharray="7 11"/>
      <line id="Line_260" data-name="Line 260" x1="0.006" y2="15.316" transform="translate(197.751 175.495)" fill="none" stroke="#dbdbdb" stroke-linecap="round" stroke-linejoin="round" stroke-width="1" stroke-dasharray="7 11"/>
      <line id="Line_261" data-name="Line 261" x1="15.316" y1="0.006" transform="translate(215.45 206.446)" fill="none" stroke="#dbdbdb" stroke-linecap="round" stroke-linejoin="round" stroke-width="1" stroke-dasharray="7 11"/>
      <path id="Path_32" data-name="Path 32" d="M284.417,272.221V254.99s15.52-1.121,15.316,17.231" transform="translate(-68.967 -65.778)" fill="none" stroke="#dbdbdb" stroke-linejoin="round" stroke-width="1.098"/>
      <line id="Line_262" data-name="Line 262" x1="0.006" y2="15.316" transform="translate(141.448 132.428)" fill="none" stroke="#dbdbdb" stroke-linecap="round" stroke-linejoin="round" stroke-width="1" stroke-dasharray="7 11"/>
      <line id="Line_263" data-name="Line 263" x1="15.316" y1="0.006" transform="translate(175.747 122.064)" fill="none" stroke="#dbdbdb" stroke-linecap="round" stroke-linejoin="round" stroke-width="1" stroke-dasharray="7 11"/>
      <line id="Line_264" data-name="Line 264" x1="0.006" y2="15.316" transform="translate(141.444 103.822)" fill="none" stroke="#dbdbdb" stroke-linecap="round" stroke-linejoin="round" stroke-width="1" stroke-dasharray="7 11"/>
      <g id="Group_41" data-name="Group 41" transform="translate(85.197 190.063)">
        <g id="Group_36" data-name="Group 36" transform="translate(38.811 43.709)">
          <rect id="Rectangle_12" data-name="Rectangle 12" width="39.97" height="12.227" transform="translate(39.97 12.227) rotate(180)" fill="none" stroke="#dbdbdb" stroke-miterlimit="10" stroke-width="1.098"/>
          <line id="Line_265" data-name="Line 265" x1="39.97" y2="12.227" fill="none" stroke="#dbdbdb" stroke-miterlimit="10" stroke-width="1.098"/>
          <line id="Line_266" data-name="Line 266" x1="39.97" y1="12.227" fill="none" stroke="#dbdbdb" stroke-miterlimit="10" stroke-width="1.098"/>
        </g>
        <g id="Group_37" data-name="Group 37" transform="translate(11.333 40.121)">
          <rect id="Rectangle_13" data-name="Rectangle 13" width="12.509" height="5.246" transform="translate(0 10.976)" fill="none" stroke="#dbdbdb" stroke-miterlimit="10" stroke-width="1.021"/>
          <path id="Path_33" data-name="Path 33" d="M104.411,328.541a7.3,7.3,0,0,1-1.275-4.175c0-3.7,2.623-6.7,5.858-6.7s5.859,3,5.859,6.7a7.283,7.283,0,0,1-1.34,4.266" transform="translate(-102.74 -317.664)" fill="none" stroke="#dbdbdb" stroke-miterlimit="10" stroke-width="1.021"/>
        </g>
        <g id="Group_38" data-name="Group 38">
          <path id="Path_34" data-name="Path 34" d="M101.355,276.933a7.014,7.014,0,0,1-7.015-7.015h0a7.015,7.015,0,0,1,7.015-7.015H120.7a7.015,7.015,0,0,1,7.015,7.015h0a7.014,7.014,0,0,1-7.015,7.015Z" transform="translate(-88.362 -258.585)" fill="none" stroke="#dbdbdb" stroke-miterlimit="10" stroke-width="1.098"/>
          <rect id="Rectangle_14" data-name="Rectangle 14" width="45.331" height="22.665" fill="none" stroke="#dbdbdb" stroke-miterlimit="10" stroke-width="1.093"/>
        </g>
        <g id="Group_40" data-name="Group 40" transform="translate(59.66)">
          <ellipse id="Ellipse_1" data-name="Ellipse 1" cx="7.192" cy="5.115" rx="7.192" ry="5.115" fill="none" stroke="#dbdbdb" stroke-miterlimit="10" stroke-width="1.021"/>
          <g id="Group_39" data-name="Group 39" transform="translate(4.894 0.716)">
            <rect id="Rectangle_15" data-name="Rectangle 15" width="1.217" height="4.371" transform="translate(1.689 0.51)" fill="none" stroke="#dbdbdb" stroke-miterlimit="10" stroke-width="1.021"/>
            <rect id="Rectangle_16" data-name="Rectangle 16" width="1.217" height="1.97" fill="none" stroke="#dbdbdb" stroke-miterlimit="10" stroke-width="0.685"/>
            <rect id="Rectangle_17" data-name="Rectangle 17" width="1.217" height="1.97" transform="translate(3.028)" fill="none" stroke="#dbdbdb" stroke-miterlimit="10" stroke-width="0.685"/>
          </g>
        </g>
      </g>
      <g id="Group_47" data-name="Group 47" transform="translate(141.861 84.772)">
        <g id="Group_42" data-name="Group 42" transform="translate(96.305 37.199)">
          <rect id="Rectangle_18" data-name="Rectangle 18" width="20.019" height="39.665" transform="translate(20.019 39.665) rotate(180)" fill="none" stroke="#dbdbdb" stroke-miterlimit="10" stroke-width="1.098"/>
          <path id="Path_35" data-name="Path 35" d="M324.828,152.153v39.665h-5.666V152.153" transform="translate(-319.161 -152.153)" fill="none" stroke="#dbdbdb" stroke-miterlimit="10" stroke-width="1.098"/>
          <line id="Line_267" data-name="Line 267" x1="19.778" transform="translate(0.241 19.832)" fill="none" stroke="#dbdbdb" stroke-miterlimit="10" stroke-width="1.098"/>
        </g>
        <rect id="Rectangle_19" data-name="Rectangle 19" width="14.166" height="25.499" transform="translate(138.361 68.473) rotate(180)" fill="none" stroke="#dbdbdb" stroke-miterlimit="10" stroke-width="1.098"/>
        <g id="Group_43" data-name="Group 43" transform="translate(147.326 34.366)">
          <rect id="Rectangle_20" data-name="Rectangle 20" width="5.354" height="32.576" transform="translate(8.425 38.263) rotate(180)" fill="none" stroke="#dbdbdb" stroke-miterlimit="10" stroke-width="1.098"/>
          <rect id="Rectangle_21" data-name="Rectangle 21" width="11.496" height="43.95" transform="translate(11.496 43.95) rotate(180)" fill="none" stroke="#dbdbdb" stroke-miterlimit="10" stroke-width="0.903"/>
        </g>
        <g id="Group_44" data-name="Group 44" transform="translate(56.282 69.947)">
          <rect id="Rectangle_22" data-name="Rectangle 22" width="34.81" height="12.227" transform="translate(34.81 12.227) rotate(180)" fill="none" stroke="#dbdbdb" stroke-miterlimit="10" stroke-width="1.098"/>
          <line id="Line_268" data-name="Line 268" x1="34.81" y2="12.227" transform="translate(0 0)" fill="none" stroke="#dbdbdb" stroke-miterlimit="10" stroke-width="1.098"/>
          <line id="Line_269" data-name="Line 269" x1="34.81" y1="12.227" transform="translate(0 0)" fill="none" stroke="#dbdbdb" stroke-miterlimit="10" stroke-width="1.098"/>
        </g>
        <g id="Group_45" data-name="Group 45" transform="translate(0 36.823)">
          <rect id="Rectangle_23" data-name="Rectangle 23" width="31.172" height="10.949" transform="translate(31.172 10.949) rotate(180)" fill="none" stroke="#dbdbdb" stroke-miterlimit="10" stroke-width="1.098"/>
          <line id="Line_270" data-name="Line 270" x1="31.172" y2="10.949" transform="translate(0)" fill="none" stroke="#dbdbdb" stroke-miterlimit="10" stroke-width="1.098"/>
          <line id="Line_271" data-name="Line 271" x1="31.172" y1="10.949" transform="translate(0)" fill="none" stroke="#dbdbdb" stroke-miterlimit="10" stroke-width="1.098"/>
        </g>
        <g id="Group_46" data-name="Group 46" transform="translate(100.55)">
          <path id="Path_36" data-name="Path 36" d="M329.7,118.218a4.093,4.093,0,0,1,0-8.185" transform="translate(-325.654 -100.373)" fill="none" stroke="#dbdbdb" stroke-linecap="round" stroke-linejoin="round" stroke-width="1.193"/>
          <path id="Path_37" data-name="Path 37" d="M345.176,99.308a4.093,4.093,0,0,1,8.185,0" transform="translate(-332.412 -95.258)" fill="none" stroke="#dbdbdb" stroke-linecap="round" stroke-linejoin="round" stroke-width="1.193"/>
          <path id="Path_38" data-name="Path 38" d="M364.786,99.308a4.093,4.093,0,0,1,8.185,0" transform="translate(-339.201 -95.258)" fill="none" stroke="#dbdbdb" stroke-linecap="round" stroke-linejoin="round" stroke-width="1.193"/>
          <path id="Path_39" data-name="Path 39" d="M372.971,131.23a4.093,4.093,0,0,1-8.185,0" transform="translate(-339.201 -107.711)" fill="none" stroke="#dbdbdb" stroke-linecap="round" stroke-linejoin="round" stroke-width="1.193"/>
          <path id="Path_40" data-name="Path 40" d="M353.361,131.23a4.093,4.093,0,0,1-8.185,0" transform="translate(-332.412 -107.711)" fill="none" stroke="#dbdbdb" stroke-linecap="round" stroke-linejoin="round" stroke-width="1.193"/>
          <path id="Path_41" data-name="Path 41" d="M390.335,110.033a4.093,4.093,0,0,1,0,8.185" transform="translate(-348.046 -100.373)" fill="none" stroke="#dbdbdb" stroke-linecap="round" stroke-linejoin="round" stroke-width="1.193"/>
          <path id="Path_42" data-name="Path 42" d="M340.613,120.858a9.7,9.7,0,0,1-9.7-9.7h0a9.7,9.7,0,0,1,9.7-9.7h20.255a9.7,9.7,0,0,1,9.7,9.7h0a9.7,9.7,0,0,1-9.7,9.7Z" transform="translate(-327.474 -97.402)" fill="none" stroke="#dbdbdb" stroke-miterlimit="10" stroke-width="1.193"/>
        </g>
      </g>
      <g id="Group_58" data-name="Group 58" transform="translate(85.197 95.836)">
        <text id="KITCHEN" transform="translate(21.194 32.163)" fill="#f7f9f9" font-size="5" font-family="Quicksand-Bold, Quicksand" font-weight="700"><tspan x="0" y="0">KITCHEN</tspan></text>
        <rect id="Rectangle_24" data-name="Rectangle 24" width="17.004" height="16.825" transform="translate(0.087 94.295) rotate(-90)" fill="none" stroke="#dbdbdb" stroke-miterlimit="10" stroke-width="1.098"/>
        <g id="Group_53" data-name="Group 53" transform="translate(0.087 26.234)">
          <rect id="Rectangle_25" data-name="Rectangle 25" width="17.004" height="16.825" transform="translate(0 17.004) rotate(-90)" fill="none" stroke="#dbdbdb" stroke-miterlimit="10" stroke-width="1.098"/>
          <g id="Group_52" data-name="Group 52" transform="translate(2.306 2.521)">
            <g id="Group_48" data-name="Group 48" transform="translate(7.851)">
              <path id="Path_43" data-name="Path 43" d="M102.987,156.16a2.146,2.146,0,1,1-2.123,2.146A2.135,2.135,0,0,1,102.987,156.16Z" transform="translate(-100.864 -156.16)" fill="none" stroke="#dbdbdb" stroke-miterlimit="10" stroke-width="1.098"/>
              <path id="Path_44" data-name="Path 44" d="M103.632,158.042a.915.915,0,1,1-.906.915A.911.911,0,0,1,103.632,158.042Z" transform="translate(-101.509 -156.812)" fill="none" stroke="#dbdbdb" stroke-miterlimit="10" stroke-width="1.098"/>
            </g>
            <g id="Group_49" data-name="Group 49">
              <path id="Path_45" data-name="Path 45" d="M90.979,156.16a2.146,2.146,0,1,1-2.123,2.146A2.135,2.135,0,0,1,90.979,156.16Z" transform="translate(-88.856 -156.16)" fill="none" stroke="#dbdbdb" stroke-miterlimit="10" stroke-width="1.098"/>
              <path id="Path_46" data-name="Path 46" d="M91.624,158.042a.915.915,0,1,1-.906.915A.911.911,0,0,1,91.624,158.042Z" transform="translate(-89.501 -156.812)" fill="none" stroke="#dbdbdb" stroke-miterlimit="10" stroke-width="1.098"/>
            </g>
            <g id="Group_50" data-name="Group 50" transform="translate(7.851 7.654)">
              <path id="Path_47" data-name="Path 47" d="M102.987,167.866a2.146,2.146,0,1,1-2.123,2.146A2.135,2.135,0,0,1,102.987,167.866Z" transform="translate(-100.864 -167.866)" fill="none" stroke="#dbdbdb" stroke-miterlimit="10" stroke-width="1.098"/>
              <path id="Path_48" data-name="Path 48" d="M103.632,169.748a.915.915,0,1,1-.906.915A.911.911,0,0,1,103.632,169.748Z" transform="translate(-101.509 -168.518)" fill="none" stroke="#dbdbdb" stroke-miterlimit="10" stroke-width="1.098"/>
            </g>
            <g id="Group_51" data-name="Group 51" transform="translate(0 7.654)">
              <path id="Path_49" data-name="Path 49" d="M90.979,167.866a2.146,2.146,0,1,1-2.123,2.146A2.135,2.135,0,0,1,90.979,167.866Z" transform="translate(-88.856 -167.866)" fill="none" stroke="#dbdbdb" stroke-miterlimit="10" stroke-width="1.098"/>
              <path id="Path_50" data-name="Path 50" d="M91.624,169.748a.915.915,0,1,1-.906.915A.911.911,0,0,1,91.624,169.748Z" transform="translate(-89.501 -168.518)" fill="none" stroke="#dbdbdb" stroke-miterlimit="10" stroke-width="1.098"/>
            </g>
          </g>
        </g>
        <g id="Group_55" data-name="Group 55" transform="translate(0.087 43.299)">
          <path id="Path_51" data-name="Path 51" d="M85.33,212.265V178.4h16.825v33.86" transform="translate(-85.33 -178.405)" fill="none" stroke="#dbdbdb" stroke-miterlimit="10" stroke-width="1.098"/>
          <g id="Group_54" data-name="Group 54" transform="translate(2.851 12.706)">
            <rect id="Rectangle_26" data-name="Rectangle 26" width="16.513" height="10.627" rx="4.487" transform="translate(0 16.513) rotate(-90)" fill="none" stroke="#dbdbdb" stroke-miterlimit="10" stroke-width="1.098"/>
            <rect id="Rectangle_27" data-name="Rectangle 27" width="1.471" height="4.489" transform="translate(0 8.992) rotate(-90)" fill="none" stroke="#dbdbdb" stroke-miterlimit="10" stroke-width="1.098"/>
          </g>
        </g>
        <g id="Group_56" data-name="Group 56" transform="translate(42.906 54.671)">
          <rect id="Rectangle_28" data-name="Rectangle 28" width="39.97" height="13.884" transform="translate(13.884 0) rotate(90)" fill="none" stroke="#dbdbdb" stroke-miterlimit="10" stroke-width="1.171"/>
          <line id="Line_272" data-name="Line 272" x2="13.884" y2="39.97" transform="translate(0)" fill="none" stroke="#dbdbdb" stroke-miterlimit="10" stroke-width="1.171"/>
          <line id="Line_273" data-name="Line 273" x1="13.884" y2="39.97" transform="translate(0)" fill="none" stroke="#dbdbdb" stroke-miterlimit="10" stroke-width="1.171"/>
        </g>
        <g id="Group_57" data-name="Group 57" transform="translate(17.641 0)">
          <path id="Path_52" data-name="Path 52" d="M144.089,140.378a3.482,3.482,0,0,1-6.964,0" transform="translate(-120.814 -121.941)" fill="none" stroke="#dbdbdb" stroke-miterlimit="10" stroke-width="1.193"/>
          <path id="Path_53" data-name="Path 53" d="M130.094,140.378a3.482,3.482,0,0,1-6.964,0" transform="translate(-115.969 -121.941)" fill="none" stroke="#dbdbdb" stroke-miterlimit="10" stroke-width="1.193"/>
          <path id="Path_54" data-name="Path 54" d="M123.13,115.625a3.482,3.482,0,0,1,6.964,0" transform="translate(-115.969 -112.179)" fill="none" stroke="#dbdbdb" stroke-miterlimit="10" stroke-width="1.193"/>
          <path id="Path_55" data-name="Path 55" d="M137.125,115.625a3.482,3.482,0,0,1,6.964,0" transform="translate(-120.814 -112.179)" fill="none" stroke="#dbdbdb" stroke-miterlimit="10" stroke-width="1.193"/>
          <path id="Path_56" data-name="Path 56" d="M135.326,117.447a7.5,7.5,0,0,1,7.5,7.5h0a7.5,7.5,0,0,1-7.5,7.5h-15.65a7.5,7.5,0,0,1-7.5-7.5h0a7.5,7.5,0,0,1,7.5-7.5Z" transform="translate(-112.178 -114.003)" fill="none" stroke="#dbdbdb" stroke-miterlimit="10" stroke-width="1.193"/>
        </g>
        <path id="Path_57" data-name="Path 57" d="M102.109,144.751s.713-14.265-16.912-14.265" transform="translate(-85.197 -118.517)" fill="none" stroke="#dbdbdb" stroke-miterlimit="10" stroke-width="1.098"/>
      </g>
      <line id="Line_274" data-name="Line 274" y2="2.234" transform="translate(93.152 87.006)" fill="none" stroke="#dbdbdb" stroke-miterlimit="10" stroke-width="1"/>
      <g id="Group_59" data-name="Group 59" transform="translate(92.94 86.522)">
        <line id="Line_275" data-name="Line 275" y2="2.234" transform="translate(1.682 0.484)" fill="none" stroke="#dbdbdb" stroke-miterlimit="10" stroke-width="1"/>
        <line id="Line_276" data-name="Line 276" y2="2.234" transform="translate(3.153 0.484)" fill="none" stroke="#dbdbdb" stroke-miterlimit="10" stroke-width="1"/>
        <line id="Line_277" data-name="Line 277" y2="2.234" transform="translate(4.624 0.484)" fill="none" stroke="#dbdbdb" stroke-miterlimit="10" stroke-width="1"/>
        <line id="Line_278" data-name="Line 278" y2="2.234" transform="translate(6.095 0.484)" fill="none" stroke="#dbdbdb" stroke-miterlimit="10" stroke-width="1"/>
        <line id="Line_279" data-name="Line 279" y2="2.234" transform="translate(7.567 0.484)" fill="none" stroke="#dbdbdb" stroke-miterlimit="10" stroke-width="1"/>
        <line id="Line_280" data-name="Line 280" y2="2.234" transform="translate(9.038 0.484)" fill="none" stroke="#dbdbdb" stroke-miterlimit="10" stroke-width="1"/>
        <line id="Line_281" data-name="Line 281" y2="2.234" transform="translate(10.509 0.484)" fill="none" stroke="#dbdbdb" stroke-miterlimit="10" stroke-width="1"/>
        <line id="Line_282" data-name="Line 282" y2="2.234" transform="translate(11.98 0.484)" fill="none" stroke="#dbdbdb" stroke-miterlimit="10" stroke-width="1"/>
        <line id="Line_283" data-name="Line 283" y2="2.234" transform="translate(13.451 0.484)" fill="none" stroke="#dbdbdb" stroke-miterlimit="10" stroke-width="1"/>
        <line id="Line_284" data-name="Line 284" y2="2.234" transform="translate(14.922 0.484)" fill="none" stroke="#dbdbdb" stroke-miterlimit="10" stroke-width="1"/>
        <line id="Line_285" data-name="Line 285" y2="2.234" transform="translate(16.393 0.484)" fill="none" stroke="#dbdbdb" stroke-miterlimit="10" stroke-width="1"/>
        <line id="Line_286" data-name="Line 286" y2="2.234" transform="translate(17.864 0.484)" fill="none" stroke="#dbdbdb" stroke-miterlimit="10" stroke-width="1"/>
        <line id="Line_287" data-name="Line 287" y2="2.234" transform="translate(19.335 0.484)" fill="none" stroke="#dbdbdb" stroke-miterlimit="10" stroke-width="1"/>
        <line id="Line_288" data-name="Line 288" y2="2.234" transform="translate(20.806 0.484)" fill="none" stroke="#dbdbdb" stroke-miterlimit="10" stroke-width="1"/>
        <line id="Line_289" data-name="Line 289" y2="2.234" transform="translate(22.277 0.484)" fill="none" stroke="#dbdbdb" stroke-miterlimit="10" stroke-width="1"/>
        <line id="Line_290" data-name="Line 290" y2="2.234" transform="translate(23.748 0.484)" fill="none" stroke="#dbdbdb" stroke-miterlimit="10" stroke-width="1"/>
        <line id="Line_291" data-name="Line 291" y2="2.234" transform="translate(25.219 0.484)" fill="none" stroke="#dbdbdb" stroke-miterlimit="10" stroke-width="1"/>
        <line id="Line_292" data-name="Line 292" y2="2.234" transform="translate(26.691 0.484)" fill="none" stroke="#dbdbdb" stroke-miterlimit="10" stroke-width="1"/>
        <line id="Line_293" data-name="Line 293" y2="2.234" transform="translate(28.162 0.484)" fill="none" stroke="#dbdbdb" stroke-miterlimit="10" stroke-width="1"/>
        <line id="Line_294" data-name="Line 294" y2="2.234" transform="translate(29.633 0.484)" fill="none" stroke="#dbdbdb" stroke-miterlimit="10" stroke-width="1"/>
        <line id="Line_295" data-name="Line 295" y2="2.234" transform="translate(31.104 0.484)" fill="none" stroke="#dbdbdb" stroke-miterlimit="10" stroke-width="1"/>
        <line id="Line_296" data-name="Line 296" y2="2.234" transform="translate(32.575 0.484)" fill="none" stroke="#dbdbdb" stroke-miterlimit="10" stroke-width="1"/>
        <line id="Line_297" data-name="Line 297" y2="2.234" transform="translate(34.046 0.484)" fill="none" stroke="#dbdbdb" stroke-miterlimit="10" stroke-width="1"/>
        <line id="Line_298" data-name="Line 298" y2="2.234" transform="translate(35.517 0.484)" fill="none" stroke="#dbdbdb" stroke-miterlimit="10" stroke-width="1"/>
        <line id="Line_299" data-name="Line 299" y2="2.234" transform="translate(36.988 0.484)" fill="none" stroke="#dbdbdb" stroke-miterlimit="10" stroke-width="1"/>
        <line id="Line_300" data-name="Line 300" y2="2.234" transform="translate(38.459 0.484)" fill="none" stroke="#dbdbdb" stroke-miterlimit="10" stroke-width="1"/>
        <line id="Line_301" data-name="Line 301" y2="2.234" transform="translate(39.93 0.484)" fill="none" stroke="#dbdbdb" stroke-miterlimit="10" stroke-width="1"/>
        <rect id="Rectangle_29" data-name="Rectangle 29" width="3.092" height="42.941" transform="translate(42.941 0) rotate(90)" fill="none" stroke="#dbdbdb" stroke-miterlimit="10" stroke-width="1.483"/>
        <line id="Line_302" data-name="Line 302" y2="2.234" transform="translate(1.682 0.484)" fill="none" stroke="#dbdbdb" stroke-miterlimit="10" stroke-width="1"/>
        <line id="Line_303" data-name="Line 303" y2="2.234" transform="translate(3.153 0.484)" fill="none" stroke="#dbdbdb" stroke-miterlimit="10" stroke-width="1"/>
        <line id="Line_304" data-name="Line 304" y2="2.234" transform="translate(4.624 0.484)" fill="none" stroke="#dbdbdb" stroke-miterlimit="10" stroke-width="1"/>
        <line id="Line_305" data-name="Line 305" y2="2.234" transform="translate(6.095 0.484)" fill="none" stroke="#dbdbdb" stroke-miterlimit="10" stroke-width="1"/>
        <line id="Line_306" data-name="Line 306" y2="2.234" transform="translate(7.567 0.484)" fill="none" stroke="#dbdbdb" stroke-miterlimit="10" stroke-width="1"/>
        <line id="Line_307" data-name="Line 307" y2="2.234" transform="translate(9.038 0.484)" fill="none" stroke="#dbdbdb" stroke-miterlimit="10" stroke-width="1"/>
        <line id="Line_308" data-name="Line 308" y2="2.234" transform="translate(10.509 0.484)" fill="none" stroke="#dbdbdb" stroke-miterlimit="10" stroke-width="1"/>
        <line id="Line_309" data-name="Line 309" y2="2.234" transform="translate(11.98 0.484)" fill="none" stroke="#dbdbdb" stroke-miterlimit="10" stroke-width="1"/>
        <line id="Line_310" data-name="Line 310" y2="2.234" transform="translate(13.451 0.484)" fill="none" stroke="#dbdbdb" stroke-miterlimit="10" stroke-width="1"/>
        <line id="Line_311" data-name="Line 311" y2="2.234" transform="translate(14.922 0.484)" fill="none" stroke="#dbdbdb" stroke-miterlimit="10" stroke-width="1"/>
        <line id="Line_312" data-name="Line 312" y2="2.234" transform="translate(16.393 0.484)" fill="none" stroke="#dbdbdb" stroke-miterlimit="10" stroke-width="1"/>
        <line id="Line_313" data-name="Line 313" y2="2.234" transform="translate(17.864 0.484)" fill="none" stroke="#dbdbdb" stroke-miterlimit="10" stroke-width="1"/>
        <line id="Line_314" data-name="Line 314" y2="2.234" transform="translate(19.335 0.484)" fill="none" stroke="#dbdbdb" stroke-miterlimit="10" stroke-width="1"/>
        <line id="Line_315" data-name="Line 315" y2="2.234" transform="translate(20.806 0.484)" fill="none" stroke="#dbdbdb" stroke-miterlimit="10" stroke-width="1"/>
        <line id="Line_316" data-name="Line 316" y2="2.234" transform="translate(22.277 0.484)" fill="none" stroke="#dbdbdb" stroke-miterlimit="10" stroke-width="1"/>
        <line id="Line_317" data-name="Line 317" y2="2.234" transform="translate(23.748 0.484)" fill="none" stroke="#dbdbdb" stroke-miterlimit="10" stroke-width="1"/>
        <line id="Line_318" data-name="Line 318" y2="2.234" transform="translate(25.219 0.484)" fill="none" stroke="#dbdbdb" stroke-miterlimit="10" stroke-width="1"/>
        <line id="Line_319" data-name="Line 319" y2="2.234" transform="translate(26.691 0.484)" fill="none" stroke="#dbdbdb" stroke-miterlimit="10" stroke-width="1"/>
        <line id="Line_320" data-name="Line 320" y2="2.234" transform="translate(28.162 0.484)" fill="none" stroke="#dbdbdb" stroke-miterlimit="10" stroke-width="1"/>
        <line id="Line_321" data-name="Line 321" y2="2.234" transform="translate(29.633 0.484)" fill="none" stroke="#dbdbdb" stroke-miterlimit="10" stroke-width="1"/>
        <line id="Line_322" data-name="Line 322" y2="2.234" transform="translate(31.104 0.484)" fill="none" stroke="#dbdbdb" stroke-miterlimit="10" stroke-width="1"/>
        <line id="Line_323" data-name="Line 323" y2="2.234" transform="translate(32.575 0.484)" fill="none" stroke="#dbdbdb" stroke-miterlimit="10" stroke-width="1"/>
        <line id="Line_324" data-name="Line 324" y2="2.234" transform="translate(34.046 0.484)" fill="none" stroke="#dbdbdb" stroke-miterlimit="10" stroke-width="1"/>
        <line id="Line_325" data-name="Line 325" y2="2.234" transform="translate(35.517 0.484)" fill="none" stroke="#dbdbdb" stroke-miterlimit="10" stroke-width="1"/>
        <line id="Line_326" data-name="Line 326" y2="2.234" transform="translate(36.988 0.484)" fill="none" stroke="#dbdbdb" stroke-miterlimit="10" stroke-width="1"/>
        <line id="Line_327" data-name="Line 327" y2="2.234" transform="translate(38.459 0.484)" fill="none" stroke="#dbdbdb" stroke-miterlimit="10" stroke-width="1"/>
        <line id="Line_328" data-name="Line 328" y2="2.234" transform="translate(39.93 0.484)" fill="none" stroke="#dbdbdb" stroke-miterlimit="10" stroke-width="1"/>
        <line id="Line_329" data-name="Line 329" y2="2.234" transform="translate(41.361 0.484)" fill="none" stroke="#dbdbdb" stroke-miterlimit="10" stroke-width="1"/>
      </g>
      <g id="Group_61" data-name="Group 61" transform="translate(298.974 81.557)">
        <rect id="Rectangle_30" data-name="Rectangle 30" width="3.092" height="26.671" fill="none" stroke="#dbdbdb" stroke-miterlimit="10" stroke-width="1.483"/>
        <g id="Group_60" data-name="Group 60" transform="translate(0.375 1.682)">
          <line id="Line_330" data-name="Line 330" x1="2.234" fill="none" stroke="#dbdbdb" stroke-miterlimit="10" stroke-width="1"/>
          <line id="Line_331" data-name="Line 331" x1="2.234" transform="translate(0 1.471)" fill="none" stroke="#dbdbdb" stroke-miterlimit="10" stroke-width="1"/>
          <line id="Line_332" data-name="Line 332" x1="2.234" transform="translate(0 2.942)" fill="none" stroke="#dbdbdb" stroke-miterlimit="10" stroke-width="1"/>
          <line id="Line_333" data-name="Line 333" x1="2.234" transform="translate(0 4.413)" fill="none" stroke="#dbdbdb" stroke-miterlimit="10" stroke-width="1"/>
          <line id="Line_334" data-name="Line 334" x1="2.234" transform="translate(0 5.884)" fill="none" stroke="#dbdbdb" stroke-miterlimit="10" stroke-width="1"/>
          <line id="Line_335" data-name="Line 335" x1="2.234" transform="translate(0 7.355)" fill="none" stroke="#dbdbdb" stroke-miterlimit="10" stroke-width="1"/>
          <line id="Line_336" data-name="Line 336" x1="2.234" transform="translate(0 8.826)" fill="none" stroke="#dbdbdb" stroke-miterlimit="10" stroke-width="1"/>
          <line id="Line_337" data-name="Line 337" x1="2.234" transform="translate(0 10.298)" fill="none" stroke="#dbdbdb" stroke-miterlimit="10" stroke-width="1"/>
          <line id="Line_338" data-name="Line 338" x1="2.234" transform="translate(0 11.769)" fill="none" stroke="#dbdbdb" stroke-miterlimit="10" stroke-width="1"/>
          <line id="Line_339" data-name="Line 339" x1="2.234" transform="translate(0 13.24)" fill="none" stroke="#dbdbdb" stroke-miterlimit="10" stroke-width="1"/>
          <line id="Line_340" data-name="Line 340" x1="2.234" transform="translate(0 14.711)" fill="none" stroke="#dbdbdb" stroke-miterlimit="10" stroke-width="1"/>
          <line id="Line_341" data-name="Line 341" x1="2.234" transform="translate(0 16.182)" fill="none" stroke="#dbdbdb" stroke-miterlimit="10" stroke-width="1"/>
          <line id="Line_342" data-name="Line 342" x1="2.234" transform="translate(0 17.653)" fill="none" stroke="#dbdbdb" stroke-miterlimit="10" stroke-width="1"/>
          <line id="Line_343" data-name="Line 343" x1="2.234" transform="translate(0 19.124)" fill="none" stroke="#dbdbdb" stroke-miterlimit="10" stroke-width="1"/>
          <line id="Line_344" data-name="Line 344" x1="2.234" transform="translate(0 20.595)" fill="none" stroke="#dbdbdb" stroke-miterlimit="10" stroke-width="1"/>
          <line id="Line_345" data-name="Line 345" x1="2.234" transform="translate(0 22.066)" fill="none" stroke="#dbdbdb" stroke-miterlimit="10" stroke-width="1"/>
          <line id="Line_346" data-name="Line 346" x1="2.234" transform="translate(0 23.537)" fill="none" stroke="#dbdbdb" stroke-miterlimit="10" stroke-width="1"/>
          <line id="Line_347" data-name="Line 347" x1="2.234" transform="translate(0 25.008)" fill="none" stroke="#dbdbdb" stroke-miterlimit="10" stroke-width="1"/>
          <line id="Line_348" data-name="Line 348" x1="2.234" fill="none" stroke="#dbdbdb" stroke-miterlimit="10" stroke-width="1"/>
          <line id="Line_349" data-name="Line 349" x1="2.234" transform="translate(0 1.471)" fill="none" stroke="#dbdbdb" stroke-miterlimit="10" stroke-width="1"/>
          <line id="Line_350" data-name="Line 350" x1="2.234" transform="translate(0 2.942)" fill="none" stroke="#dbdbdb" stroke-miterlimit="10" stroke-width="1"/>
          <line id="Line_351" data-name="Line 351" x1="2.234" transform="translate(0 4.413)" fill="none" stroke="#dbdbdb" stroke-miterlimit="10" stroke-width="1"/>
          <line id="Line_352" data-name="Line 352" x1="2.234" transform="translate(0 5.884)" fill="none" stroke="#dbdbdb" stroke-miterlimit="10" stroke-width="1"/>
          <line id="Line_353" data-name="Line 353" x1="2.234" transform="translate(0 7.355)" fill="none" stroke="#dbdbdb" stroke-miterlimit="10" stroke-width="1"/>
          <line id="Line_354" data-name="Line 354" x1="2.234" transform="translate(0 8.826)" fill="none" stroke="#dbdbdb" stroke-miterlimit="10" stroke-width="1"/>
          <line id="Line_355" data-name="Line 355" x1="2.234" transform="translate(0 10.298)" fill="none" stroke="#dbdbdb" stroke-miterlimit="10" stroke-width="1"/>
          <line id="Line_356" data-name="Line 356" x1="2.234" transform="translate(0 11.769)" fill="none" stroke="#dbdbdb" stroke-miterlimit="10" stroke-width="1"/>
          <line id="Line_357" data-name="Line 357" x1="2.234" transform="translate(0 13.24)" fill="none" stroke="#dbdbdb" stroke-miterlimit="10" stroke-width="1"/>
          <line id="Line_358" data-name="Line 358" x1="2.234" transform="translate(0 14.711)" fill="none" stroke="#dbdbdb" stroke-miterlimit="10" stroke-width="1"/>
          <line id="Line_359" data-name="Line 359" x1="2.234" transform="translate(0 16.182)" fill="none" stroke="#dbdbdb" stroke-miterlimit="10" stroke-width="1"/>
          <line id="Line_360" data-name="Line 360" x1="2.234" transform="translate(0 17.653)" fill="none" stroke="#dbdbdb" stroke-miterlimit="10" stroke-width="1"/>
          <line id="Line_361" data-name="Line 361" x1="2.234" transform="translate(0 19.124)" fill="none" stroke="#dbdbdb" stroke-miterlimit="10" stroke-width="1"/>
          <line id="Line_362" data-name="Line 362" x1="2.234" transform="translate(0 20.595)" fill="none" stroke="#dbdbdb" stroke-miterlimit="10" stroke-width="1"/>
          <line id="Line_363" data-name="Line 363" x1="2.234" transform="translate(0 22.066)" fill="none" stroke="#dbdbdb" stroke-miterlimit="10" stroke-width="1"/>
          <line id="Line_364" data-name="Line 364" x1="2.234" transform="translate(0 23.537)" fill="none" stroke="#dbdbdb" stroke-miterlimit="10" stroke-width="1"/>
          <line id="Line_365" data-name="Line 365" x1="2.234" transform="translate(0 25.008)" fill="none" stroke="#dbdbdb" stroke-miterlimit="10" stroke-width="1"/>
        </g>
      </g>
      <g id="Group_62" data-name="Group 62" transform="translate(298.865 192.627)">
        <line id="Line_366" data-name="Line 366" x1="2.234" transform="translate(0.375 1.682)" fill="none" stroke="#dbdbdb" stroke-miterlimit="10" stroke-width="1"/>
        <line id="Line_367" data-name="Line 367" x1="2.234" transform="translate(0.375 3.153)" fill="none" stroke="#dbdbdb" stroke-miterlimit="10" stroke-width="1"/>
        <line id="Line_368" data-name="Line 368" x1="2.234" transform="translate(0.375 4.624)" fill="none" stroke="#dbdbdb" stroke-miterlimit="10" stroke-width="1"/>
        <line id="Line_369" data-name="Line 369" x1="2.234" transform="translate(0.375 6.095)" fill="none" stroke="#dbdbdb" stroke-miterlimit="10" stroke-width="1"/>
        <line id="Line_370" data-name="Line 370" x1="2.234" transform="translate(0.375 7.567)" fill="none" stroke="#dbdbdb" stroke-miterlimit="10" stroke-width="1"/>
        <line id="Line_371" data-name="Line 371" x1="2.234" transform="translate(0.375 9.038)" fill="none" stroke="#dbdbdb" stroke-miterlimit="10" stroke-width="1"/>
        <line id="Line_372" data-name="Line 372" x1="2.234" transform="translate(0.375 10.509)" fill="none" stroke="#dbdbdb" stroke-miterlimit="10" stroke-width="1"/>
        <line id="Line_373" data-name="Line 373" x1="2.234" transform="translate(0.375 11.98)" fill="none" stroke="#dbdbdb" stroke-miterlimit="10" stroke-width="1"/>
        <line id="Line_374" data-name="Line 374" x1="2.234" transform="translate(0.375 13.451)" fill="none" stroke="#dbdbdb" stroke-miterlimit="10" stroke-width="1"/>
        <line id="Line_375" data-name="Line 375" x1="2.234" transform="translate(0.375 14.922)" fill="none" stroke="#dbdbdb" stroke-miterlimit="10" stroke-width="1"/>
        <line id="Line_376" data-name="Line 376" x1="2.234" transform="translate(0.375 16.393)" fill="none" stroke="#dbdbdb" stroke-miterlimit="10" stroke-width="1"/>
        <line id="Line_377" data-name="Line 377" x1="2.234" transform="translate(0.375 17.864)" fill="none" stroke="#dbdbdb" stroke-miterlimit="10" stroke-width="1"/>
        <line id="Line_378" data-name="Line 378" x1="2.234" transform="translate(0.375 19.335)" fill="none" stroke="#dbdbdb" stroke-miterlimit="10" stroke-width="1"/>
        <line id="Line_379" data-name="Line 379" x1="2.234" transform="translate(0.375 20.806)" fill="none" stroke="#dbdbdb" stroke-miterlimit="10" stroke-width="1"/>
        <line id="Line_380" data-name="Line 380" x1="2.234" transform="translate(0.375 22.277)" fill="none" stroke="#dbdbdb" stroke-miterlimit="10" stroke-width="1"/>
        <line id="Line_381" data-name="Line 381" x1="2.234" transform="translate(0.375 23.748)" fill="none" stroke="#dbdbdb" stroke-miterlimit="10" stroke-width="1"/>
        <line id="Line_382" data-name="Line 382" x1="2.234" transform="translate(0.375 25.219)" fill="none" stroke="#dbdbdb" stroke-miterlimit="10" stroke-width="1"/>
        <line id="Line_383" data-name="Line 383" x1="2.234" transform="translate(0.375 26.691)" fill="none" stroke="#dbdbdb" stroke-miterlimit="10" stroke-width="1"/>
        <line id="Line_384" data-name="Line 384" x1="2.234" transform="translate(0.375 28.162)" fill="none" stroke="#dbdbdb" stroke-miterlimit="10" stroke-width="1"/>
        <line id="Line_385" data-name="Line 385" x1="2.234" transform="translate(0.375 29.633)" fill="none" stroke="#dbdbdb" stroke-miterlimit="10" stroke-width="1"/>
        <line id="Line_386" data-name="Line 386" x1="2.234" transform="translate(0.375 31.104)" fill="none" stroke="#dbdbdb" stroke-miterlimit="10" stroke-width="1"/>
        <line id="Line_387" data-name="Line 387" x1="2.234" transform="translate(0.375 32.575)" fill="none" stroke="#dbdbdb" stroke-miterlimit="10" stroke-width="1"/>
        <line id="Line_388" data-name="Line 388" x1="2.234" transform="translate(0.375 34.046)" fill="none" stroke="#dbdbdb" stroke-miterlimit="10" stroke-width="1"/>
        <line id="Line_389" data-name="Line 389" x1="2.234" transform="translate(0.375 35.517)" fill="none" stroke="#dbdbdb" stroke-miterlimit="10" stroke-width="1"/>
        <line id="Line_390" data-name="Line 390" x1="2.234" transform="translate(0.375 36.988)" fill="none" stroke="#dbdbdb" stroke-miterlimit="10" stroke-width="1"/>
        <line id="Line_391" data-name="Line 391" x1="2.234" transform="translate(0.375 38.459)" fill="none" stroke="#dbdbdb" stroke-miterlimit="10" stroke-width="1"/>
        <line id="Line_392" data-name="Line 392" x1="2.234" transform="translate(0.375 39.93)" fill="none" stroke="#dbdbdb" stroke-miterlimit="10" stroke-width="1"/>
        <rect id="Rectangle_31" data-name="Rectangle 31" width="3.092" height="42.941" transform="translate(3.092 42.941) rotate(180)" fill="none" stroke="#dbdbdb" stroke-miterlimit="10" stroke-width="1.483"/>
        <line id="Line_393" data-name="Line 393" x1="2.234" transform="translate(0.375 1.682)" fill="none" stroke="#dbdbdb" stroke-miterlimit="10" stroke-width="1"/>
        <line id="Line_394" data-name="Line 394" x1="2.234" transform="translate(0.375 3.153)" fill="none" stroke="#dbdbdb" stroke-miterlimit="10" stroke-width="1"/>
        <line id="Line_395" data-name="Line 395" x1="2.234" transform="translate(0.375 4.624)" fill="none" stroke="#dbdbdb" stroke-miterlimit="10" stroke-width="1"/>
        <line id="Line_396" data-name="Line 396" x1="2.234" transform="translate(0.375 6.095)" fill="none" stroke="#dbdbdb" stroke-miterlimit="10" stroke-width="1"/>
        <line id="Line_397" data-name="Line 397" x1="2.234" transform="translate(0.375 7.567)" fill="none" stroke="#dbdbdb" stroke-miterlimit="10" stroke-width="1"/>
        <line id="Line_398" data-name="Line 398" x1="2.234" transform="translate(0.375 9.038)" fill="none" stroke="#dbdbdb" stroke-miterlimit="10" stroke-width="1"/>
        <line id="Line_399" data-name="Line 399" x1="2.234" transform="translate(0.375 10.509)" fill="none" stroke="#dbdbdb" stroke-miterlimit="10" stroke-width="1"/>
        <line id="Line_400" data-name="Line 400" x1="2.234" transform="translate(0.375 11.98)" fill="none" stroke="#dbdbdb" stroke-miterlimit="10" stroke-width="1"/>
        <line id="Line_401" data-name="Line 401" x1="2.234" transform="translate(0.375 13.451)" fill="none" stroke="#dbdbdb" stroke-miterlimit="10" stroke-width="1"/>
        <line id="Line_402" data-name="Line 402" x1="2.234" transform="translate(0.375 14.922)" fill="none" stroke="#dbdbdb" stroke-miterlimit="10" stroke-width="1"/>
        <line id="Line_403" data-name="Line 403" x1="2.234" transform="translate(0.375 16.393)" fill="none" stroke="#dbdbdb" stroke-miterlimit="10" stroke-width="1"/>
        <line id="Line_404" data-name="Line 404" x1="2.234" transform="translate(0.375 17.864)" fill="none" stroke="#dbdbdb" stroke-miterlimit="10" stroke-width="1"/>
        <line id="Line_405" data-name="Line 405" x1="2.234" transform="translate(0.375 19.335)" fill="none" stroke="#dbdbdb" stroke-miterlimit="10" stroke-width="1"/>
        <line id="Line_406" data-name="Line 406" x1="2.234" transform="translate(0.375 20.806)" fill="none" stroke="#dbdbdb" stroke-miterlimit="10" stroke-width="1"/>
        <line id="Line_407" data-name="Line 407" x1="2.234" transform="translate(0.375 22.277)" fill="none" stroke="#dbdbdb" stroke-miterlimit="10" stroke-width="1"/>
        <line id="Line_408" data-name="Line 408" x1="2.234" transform="translate(0.375 23.748)" fill="none" stroke="#dbdbdb" stroke-miterlimit="10" stroke-width="1"/>
        <line id="Line_409" data-name="Line 409" x1="2.234" transform="translate(0.375 25.219)" fill="none" stroke="#dbdbdb" stroke-miterlimit="10" stroke-width="1"/>
        <line id="Line_410" data-name="Line 410" x1="2.234" transform="translate(0.375 26.691)" fill="none" stroke="#dbdbdb" stroke-miterlimit="10" stroke-width="1"/>
        <line id="Line_411" data-name="Line 411" x1="2.234" transform="translate(0.375 28.162)" fill="none" stroke="#dbdbdb" stroke-miterlimit="10" stroke-width="1"/>
        <line id="Line_412" data-name="Line 412" x1="2.234" transform="translate(0.375 29.633)" fill="none" stroke="#dbdbdb" stroke-miterlimit="10" stroke-width="1"/>
        <line id="Line_413" data-name="Line 413" x1="2.234" transform="translate(0.375 31.104)" fill="none" stroke="#dbdbdb" stroke-miterlimit="10" stroke-width="1"/>
        <line id="Line_414" data-name="Line 414" x1="2.234" transform="translate(0.375 32.575)" fill="none" stroke="#dbdbdb" stroke-miterlimit="10" stroke-width="1"/>
        <line id="Line_415" data-name="Line 415" x1="2.234" transform="translate(0.375 34.046)" fill="none" stroke="#dbdbdb" stroke-miterlimit="10" stroke-width="1"/>
        <line id="Line_416" data-name="Line 416" x1="2.234" transform="translate(0.375 35.517)" fill="none" stroke="#dbdbdb" stroke-miterlimit="10" stroke-width="1"/>
        <line id="Line_417" data-name="Line 417" x1="2.234" transform="translate(0.375 36.988)" fill="none" stroke="#dbdbdb" stroke-miterlimit="10" stroke-width="1"/>
        <line id="Line_418" data-name="Line 418" x1="2.234" transform="translate(0.375 38.459)" fill="none" stroke="#dbdbdb" stroke-miterlimit="10" stroke-width="1"/>
        <line id="Line_419" data-name="Line 419" x1="2.234" transform="translate(0.375 39.93)" fill="none" stroke="#dbdbdb" stroke-miterlimit="10" stroke-width="1"/>
        <line id="Line_420" data-name="Line 420" x1="2.234" transform="translate(0.375 41.361)" fill="none" stroke="#dbdbdb" stroke-miterlimit="10" stroke-width="1"/>
      </g>
    </g>
  </g>
</svg>
