<svg xmlns="http://www.w3.org/2000/svg" width="316.18" height="320.882" viewBox="0 0 316.18 320.882">
  <g id="Group_16243" data-name="Group 16243" transform="translate(-187.253 -866.169)">
    <path id="Path_6308" data-name="Path 6308" d="M131.1,38.521c72.381,0,131.057,14.966,131.057,87.347s-7.263,120.956-79.644,120.956S-.314,257.763-.314,185.382,58.719,38.521,131.1,38.521Z" transform="translate(515.677 1138.124) rotate(161)" fill="#f4f5fa"/>
    <g id="Group_14831" data-name="Group 14831" transform="translate(271.776 866.169)" style="isolation: isolate">
      <g id="Group_14749" data-name="Group 14749" transform="translate(0 77.284)">
        <path id="Path_6116" data-name="Path 6116" d="M138.2,116.32c63.193-49.49,140.274,19.809,69.413,69.614C176.662,207.7,217.343,216,166.748,214.328c-1.984-19.239-3.817-24.95.681-31.53,8.173-11.952,22.174-14.159,30.286-27.239,9.139-14.738-2.241-31.958-25.1-25.7C148.357,136.517,156.274,146.216,138.2,116.32Z" transform="translate(-130.568 -95.65)" fill="#f7a51a" style="mix-blend-mode: screen;isolation: isolate"/>
        <path id="Path_6117" data-name="Path 6117" d="M155.945,228.153c.789-23.846,37.671-22.432,36.89,1.22C192.05,253.094,155.154,252.071,155.945,228.153Z" transform="translate(-127.719 -77.717)" fill="#f7a51a" style="mix-blend-mode: screen;isolation: isolate"/>
        <g id="Group_14731" data-name="Group 14731" transform="translate(6.865 3.035)" style="mix-blend-mode: screen;isolation: isolate">
          <path id="Path_6118" data-name="Path 6118" d="M177.66,215.2c-3.063,0-6.643-.073-10.825-.211l-.506-.016-.052-.5c-.36-3.488-.715-6.531-1.027-9.214-1.414-12.122-2-17.138,1.806-22.7,3.982-5.825,9.4-9.421,14.641-12.9,5.641-3.744,11.474-7.616,15.63-14.318,4.059-6.546,4.092-13.942.089-19.3-4.756-6.368-13.933-8.438-24.546-5.53a77.132,77.132,0,0,0-13.288,5.008c-8.193,3.83-8.383,3.513-18.378-13.156-1.021-1.7-2.148-3.584-3.4-5.653l-.266-.44.405-.318c21.872-17.129,48.11-21.782,70.182-12.448,16.092,6.8,26.652,19.789,28.245,34.73,1.815,17.01-8.244,34.151-28.324,48.265-13.462,9.47-13.107,16.3-12.873,20.814.108,2.093.2,3.9-1.123,5.25C192.233,214.41,187.764,215.2,177.66,215.2Zm-10.282-1.354c16.793.542,23.815-.036,25.845-2.105.969-.987.895-2.408.793-4.376-.247-4.773-.622-11.985,13.365-21.825,19.719-13.859,29.605-30.62,27.838-47.191-1.548-14.516-11.845-27.146-27.543-33.784-21.544-9.11-47.158-4.63-68.611,11.978,1.147,1.9,2.187,3.633,3.136,5.215,9.645,16.09,9.644,16.089,16.891,12.7a77.871,77.871,0,0,1,13.473-5.077c11.089-3.039,20.73-.811,25.782,5.955,4.3,5.751,4.283,13.648-.034,20.608-4.289,6.916-10.229,10.86-15.974,14.674-5.385,3.574-10.47,6.949-14.326,12.587-3.56,5.205-3.029,9.754-1.611,21.912C166.7,207.682,167.035,210.566,167.378,213.849Z" transform="translate(-137.539 -98.77)" fill="#f7a51a"/>
        </g>
        <g id="Group_14732" data-name="Group 14732" transform="translate(27.633 132.644)" style="mix-blend-mode: screen;isolation: isolate">
          <path id="Path_6119" data-name="Path 6119" d="M174.53,247.3c-.244,0-.485,0-.728-.01-9.135-.3-18.776-6.4-18.357-19.073.229-6.917,3.482-12.4,9.162-15.432a21.364,21.364,0,0,1,20.722.709c5.492,3.419,8.391,9.094,8.164,15.981C193.086,241.811,183.517,247.3,174.53,247.3Zm-17.925-19.045c-.392,11.877,8.66,17.589,17.235,17.874,8.637.306,18.1-4.817,18.494-16.692.214-6.455-2.492-11.767-7.617-14.956a20.163,20.163,0,0,0-19.563-.672c-5.3,2.83-8.335,7.961-8.549,14.446Z" transform="translate(-155.433 -210.441)" fill="#f7a51a"/>
        </g>
        <g id="Group_14737" data-name="Group 14737" style="mix-blend-mode: screen;isolation: isolate">
          <g id="Group_14733" data-name="Group 14733" transform="translate(28.276 83.704)">
            <path id="Path_6120" data-name="Path 6120" d="M174.635,209.262c-3.134,0-6.746-.074-10.937-.214l-5.062-.167-.519-5.037c-.357-3.462-.71-6.484-1.02-9.149-1.481-12.7-2.224-19.074,2.683-26.251l.116-.169.953.664-.111.16c-4.662,6.819-3.936,13.049-2.488,25.461.312,2.672.664,5.7,1.023,9.164l.415,4.031,4.049.133c20.275.672,26.779-.114,30.25-3.65a7.715,7.715,0,0,0,2.026-3.623l1.126.281a8.846,8.846,0,0,1-2.324,4.156C191.825,208.1,186.964,209.262,174.635,209.262Z" transform="translate(-155.986 -168.274)" fill="#f7a51a"/>
          </g>
          <g id="Group_14734" data-name="Group 14734" transform="translate(49.491 37.534)">
            <path id="Path_6121" data-name="Path 6121" d="M190.319,142.223l-1.149-.162a11.728,11.728,0,0,0,.118-1.647,10.055,10.055,0,0,0-1.18-4.806c-1.928-3.6-6.072-5.767-11.374-5.941a23.034,23.034,0,0,0-2.39.046l-.079-1.158c.858-.059,1.695-.073,2.507-.049,5.727.188,10.231,2.578,12.358,6.553a11.206,11.206,0,0,1,1.318,5.355A12.808,12.808,0,0,1,190.319,142.223Z" transform="translate(-174.265 -128.494)" fill="#f7a51a"/>
          </g>
          <g id="Group_14735" data-name="Group 14735">
            <path id="Path_6122" data-name="Path 6122" d="M154.71,143.146c-.115,0-.229,0-.344-.006-6.22-.205-8.858-4.607-16.689-17.67-1.02-1.7-2.144-3.578-3.393-5.642l-2.661-4.4,4.049-3.172a85.622,85.622,0,0,1,32.183-16.1l.279,1.127a84.471,84.471,0,0,0-31.747,15.887l-3.238,2.537,2.129,3.521c1.25,2.066,2.375,3.943,3.394,5.645,7.589,12.659,10.145,16.922,15.732,17.107a10.919,10.919,0,0,0,4.313-.817l.406,1.088A12.334,12.334,0,0,1,154.71,143.146Z" transform="translate(-131.624 -96.155)" fill="#f7a51a"/>
          </g>
          <g id="Group_14736" data-name="Group 14736" transform="translate(94.986 38.913)">
            <path id="Path_6123" data-name="Path 6123" d="M214.319,172.393l-.855-.783c9.824-10.735,15.015-22.614,15.015-34.353a40.671,40.671,0,0,0-.675-7.365l1.141-.21a41.82,41.82,0,0,1,.7,7.575C229.64,149.291,224.343,161.442,214.319,172.393Z" transform="translate(-213.464 -129.682)" fill="#f7a51a"/>
          </g>
        </g>
        <g id="Group_14739" data-name="Group 14739" transform="translate(22.411 137.759)" style="mix-blend-mode: screen;isolation: isolate">
          <g id="Group_14738" data-name="Group 14738">
            <path id="Path_6124" data-name="Path 6124" d="M174.465,251.8l-.11,0c-11.64-.385-23.422-8.583-23.422-23.506,0-.318,0-.638.016-.959a25.486,25.486,0,0,1,1.522-8.04l1.088.4a24.365,24.365,0,0,0-1.45,7.675c-.01.309-.015.616-.015.92,0,14.185,11.216,21.979,22.3,22.346Zm22.087-11.84-1.017-.559a23.186,23.186,0,0,0,2.743-10.5q.014-.46.014-.912a21.891,21.891,0,0,0-3.625-12.49l.962-.648a23.018,23.018,0,0,1,3.823,13.137c0,.316,0,.631-.015.951A24.327,24.327,0,0,1,196.552,239.962Z" transform="translate(-150.933 -214.848)" fill="#f7a51a"/>
          </g>
        </g>
        <path id="Path_6125" data-name="Path 6125" d="M197.469,144.653c49.159-38.5,109.119,15.41,54,54.153-24.074,16.935,7.573,23.39-31.786,22.088-1.544-14.965-2.969-19.408.53-24.527,6.358-9.3,17.249-11.013,23.559-21.189,7.11-11.465-1.743-24.861-19.528-19.991C205.374,160.365,211.531,167.911,197.469,144.653Z" transform="translate(-121.047 -90.491)" fill="#f7a51a" style="mix-blend-mode: screen;isolation: isolate"/>
        <path id="Path_6126" data-name="Path 6126" d="M211.276,231.65c.613-18.55,29.3-17.45,28.7.948C239.361,251.051,210.661,250.256,211.276,231.65Z" transform="translate(-118.83 -76.541)" fill="#f7a51a" style="mix-blend-mode: screen;isolation: isolate"/>
        <g id="Group_14740" data-name="Group 14740" transform="translate(75.658 40.315)" style="mix-blend-mode: screen;isolation: isolate">
          <path id="Path_6127" data-name="Path 6127" d="M228.15,221.722c-2.377,0-5.15-.056-8.384-.162l-.506-.017-.052-.5c-.28-2.712-.556-5.079-.8-7.166-1.1-9.464-1.56-13.381,1.426-17.75,3.113-4.551,7.338-7.356,11.424-10.068,4.377-2.905,8.9-5.91,12.121-11.1,3.129-5.044,3.158-10.743.075-14.87-3.666-4.911-10.753-6.5-18.957-4.255a59.741,59.741,0,0,0-10.316,3.889c-6.48,3.026-6.78,2.527-14.46-10.286-.8-1.324-1.671-2.788-2.645-4.4l-.267-.44.406-.317c17.052-13.355,37.508-16.981,54.724-9.7,12.563,5.313,20.806,15.452,22.05,27.122,1.418,13.28-6.426,26.656-22.087,37.664-10.413,7.325-10.14,12.593-9.959,16.079.086,1.657.16,3.088-.91,4.181C239.593,221.095,236.081,221.722,228.15,221.722Zm-7.84-1.307c12.941.413,18.35-.028,19.9-1.6.714-.728.657-1.811.58-3.308-.195-3.742-.487-9.4,10.45-17.09,15.3-10.752,22.971-23.749,21.6-36.591-1.2-11.243-9.179-21.028-21.348-26.175-16.688-7.058-36.518-3.6-53.152,9.229.869,1.439,1.659,2.755,2.38,3.961,7.444,12.416,7.447,12.415,12.975,9.828a60.891,60.891,0,0,1,10.5-3.957c8.682-2.376,16.229-.628,20.194,4.681,3.374,4.518,3.367,10.716-.02,16.177-3.352,5.4-7.984,8.478-12.465,11.453-4.177,2.774-8.123,5.392-11.107,9.756-2.743,4.011-2.332,7.536-1.233,16.96C219.79,215.7,220.048,217.907,220.31,220.416Z" transform="translate(-196.811 -130.891)" fill="#f7a51a"/>
        </g>
        <g id="Group_14741" data-name="Group 14741" transform="translate(91.856 141.136)" style="mix-blend-mode: screen;isolation: isolate">
          <path id="Path_6128" data-name="Path 6128" d="M225.753,246.686a16.333,16.333,0,0,1-8.583-2.368c-4.3-2.678-6.574-7.155-6.394-12.608h0c.328-9.919,8.185-14.17,15.361-13.944,7.44.247,14.809,5.454,14.494,14.932a13.65,13.65,0,0,1-7.244,12.137A16.267,16.267,0,0,1,225.753,246.686ZM211.936,231.75c-.166,5.02,1.91,9.134,5.847,11.583a15.516,15.516,0,0,0,15.058.478,12.534,12.534,0,0,0,6.631-11.151c.3-9.123-6.721-13.513-13.373-13.733-6.611-.225-13.861,3.7-14.163,12.823Z" transform="translate(-210.766 -217.758)" fill="#f7a51a"/>
        </g>
        <g id="Group_14746" data-name="Group 14746" transform="translate(68.794 35.488)" style="mix-blend-mode: screen;isolation: isolate">
          <g id="Group_14742" data-name="Group 14742" transform="translate(22.392 61.513)">
            <path id="Path_6129" data-name="Path 6129" d="M226.061,219.1c-2.473,0-5.319-.058-8.617-.167l-5.062-.168-.519-5.035c-.268-2.6-.533-4.88-.768-6.9l-.023-.2c-1.19-10.2-1.786-15.317,2.3-21.3a31.266,31.266,0,0,1,4.941-5.6l.778.861a30.174,30.174,0,0,0-4.761,5.395c-3.845,5.624-3.265,10.6-2.109,20.511l.024.2c.234,2.022.5,4.306.77,6.913l.415,4.029,4.049.133c16.323.541,21.319-.108,24.3-3.148,2.321-2.364,2.175-5.181,2.067-7.235a14.2,14.2,0,0,1,.02-2.384l1.153.131a13.063,13.063,0,0,0-.013,2.191c.111,2.144.28,5.381-2.4,8.111C239.99,218.112,236.135,219.1,226.061,219.1Z" transform="translate(-210.19 -179.73)" fill="#f7a51a"/>
          </g>
          <g id="Group_14743" data-name="Group 14743" transform="translate(42.841 32.883)">
            <path id="Path_6130" data-name="Path 6130" d="M236.53,165.063l-1.137-.23a8.086,8.086,0,0,0,.164-1.587,6.57,6.57,0,0,0-.765-3.133c-1.172-2.19-3.718-3.61-6.982-3.9l.1-1.156c3.663.319,6.545,1.961,7.905,4.5a7.717,7.717,0,0,1,.9,3.68A9.184,9.184,0,0,1,236.53,165.063Z" transform="translate(-227.809 -155.063)" fill="#f7a51a"/>
          </g>
          <g id="Group_14744" data-name="Group 14744">
            <path id="Path_6131" data-name="Path 6131" d="M210.547,167.169c-.1,0-.2,0-.308,0-5.539-.182-7.855-4.046-14.045-14.372-.792-1.321-1.666-2.779-2.636-4.384l-2.661-4.4,4.049-3.171c10.117-7.924,21.52-12.8,32.975-14.106l.131,1.154c-11.241,1.28-22.442,6.075-32.391,13.866l-3.238,2.537,2.129,3.52c.97,1.606,1.845,3.064,2.638,4.387,5.953,9.932,8.18,13.647,13.088,13.808,2.269.106,4.264-.854,6.57-1.932.9-.42,1.873-.875,3-1.351l.451,1.07c-1.107.468-2.071.917-2.95,1.33C215,166.217,212.961,167.169,210.547,167.169Z" transform="translate(-190.897 -126.731)" fill="#f7a51a"/>
          </g>
          <g id="Group_14745" data-name="Group 14745" transform="translate(78.992 32.476)">
            <path id="Path_6132" data-name="Path 6132" d="M259.865,186.038l-.909-.721c6.177-7.783,9.308-15.959,9.308-24.3a32.8,32.8,0,0,0-.575-6.088l1.14-.216a33.821,33.821,0,0,1,.6,6.3C269.425,169.626,266.208,178.044,259.865,186.038Z" transform="translate(-258.956 -154.712)" fill="#f7a51a"/>
          </g>
        </g>
        <g id="Group_14748" data-name="Group 14748" transform="translate(86.632 135.913)" style="mix-blend-mode: screen;isolation: isolate">
          <g id="Group_14747" data-name="Group 14747">
            <path id="Path_6133" data-name="Path 6133" d="M225.731,252.623c-9.673-.319-19.465-7.144-19.465-19.565,0-.262,0-.529.013-.8.443-13.4,11.18-19.32,20.753-18.99,7.3.241,13.873,4.01,17.143,9.834l-1.012.569c-3.072-5.472-9.268-9.015-16.169-9.242-9.011-.289-19.138,5.26-19.556,17.868-.007.256-.012.51-.012.76,0,11.685,9.227,18.1,18.343,18.4Z" transform="translate(-206.266 -213.257)" fill="#f7a51a"/>
          </g>
        </g>
      </g>
      <path id="Path_6134" data-name="Path 6134" d="M240.58,95.29a7.9,7.9,0,1,1-7.9-7.9A7.9,7.9,0,0,1,240.58,95.29Z" transform="translate(-116.659 -20.278)" fill="#f7a51a"/>
      <circle id="Ellipse_167" data-name="Ellipse 167" cx="3.509" cy="3.509" r="3.509" transform="translate(117.779 31.145)" fill="#f7a51a"/>
      <circle id="Ellipse_168" data-name="Ellipse 168" cx="3.509" cy="3.509" r="3.509" transform="translate(144.099 0)" fill="#f7a51a"/>
      <circle id="Ellipse_169" data-name="Ellipse 169" cx="3.729" cy="3.729" r="3.729" transform="translate(166.033 57.026)" fill="#f7a51a"/>
      <path id="Path_6135" data-name="Path 6135" d="M146.085,214.531a2.412,2.412,0,1,1-2.412-2.413A2.412,2.412,0,0,1,146.085,214.531Z" transform="translate(-130.076 -0.243)" fill="#f7a51a"/>
      <circle id="Ellipse_170" data-name="Ellipse 170" cx="4.606" cy="4.606" r="4.606" transform="translate(64.92 261.445)" fill="#f7a51a"/>
      <path id="Path_6136" data-name="Path 6136" d="M157.018,84.5a5.045,5.045,0,1,1-5.044-5.044A5.045,5.045,0,0,1,157.018,84.5Z" transform="translate(-129.165 -21.553)" fill="#f7a51a"/>
      <path id="Path_6137" data-name="Path 6137" d="M175.566,57.681a2.413,2.413,0,1,1-2.413-2.413A2.413,2.413,0,0,1,175.566,57.681Z" transform="translate(-125.341 -25.439)" fill="#f7a51a"/>
      <circle id="Ellipse_171" data-name="Ellipse 171" cx="3.509" cy="3.509" r="3.509" transform="translate(138.397 89.926)" fill="#f7a51a"/>
      <path id="Path_6138" data-name="Path 6138" d="M209.493,37.416a4.825,4.825,0,1,1-4.825-4.825A4.825,4.825,0,0,1,209.493,37.416Z" transform="translate(-120.666 -29.081)" fill="#f7a51a"/>
      <path id="Path_6139" data-name="Path 6139" d="M213.118,77.591a1.536,1.536,0,1,1-1.536-1.536A1.535,1.535,0,0,1,213.118,77.591Z" transform="translate(-119.026 -22.099)" fill="#f7a51a"/>
      <circle id="Ellipse_172" data-name="Ellipse 172" cx="4.606" cy="4.606" r="4.606" transform="translate(135.765 198.277)" fill="#f7a51a"/>
      <path id="Path_6140" data-name="Path 6140" d="M252.364,232.71a1.316,1.316,0,1,1-1.316-1.316A1.316,1.316,0,0,1,252.364,232.71Z" transform="translate(-112.652 2.854)" fill="#f7a51a"/>
      <path id="Path_6141" data-name="Path 6141" d="M267.1,252.363a1.316,1.316,0,1,1-1.316-1.316A1.316,1.316,0,0,1,267.1,252.363Z" transform="translate(-110.284 6.011)" fill="#f7a51a"/>
      <circle id="Ellipse_173" data-name="Ellipse 173" cx="3.729" cy="3.729" r="3.729" transform="translate(116.463 267.586)" fill="#f7a51a"/>
    </g>
  </g>
</svg>
