<svg xmlns="http://www.w3.org/2000/svg" width="1001.618" height="150.026" viewBox="0 0 1001.618 150.026">
  <g id="Group_16244" data-name="Group 16244" transform="translate(-231.798 -1801.989)">
    <g id="send_1_" data-name="send (1)" transform="translate(1034.877 1901.312) rotate(-18)">
      <path id="Path_5460" data-name="Path 5460" d="M.281.108A.573.573,0,0,1,.839.046L32.232,12.714l3.719,1.543L24.713,18.807H24.7v.006L21.695,29.306a.62.62,0,0,1-1.035.267l-6.26-6.4L5.952,26.492a1.223,1.223,0,0,1-1.673-.954L.014.752A.61.61,0,0,1,.281.108Zm18.2,21.4-.012-.043-.019.006Z" transform="translate(0 0)" fill="#bbc8ce"/>
      <path id="Path_5461" data-name="Path 5461" d="M0,1.7,6.26,8.1a.682.682,0,0,1-.155-.279L4.085.037,4.054,0,1.364,1.128l-1.2.508Z" transform="translate(14.4 21.472)" fill="#224d5c"/>
      <path id="Path_5462" data-name="Path 5462" d="M0,0,18.218,21.331l.019-.006.012.043,2.021,7.785a.681.681,0,0,0,.155.279.62.62,0,0,0,1.035-.267l3.006-10.493v-.006h.006v-.006Z" transform="translate(0.235 0.141)" fill="#224d5c"/>
    </g>
    <g id="send_1_2" data-name="send (1)" transform="translate(407.893 1829.671) rotate(-18)">
      <path id="Path_5460-2" data-name="Path 5460" d="M.281.108A.573.573,0,0,1,.839.046L32.232,12.714l3.719,1.543L24.713,18.807H24.7v.006L21.695,29.306a.62.62,0,0,1-1.035.267l-6.26-6.4L5.952,26.492a1.223,1.223,0,0,1-1.673-.954L.014.752A.61.61,0,0,1,.281.108Zm18.2,21.4-.012-.043-.019.006Z" transform="translate(0)" fill="#bbc8ce"/>
      <path id="Path_5461-2" data-name="Path 5461" d="M0,1.7,6.26,8.1a.682.682,0,0,1-.155-.279L4.085.037,4.054,0,1.364,1.128l-1.2.508Z" transform="translate(14.4 21.472)" fill="#224d5c"/>
      <path id="Path_5462-2" data-name="Path 5462" d="M0,0,18.218,21.331l.019-.006.012.043,2.021,7.785a.681.681,0,0,0,.155.279.62.62,0,0,0,1.035-.267l3.006-10.493v-.006h.006v-.006Z" transform="translate(0.235 0.141)" fill="#c5312f"/>
    </g>
    <path id="Path_6310" data-name="Path 6310" d="M8968.322,12898.835s10.158-146.524,186.164-79.9c83.572,41.637,90.162,35.979,163.307,68.488s63.869,50.552,165.432,43.128,169.64-142.389,283.063-48.349,202.7-99.417,202.7-99.417" transform="translate(-8736.025 -10980.589)" fill="none" stroke="#707070" stroke-width="1" stroke-dasharray="4" opacity="0.56"/>
  </g>
</svg>
