<svg id="Group_16243" data-name="Group 16243" xmlns="http://www.w3.org/2000/svg" width="815.263" height="381.254" viewBox="0 0 815.263 381.254">
  <path id="Path_6309" data-name="Path 6309" d="M804.681,157.556-9.972,99.939V441.434l814.652,39.76Z" transform="translate(9.972 -99.939)" fill="#224d5c" opacity="0.95"/>
  <g id="Group_14727" data-name="Group 14727" transform="translate(597.653 89.141)" opacity="0.35" style="mix-blend-mode: multiply;isolation: isolate">
    <text id="TERRACE_" data-name="TERRACE " transform="matrix(1, 0, 0, -1, 87.829, 179.498)" fill="#f7f9f9" font-size="5" font-family="Quicksand-Bold, Quicksand" font-weight="700"><tspan x="0" y="0">TERRACE </tspan></text>
    <text id="BEDROOM_" data-name="BEDROOM " transform="matrix(1, 0, 0, -1, 162.979, 29.307)" fill="#f7f9f9" font-size="5" font-family="Quicksand-Bold, Quicksand" font-weight="700"><tspan x="0" y="0">BEDROOM </tspan></text>
    <text id="DRESSING_ROOM" data-name="DRESSING
ROOM" transform="matrix(1, 0, 0, -1, 127.558, 45.593)" fill="#f7f9f9" font-size="5" font-family="Quicksand-Bold, Quicksand" font-weight="700"><tspan x="-12.185" y="0">DRESSING</tspan><tspan x="-7.535" y="6">ROOM</tspan></text>
    <text id="BATHROOM_" data-name="BATHROOM " transform="matrix(1, 0, 0, -1, 22.941, 47.686)" fill="#f7f9f9" font-size="5" font-family="Quicksand-Bold, Quicksand" font-weight="700"><tspan x="0" y="0">BATHROOM </tspan></text>
    <text id="LIVING_ROOM" data-name="LIVING
ROOM" transform="matrix(1, 0, 0, -1, 87.836, 123.722)" fill="#f7f9f9" font-size="4" font-family="Quicksand-Bold, Quicksand" font-weight="700"><tspan x="-6.442" y="0">LIVING</tspan><tspan x="-6.028" y="5">ROOM</tspan></text>
    <path id="Path_16" data-name="Path 16" d="M0,0H17.231S18.351,15.52,0,15.316" transform="translate(56.541 150.233)" fill="none" stroke="#dbdbdb" stroke-linejoin="round" stroke-width="1.098"/>
    <path id="Path_17" data-name="Path 17" d="M17.245,0H.013s-1.12,15.52,17.231,15.317" transform="translate(39.012 121.838)" fill="none" stroke="#dbdbdb" stroke-linejoin="round" stroke-width="1.098"/>
    <path id="Path_18" data-name="Path 18" d="M17.245,0H.013S-1.107,15.52,17.245,15.317" transform="translate(62.371 41.343)" fill="none" stroke="#dbdbdb" stroke-linejoin="round" stroke-width="1.098"/>
    <path id="Path_19" data-name="Path 19" d="M0,0V17.231S15.52,18.352,15.316,0" transform="translate(88.724 0)" fill="none" stroke="#dbdbdb" stroke-linejoin="round" stroke-width="1.098"/>
    <path id="Path_20" data-name="Path 20" d="M0,15.318H17.231S18.352-.2,0,0" transform="translate(113.027 78.459)" fill="none" stroke="#dbdbdb" stroke-linejoin="round" stroke-width="1.098"/>
    <path id="Path_21" data-name="Path 21" d="M0,0V17.231S15.52,18.352,15.317,0" transform="translate(90.662 148.143)" fill="none" stroke="#dbdbdb" stroke-linejoin="round" stroke-width="1.098"/>
    <rect id="Rectangle_4" data-name="Rectangle 4" width="7.083" height="12.749" transform="translate(184.849 44.909) rotate(90)" fill="none" stroke="#dbdbdb" stroke-miterlimit="10" stroke-width="1.14"/>
    <g id="Group_31" data-name="Group 31" transform="translate(113.175 11.063)">
      <rect id="Rectangle_5" data-name="Rectangle 5" width="34.151" height="12.227" transform="translate(0 0)" fill="none" stroke="#dbdbdb" stroke-miterlimit="10" stroke-width="1.098"/>
      <line id="Line_248" data-name="Line 248" x2="34.151" y2="12.227" transform="translate(0 0)" fill="none" stroke="#dbdbdb" stroke-miterlimit="10" stroke-width="1.098"/>
      <line id="Line_249" data-name="Line 249" y1="12.227" x2="34.151" transform="translate(0 0)" fill="none" stroke="#dbdbdb" stroke-miterlimit="10" stroke-width="1.098"/>
    </g>
    <g id="Group_32" data-name="Group 32" transform="translate(176.981 195.776)">
      <rect id="Rectangle_6" data-name="Rectangle 6" width="37.603" height="8.838" transform="translate(37.603 8.838) rotate(180)" fill="none" stroke="#dbdbdb" stroke-miterlimit="10" stroke-width="1.193"/>
      <line id="Line_250" data-name="Line 250" x1="37.603" y1="8.838" transform="translate(0 0)" fill="none" stroke="#dbdbdb" stroke-miterlimit="10" stroke-width="1.193"/>
      <line id="Line_251" data-name="Line 251" x1="37.603" y2="8.838" transform="translate(0 0)" fill="none" stroke="#dbdbdb" stroke-miterlimit="10" stroke-width="1.193"/>
    </g>
    <g id="Group_33" data-name="Group 33" transform="translate(139.378 195.776)">
      <rect id="Rectangle_7" data-name="Rectangle 7" width="37.603" height="8.838" transform="translate(37.603 8.838) rotate(180)" fill="none" stroke="#dbdbdb" stroke-miterlimit="10" stroke-width="1.193"/>
      <line id="Line_252" data-name="Line 252" x1="37.603" y1="8.838" transform="translate(0 0)" fill="none" stroke="#dbdbdb" stroke-miterlimit="10" stroke-width="1.193"/>
      <line id="Line_253" data-name="Line 253" x1="37.603" y2="8.838" transform="translate(0 0)" fill="none" stroke="#dbdbdb" stroke-miterlimit="10" stroke-width="1.193"/>
    </g>
    <g id="Group_34" data-name="Group 34" transform="translate(159.86 56.442)">
      <rect id="Rectangle_8" data-name="Rectangle 8" width="45.331" height="37.228" transform="translate(37.228 0) rotate(90)" fill="none" stroke="#dbdbdb" stroke-miterlimit="10" stroke-width="1.14"/>
      <rect id="Rectangle_9" data-name="Rectangle 9" width="37.228" height="8.581" transform="translate(37.228 45.331) rotate(180)" fill="none" stroke="#dbdbdb" stroke-miterlimit="10" stroke-width="1.14"/>
    </g>
    <rect id="Rectangle_10" data-name="Rectangle 10" width="10.121" height="10.121" transform="translate(210.835 101.773) rotate(180)" fill="none" stroke="#dbdbdb" stroke-miterlimit="10" stroke-width="1.14"/>
    <rect id="Rectangle_11" data-name="Rectangle 11" width="10.121" height="10.121" transform="translate(156.268 101.773) rotate(180)" fill="none" stroke="#dbdbdb" stroke-miterlimit="10" stroke-width="1.14"/>
    <g id="Group_35" data-name="Group 35" transform="translate(113.343 23.713)">
      <path id="Path_22" data-name="Path 22" d="M31.909,39.428h2.074V0H0V39.428H17.31" fill="none" stroke="#dbdbdb" stroke-miterlimit="10" stroke-width="1.483"/>
    </g>
    <path id="Path_23" data-name="Path 23" d="M111.282,34.026V22.665l-68,.027V0L0,.017" transform="translate(104.04 0.164)" fill="none" stroke="#dbdbdb" stroke-miterlimit="10" stroke-width="3"/>
    <line id="Line_254" data-name="Line 254" y1="84.387" transform="translate(215.323 76.905)" fill="none" stroke="#dbdbdb" stroke-miterlimit="10" stroke-width="3"/>
    <path id="Path_24" data-name="Path 24" d="M0,0H5.573V22.666H164.639V6.62" transform="translate(50.684 181.515)" fill="none" stroke="#dbdbdb" stroke-miterlimit="10" stroke-width="3"/>
    <path id="Path_25" data-name="Path 25" d="M88.724,0,79.147,0V22.669H0V181.328H7.287" transform="translate(0 0.187)" fill="none" stroke="#dbdbdb" stroke-miterlimit="10" stroke-width="3"/>
    <path id="Path_26" data-name="Path 26" d="M0,0H33.369V56.378" transform="translate(105.62 147.772)" fill="none" stroke="#dbdbdb" stroke-miterlimit="10" stroke-width="3"/>
    <path id="Path_27" data-name="Path 27" d="M0,2.46V0H34.732" transform="translate(56.257 147.772)" fill="none" stroke="#dbdbdb" stroke-miterlimit="10" stroke-width="3"/>
    <line id="Line_255" data-name="Line 255" y1="15.966" transform="translate(56.257 165.549)" fill="none" stroke="#dbdbdb" stroke-miterlimit="10" stroke-width="3"/>
    <line id="Line_256" data-name="Line 256" y2="10.618" transform="translate(56.257 137.154)" fill="none" stroke="#dbdbdb" stroke-miterlimit="10" stroke-width="3"/>
    <path id="Path_28" data-name="Path 28" d="M0,0H56.257V42.318" transform="translate(0 79.52)" fill="none" stroke="#dbdbdb" stroke-miterlimit="10" stroke-width="3"/>
    <line id="Line_257" data-name="Line 257" y1="18.824" transform="translate(79.119 22.856)" fill="none" stroke="#dbdbdb" stroke-miterlimit="10" stroke-width="3"/>
    <path id="Path_29" data-name="Path 29" d="M0,22.861H22.863V0" transform="translate(56.257 56.659)" fill="none" stroke="#dbdbdb" stroke-miterlimit="10" stroke-width="3"/>
    <path id="Path_30" data-name="Path 30" d="M0,0V8.409H102.517" transform="translate(112.557 93.777)" fill="none" stroke="#dbdbdb" stroke-miterlimit="10" stroke-width="3"/>
    <path id="Path_31" data-name="Path 31" d="M34.769.027,0,0V55.632" transform="translate(112.557 22.829)" fill="none" stroke="#dbdbdb" stroke-miterlimit="10" stroke-width="3"/>
    <line id="Line_258" data-name="Line 258" x1="15.316" y2="0.006" transform="translate(88.724 0.181)" fill="none" stroke="#dbdbdb" stroke-linecap="round" stroke-linejoin="round" stroke-width="1" stroke-dasharray="7 11"/>
    <line id="Line_259" data-name="Line 259" x1="0.006" y1="15.316" transform="translate(79.482 42.09)" fill="none" stroke="#dbdbdb" stroke-linecap="round" stroke-linejoin="round" stroke-width="1" stroke-dasharray="7 11"/>
    <line id="Line_260" data-name="Line 260" x1="0.006" y1="15.316" transform="translate(112.554 78.772)" fill="none" stroke="#dbdbdb" stroke-linecap="round" stroke-linejoin="round" stroke-width="1" stroke-dasharray="7 11"/>
    <line id="Line_261" data-name="Line 261" x1="15.316" y2="0.006" transform="translate(130.254 63.131)" fill="none" stroke="#dbdbdb" stroke-linecap="round" stroke-linejoin="round" stroke-width="1" stroke-dasharray="7 11"/>
    <path id="Path_32" data-name="Path 32" d="M0,0V17.231S15.52,18.352,15.316,0" transform="translate(130.253 63.14)" fill="none" stroke="#dbdbdb" stroke-linejoin="round" stroke-width="1.098"/>
    <line id="Line_262" data-name="Line 262" x1="0.006" y1="15.316" transform="translate(56.251 121.839)" fill="none" stroke="#dbdbdb" stroke-linecap="round" stroke-linejoin="round" stroke-width="1" stroke-dasharray="7 11"/>
    <line id="Line_263" data-name="Line 263" x1="15.316" y2="0.006" transform="translate(90.55 147.513)" fill="none" stroke="#dbdbdb" stroke-linecap="round" stroke-linejoin="round" stroke-width="1" stroke-dasharray="7 11"/>
    <line id="Line_264" data-name="Line 264" x1="0.006" y1="15.316" transform="translate(56.247 150.445)" fill="none" stroke="#dbdbdb" stroke-linecap="round" stroke-linejoin="round" stroke-width="1" stroke-dasharray="7 11"/>
    <g id="Group_41" data-name="Group 41" transform="translate(0 23.177)">
      <g id="Group_36" data-name="Group 36" transform="translate(38.811 0.407)">
        <rect id="Rectangle_12" data-name="Rectangle 12" width="39.97" height="12.227" transform="translate(39.97 12.227) rotate(180)" fill="none" stroke="#dbdbdb" stroke-miterlimit="10" stroke-width="1.098"/>
        <line id="Line_265" data-name="Line 265" x1="39.97" y1="12.227" transform="translate(0 0)" fill="none" stroke="#dbdbdb" stroke-miterlimit="10" stroke-width="1.098"/>
        <line id="Line_266" data-name="Line 266" x1="39.97" y2="12.227" transform="translate(0 0)" fill="none" stroke="#dbdbdb" stroke-miterlimit="10" stroke-width="1.098"/>
      </g>
      <g id="Group_37" data-name="Group 37" transform="translate(11.333 0)">
        <rect id="Rectangle_13" data-name="Rectangle 13" width="12.509" height="5.246" transform="translate(0 0)" fill="none" stroke="#dbdbdb" stroke-miterlimit="10" stroke-width="1.021"/>
        <path id="Path_33" data-name="Path 33" d="M1.275.091A7.3,7.3,0,0,0,0,4.266c0,3.7,2.623,6.7,5.858,6.7s5.859-3,5.859-6.7A7.283,7.283,0,0,0,10.377,0" transform="translate(0.396 5.254)" fill="none" stroke="#dbdbdb" stroke-miterlimit="10" stroke-width="1.021"/>
      </g>
      <g id="Group_38" data-name="Group 38" transform="translate(0 33.678)">
        <path id="Path_34" data-name="Path 34" d="M7.015,0A7.014,7.014,0,0,0,0,7.015H0A7.015,7.015,0,0,0,7.015,14.03H26.36a7.015,7.015,0,0,0,7.015-7.015h0A7.014,7.014,0,0,0,26.36,0Z" transform="translate(5.978 4.318)" fill="none" stroke="#dbdbdb" stroke-miterlimit="10" stroke-width="1.098"/>
        <rect id="Rectangle_14" data-name="Rectangle 14" width="45.331" height="22.665" transform="translate(0 0)" fill="none" stroke="#dbdbdb" stroke-miterlimit="10" stroke-width="1.093"/>
      </g>
      <g id="Group_40" data-name="Group 40" transform="translate(59.66 46.114)">
        <ellipse id="Ellipse_1" data-name="Ellipse 1" cx="7.192" cy="5.115" rx="7.192" ry="5.115" transform="translate(0 0)" fill="none" stroke="#dbdbdb" stroke-miterlimit="10" stroke-width="1.021"/>
        <g id="Group_39" data-name="Group 39" transform="translate(4.894 4.632)">
          <rect id="Rectangle_15" data-name="Rectangle 15" width="1.217" height="4.371" transform="translate(1.689 0)" fill="none" stroke="#dbdbdb" stroke-miterlimit="10" stroke-width="1.021"/>
          <rect id="Rectangle_16" data-name="Rectangle 16" width="1.217" height="1.97" transform="translate(0 2.911)" fill="none" stroke="#dbdbdb" stroke-miterlimit="10" stroke-width="0.685"/>
          <rect id="Rectangle_17" data-name="Rectangle 17" width="1.217" height="1.97" transform="translate(3.028 2.911)" fill="none" stroke="#dbdbdb" stroke-miterlimit="10" stroke-width="0.685"/>
        </g>
      </g>
    </g>
    <g id="Group_47" data-name="Group 47" transform="translate(56.664 102.637)">
      <g id="Group_42" data-name="Group 42" transform="translate(96.305 5.311)">
        <rect id="Rectangle_18" data-name="Rectangle 18" width="20.019" height="39.665" transform="translate(20.019 39.665) rotate(180)" fill="none" stroke="#dbdbdb" stroke-miterlimit="10" stroke-width="1.098"/>
        <path id="Path_35" data-name="Path 35" d="M5.666,39.665V0H0V39.665" transform="translate(0 0)" fill="none" stroke="#dbdbdb" stroke-miterlimit="10" stroke-width="1.098"/>
        <line id="Line_267" data-name="Line 267" x1="19.778" transform="translate(0.241 19.832)" fill="none" stroke="#dbdbdb" stroke-miterlimit="10" stroke-width="1.098"/>
      </g>
      <rect id="Rectangle_19" data-name="Rectangle 19" width="14.166" height="25.499" transform="translate(138.361 39.2) rotate(180)" fill="none" stroke="#dbdbdb" stroke-miterlimit="10" stroke-width="1.098"/>
      <g id="Group_43" data-name="Group 43" transform="translate(147.326 3.859)">
        <rect id="Rectangle_20" data-name="Rectangle 20" width="5.354" height="32.576" transform="translate(8.425 38.263) rotate(180)" fill="none" stroke="#dbdbdb" stroke-miterlimit="10" stroke-width="1.098"/>
        <rect id="Rectangle_21" data-name="Rectangle 21" width="11.496" height="43.95" transform="translate(11.496 43.95) rotate(180)" fill="none" stroke="#dbdbdb" stroke-miterlimit="10" stroke-width="0.903"/>
      </g>
      <g id="Group_44" data-name="Group 44" transform="translate(56.282 0)">
        <rect id="Rectangle_22" data-name="Rectangle 22" width="34.81" height="12.227" transform="translate(34.81 12.227) rotate(180)" fill="none" stroke="#dbdbdb" stroke-miterlimit="10" stroke-width="1.098"/>
        <line id="Line_268" data-name="Line 268" x1="34.81" y1="12.227" transform="translate(0 0)" fill="none" stroke="#dbdbdb" stroke-miterlimit="10" stroke-width="1.098"/>
        <line id="Line_269" data-name="Line 269" x1="34.81" y2="12.227" transform="translate(0 0)" fill="none" stroke="#dbdbdb" stroke-miterlimit="10" stroke-width="1.098"/>
      </g>
      <g id="Group_45" data-name="Group 45" transform="translate(0 34.402)">
        <rect id="Rectangle_23" data-name="Rectangle 23" width="31.172" height="10.949" transform="translate(31.172 10.949) rotate(180)" fill="none" stroke="#dbdbdb" stroke-miterlimit="10" stroke-width="1.098"/>
        <line id="Line_270" data-name="Line 270" x1="31.172" y1="10.949" transform="translate(0 0)" fill="none" stroke="#dbdbdb" stroke-miterlimit="10" stroke-width="1.098"/>
        <line id="Line_271" data-name="Line 271" x1="31.172" y2="10.949" transform="translate(0 0)" fill="none" stroke="#dbdbdb" stroke-miterlimit="10" stroke-width="1.098"/>
      </g>
      <g id="Group_46" data-name="Group 46" transform="translate(100.55 54.606)">
        <path id="Path_36" data-name="Path 36" d="M4.05,0A4.071,4.071,0,0,0,0,4.092,4.072,4.072,0,0,0,4.05,8.185" transform="translate(0 9.724)" fill="none" stroke="#dbdbdb" stroke-linecap="round" stroke-linejoin="round" stroke-width="1.193"/>
        <path id="Path_37" data-name="Path 37" d="M0,0A4.071,4.071,0,0,0,4.092,4.05,4.072,4.072,0,0,0,8.185,0" transform="translate(12.764 23.519)" fill="none" stroke="#dbdbdb" stroke-linecap="round" stroke-linejoin="round" stroke-width="1.193"/>
        <path id="Path_38" data-name="Path 38" d="M0,0A4.072,4.072,0,0,0,4.093,4.05,4.071,4.071,0,0,0,8.185,0" transform="translate(25.585 23.519)" fill="none" stroke="#dbdbdb" stroke-linecap="round" stroke-linejoin="round" stroke-width="1.193"/>
        <path id="Path_39" data-name="Path 39" d="M8.185,4.05A4.071,4.071,0,0,0,4.093,0,4.072,4.072,0,0,0,0,4.05" transform="translate(25.585 0)" fill="none" stroke="#dbdbdb" stroke-linecap="round" stroke-linejoin="round" stroke-width="1.193"/>
        <path id="Path_40" data-name="Path 40" d="M8.185,4.05A4.072,4.072,0,0,0,4.092,0,4.071,4.071,0,0,0,0,4.05" transform="translate(12.764 0)" fill="none" stroke="#dbdbdb" stroke-linecap="round" stroke-linejoin="round" stroke-width="1.193"/>
        <path id="Path_41" data-name="Path 41" d="M0,8.185A4.072,4.072,0,0,0,4.05,4.092,4.071,4.071,0,0,0,0,0" transform="translate(42.289 9.724)" fill="none" stroke="#dbdbdb" stroke-linecap="round" stroke-linejoin="round" stroke-width="1.193"/>
        <path id="Path_42" data-name="Path 42" d="M9.7,0A9.7,9.7,0,0,0,0,9.7H0a9.7,9.7,0,0,0,9.7,9.7H29.958a9.7,9.7,0,0,0,9.7-9.7h0a9.7,9.7,0,0,0-9.7-9.7Z" transform="translate(3.436 4.113)" fill="none" stroke="#dbdbdb" stroke-miterlimit="10" stroke-width="1.193"/>
      </g>
    </g>
    <g id="Group_58" data-name="Group 58" transform="translate(0 79.107)">
      <text id="KITCHEN" transform="matrix(1, 0, 0, -1, 21.194, 62.478)" fill="#f7f9f9" font-size="5" font-family="Quicksand-Bold, Quicksand" font-weight="700"><tspan x="0" y="0">KITCHEN</tspan></text>
      <rect id="Rectangle_24" data-name="Rectangle 24" width="17.004" height="16.825" transform="translate(16.912 0.346) rotate(90)" fill="none" stroke="#dbdbdb" stroke-miterlimit="10" stroke-width="1.098"/>
      <g id="Group_53" data-name="Group 53" transform="translate(0.087 51.403)">
        <rect id="Rectangle_25" data-name="Rectangle 25" width="17.004" height="16.825" transform="translate(16.825 0) rotate(90)" fill="none" stroke="#dbdbdb" stroke-miterlimit="10" stroke-width="1.098"/>
        <g id="Group_52" data-name="Group 52" transform="translate(2.306 2.537)">
          <g id="Group_48" data-name="Group 48" transform="translate(7.851 7.654)">
            <path id="Path_43" data-name="Path 43" d="M2.123,4.292A2.135,2.135,0,0,0,4.247,2.146,2.135,2.135,0,0,0,2.123,0,2.134,2.134,0,0,0,0,2.146,2.134,2.134,0,0,0,2.123,4.292Z" fill="none" stroke="#dbdbdb" stroke-miterlimit="10" stroke-width="1.098"/>
            <path id="Path_44" data-name="Path 44" d="M.906,1.831A.911.911,0,0,0,1.812.915.911.911,0,0,0,.906,0,.911.911,0,0,0,0,.915.911.911,0,0,0,.906,1.831Z" transform="translate(1.217 1.23)" fill="none" stroke="#dbdbdb" stroke-miterlimit="10" stroke-width="1.098"/>
          </g>
          <g id="Group_49" data-name="Group 49" transform="translate(0 7.654)">
            <path id="Path_45" data-name="Path 45" d="M2.123,4.292A2.135,2.135,0,0,0,4.247,2.146,2.135,2.135,0,0,0,2.123,0,2.134,2.134,0,0,0,0,2.146,2.134,2.134,0,0,0,2.123,4.292Z" fill="none" stroke="#dbdbdb" stroke-miterlimit="10" stroke-width="1.098"/>
            <path id="Path_46" data-name="Path 46" d="M.906,1.831A.911.911,0,0,0,1.812.915.911.911,0,0,0,.906,0,.911.911,0,0,0,0,.915.911.911,0,0,0,.906,1.831Z" transform="translate(1.217 1.23)" fill="none" stroke="#dbdbdb" stroke-miterlimit="10" stroke-width="1.098"/>
          </g>
          <g id="Group_50" data-name="Group 50" transform="translate(7.851 0)">
            <path id="Path_47" data-name="Path 47" d="M2.123,4.292A2.135,2.135,0,0,0,4.247,2.146,2.135,2.135,0,0,0,2.123,0,2.134,2.134,0,0,0,0,2.146,2.134,2.134,0,0,0,2.123,4.292Z" fill="none" stroke="#dbdbdb" stroke-miterlimit="10" stroke-width="1.098"/>
            <path id="Path_48" data-name="Path 48" d="M.906,1.831A.911.911,0,0,0,1.812.915.911.911,0,0,0,.906,0,.911.911,0,0,0,0,.915.911.911,0,0,0,.906,1.831Z" transform="translate(1.217 1.23)" fill="none" stroke="#dbdbdb" stroke-miterlimit="10" stroke-width="1.098"/>
          </g>
          <g id="Group_51" data-name="Group 51" transform="translate(0 0)">
            <path id="Path_49" data-name="Path 49" d="M2.123,4.292A2.135,2.135,0,0,0,4.247,2.146,2.135,2.135,0,0,0,2.123,0,2.134,2.134,0,0,0,0,2.146,2.134,2.134,0,0,0,2.123,4.292Z" fill="none" stroke="#dbdbdb" stroke-miterlimit="10" stroke-width="1.098"/>
            <path id="Path_50" data-name="Path 50" d="M.906,1.831A.911.911,0,0,0,1.812.915.911.911,0,0,0,.906,0,.911.911,0,0,0,0,.915.911.911,0,0,0,.906,1.831Z" transform="translate(1.217 1.23)" fill="none" stroke="#dbdbdb" stroke-miterlimit="10" stroke-width="1.098"/>
          </g>
        </g>
      </g>
      <g id="Group_55" data-name="Group 55" transform="translate(0.087 17.481)">
        <path id="Path_51" data-name="Path 51" d="M0,0V33.86H16.825V0" fill="none" stroke="#dbdbdb" stroke-miterlimit="10" stroke-width="1.098"/>
        <g id="Group_54" data-name="Group 54" transform="translate(2.851 4.641)">
          <rect id="Rectangle_26" data-name="Rectangle 26" width="16.513" height="10.627" rx="4.487" transform="translate(10.627 0) rotate(90)" fill="none" stroke="#dbdbdb" stroke-miterlimit="10" stroke-width="1.098"/>
          <rect id="Rectangle_27" data-name="Rectangle 27" width="1.471" height="4.489" transform="translate(4.489 7.521) rotate(90)" fill="none" stroke="#dbdbdb" stroke-miterlimit="10" stroke-width="1.098"/>
        </g>
      </g>
      <g id="Group_56" data-name="Group 56" transform="translate(42.906 0)">
        <rect id="Rectangle_28" data-name="Rectangle 28" width="39.97" height="13.884" transform="translate(0 39.97) rotate(-90)" fill="none" stroke="#dbdbdb" stroke-miterlimit="10" stroke-width="1.171"/>
        <line id="Line_272" data-name="Line 272" y1="39.97" x2="13.884" transform="translate(0 0)" fill="none" stroke="#dbdbdb" stroke-miterlimit="10" stroke-width="1.171"/>
        <line id="Line_273" data-name="Line 273" x1="13.884" y1="39.97" transform="translate(0 0)" fill="none" stroke="#dbdbdb" stroke-miterlimit="10" stroke-width="1.171"/>
      </g>
      <g id="Group_57" data-name="Group 57" transform="translate(17.641 72.757)">
        <path id="Path_52" data-name="Path 52" d="M6.964,3.446A3.465,3.465,0,0,0,3.482,0,3.464,3.464,0,0,0,0,3.446" transform="translate(16.311 0)" fill="none" stroke="#dbdbdb" stroke-miterlimit="10" stroke-width="1.193"/>
        <path id="Path_53" data-name="Path 53" d="M6.964,3.446A3.465,3.465,0,0,0,3.482,0,3.464,3.464,0,0,0,0,3.446" transform="translate(7.161 0)" fill="none" stroke="#dbdbdb" stroke-miterlimit="10" stroke-width="1.193"/>
        <path id="Path_54" data-name="Path 54" d="M0,0A3.464,3.464,0,0,0,3.482,3.446,3.464,3.464,0,0,0,6.964,0" transform="translate(7.161 18.438)" fill="none" stroke="#dbdbdb" stroke-miterlimit="10" stroke-width="1.193"/>
        <path id="Path_55" data-name="Path 55" d="M0,0A3.464,3.464,0,0,0,3.482,3.446,3.464,3.464,0,0,0,6.964,0" transform="translate(16.311 18.438)" fill="none" stroke="#dbdbdb" stroke-miterlimit="10" stroke-width="1.193"/>
        <path id="Path_56" data-name="Path 56" d="M23.148,14.994a7.5,7.5,0,0,0,7.5-7.5h0a7.5,7.5,0,0,0-7.5-7.5H7.5A7.5,7.5,0,0,0,0,7.5H0a7.5,7.5,0,0,0,7.5,7.5Z" transform="translate(0 3.445)" fill="none" stroke="#dbdbdb" stroke-miterlimit="10" stroke-width="1.193"/>
      </g>
      <path id="Path_57" data-name="Path 57" d="M16.912,0S17.626,14.265,0,14.265" transform="translate(0 68.406)" fill="none" stroke="#dbdbdb" stroke-miterlimit="10" stroke-width="1.098"/>
    </g>
    <line id="Line_274" data-name="Line 274" y1="2.234" transform="translate(7.955 180.344)" fill="none" stroke="#dbdbdb" stroke-miterlimit="10" stroke-width="1"/>
    <g id="Group_59" data-name="Group 59" transform="translate(7.744 179.969)">
      <line id="Line_275" data-name="Line 275" y1="2.234" transform="translate(1.682 0.375)" fill="none" stroke="#dbdbdb" stroke-miterlimit="10" stroke-width="1"/>
      <line id="Line_276" data-name="Line 276" y1="2.234" transform="translate(3.153 0.375)" fill="none" stroke="#dbdbdb" stroke-miterlimit="10" stroke-width="1"/>
      <line id="Line_277" data-name="Line 277" y1="2.234" transform="translate(4.624 0.375)" fill="none" stroke="#dbdbdb" stroke-miterlimit="10" stroke-width="1"/>
      <line id="Line_278" data-name="Line 278" y1="2.234" transform="translate(6.095 0.375)" fill="none" stroke="#dbdbdb" stroke-miterlimit="10" stroke-width="1"/>
      <line id="Line_279" data-name="Line 279" y1="2.234" transform="translate(7.567 0.375)" fill="none" stroke="#dbdbdb" stroke-miterlimit="10" stroke-width="1"/>
      <line id="Line_280" data-name="Line 280" y1="2.234" transform="translate(9.038 0.375)" fill="none" stroke="#dbdbdb" stroke-miterlimit="10" stroke-width="1"/>
      <line id="Line_281" data-name="Line 281" y1="2.234" transform="translate(10.509 0.375)" fill="none" stroke="#dbdbdb" stroke-miterlimit="10" stroke-width="1"/>
      <line id="Line_282" data-name="Line 282" y1="2.234" transform="translate(11.98 0.375)" fill="none" stroke="#dbdbdb" stroke-miterlimit="10" stroke-width="1"/>
      <line id="Line_283" data-name="Line 283" y1="2.234" transform="translate(13.451 0.375)" fill="none" stroke="#dbdbdb" stroke-miterlimit="10" stroke-width="1"/>
      <line id="Line_284" data-name="Line 284" y1="2.234" transform="translate(14.922 0.375)" fill="none" stroke="#dbdbdb" stroke-miterlimit="10" stroke-width="1"/>
      <line id="Line_285" data-name="Line 285" y1="2.234" transform="translate(16.393 0.375)" fill="none" stroke="#dbdbdb" stroke-miterlimit="10" stroke-width="1"/>
      <line id="Line_286" data-name="Line 286" y1="2.234" transform="translate(17.864 0.375)" fill="none" stroke="#dbdbdb" stroke-miterlimit="10" stroke-width="1"/>
      <line id="Line_287" data-name="Line 287" y1="2.234" transform="translate(19.335 0.375)" fill="none" stroke="#dbdbdb" stroke-miterlimit="10" stroke-width="1"/>
      <line id="Line_288" data-name="Line 288" y1="2.234" transform="translate(20.806 0.375)" fill="none" stroke="#dbdbdb" stroke-miterlimit="10" stroke-width="1"/>
      <line id="Line_289" data-name="Line 289" y1="2.234" transform="translate(22.277 0.375)" fill="none" stroke="#dbdbdb" stroke-miterlimit="10" stroke-width="1"/>
      <line id="Line_290" data-name="Line 290" y1="2.234" transform="translate(23.748 0.375)" fill="none" stroke="#dbdbdb" stroke-miterlimit="10" stroke-width="1"/>
      <line id="Line_291" data-name="Line 291" y1="2.234" transform="translate(25.219 0.375)" fill="none" stroke="#dbdbdb" stroke-miterlimit="10" stroke-width="1"/>
      <line id="Line_292" data-name="Line 292" y1="2.234" transform="translate(26.691 0.375)" fill="none" stroke="#dbdbdb" stroke-miterlimit="10" stroke-width="1"/>
      <line id="Line_293" data-name="Line 293" y1="2.234" transform="translate(28.162 0.375)" fill="none" stroke="#dbdbdb" stroke-miterlimit="10" stroke-width="1"/>
      <line id="Line_294" data-name="Line 294" y1="2.234" transform="translate(29.633 0.375)" fill="none" stroke="#dbdbdb" stroke-miterlimit="10" stroke-width="1"/>
      <line id="Line_295" data-name="Line 295" y1="2.234" transform="translate(31.104 0.375)" fill="none" stroke="#dbdbdb" stroke-miterlimit="10" stroke-width="1"/>
      <line id="Line_296" data-name="Line 296" y1="2.234" transform="translate(32.575 0.375)" fill="none" stroke="#dbdbdb" stroke-miterlimit="10" stroke-width="1"/>
      <line id="Line_297" data-name="Line 297" y1="2.234" transform="translate(34.046 0.375)" fill="none" stroke="#dbdbdb" stroke-miterlimit="10" stroke-width="1"/>
      <line id="Line_298" data-name="Line 298" y1="2.234" transform="translate(35.517 0.375)" fill="none" stroke="#dbdbdb" stroke-miterlimit="10" stroke-width="1"/>
      <line id="Line_299" data-name="Line 299" y1="2.234" transform="translate(36.988 0.375)" fill="none" stroke="#dbdbdb" stroke-miterlimit="10" stroke-width="1"/>
      <line id="Line_300" data-name="Line 300" y1="2.234" transform="translate(38.459 0.375)" fill="none" stroke="#dbdbdb" stroke-miterlimit="10" stroke-width="1"/>
      <line id="Line_301" data-name="Line 301" y1="2.234" transform="translate(39.93 0.375)" fill="none" stroke="#dbdbdb" stroke-miterlimit="10" stroke-width="1"/>
      <rect id="Rectangle_29" data-name="Rectangle 29" width="3.092" height="42.941" transform="translate(0 3.092) rotate(-90)" fill="none" stroke="#dbdbdb" stroke-miterlimit="10" stroke-width="1.483"/>
      <line id="Line_302" data-name="Line 302" y1="2.234" transform="translate(1.682 0.375)" fill="none" stroke="#dbdbdb" stroke-miterlimit="10" stroke-width="1"/>
      <line id="Line_303" data-name="Line 303" y1="2.234" transform="translate(3.153 0.375)" fill="none" stroke="#dbdbdb" stroke-miterlimit="10" stroke-width="1"/>
      <line id="Line_304" data-name="Line 304" y1="2.234" transform="translate(4.624 0.375)" fill="none" stroke="#dbdbdb" stroke-miterlimit="10" stroke-width="1"/>
      <line id="Line_305" data-name="Line 305" y1="2.234" transform="translate(6.095 0.375)" fill="none" stroke="#dbdbdb" stroke-miterlimit="10" stroke-width="1"/>
      <line id="Line_306" data-name="Line 306" y1="2.234" transform="translate(7.567 0.375)" fill="none" stroke="#dbdbdb" stroke-miterlimit="10" stroke-width="1"/>
      <line id="Line_307" data-name="Line 307" y1="2.234" transform="translate(9.038 0.375)" fill="none" stroke="#dbdbdb" stroke-miterlimit="10" stroke-width="1"/>
      <line id="Line_308" data-name="Line 308" y1="2.234" transform="translate(10.509 0.375)" fill="none" stroke="#dbdbdb" stroke-miterlimit="10" stroke-width="1"/>
      <line id="Line_309" data-name="Line 309" y1="2.234" transform="translate(11.98 0.375)" fill="none" stroke="#dbdbdb" stroke-miterlimit="10" stroke-width="1"/>
      <line id="Line_310" data-name="Line 310" y1="2.234" transform="translate(13.451 0.375)" fill="none" stroke="#dbdbdb" stroke-miterlimit="10" stroke-width="1"/>
      <line id="Line_311" data-name="Line 311" y1="2.234" transform="translate(14.922 0.375)" fill="none" stroke="#dbdbdb" stroke-miterlimit="10" stroke-width="1"/>
      <line id="Line_312" data-name="Line 312" y1="2.234" transform="translate(16.393 0.375)" fill="none" stroke="#dbdbdb" stroke-miterlimit="10" stroke-width="1"/>
      <line id="Line_313" data-name="Line 313" y1="2.234" transform="translate(17.864 0.375)" fill="none" stroke="#dbdbdb" stroke-miterlimit="10" stroke-width="1"/>
      <line id="Line_314" data-name="Line 314" y1="2.234" transform="translate(19.335 0.375)" fill="none" stroke="#dbdbdb" stroke-miterlimit="10" stroke-width="1"/>
      <line id="Line_315" data-name="Line 315" y1="2.234" transform="translate(20.806 0.375)" fill="none" stroke="#dbdbdb" stroke-miterlimit="10" stroke-width="1"/>
      <line id="Line_316" data-name="Line 316" y1="2.234" transform="translate(22.277 0.375)" fill="none" stroke="#dbdbdb" stroke-miterlimit="10" stroke-width="1"/>
      <line id="Line_317" data-name="Line 317" y1="2.234" transform="translate(23.748 0.375)" fill="none" stroke="#dbdbdb" stroke-miterlimit="10" stroke-width="1"/>
      <line id="Line_318" data-name="Line 318" y1="2.234" transform="translate(25.219 0.375)" fill="none" stroke="#dbdbdb" stroke-miterlimit="10" stroke-width="1"/>
      <line id="Line_319" data-name="Line 319" y1="2.234" transform="translate(26.691 0.375)" fill="none" stroke="#dbdbdb" stroke-miterlimit="10" stroke-width="1"/>
      <line id="Line_320" data-name="Line 320" y1="2.234" transform="translate(28.162 0.375)" fill="none" stroke="#dbdbdb" stroke-miterlimit="10" stroke-width="1"/>
      <line id="Line_321" data-name="Line 321" y1="2.234" transform="translate(29.633 0.375)" fill="none" stroke="#dbdbdb" stroke-miterlimit="10" stroke-width="1"/>
      <line id="Line_322" data-name="Line 322" y1="2.234" transform="translate(31.104 0.375)" fill="none" stroke="#dbdbdb" stroke-miterlimit="10" stroke-width="1"/>
      <line id="Line_323" data-name="Line 323" y1="2.234" transform="translate(32.575 0.375)" fill="none" stroke="#dbdbdb" stroke-miterlimit="10" stroke-width="1"/>
      <line id="Line_324" data-name="Line 324" y1="2.234" transform="translate(34.046 0.375)" fill="none" stroke="#dbdbdb" stroke-miterlimit="10" stroke-width="1"/>
      <line id="Line_325" data-name="Line 325" y1="2.234" transform="translate(35.517 0.375)" fill="none" stroke="#dbdbdb" stroke-miterlimit="10" stroke-width="1"/>
      <line id="Line_326" data-name="Line 326" y1="2.234" transform="translate(36.988 0.375)" fill="none" stroke="#dbdbdb" stroke-miterlimit="10" stroke-width="1"/>
      <line id="Line_327" data-name="Line 327" y1="2.234" transform="translate(38.459 0.375)" fill="none" stroke="#dbdbdb" stroke-miterlimit="10" stroke-width="1"/>
      <line id="Line_328" data-name="Line 328" y1="2.234" transform="translate(39.93 0.375)" fill="none" stroke="#dbdbdb" stroke-miterlimit="10" stroke-width="1"/>
      <line id="Line_329" data-name="Line 329" y1="2.234" transform="translate(41.361 0.375)" fill="none" stroke="#dbdbdb" stroke-miterlimit="10" stroke-width="1"/>
    </g>
    <g id="Group_61" data-name="Group 61" transform="translate(213.777 161.335)">
      <rect id="Rectangle_30" data-name="Rectangle 30" width="3.092" height="26.671" transform="translate(0 0.02)" fill="none" stroke="#dbdbdb" stroke-miterlimit="10" stroke-width="1.483"/>
      <g id="Group_60" data-name="Group 60" transform="translate(0.375 0)">
        <line id="Line_330" data-name="Line 330" x1="2.234" transform="translate(0 25.008)" fill="none" stroke="#dbdbdb" stroke-miterlimit="10" stroke-width="1"/>
        <line id="Line_331" data-name="Line 331" x1="2.234" transform="translate(0 23.537)" fill="none" stroke="#dbdbdb" stroke-miterlimit="10" stroke-width="1"/>
        <line id="Line_332" data-name="Line 332" x1="2.234" transform="translate(0 22.066)" fill="none" stroke="#dbdbdb" stroke-miterlimit="10" stroke-width="1"/>
        <line id="Line_333" data-name="Line 333" x1="2.234" transform="translate(0 20.595)" fill="none" stroke="#dbdbdb" stroke-miterlimit="10" stroke-width="1"/>
        <line id="Line_334" data-name="Line 334" x1="2.234" transform="translate(0 19.124)" fill="none" stroke="#dbdbdb" stroke-miterlimit="10" stroke-width="1"/>
        <line id="Line_335" data-name="Line 335" x1="2.234" transform="translate(0 17.653)" fill="none" stroke="#dbdbdb" stroke-miterlimit="10" stroke-width="1"/>
        <line id="Line_336" data-name="Line 336" x1="2.234" transform="translate(0 16.182)" fill="none" stroke="#dbdbdb" stroke-miterlimit="10" stroke-width="1"/>
        <line id="Line_337" data-name="Line 337" x1="2.234" transform="translate(0 14.711)" fill="none" stroke="#dbdbdb" stroke-miterlimit="10" stroke-width="1"/>
        <line id="Line_338" data-name="Line 338" x1="2.234" transform="translate(0 13.24)" fill="none" stroke="#dbdbdb" stroke-miterlimit="10" stroke-width="1"/>
        <line id="Line_339" data-name="Line 339" x1="2.234" transform="translate(0 11.769)" fill="none" stroke="#dbdbdb" stroke-miterlimit="10" stroke-width="1"/>
        <line id="Line_340" data-name="Line 340" x1="2.234" transform="translate(0 10.298)" fill="none" stroke="#dbdbdb" stroke-miterlimit="10" stroke-width="1"/>
        <line id="Line_341" data-name="Line 341" x1="2.234" transform="translate(0 8.826)" fill="none" stroke="#dbdbdb" stroke-miterlimit="10" stroke-width="1"/>
        <line id="Line_342" data-name="Line 342" x1="2.234" transform="translate(0 7.355)" fill="none" stroke="#dbdbdb" stroke-miterlimit="10" stroke-width="1"/>
        <line id="Line_343" data-name="Line 343" x1="2.234" transform="translate(0 5.884)" fill="none" stroke="#dbdbdb" stroke-miterlimit="10" stroke-width="1"/>
        <line id="Line_344" data-name="Line 344" x1="2.234" transform="translate(0 4.413)" fill="none" stroke="#dbdbdb" stroke-miterlimit="10" stroke-width="1"/>
        <line id="Line_345" data-name="Line 345" x1="2.234" transform="translate(0 2.942)" fill="none" stroke="#dbdbdb" stroke-miterlimit="10" stroke-width="1"/>
        <line id="Line_346" data-name="Line 346" x1="2.234" transform="translate(0 1.471)" fill="none" stroke="#dbdbdb" stroke-miterlimit="10" stroke-width="1"/>
        <line id="Line_347" data-name="Line 347" x1="2.234" transform="translate(0 0)" fill="none" stroke="#dbdbdb" stroke-miterlimit="10" stroke-width="1"/>
        <line id="Line_348" data-name="Line 348" x1="2.234" transform="translate(0 25.008)" fill="none" stroke="#dbdbdb" stroke-miterlimit="10" stroke-width="1"/>
        <line id="Line_349" data-name="Line 349" x1="2.234" transform="translate(0 23.537)" fill="none" stroke="#dbdbdb" stroke-miterlimit="10" stroke-width="1"/>
        <line id="Line_350" data-name="Line 350" x1="2.234" transform="translate(0 22.066)" fill="none" stroke="#dbdbdb" stroke-miterlimit="10" stroke-width="1"/>
        <line id="Line_351" data-name="Line 351" x1="2.234" transform="translate(0 20.595)" fill="none" stroke="#dbdbdb" stroke-miterlimit="10" stroke-width="1"/>
        <line id="Line_352" data-name="Line 352" x1="2.234" transform="translate(0 19.124)" fill="none" stroke="#dbdbdb" stroke-miterlimit="10" stroke-width="1"/>
        <line id="Line_353" data-name="Line 353" x1="2.234" transform="translate(0 17.653)" fill="none" stroke="#dbdbdb" stroke-miterlimit="10" stroke-width="1"/>
        <line id="Line_354" data-name="Line 354" x1="2.234" transform="translate(0 16.182)" fill="none" stroke="#dbdbdb" stroke-miterlimit="10" stroke-width="1"/>
        <line id="Line_355" data-name="Line 355" x1="2.234" transform="translate(0 14.711)" fill="none" stroke="#dbdbdb" stroke-miterlimit="10" stroke-width="1"/>
        <line id="Line_356" data-name="Line 356" x1="2.234" transform="translate(0 13.24)" fill="none" stroke="#dbdbdb" stroke-miterlimit="10" stroke-width="1"/>
        <line id="Line_357" data-name="Line 357" x1="2.234" transform="translate(0 11.769)" fill="none" stroke="#dbdbdb" stroke-miterlimit="10" stroke-width="1"/>
        <line id="Line_358" data-name="Line 358" x1="2.234" transform="translate(0 10.298)" fill="none" stroke="#dbdbdb" stroke-miterlimit="10" stroke-width="1"/>
        <line id="Line_359" data-name="Line 359" x1="2.234" transform="translate(0 8.826)" fill="none" stroke="#dbdbdb" stroke-miterlimit="10" stroke-width="1"/>
        <line id="Line_360" data-name="Line 360" x1="2.234" transform="translate(0 7.355)" fill="none" stroke="#dbdbdb" stroke-miterlimit="10" stroke-width="1"/>
        <line id="Line_361" data-name="Line 361" x1="2.234" transform="translate(0 5.884)" fill="none" stroke="#dbdbdb" stroke-miterlimit="10" stroke-width="1"/>
        <line id="Line_362" data-name="Line 362" x1="2.234" transform="translate(0 4.413)" fill="none" stroke="#dbdbdb" stroke-miterlimit="10" stroke-width="1"/>
        <line id="Line_363" data-name="Line 363" x1="2.234" transform="translate(0 2.942)" fill="none" stroke="#dbdbdb" stroke-miterlimit="10" stroke-width="1"/>
        <line id="Line_364" data-name="Line 364" x1="2.234" transform="translate(0 1.471)" fill="none" stroke="#dbdbdb" stroke-miterlimit="10" stroke-width="1"/>
        <line id="Line_365" data-name="Line 365" x1="2.234" transform="translate(0 0)" fill="none" stroke="#dbdbdb" stroke-miterlimit="10" stroke-width="1"/>
      </g>
    </g>
    <g id="Group_62" data-name="Group 62" transform="translate(213.668 34.015)">
      <line id="Line_366" data-name="Line 366" x1="2.234" transform="translate(0.375 41.258)" fill="none" stroke="#dbdbdb" stroke-miterlimit="10" stroke-width="1"/>
      <line id="Line_367" data-name="Line 367" x1="2.234" transform="translate(0.375 39.787)" fill="none" stroke="#dbdbdb" stroke-miterlimit="10" stroke-width="1"/>
      <line id="Line_368" data-name="Line 368" x1="2.234" transform="translate(0.375 38.316)" fill="none" stroke="#dbdbdb" stroke-miterlimit="10" stroke-width="1"/>
      <line id="Line_369" data-name="Line 369" x1="2.234" transform="translate(0.375 36.845)" fill="none" stroke="#dbdbdb" stroke-miterlimit="10" stroke-width="1"/>
      <line id="Line_370" data-name="Line 370" x1="2.234" transform="translate(0.375 35.374)" fill="none" stroke="#dbdbdb" stroke-miterlimit="10" stroke-width="1"/>
      <line id="Line_371" data-name="Line 371" x1="2.234" transform="translate(0.375 33.903)" fill="none" stroke="#dbdbdb" stroke-miterlimit="10" stroke-width="1"/>
      <line id="Line_372" data-name="Line 372" x1="2.234" transform="translate(0.375 32.432)" fill="none" stroke="#dbdbdb" stroke-miterlimit="10" stroke-width="1"/>
      <line id="Line_373" data-name="Line 373" x1="2.234" transform="translate(0.375 30.961)" fill="none" stroke="#dbdbdb" stroke-miterlimit="10" stroke-width="1"/>
      <line id="Line_374" data-name="Line 374" x1="2.234" transform="translate(0.375 29.49)" fill="none" stroke="#dbdbdb" stroke-miterlimit="10" stroke-width="1"/>
      <line id="Line_375" data-name="Line 375" x1="2.234" transform="translate(0.375 28.019)" fill="none" stroke="#dbdbdb" stroke-miterlimit="10" stroke-width="1"/>
      <line id="Line_376" data-name="Line 376" x1="2.234" transform="translate(0.375 26.548)" fill="none" stroke="#dbdbdb" stroke-miterlimit="10" stroke-width="1"/>
      <line id="Line_377" data-name="Line 377" x1="2.234" transform="translate(0.375 25.077)" fill="none" stroke="#dbdbdb" stroke-miterlimit="10" stroke-width="1"/>
      <line id="Line_378" data-name="Line 378" x1="2.234" transform="translate(0.375 23.605)" fill="none" stroke="#dbdbdb" stroke-miterlimit="10" stroke-width="1"/>
      <line id="Line_379" data-name="Line 379" x1="2.234" transform="translate(0.375 22.134)" fill="none" stroke="#dbdbdb" stroke-miterlimit="10" stroke-width="1"/>
      <line id="Line_380" data-name="Line 380" x1="2.234" transform="translate(0.375 20.663)" fill="none" stroke="#dbdbdb" stroke-miterlimit="10" stroke-width="1"/>
      <line id="Line_381" data-name="Line 381" x1="2.234" transform="translate(0.375 19.192)" fill="none" stroke="#dbdbdb" stroke-miterlimit="10" stroke-width="1"/>
      <line id="Line_382" data-name="Line 382" x1="2.234" transform="translate(0.375 17.721)" fill="none" stroke="#dbdbdb" stroke-miterlimit="10" stroke-width="1"/>
      <line id="Line_383" data-name="Line 383" x1="2.234" transform="translate(0.375 16.25)" fill="none" stroke="#dbdbdb" stroke-miterlimit="10" stroke-width="1"/>
      <line id="Line_384" data-name="Line 384" x1="2.234" transform="translate(0.375 14.779)" fill="none" stroke="#dbdbdb" stroke-miterlimit="10" stroke-width="1"/>
      <line id="Line_385" data-name="Line 385" x1="2.234" transform="translate(0.375 13.308)" fill="none" stroke="#dbdbdb" stroke-miterlimit="10" stroke-width="1"/>
      <line id="Line_386" data-name="Line 386" x1="2.234" transform="translate(0.375 11.837)" fill="none" stroke="#dbdbdb" stroke-miterlimit="10" stroke-width="1"/>
      <line id="Line_387" data-name="Line 387" x1="2.234" transform="translate(0.375 10.366)" fill="none" stroke="#dbdbdb" stroke-miterlimit="10" stroke-width="1"/>
      <line id="Line_388" data-name="Line 388" x1="2.234" transform="translate(0.375 8.895)" fill="none" stroke="#dbdbdb" stroke-miterlimit="10" stroke-width="1"/>
      <line id="Line_389" data-name="Line 389" x1="2.234" transform="translate(0.375 7.424)" fill="none" stroke="#dbdbdb" stroke-miterlimit="10" stroke-width="1"/>
      <line id="Line_390" data-name="Line 390" x1="2.234" transform="translate(0.375 5.952)" fill="none" stroke="#dbdbdb" stroke-miterlimit="10" stroke-width="1"/>
      <line id="Line_391" data-name="Line 391" x1="2.234" transform="translate(0.375 4.481)" fill="none" stroke="#dbdbdb" stroke-miterlimit="10" stroke-width="1"/>
      <line id="Line_392" data-name="Line 392" x1="2.234" transform="translate(0.375 3.01)" fill="none" stroke="#dbdbdb" stroke-miterlimit="10" stroke-width="1"/>
      <rect id="Rectangle_31" data-name="Rectangle 31" width="3.092" height="42.941" transform="translate(3.092 42.941) rotate(180)" fill="none" stroke="#dbdbdb" stroke-miterlimit="10" stroke-width="1.483"/>
      <line id="Line_393" data-name="Line 393" x1="2.234" transform="translate(0.375 41.258)" fill="none" stroke="#dbdbdb" stroke-miterlimit="10" stroke-width="1"/>
      <line id="Line_394" data-name="Line 394" x1="2.234" transform="translate(0.375 39.787)" fill="none" stroke="#dbdbdb" stroke-miterlimit="10" stroke-width="1"/>
      <line id="Line_395" data-name="Line 395" x1="2.234" transform="translate(0.375 38.316)" fill="none" stroke="#dbdbdb" stroke-miterlimit="10" stroke-width="1"/>
      <line id="Line_396" data-name="Line 396" x1="2.234" transform="translate(0.375 36.845)" fill="none" stroke="#dbdbdb" stroke-miterlimit="10" stroke-width="1"/>
      <line id="Line_397" data-name="Line 397" x1="2.234" transform="translate(0.375 35.374)" fill="none" stroke="#dbdbdb" stroke-miterlimit="10" stroke-width="1"/>
      <line id="Line_398" data-name="Line 398" x1="2.234" transform="translate(0.375 33.903)" fill="none" stroke="#dbdbdb" stroke-miterlimit="10" stroke-width="1"/>
      <line id="Line_399" data-name="Line 399" x1="2.234" transform="translate(0.375 32.432)" fill="none" stroke="#dbdbdb" stroke-miterlimit="10" stroke-width="1"/>
      <line id="Line_400" data-name="Line 400" x1="2.234" transform="translate(0.375 30.961)" fill="none" stroke="#dbdbdb" stroke-miterlimit="10" stroke-width="1"/>
      <line id="Line_401" data-name="Line 401" x1="2.234" transform="translate(0.375 29.49)" fill="none" stroke="#dbdbdb" stroke-miterlimit="10" stroke-width="1"/>
      <line id="Line_402" data-name="Line 402" x1="2.234" transform="translate(0.375 28.019)" fill="none" stroke="#dbdbdb" stroke-miterlimit="10" stroke-width="1"/>
      <line id="Line_403" data-name="Line 403" x1="2.234" transform="translate(0.375 26.548)" fill="none" stroke="#dbdbdb" stroke-miterlimit="10" stroke-width="1"/>
      <line id="Line_404" data-name="Line 404" x1="2.234" transform="translate(0.375 25.077)" fill="none" stroke="#dbdbdb" stroke-miterlimit="10" stroke-width="1"/>
      <line id="Line_405" data-name="Line 405" x1="2.234" transform="translate(0.375 23.605)" fill="none" stroke="#dbdbdb" stroke-miterlimit="10" stroke-width="1"/>
      <line id="Line_406" data-name="Line 406" x1="2.234" transform="translate(0.375 22.134)" fill="none" stroke="#dbdbdb" stroke-miterlimit="10" stroke-width="1"/>
      <line id="Line_407" data-name="Line 407" x1="2.234" transform="translate(0.375 20.663)" fill="none" stroke="#dbdbdb" stroke-miterlimit="10" stroke-width="1"/>
      <line id="Line_408" data-name="Line 408" x1="2.234" transform="translate(0.375 19.192)" fill="none" stroke="#dbdbdb" stroke-miterlimit="10" stroke-width="1"/>
      <line id="Line_409" data-name="Line 409" x1="2.234" transform="translate(0.375 17.721)" fill="none" stroke="#dbdbdb" stroke-miterlimit="10" stroke-width="1"/>
      <line id="Line_410" data-name="Line 410" x1="2.234" transform="translate(0.375 16.25)" fill="none" stroke="#dbdbdb" stroke-miterlimit="10" stroke-width="1"/>
      <line id="Line_411" data-name="Line 411" x1="2.234" transform="translate(0.375 14.779)" fill="none" stroke="#dbdbdb" stroke-miterlimit="10" stroke-width="1"/>
      <line id="Line_412" data-name="Line 412" x1="2.234" transform="translate(0.375 13.308)" fill="none" stroke="#dbdbdb" stroke-miterlimit="10" stroke-width="1"/>
      <line id="Line_413" data-name="Line 413" x1="2.234" transform="translate(0.375 11.837)" fill="none" stroke="#dbdbdb" stroke-miterlimit="10" stroke-width="1"/>
      <line id="Line_414" data-name="Line 414" x1="2.234" transform="translate(0.375 10.366)" fill="none" stroke="#dbdbdb" stroke-miterlimit="10" stroke-width="1"/>
      <line id="Line_415" data-name="Line 415" x1="2.234" transform="translate(0.375 8.895)" fill="none" stroke="#dbdbdb" stroke-miterlimit="10" stroke-width="1"/>
      <line id="Line_416" data-name="Line 416" x1="2.234" transform="translate(0.375 7.424)" fill="none" stroke="#dbdbdb" stroke-miterlimit="10" stroke-width="1"/>
      <line id="Line_417" data-name="Line 417" x1="2.234" transform="translate(0.375 5.952)" fill="none" stroke="#dbdbdb" stroke-miterlimit="10" stroke-width="1"/>
      <line id="Line_418" data-name="Line 418" x1="2.234" transform="translate(0.375 4.481)" fill="none" stroke="#dbdbdb" stroke-miterlimit="10" stroke-width="1"/>
      <line id="Line_419" data-name="Line 419" x1="2.234" transform="translate(0.375 3.01)" fill="none" stroke="#dbdbdb" stroke-miterlimit="10" stroke-width="1"/>
      <line id="Line_420" data-name="Line 420" x1="2.234" transform="translate(0.375 1.58)" fill="none" stroke="#dbdbdb" stroke-miterlimit="10" stroke-width="1"/>
    </g>
  </g>
</svg>
