<svg xmlns="http://www.w3.org/2000/svg" width="58.566" height="58.566" viewBox="0 0 58.566 58.566">
  <g id="gear" transform="translate(0 0.001)">
    <path id="Path_7292" data-name="Path 7292" d="M32.348,5.951a3.193,3.193,0,0,0-6.127,0l-.343,1.168A6.856,6.856,0,0,1,16.022,11.2l-1.069-.586a3.2,3.2,0,0,0-4.334,4.338l.582,1.069a6.856,6.856,0,0,1-4.082,9.855L5.95,26.22a3.193,3.193,0,0,0,0,6.127l1.168.343A6.856,6.856,0,0,1,11.2,42.549l-.586,1.066a3.2,3.2,0,0,0,4.338,4.334l1.069-.582a6.856,6.856,0,0,1,9.855,4.085l.343,1.165a3.193,3.193,0,0,0,6.127,0l.343-1.168a6.856,6.856,0,0,1,9.858-4.082l1.066.586a3.2,3.2,0,0,0,4.334-4.338l-.582-1.066a6.856,6.856,0,0,1,4.085-9.858l1.165-.343a3.193,3.193,0,0,0,0-6.127l-1.168-.343a6.856,6.856,0,0,1-4.082-9.855l.586-1.069a3.2,3.2,0,0,0-4.338-4.334l-1.066.582A6.856,6.856,0,0,1,32.69,7.119l-.343-1.168ZM22.71,4.915a6.855,6.855,0,0,1,13.149,0L36.2,6.083a3.2,3.2,0,0,0,4.595,1.9L41.866,7.4a6.856,6.856,0,0,1,9.3,9.3l-.582,1.069a3.2,3.2,0,0,0,1.9,4.595l1.168.343a6.855,6.855,0,0,1,0,13.149l-1.168.343a3.2,3.2,0,0,0-1.9,4.595l.586,1.069a6.856,6.856,0,0,1-9.3,9.3L40.8,50.581a3.2,3.2,0,0,0-4.595,1.9l-.343,1.168a6.855,6.855,0,0,1-13.149,0l-.343-1.168a3.2,3.2,0,0,0-4.595-1.9l-1.069.586a6.856,6.856,0,0,1-9.3-9.3L7.987,40.8a3.2,3.2,0,0,0-1.9-4.595l-1.168-.343a6.855,6.855,0,0,1,0-13.149l1.168-.343a3.2,3.2,0,0,0,1.9-4.595L7.4,16.7a6.857,6.857,0,0,1,9.3-9.3l1.069.582a3.2,3.2,0,0,0,4.595-1.9l.343-1.168Z" transform="translate(-0.002 -0.001)" fill="#020621" fill-rule="evenodd"/>
    <path id="Path_7293" data-name="Path 7293" d="M22.58,14.356A8.222,8.222,0,1,0,30.8,22.578a8.222,8.222,0,0,0-8.222-8.222ZM10.7,22.579A11.883,11.883,0,1,1,22.579,34.462,11.883,11.883,0,0,1,10.7,22.579Z" transform="translate(6.704 6.705)" fill="#020621" fill-rule="evenodd"/>
  </g>
</svg>
