<svg xmlns="http://www.w3.org/2000/svg" width="385.131" height="281.963" viewBox="0 0 385.131 281.963">
  <g id="Group_16244" data-name="Group 16244" transform="translate(-229.261 -776.037)">
    <circle id="Ellipse_282" data-name="Ellipse 282" cx="123" cy="123" r="123" transform="translate(321 812)" fill="#f4f5fa"/>
    <g id="Group_15913" data-name="Group 15913" transform="translate(229.261 776.037)">
      <path id="Path_9016" data-name="Path 9016" d="M599.847,429.58h-8.274V349.1l18.8-.376Z" transform="translate(-316.96 -186.842)" fill="#ffb8b8"/>
      <path id="Path_9017" data-name="Path 9017" d="M683.122,429.58H691.4V349.1l-18.8-.376Z" transform="translate(-360.369 -186.842)" fill="#ffb8b8"/>
      <path id="Path_9018" data-name="Path 9018" d="M757.7,697.523l-17.6-.161a5.722,5.722,0,0,1-7.1-5.555h0a5.723,5.723,0,0,1,3.242-5.157l4.016-1.932,13.051-8.92,9.4,2.633,1.8,8.1A9.252,9.252,0,0,1,757.7,697.523Z" transform="translate(-478.694 -443.59)" fill="#2f2e41"/>
      <path id="Path_9019" data-name="Path 9019" d="M859.781,697.308l-17.6-.161a5.722,5.722,0,0,1-7.1-5.555h0a5.722,5.722,0,0,1,3.242-5.157l4.016-1.932,13.051-8.92,9.4,2.633,1.8,8.1A9.252,9.252,0,0,1,859.781,697.308Z" transform="translate(-533.389 -443.475)" fill="#2f2e41"/>
      <path id="Path_9020" data-name="Path 9020" d="M830.189,488.842l-25.922-2.314-3.413-30.405-7.643,29.418-26.2-2.34c.966-18.014,3.045-33.041,7.9-40.618l54.909-9.778Z" transform="translate(-496.916 -313.396)" fill="#2f2e41"/>
      <circle id="Ellipse_278" data-name="Ellipse 278" cx="14.006" cy="14.006" r="14.006" transform="translate(293.07 6.622)" fill="#ffb8b8"/>
      <path id="Path_9021" data-name="Path 9021" d="M842.493,258.613,818.047,255.6c3.11-6.623,4.512-12.807,2.257-18.052h18.8C836.2,242.74,838.8,250.428,842.493,258.613Z" transform="translate(-524.263 -208.781)" fill="#ffb8b8"/>
      <path id="Path_9022" data-name="Path 9022" d="M837.193,342.4c-17.2,12.613-35.974,16.916-56.413,12.411,12.4-28.313,10.63-56.218,0-83.868l19.557-8.274c5.484,5.349,11.772,5.465,18.8.752l19.181,4.137C834.813,295.14,833.637,320.761,837.193,342.4Z" transform="translate(-504.296 -222.238)" fill="#3f3d56"/>
      <path id="Path_9023" data-name="Path 9023" d="M819.131,183.975l-2.365-.947s4.945-5.444,11.826-4.971l-1.935-2.13s4.73-1.894,9.03,3.077a41.973,41.973,0,0,1,6.506,9.145h2.533l-1.057,2.328,3.7,2.328-3.8-.418a12.881,12.881,0,0,1-.359,6.028l.1,1.84s-4.4-6.811-4.4-7.758v2.367s-2.365-2.13-2.365-3.551l-1.29,1.657-.645-2.6-7.955,2.6,1.29-2.13-4.945.71,1.935-2.6s-5.59,3.077-5.805,5.681-3.01,5.918-3.01,5.918l-1.29-2.367S812.9,187.526,819.131,183.975Z" transform="translate(-522.388 -175.573)" fill="#2f2e41"/>
      <path id="Path_9025" data-name="Path 9025" d="M783.684,393.821l4.318,7.7a6.835,6.835,0,0,1-4.236,9.957h0a6.835,6.835,0,0,1-8.559-6.745l.2-10.534c-3.244-18.724-5.877-36.453-5.265-48.892h15.044L782.18,359.6Z" transform="translate(-498.55 -266.514)" fill="#ffb8b8"/>
      <path id="Path_9026" data-name="Path 9026" d="M889.649,390.058l-3.163,5.271a6.091,6.091,0,0,1-10.148.449h0a6.09,6.09,0,0,1,1.386-8.538l5.532-3.951,7.9-32.72-4.889-13.539,13.539-2.256C906.16,349.465,899.757,369.051,889.649,390.058Z" transform="translate(-554.87 -260.871)" fill="#ffb8b8"/>
      <path id="Path_9027" data-name="Path 9027" d="M786.939,309.681l-19.933-1.128,1.369-21.358a13.468,13.468,0,0,1,10.018-13.325l2.528-.669Z" transform="translate(-496.916 -227.881)" fill="#3f3d56"/>
      <path id="Path_9028" data-name="Path 9028" d="M910.2,301.521l-18.428,4.513V270.682l.76-.049a12.653,12.653,0,0,1,13.187,9.975Z" transform="translate(-563.765 -226.491)" fill="#3f3d56"/>
      <rect id="Rectangle_5644" data-name="Rectangle 5644" width="281.354" height="0.928" transform="translate(103.776 253.854)" fill="#e6e6e6"/>
      <path id="Path_9029" data-name="Path 9029" d="M211.746,569.763a100.218,100.218,0,0,0,4.681,27.7c.065.208.134.413.2.621H234.1c-.019-.186-.037-.395-.056-.621-1.165-13.392-7.881-94.9.149-108.838C233.491,489.759,210.391,527.21,211.746,569.763Z" transform="translate(-199.381 -343.306)" fill="#e6e6e6"/>
      <path id="Path_9030" data-name="Path 9030" d="M198.851,654.853c.146.208.3.416.454.621H212.41c-.1-.177-.214-.385-.348-.621-2.165-3.908-8.574-15.591-14.523-27.7-6.393-13.016-12.258-26.526-11.764-31.416C185.623,596.836,181.2,630.455,198.851,654.853Z" transform="translate(-185.174 -400.692)" fill="#e6e6e6"/>
      <path id="Path_9031" data-name="Path 9031" d="M398.818,300.77H256.306a3.253,3.253,0,0,1-3.249-3.249V218.141a3.253,3.253,0,0,1,3.249-3.249H398.818a3.253,3.253,0,0,1,3.249,3.249v79.379A3.253,3.253,0,0,1,398.818,300.77Z" transform="translate(-221.545 -196.64)" fill="#f7a51a"/>
      <path id="Path_9032" data-name="Path 9032" d="M399.4,451.186H253.176a2.324,2.324,0,0,1-2.321-2.321V216.772a2.324,2.324,0,0,1,2.321-2.321H399.4a2.324,2.324,0,0,1,2.321,2.321V448.865A2.324,2.324,0,0,1,399.4,451.186ZM253.176,215.379a1.394,1.394,0,0,0-1.393,1.393V448.865a1.394,1.394,0,0,0,1.393,1.393H399.4a1.394,1.394,0,0,0,1.393-1.393V216.772a1.394,1.394,0,0,0-1.393-1.393Z" transform="translate(-220.366 -196.404)" fill="#e6e6e6"/>
      <circle id="Ellipse_279" data-name="Ellipse 279" cx="5.106" cy="5.106" r="5.106" transform="translate(44.974 137.089)" fill="#e6e6e6"/>
      <path id="Path_9033" data-name="Path 9033" d="M423.256,480.389h-84.95a3.253,3.253,0,0,1-3.249-3.249v-13a3.253,3.253,0,0,1,3.249-3.249h84.95a3.253,3.253,0,0,1,3.249,3.249v13a3.253,3.253,0,0,1-3.249,3.249Z" transform="translate(-265.48 -328.445)" fill="#e6e6e6"/>
      <path id="Path_9034" data-name="Path 9034" d="M425.97,502.82H334.521a.464.464,0,0,1,0-.928H425.97a.464.464,0,0,1,0,.928Z" transform="translate(-264.945 -350.412)" fill="#3f3d56"/>
      <circle id="Ellipse_280" data-name="Ellipse 280" cx="5.106" cy="5.106" r="5.106" transform="translate(44.974 167.727)" fill="#e6e6e6"/>
      <path id="Path_9035" data-name="Path 9035" d="M423.256,546.389h-84.95a3.253,3.253,0,0,1-3.249-3.249v-13a3.253,3.253,0,0,1,3.249-3.25h84.95a3.253,3.253,0,0,1,3.249,3.249v13A3.253,3.253,0,0,1,423.256,546.389Z" transform="translate(-265.48 -363.807)" fill="#e6e6e6"/>
      <path id="Path_9036" data-name="Path 9036" d="M425.97,568.82H334.521a.464.464,0,0,1,0-.928H425.97a.464.464,0,0,1,0,.928Z" transform="translate(-264.945 -385.775)" fill="#3f3d56"/>
      <circle id="Ellipse_281" data-name="Ellipse 281" cx="5.106" cy="5.106" r="5.106" transform="translate(44.974 198.365)" fill="#e6e6e6"/>
      <path id="Path_9037" data-name="Path 9037" d="M373.586,612.389h-35.28a3.253,3.253,0,0,1-3.249-3.249v-13a3.253,3.253,0,0,1,3.249-3.25h35.28a3.253,3.253,0,0,1,3.249,3.25v13a3.253,3.253,0,0,1-3.249,3.249Z" transform="translate(-265.48 -399.17)" fill="#e6e6e6"/>
      <path id="Path_9038" data-name="Path 9038" d="M376.3,634.82H334.521a.464.464,0,0,1,0-.928H376.3a.464.464,0,0,1,0,.928Z" transform="translate(-264.945 -421.137)" fill="#3f3d56"/>
      <path id="Path_9039" data-name="Path 9039" d="M480.586,612.389h-35.28a3.253,3.253,0,0,1-3.249-3.249v-13a3.253,3.253,0,0,1,3.249-3.25h35.28a3.253,3.253,0,0,1,3.249,3.25v13A3.253,3.253,0,0,1,480.586,612.389Z" transform="translate(-322.81 -399.17)" fill="#e6e6e6"/>
      <path id="Path_9040" data-name="Path 9040" d="M483.3,634.82H441.521a.464.464,0,0,1,0-.928H483.3a.464.464,0,0,1,0,.928Z" transform="translate(-322.274 -421.137)" fill="#3f3d56"/>
      <path id="Path_40" data-name="Path 40" d="M290.231,268.446a2.76,2.76,0,1,0,0,5.521H401.68a2.761,2.761,0,1,0,.091-5.52H290.231Z" transform="translate(-239.984 -225.333)" fill="#fff"/>
      <path id="Path_40-2" data-name="Path 40" d="M290.231,301.446a2.76,2.76,0,1,0,0,5.521H401.68a2.761,2.761,0,0,0,.091-5.52H290.231Z" transform="translate(-239.984 -243.015)" fill="#fff"/>
      <path id="Path_40-3" data-name="Path 40" d="M290.231,334.446a2.76,2.76,0,1,0,0,5.521H401.68a2.761,2.761,0,0,0,.091-5.52H290.231Z" transform="translate(-239.984 -260.696)" fill="#fff"/>
      <path id="Path_9041" data-name="Path 9041" d="M514.658,682.749l-1.168-1.168a.272.272,0,0,0-.192-.079h-.568a.271.271,0,0,0-.192.463l.647.646h-5.163a.464.464,0,1,0,0,.928h5.163l-.581.58a.31.31,0,0,0,.219.529h.459a.31.31,0,0,0,.219-.091l1.157-1.157a.461.461,0,0,0,0-.652Z" transform="translate(-357.905 -446.646)" fill="#f7a51a"/>
      <path id="Path_9042" data-name="Path 9042" d="M507.484,683.747a7.427,7.427,0,1,1,7.427-7.427A7.427,7.427,0,0,1,507.484,683.747Zm0-13.926a6.5,6.5,0,1,0,6.5,6.5,6.5,6.5,0,0,0-6.5-6.5Z" transform="translate(-353.886 -439.89)" fill="#3f3d56"/>
    </g>
  </g>
</svg>
