<svg xmlns="http://www.w3.org/2000/svg" width="168" height="58.505" viewBox="0 0 168 58.505">
  <g id="Group_16462" data-name="Group 16462" transform="translate(0 0)">
    <path id="Path_10810" data-name="Path 10810" d="M48.669,100.322a3.711,3.711,0,0,0,3.743-3.735,3.857,3.857,0,0,0-3.609-3.7A3.8,3.8,0,0,0,45,96.606,3.749,3.749,0,0,0,48.669,100.322Z" transform="translate(-32.267 -66.604)"/>
    <path id="Path_10811" data-name="Path 10811" d="M507.752,116.567a.276.276,0,0,1-.277-.274l0,.274h-.822l1.729.006v-.006Zm.029-4.823H507.5l0,.236A.284.284,0,0,1,507.781,111.744Z" transform="translate(-363.284 -80.124)"/>
    <path id="Path_10812" data-name="Path 10812" d="M495.612,69.551a2.645,2.645,0,0,1-.143-.324C495.522,69.335,495.568,69.443,495.612,69.551Z" transform="translate(-355.267 -49.638)"/>
    <path id="Path_10813" data-name="Path 10813" d="M509.836,128.093h-.28l0-.274A.276.276,0,0,0,509.836,128.093Z" transform="translate(-365.368 -91.65)"/>
    <path id="Path_10814" data-name="Path 10814" d="M509.659,111.98l0-.236h.277A.284.284,0,0,0,509.659,111.98Z" transform="translate(-365.442 -80.124)"/>
    <path id="Path_10815" data-name="Path 10815" d="M48.669,100.322A3.749,3.749,0,0,1,45,96.606a3.8,3.8,0,0,1,3.8-3.717,3.857,3.857,0,0,1,3.609,3.7A3.711,3.711,0,0,1,48.669,100.322Z" transform="translate(-32.267 -66.604)" fill="#f9b505"/>
    <path id="Path_10816" data-name="Path 10816" d="M367.838,90.414a3.706,3.706,0,0,1,.092,7.41,3.718,3.718,0,0,1-3.744-3.732A3.626,3.626,0,0,1,367.838,90.414Z" transform="translate(-261.133 -64.83)" fill="#f9b505"/>
    <g id="Group_16443" data-name="Group 16443" transform="translate(68.553 17.573)">
      <g id="Group_16437" data-name="Group 16437" transform="translate(0 0.001)">
        <path id="Path_10817" data-name="Path 10817" d="M246.7,73.551V68.728h.184v-.175h-.8v-.286H246v-.335h.085v-.184H246v-.332h.085v-.184H246V66.9h.085v-.184H246v-.335h.085v-.184H246v-.332h.085v-.184H246v-.335h.085v-.184H246v-.332h.085v-.184H246v-.335h.085v-.379h.184v-.178h-.752l-.548-1.636v0l0-.006-1.1,1.645h-.752v.178h.184v4.625h-.8v.175h.184v4.823h-.411v.175h.07v6.59a.4.4,0,0,0,.4.4h4.316V73.726h.07v-.175Zm-2.374-5.619h.484v.335h-.484Zm0-.184v-.332h.484v.332Zm0-.516V66.9h.484v.335Zm0-.519v-.335h.484v.335Zm0-.519v-.332h.484v.332Zm0-.516v-.335h.484v.335Zm0-.519v-.332h.484v.332Zm0-.516v-.335h.484v.335Zm1.72,8.132v-.364h.528v.364Zm.528.2v.361h-.528v-.361Zm-.528-.761v-.362h.528v.362Zm0-.56v-.364h.528v.364Zm0-.563v-.362h.528v.362Zm0-.56v-.364h.528v.364Zm-1.286-1.487v.364h-.525v-.364Zm-.525,3.931h.525v.361h-.525Zm0-.2v-.364h.525v.364Zm0-.563v-.362h.525v.362Zm0-.56v-.364h.525v.364Zm0-.563v-.362h.525v.362Zm0-.56v-.364h.525v.364Zm0-.563v-.362h.525v.362Zm.907,3.006h.525v.361h-.525Zm0-.2v-.364h.525v.364Zm0-.563v-.362h.525v.362Zm0-.56v-.364h.525v.364Zm0-.563v-.362h.525v.362Zm0-.56v-.364h.525v.364Zm0-.563v-.362h.525v.362Zm0-.56v-.364h.525v.364Zm1.432.56h-.528v-.362h.528Zm-.528-.56v-.364h.528v.364Zm-1.738,10.6h-.528v-.362h.528Zm0-.56h-.528v-.362h.528Zm0-.563h-.528v-.361h.528Zm0-.56h-.528v-.362h.528Zm0-.563h-.528V77.4h.528Zm0-.56h-.528v-.362h.528Zm0-.563h-.528V76.28h.528Zm0-.56h-.528V75.72h.528Zm0-.563h-.528v-.362h.528Zm0-.56h-.528v-.364h.528Zm.907,5.05h-.528v-.362h.528Zm0-.56h-.528v-.362h.528Zm0-.563h-.528v-.361h.528Zm0-.56h-.528v-.362h.528Zm0-.563h-.528V77.4h.528Zm0-.56h-.528v-.362h.528Zm0-.563h-.528V76.28h.528Zm0-.56h-.528V75.72h.528Zm0-.563h-.528v-.362h.528Zm0-.56h-.528v-.364h.528Zm.9,5.05H245.6v-.362h.525Zm0-.56H245.6v-.362h.525Zm0-.563H245.6v-.361h.525Zm0-.56H245.6v-.362h.525Zm0-.563H245.6V77.4h.525Zm0-.56H245.6v-.362h.525Zm0-.563H245.6V76.28h.525Zm0-.56H245.6V75.72h.525Zm0-.563H245.6v-.362h.525Zm0-.56H245.6v-.364h.525Zm.907,5.05h-.525v-.362h.525Zm0-.56h-.525v-.362h.525Zm0-.563h-.525v-.361h.525Zm0-.56h-.525v-.362h.525Zm0-.563h-.525V77.4h.525Zm0-.56h-.525v-.362h.525Zm0-.563h-.525V76.28h.525Zm0-.56h-.525V75.72h.525Zm0-.563h-.525v-.362h.525Zm0-.56h-.525v-.364h.525Zm-3.245-.563v-.361h.528V74.4Zm.907,0v-.361h.528V74.4Zm.907,0v-.361h.525V74.4Zm.907,0v-.361h.525V74.4Z" transform="translate(-242.264 -62.106)" fill="#204a57"/>
      </g>
      <g id="Group_16442" data-name="Group 16442" transform="translate(0.719)">
        <path id="Path_10818" data-name="Path 10818" d="M250.344,62.1l-.58,2.156h2.047Z" transform="translate(-248.36 -62.103)" fill="#204a57"/>
        <path id="Path_10819" data-name="Path 10819" d="M251.641,62.1l-.068,2.156H252.6Z" transform="translate(-249.657 -62.103)" fill="#204a57"/>
        <g id="Group_16438" data-name="Group 16438" transform="translate(1.031 1.733)">
          <path id="Path_10820" data-name="Path 10820" d="M248.446,68.227v5.911h.228v-.143h.525v.143h.382v-.143h.525v.143h.379v-.143h.528v.143h.225V68.227Zm.318,3.91V71.8h.484v.332Zm.484.184v.335h-.484v-.335Zm-.484-.7v-.335h.484v.335Zm0-.519v-.335h.484V71.1Zm0-.519v-.332h.484v.332Zm0-.516v-.335h.484v.335Zm0-.519v-.332h.484v.332Zm0-.516V68.7h.484v.335Zm1.671,3.289h.487v.335h-.487Zm0-.184V71.8h.487v.332Zm0-.516v-.335h.487v.335Zm0-.519v-.335h.487V71.1Zm0-.519v-.332h.487v.332Zm0-.516v-.335h.487v.335Zm0-.519v-.332h.487v.332Zm0-.516V68.7h.487v.335ZM249.2,73.8h-.525v-.364h.525Zm.907,0h-.525v-.364h.525Zm.907,0h-.528v-.364h.528Z" transform="translate(-248.446 -68.227)" fill="#204a57"/>
        </g>
        <g id="Group_16439" data-name="Group 16439" transform="translate(2.162 1.733)">
          <path id="Path_10821" data-name="Path 10821" d="M252.445,68.227v5.911h0v-.143h.525v.143h0V68.227Zm.528,5.569h-.525v-.364h.525Z" transform="translate(-252.445 -68.227)" fill="#204a57"/>
        </g>
        <rect id="Rectangle_5956" data-name="Rectangle 5956" width="3.162" height="0.176" transform="translate(0.846 1.647)" fill="#204a57"/>
        <g id="Group_16440" data-name="Group 16440" transform="translate(0.072 11.446)">
          <path id="Path_10822" data-name="Path 10822" d="M245.056,102.552v7.161h4.161a.552.552,0,0,0,.551-.551v-6.61Zm.732.846v-.361h.528v.361Zm.907,0v-.361h.528v.361Zm.907,0v-.361h.525v.361Zm1.432,0h-.525v-.361h.525Zm-2.718,5.613h-.528v-.362h.528Zm0-.56h-.528v-.362h.528Zm0-.563h-.528v-.361h.528Zm0-.56h-.528v-.362h.528Zm0-.563h-.528V106.4h.528Zm0-.56h-.528v-.362h.528Zm0-.563h-.528v-.362h.528Zm0-.56h-.528v-.361h.528Zm0-.563h-.528v-.362h.528Zm0-.56h-.528V103.6h.528Zm.907,5.05h-.528v-.362h.528Zm0-.56h-.528v-.362h.528Zm0-.563h-.528v-.361h.528Zm0-.56h-.528v-.362h.528Zm0-.563h-.528V106.4h.528Zm0-.56h-.528v-.362h.528Zm0-.563h-.528v-.362h.528Zm0-.56h-.528v-.361h.528Zm0-.563h-.528v-.362h.528Zm0-.56h-.528V103.6h.528Zm.9,5.05H247.6v-.362h.525Zm0-.56H247.6v-.362h.525Zm0-.563H247.6v-.361h.525Zm0-.56H247.6v-.362h.525Zm0-.563H247.6V106.4h.525Zm0-.56H247.6v-.362h.525Zm0-.563H247.6v-.362h.525Zm0-.56H247.6v-.361h.525Zm0-.563H247.6v-.362h.525Zm0-.56H247.6V103.6h.525Zm.907,5.05h-.525v-.362h.525Zm0-.56h-.525v-.362h.525Zm0-.563h-.525v-.361h.525Zm0-.56h-.525v-.362h.525Zm0-.563h-.525V106.4h.525Zm0-.56h-.525v-.362h.525Zm0-.563h-.525v-.362h.525Zm0-.56h-.525v-.361h.525Zm0-.563h-.525v-.362h.525Zm0-.56h-.525V103.6h.525Z" transform="translate(-245.056 -102.552)" fill="#204a57"/>
        </g>
        <g id="Group_16441" data-name="Group 16441" transform="translate(0.413 6.535)">
          <path id="Path_10823" data-name="Path 10823" d="M246.262,85.2v5.91h4.03V85.2Zm.846,4.333h.525v.361h-.525Zm0-.2v-.364h.525v.364Zm0-.563v-.362h.525v.362Zm0-.56v-.364h.525v.364Zm0-.563v-.362h.525v.362Zm0-.56v-.364h.525v.364Zm0-.563v-.362h.525v.362Zm.525-.924v.364h-.525V85.6Zm.382,3.931h.525v.361h-.525Zm0-.2v-.364h.525v.364Zm0-.563v-.362h.525v.362Zm0-.56v-.364h.525v.364Zm0-.563v-.362h.525v.362Zm0-.56v-.364h.525v.364Zm0-.563v-.362h.525v.362Zm.525-.924v.364h-.525V85.6Zm.379,3.931h.528v.361h-.528Zm0-.2v-.364h.528v.364Zm0-.563v-.362h.528v.362Zm0-.56v-.364h.528v.364Zm0-.563v-.362h.528v.362Zm0-.56v-.364h.528v.364Zm0-.563v-.362h.528v.362Zm.528-.924v.364h-.528V85.6Zm-2.265,5.353h-.528v-.361h.528Zm.907,0h-.528v-.361h.528Zm.9,0h-.525v-.361h.525Zm.907,0h-.525v-.361h.525Z" transform="translate(-246.262 -85.199)" fill="#204a57"/>
        </g>
        <rect id="Rectangle_5957" data-name="Rectangle 5957" width="4.855" height="0.176" transform="translate(0 11.447)" fill="#204a57"/>
        <rect id="Rectangle_5958" data-name="Rectangle 5958" width="4.399" height="0.176" transform="translate(0.228 6.449)" fill="#204a57"/>
      </g>
    </g>
    <g id="Group_16450" data-name="Group 16450" transform="translate(60.304 12.247)">
      <g id="Group_16444" data-name="Group 16444">
        <path id="Path_10824" data-name="Path 10824" d="M218.533,58.02V51.812h.228v-.228h-.983v-.37h-.1v-.429h.1v-.236h-.1v-.432h.1v-.236h-.1V49.45h.1v-.236h-.1v-.429h.1v-.239h-.1v-.429h.1v-.236h-.1V47.45h.1v-.236h-.1v-.429h.1v-.239h-.1v-.429h.1v-.49H218V45.4h-.921l-.674-2.12-1.344,2.12h-.921v.228h.227v5.957h-.982v.228h.224V58.02h-.5v.227h.087V66.73a.5.5,0,0,0,.481.51h5.269V58.247h.087V58.02Zm-2.9-7.234h.592v.429h-.592Zm0-.236v-.432h.592v.432Zm0-.668V49.45h.592v.432Zm0-.668v-.429h.592v.429Zm0-.668v-.429h.592v.429Zm0-.665V47.45h.592v.432Zm0-.668v-.429h.592v.429Zm0-.668v-.429h.592v.429Zm2.1,10.474v-.467h.644v.467Zm.644.257v.467h-.644v-.467Zm-.644-.98V55.83h.644V56.3Zm0-.723v-.467h.644v.467Zm0-.723v-.466h.644v.466Zm0-.723V53.66h.644v.467Zm-1.569-1.91v.464h-.642v-.464Zm-.642,5.059h.642v.467h-.642Zm0-.257v-.467h.642v.467Zm0-.723V55.83h.642V56.3Zm0-.723v-.467h.642v.467Zm0-.723v-.466h.642v.466Zm0-.723V53.66h.642v.467Zm0-.723v-.466h.642V53.4Zm1.105,3.872h.641v.467h-.641Zm0-.257v-.467h.641v.467Zm0-.723V55.83h.641V56.3Zm0-.723v-.467h.641v.467Zm0-.723v-.466h.641v.466Zm0-.723V53.66h.641v.467Zm0-.723v-.466h.641V53.4Zm0-.723v-.464h.641v.464Zm1.75.723h-.644v-.466h.644Zm-.644-.723v-.464h.644v.464Zm-2.123,13.658h-.641v-.467h.641Zm0-.723h-.641v-.467h.641Zm0-.723h-.641v-.467h.641Zm0-.723h-.641V63.7h.641Zm0-.723h-.641V62.98h.641Zm0-.723h-.641v-.467h.641Zm0-.723h-.641v-.466h.641Zm0-.723h-.641V60.81h.641Zm0-.723h-.641v-.466h.641Zm0-.723h-.641v-.464h.641Zm1.108,6.508h-.644v-.467h.644Zm0-.723h-.644v-.467h.644Zm0-.723h-.644v-.467h.644Zm0-.723h-.644V63.7h.644Zm0-.723h-.644V62.98h.644Zm0-.723h-.644v-.467h.644Zm0-.723h-.644v-.466h.644Zm0-.723h-.644V60.81h.644Zm0-.723h-.644v-.466h.644Zm0-.723h-.644v-.464h.644Zm1.1,6.508h-.641v-.467h.641Zm0-.723h-.641v-.467h.641Zm0-.723h-.641v-.467h.641Zm0-.723h-.641V63.7h.641Zm0-.723h-.641V62.98h.641Zm0-.723h-.641v-.467h.641Zm0-.723h-.641v-.466h.641Zm0-.723h-.641V60.81h.641Zm0-.723h-.641v-.466h.641Zm0-.723h-.641v-.464h.641Zm1.105,6.508h-.642v-.467h.642Zm0-.723h-.642v-.467h.642Zm0-.723h-.642v-.467h.642Zm0-.723h-.642V63.7h.642Zm0-.723h-.642V62.98h.642Zm0-.723h-.642v-.467h.642Zm0-.723h-.642v-.466h.642Zm0-.723h-.642V60.81h.642Zm0-.723h-.642v-.466h.642Zm0-.723h-.642v-.464h.642Zm-3.96-.72v-.467h.641v.467Zm1.105,0v-.467h.644v.467Zm1.108,0v-.467h.641v.467Zm1.105,0v-.467h.642v.467Z" transform="translate(-213.112 -43.28)" fill="#204a57"/>
      </g>
      <g id="Group_16449" data-name="Group 16449" transform="translate(0.878 0)">
        <path id="Path_10825" data-name="Path 10825" d="M222.978,43.281l-.708,2.777h2.5Z" transform="translate(-220.557 -43.281)" fill="#204a57"/>
        <path id="Path_10826" data-name="Path 10826" d="M224.561,43.281l-.083,2.777h1.249Z" transform="translate(-222.14 -43.281)" fill="#204a57"/>
        <g id="Group_16445" data-name="Group 16445" transform="translate(1.259 2.233)">
          <path id="Path_10827" data-name="Path 10827" d="M220.665,51.173v7.61h.277V58.6h.642v.186h.463V58.6h.641v.186h.464V58.6h.644v.186h.274v-7.61Zm.388,5.036v-.432h.592v.432Zm.592.236v.429h-.592v-.429Zm-.592-.9v-.432h.592v.432Zm0-.668v-.429h.592v.429Zm0-.668v-.429h.592v.429Zm0-.665v-.432h.592v.432Zm0-.668v-.429h.592v.429Zm0-.668v-.429h.592v.429Zm2.038,4.24h.595v.429h-.595Zm0-.236v-.432h.595v.432Zm0-.668v-.432h.595v.432Zm0-.668v-.429h.595v.429Zm0-.668v-.429h.595v.429Zm0-.665v-.432h.595v.432Zm0-.668v-.429h.595v.429Zm0-.668v-.429h.595v.429Zm-1.508,6.135h-.642v-.464h.642Zm1.1,0h-.641v-.464h.641Zm1.108,0h-.644v-.464h.644Z" transform="translate(-220.665 -51.173)" fill="#204a57"/>
        </g>
        <g id="Group_16446" data-name="Group 16446" transform="translate(2.639 2.233)">
          <path id="Path_10828" data-name="Path 10828" d="M225.539,51.173v7.61h0V58.6h.641v.186h0v-7.61Zm.644,7.167h-.641v-.464h.641Z" transform="translate(-225.539 -51.173)" fill="#204a57"/>
        </g>
        <rect id="Rectangle_5959" data-name="Rectangle 5959" width="3.859" height="0.227" transform="translate(1.033 2.12)" fill="#204a57"/>
        <g id="Group_16447" data-name="Group 16447" transform="translate(0.087 14.739)">
          <path id="Path_10829" data-name="Path 10829" d="M216.523,95.37v9.22H221.6a.691.691,0,0,0,.671-.709V95.37Zm.9,1.091v-.467h.641v.467Zm1.105,0v-.467h.644v.467Zm1.108,0v-.467h.641v.467Zm1.747,0h-.641v-.467h.641Zm-3.318,7.228h-.641v-.467h.641Zm0-.723h-.641V102.5h.641Zm0-.723h-.641v-.467h.641Zm0-.723h-.641v-.467h.641Zm0-.723h-.641v-.467h.641Zm0-.723h-.641v-.467h.641Zm0-.723h-.641v-.466h.641Zm0-.723h-.641V98.16h.641Zm0-.723h-.641v-.466h.641Zm0-.723h-.641v-.464h.641Zm1.108,6.508h-.644v-.467h.644Zm0-.723h-.644V102.5h.644Zm0-.723h-.644v-.467h.644Zm0-.723h-.644v-.467h.644Zm0-.723h-.644v-.467h.644Zm0-.723h-.644v-.467h.644Zm0-.723h-.644v-.466h.644Zm0-.723h-.644V98.16h.644Zm0-.723h-.644v-.466h.644Zm0-.723h-.644v-.464h.644Zm1.1,6.508h-.641v-.467h.641Zm0-.723h-.641V102.5h.641Zm0-.723h-.641v-.467h.641Zm0-.723h-.641v-.467h.641Zm0-.723h-.641v-.467h.641Zm0-.723h-.641v-.467h.641Zm0-.723h-.641v-.466h.641Zm0-.723h-.641V98.16h.641Zm0-.723h-.641v-.466h.641Zm0-.723h-.641v-.464h.641Zm1.105,6.508h-.641v-.467h.641Zm0-.723h-.641V102.5h.641Zm0-.723h-.641v-.467h.641Zm0-.723h-.641v-.467h.641Zm0-.723h-.641v-.467h.641Zm0-.723h-.641v-.467h.641Zm0-.723h-.641v-.466h.641Zm0-.723h-.641V98.16h.641Zm0-.723h-.641v-.466h.641Zm0-.723h-.641v-.464h.641Z" transform="translate(-216.523 -95.37)" fill="#204a57"/>
        </g>
        <g id="Group_16448" data-name="Group 16448" transform="translate(0.504 8.418)">
          <path id="Path_10830" data-name="Path 10830" d="M218,73.029v7.608h4.919V73.029Zm1.032,5.578h.641v.467h-.641Zm0-.257v-.467h.641v.467Zm0-.723v-.467h.641v.467Zm0-.723v-.467h.641V76.9Zm0-.723v-.466h.641v.466Zm0-.723v-.467h.641v.467Zm0-.723v-.466h.641v.466Zm.641-1.187v.464h-.641v-.464Zm.463,5.059h.641v.467h-.641Zm0-.257v-.467h.641v.467Zm0-.723v-.467h.641v.467Zm0-.723v-.467h.641V76.9Zm0-.723v-.466h.641v.466Zm0-.723v-.467h.641v.467Zm0-.723v-.466h.641v.466Zm.641-1.187v.464h-.641v-.464Zm.464,5.059h.644v.467h-.644Zm0-.257v-.467h.644v.467Zm0-.723v-.467h.644v.467Zm0-.723v-.467h.644V76.9Zm0-.723v-.466h.644v.466Zm0-.723v-.467h.644v.467Zm0-.723v-.466h.644v.466Zm.644-1.187v.464h-.644v-.464Zm-2.767,6.893h-.641v-.467h.641Zm1.108,0h-.644v-.467h.644Zm1.1,0h-.642v-.467h.642Zm1.105,0h-.641v-.467h.641Z" transform="translate(-217.996 -73.029)" fill="#204a57"/>
        </g>
        <rect id="Rectangle_5960" data-name="Rectangle 5960" width="5.926" height="0.227" transform="translate(0 14.74)" fill="#204a57"/>
        <rect id="Rectangle_5961" data-name="Rectangle 5961" width="5.37" height="0.227" transform="translate(0.278 8.304)" fill="#204a57"/>
      </g>
    </g>
    <path id="Path_10831" data-name="Path 10831" d="M121.452,181.674c0,.064,0,.131,0,.2v-.2Z" transform="translate(-87.083 -130.266)"/>
    <path id="Path_10832" data-name="Path 10832" d="M121.461,164.208h-.012v-1.927h.009C121.458,162.922,121.461,163.567,121.461,164.208Z" transform="translate(-87.083 -116.361)"/>
    <path id="Path_10833" data-name="Path 10833" d="M30.564,80.308c-6.193.047-8.089.018-14.282.038A15.6,15.6,0,0,1,2.927,73.753c-6.89-9.4-.919-23.246,10.634-24.613.1-.012.2-.023.292-.032A9.438,9.438,0,0,1,15.26,49a19.7,19.7,0,0,1,5.487.68c2.044.668,1.33,3.6-.511,4.007a1.668,1.668,0,0,1-.557.1c-1.476.158-2.924.017-4.4.134-5.4.431-10.06,4.464-10.418,9.99A10.85,10.85,0,0,0,13.94,75.372a15.178,15.178,0,0,0,2.385.184c7.759.012,9.022.032,16.778-.006.977,0,1.336.23,1.309,1.265-.006.222-.009.446-.012.668H32.736a1.945,1.945,0,0,0-2.179,2.032Z" transform="translate(0 -35.132)" fill="#204a57"/>
    <path id="Path_10834" data-name="Path 10834" d="M50.028,60.625" transform="translate(-35.872 -43.47)"/>
    <g id="Group_16457" data-name="Group 16457" transform="translate(26.873 13.774)">
      <g id="Group_16451" data-name="Group 16451" transform="translate(26.467 4.033)">
        <path id="Path_10835" data-name="Path 10835" d="M192.945,74.379V69.556h.184v-.175h-.8V69.1h-.085V68.76h.085v-.184h-.085v-.332h.085V68.06h-.085v-.335h.085v-.184h-.085v-.335h.085v-.184h-.085v-.332h.085v-.184h-.085V66.17h.085v-.184h-.085v-.332h.085v-.184h-.085v-.335h.085v-.379h.184v-.178h-.752l-.539-1.61v-.006l-.006-.015v0l-.006-.014,0,0v.006l-1.1,1.639h-.752v.178h.184v4.625h-.8v.175h.184v4.823H188.5v.175h.07v2.225h.72V74.554h.341v.825h3.651v-.825h.07v-.175Zm-2.391.846h-.525v-.362h.525Zm.907,0h-.528v-.362h.528Zm.9,0h-.525v-.362h.525Zm.907,0h-.525v-.362h.525Zm-2.7-6.464h.484V69.1h-.484Zm0-.184v-.332h.484v.332Zm0-.516v-.335h.484v.335Zm0-.519v-.335h.484v.335Zm0-.519v-.332h.484v.332Zm0-.516V66.17h.484v.335Zm0-.519v-.332h.484v.332Zm0-.516v-.335h.484v.335Zm1.72,8.132v-.364h.528V73.6Zm.528.2v.362h-.528V73.8Zm-.528-.761v-.362h.528v.362Zm0-.56v-.364h.528v.364Zm0-.563v-.362h.528v.362Zm0-.56v-.364h.528v.364Zm-1.286-1.487v.364h-.525v-.364Zm-.525,3.93h.525v.362h-.525Zm0-.2v-.364h.525V73.6Zm0-.563v-.362h.525v.362Zm0-.56v-.364h.525v.364Zm0-.563v-.362h.525v.362Zm0-.56v-.364h.525v.364Zm0-.563v-.362h.525v.362Zm.907,3.006h.525v.362h-.525Zm0-.2v-.364h.525V73.6Zm0-.563v-.362h.525v.362Zm0-.56v-.364h.525v.364Zm0-.563v-.362h.525v.362Zm0-.56v-.364h.525v.364Zm0-.563v-.362h.525v.362Zm0-.56v-.364h.525v.364Zm1.432.56h-.528v-.362h.528Zm-.528-.56v-.364h.528v.364Z" transform="translate(-188.504 -62.931)" fill="#204a57"/>
      </g>
      <g id="Group_16456" data-name="Group 16456">
        <path id="Path_10836" data-name="Path 10836" d="M196.581,62.938,196,65.094h2.047Z" transform="translate(-167.413 -58.902)" fill="#204a57"/>
        <path id="Path_10837" data-name="Path 10837" d="M197.878,62.938l-.068,2.156h1.024Z" transform="translate(-168.709 -58.902)" fill="#204a57"/>
        <g id="Group_16452" data-name="Group 16452" transform="translate(28.217 5.768)">
          <path id="Path_10838" data-name="Path 10838" d="M194.687,69.062v5.91h.228v-.143h.525v.143h.382v-.143h.525v.143h.379v-.143h.528v.143h.227v-5.91Zm.318,3.91V72.64h.484v.332Zm.484.184v.335H195v-.335Zm-.484-.7v-.335h.484v.335Zm0-.519V71.6h.484v.335Zm0-.519v-.332h.484v.332Zm0-.516v-.335h.484V70.9Zm0-.519V70.05h.484v.332Zm0-.516v-.335h.484v.335Zm1.671,3.289h.487v.335h-.487Zm0-.184V72.64h.487v.332Zm0-.516v-.335h.487v.335Zm0-.519V71.6h.487v.335Zm0-.519v-.332h.487v.332Zm0-.516v-.335h.487V70.9Zm0-.519V70.05h.487v.332Zm0-.516v-.335h.487v.335Zm-1.236,4.765h-.525v-.364h.525Zm.907,0h-.525v-.364h.525Zm.907,0h-.528v-.364h.528Z" transform="translate(-194.687 -69.062)" fill="#204a57"/>
        </g>
        <g id="Group_16453" data-name="Group 16453" transform="translate(29.348 5.768)">
          <path id="Path_10839" data-name="Path 10839" d="M198.685,69.062v5.91h0v-.143h.525v.143h0v-5.91Zm.528,5.569h-.525v-.364h.525Z" transform="translate(-198.685 -69.062)" fill="#204a57"/>
        </g>
        <rect id="Rectangle_5962" data-name="Rectangle 5962" width="3.162" height="0.176" transform="translate(28.031 5.682)" fill="#204a57"/>
        <g id="Group_16454" data-name="Group 16454">
          <path id="Path_10840" data-name="Path 10840" d="M191.3,103.387v.175h.341v.825h3.651v6.161h.169a.553.553,0,0,0,.551-.551v-6.61Zm1.259.846h-.525v-.362h.525Zm.907,0h-.528v-.362h.528Zm.9,0h-.525v-.362h.525Zm.907,0h-.525v-.362h.525Z" transform="translate(-164.039 -87.906)" fill="#204a57"/>
          <path id="Path_10841" data-name="Path 10841" d="M113.672,92.443v-.671A3.425,3.425,0,0,0,113.672,92.443Zm3.143.388h.228c0-.035,0-.07.006-.1A.273.273,0,0,1,116.815,92.83Zm.26-9.663,0,.315.02,1.58V83.205Zm5.493-18.009v-.825h-.341v2.225h-3.566c-.98.111-1.239-.277-1.23-1.228.041-5.17.006-10.342.038-15.515.006-.84-.2-1.149-1.1-1.137-3.423.05-6.847-.023-10.27.032a11.3,11.3,0,0,0-10.94,13.366,11.162,11.162,0,0,0,10.684,9.241c1.962.079,4.957.017,6.922,0,.639-.006.971.2.907.881-.023.251,0,.507,0,.764v4.96a2.882,2.882,0,0,1,2.035-.843,2.832,2.832,0,0,1,1.382.356c-.006-1.869-.014-3.534-.032-4.735-.012-1.023.245-1.414,1.33-1.379l3.516,0h4.316V65.159Zm-16.25,3.776a8.541,8.541,0,1,1,8.541-8.541A8.54,8.54,0,0,1,106.318,68.935Zm17.168,1.682h-.525v-.361h.525Zm0-.56h-.525V69.7h.525Zm0-.563h-.525v-.362h.525Zm0-.56h-.525v-.362h.525Zm0-.563h-.525v-.362h.525Zm0-.56h-.525v-.361h.525Zm0-.563h-.525v-.362h.525Zm0-.56h-.525v-.362h.525Zm0-.563h-.525v-.361h.525Zm0-.56h-.525V65.2h.525Zm.907,5.05h-.528v-.361h.528Zm0-.56h-.528V69.7h.528Zm0-.563h-.528v-.362h.528Zm0-.56h-.528v-.362h.528Zm0-.563h-.528v-.362h.528Zm0-.56h-.528v-.361h.528Zm0-.563h-.528v-.362h.528Zm0-.56h-.528v-.362h.528Zm0-.563h-.528v-.361h.528Zm0-.56h-.528V65.2h.528Zm.9,5.05h-.525v-.361h.525Zm0-.56h-.525V69.7h.525Zm0-.563h-.525v-.362h.525Zm0-.56h-.525v-.362h.525Zm0-.563h-.525v-.362h.525Zm0-.56h-.525v-.361h.525Zm0-.563h-.525v-.362h.525Zm0-.56h-.525v-.362h.525Zm0-.563h-.525v-.361h.525Zm0-.56h-.525V65.2h.525Zm.907,5.05h-.525v-.361h.525Zm0-.56h-.525V69.7h.525Zm0-.563h-.525v-.362h.525Zm0-.56h-.525v-.362h.525Zm0-.563h-.525v-.362h.525Zm0-.56h-.525v-.361h.525Zm0-.563h-.525v-.362h.525Zm0-.56h-.525v-.362h.525Zm0-.563h-.525v-.361h.525Zm0-.56h-.525V65.2h.525Z" transform="translate(-94.97 -48.678)" fill="#204a57"/>
        </g>
        <g id="Group_16455" data-name="Group 16455" transform="translate(27.599 10.571)">
          <path id="Path_10842" data-name="Path 10842" d="M192.5,86.034v5.91h4.03v-5.91Zm.846,4.333h.525v.362h-.525Zm0-.2V89.8h.525v.364Zm0-.563v-.362h.525v.362Zm0-.56v-.364h.525v.364Zm0-.563v-.362h.525v.362Zm0-.56v-.364h.525v.364Zm0-.563V87h.525v.362Zm.525-.924V86.8h-.525v-.364Zm.382,3.93h.525v.362h-.525Zm0-.2V89.8h.525v.364Zm0-.563v-.362h.525v.362Zm0-.56v-.364h.525v.364Zm0-.563v-.362h.525v.362Zm0-.56v-.364h.525v.364Zm0-.563V87h.525v.362Zm.525-.924V86.8h-.525v-.364Zm.379,3.93h.528v.362h-.528Zm0-.2V89.8h.528v.364Zm0-.563v-.362h.528v.362Zm0-.56v-.364h.528v.364Zm0-.563v-.362h.528v.362Zm0-.56v-.364h.528v.364Zm0-.563V87h.528v.362Zm.528-.924V86.8h-.528v-.364ZM193.42,91.79H192.9v-.362h.525Zm.907,0H193.8v-.362h.528Zm.9,0h-.525v-.362h.525Zm.907,0h-.525v-.362h.525Z" transform="translate(-192.502 -86.034)" fill="#204a57"/>
        </g>
        <rect id="Rectangle_5963" data-name="Rectangle 5963" width="4.855" height="0.175" transform="translate(27.184 15.482)" fill="#204a57"/>
        <rect id="Rectangle_5964" data-name="Rectangle 5964" width="4.399" height="0.176" transform="translate(27.413 10.484)" fill="#204a57"/>
      </g>
    </g>
    <g id="Group_16460" data-name="Group 16460" transform="translate(75.604 0)">
      <g id="Group_16458" data-name="Group 16458" transform="translate(0 0)">
        <path id="Path_10843" data-name="Path 10843" d="M486.716,81.258h-.277l0,.236A.284.284,0,0,1,486.716,81.258Zm-.306,4.549,0,.274h.28A.276.276,0,0,1,486.409,85.807Zm-8.672.274h7.847l-4.327-.015C480.056,86.072,478.886,86.078,477.738,86.081Zm4.683-16.854a2.659,2.659,0,0,0,.143.324C482.52,69.443,482.473,69.335,482.42,69.227Zm-5.149,12.057h.163a1.328,1.328,0,0,0,.3-.026h-.461Z" transform="translate(-417.823 -49.638)" fill="#204a57"/>
        <path id="Path_10844" data-name="Path 10844" d="M359.249,29.555l-.452-1.292c-.1-.309-.152-.475-.2-.592-.356-.764-.368-.709-.7-1.362-.172-.338-.379-.717-.522-1.067a6,6,0,0,0-2.277-2.822c-.073.081-.111.1-.12.137-.254.84-.528,1.677-.755,2.522a1.934,1.934,0,0,1-2.149,1.706c-.557,0-1.111,0-1.665-.009a1.671,1.671,0,0,1-1.729-1.231c-.157-.507-.309-1.018-.469-1.528-.169-.531-.341-1.064-.534-1.656-.254.187-.432.3-.586.437a9.079,9.079,0,0,0-2.566,3.89c-.125.356-.143.347-.324.81-.073.19-.163.435-.3.764h.006l-.467,1.292a7.78,7.78,0,0,0-.332,2.065h-6.707a.279.279,0,0,0,.277-.28c0-1.878,0-3.7,0-6.12,0-.327,0-.644,0-.956,0-.548-.018-1.082-.055-1.61v-.015c-.061-.662-.16-1.309-.259-1.816a.086.086,0,0,0-.006-.029,9.182,9.182,0,0,0-.248-.93s0-.006,0-.006a1.8,1.8,0,0,0-.149-.277,3.36,3.36,0,0,0-1.2-1.067.28.28,0,0,1-.14-.186l-.1-.481a.28.28,0,0,1,.16-.312l.015-.009a.281.281,0,0,0,.16-.312l-.364-1.685a.272.272,0,0,0-.289-.218l-.256.014a.279.279,0,0,1-.274-.163l-2.6-5.928s0-.009-.006-.012l-3.989-7.913-.02-.035c.248-.673.431-1.111.431-1.111L327.434,0a6.947,6.947,0,0,0-4.213,1.405c-1.534,1.432-4.327,4.773-4.327,4.773l.012.012-4.152,4.98-.018.023-.854-.1a.361.361,0,0,0-.4.382l.087,1.126a.373.373,0,0,1-.067.242c-.131.178-.464.639-1.274,1.79a.373.373,0,0,1-.376.143c-2.292-.423-3.526,2.094-3.872,3.041-.315.86,1.026,2.254,1.365,2.6a.359.359,0,0,1,.1.178l.467,2.175a.358.358,0,0,0,.117.2l1.965,1.688a.59.59,0,0,0,.889-.134l.878-1.411a.355.355,0,0,0,.047-.265l-.37-1.038a.255.255,0,0,1-.014-.14,1.5,1.5,0,0,1,.166-.373c.37-.533,1.817-2.618,2.5-3.627a.344.344,0,0,0,.041-.327,3.844,3.844,0,0,1-.12-1.843,16.535,16.535,0,0,1,1.347-1.359s4.074-3.907,6.648-6.745a.278.278,0,0,1,.44.038c1.16,1.869,4.919,7.966,6.7,11.518a3.388,3.388,0,0,1,.309.639s0,0,0,.006c.052.108.113.2.157.309a.043.043,0,0,1,.006.018,1.176,1.176,0,0,1,.058.184c.143.641.1,2.825.154,4.665.058,2,.044,4.009,0,6.013a1,1,0,0,1-.3.545.278.278,0,0,1-.44-.018.967.967,0,0,1-.23-.5c-.044-1.784-.032-3.569-.032-5.356-.006-3.657-2.245-5.925-5.919-5.957q-3.281-.031-6.558,0c-2.143.021-1.863-.259-1.872,1.846-.015,3.316,0,6.631,0,9.955a.279.279,0,0,1-.19.265,1,1,0,0,1-.3.07c-2.332.009-4.665.041-6.995-.023h-3.076l-7.4,6.861a.28.28,0,0,1-.382,0l-7-6.706-.085-.082h-.1l-2.134.009c-.79,0-1.07-.259-1.053-1.079.047-2.076.079-4.158-.012-6.231a10.8,10.8,0,0,0-9.4-10.345,101.049,101.049,0,0,0-10.477-.2c-.222,0-.612.464-.633.732-.079,1.015.006,2.041-.052,3.059-.049.843.3,1.047,1.091,1.038,2.843-.032,5.689-.05,8.529.018a6.228,6.228,0,0,1,6.144,6.141c.038,1.347.014,2.7.017,4.044,0,.808,0,1.618,0,2.511a.28.28,0,0,1-.277.28h-2.957c-3.826,0-7.651.012-11.48-.023-.8-.006-1.12.23-1.061,1.059a21.827,21.827,0,0,1-.006,2.732c-.047.808.245,1.05,1.064,1.05,8.6-.029,10.348-.009,18.947-.047l1.295-.009a1.878,1.878,0,0,1,1.3.519l5.7,5.464,1.429,1.368a1.978,1.978,0,0,0,2.712.026l1.54-1.423,5.876-5.429a1.76,1.76,0,0,1,1.2-.469h.572c6.313-.023,11.768-.006,17.775-.023h.5c1.149,0,2.318-.009,3.52-.015l4.327.015h.822l0-.274a.276.276,0,0,0,.277.274h22.785v-.058l.461-2.5A7.735,7.735,0,0,0,359.249,29.555ZM315.286,13.425l-.778,1.2a.36.36,0,1,1-.6-.4l1-1.5.1.058.2.166A.36.36,0,0,1,315.286,13.425Zm4.161-6.453-3.625,5.359-.271.1-.239-.936a.341.341,0,0,0-.169-.219L319,6.639a.275.275,0,0,1,.391-.035.266.266,0,0,1,.1.213A.275.275,0,0,1,319.447,6.972ZM330.869,10.1c-.1.583-.84.309-1.07.207a.271.271,0,0,1-.114-.093l-3.648-5.129a.279.279,0,0,1-.029-.265.666.666,0,0,0,.047-.178,10.657,10.657,0,0,1,.592-2.292.278.278,0,0,1,.51-.032l3.759,7.541C330.9,9.928,330.883,10.01,330.869,10.1Zm.913,9.488c.053.108.1.216.143.324A2.655,2.655,0,0,1,331.781,19.589ZM326.8,31.646h-.163c-1.035-.012-2.073,0-3.108,0-1.018,0-2.041.055-3.053-.032a1.084,1.084,0,0,1-.75-.729c-.058-2.473-.055-4.945-.006-7.418a.968.968,0,0,1,.679-.668c1.671-.055,3.344-.076,5.015,0a2.089,2.089,0,0,1,2.129,2.184c.061,1.962.015,3.928.038,5.89.006.452-.149.679-.484.75A1.331,1.331,0,0,1,326.8,31.646Zm9,.21,0-.236h.277A.284.284,0,0,0,335.8,31.856Zm20.886-.236c-.041.067-.082.131-.123.2a6.352,6.352,0,0,1-1.528,1.674,5.912,5.912,0,0,1-7.214,0,6.436,6.436,0,0,1-1.647-1.872h-.05c0-.026,0-.053.006-.082a6.639,6.639,0,0,1-.852-3.274h12.3A6.682,6.682,0,0,1,356.683,31.62Z" transform="translate(-267.184 0)" fill="#204a57"/>
      </g>
      <g id="Group_16459" data-name="Group 16459" transform="translate(81.769 20.469)">
        <path id="Path_10845" data-name="Path 10845" d="M560.862,74.03c-.185.58-.3,1.181-.452,1.773-.2.821-.419,1-1.259,1.008-.192,0-.381,0-.573,0-1.645,0-1.642,0-2.024-1.577a12.9,12.9,0,0,0-.355-1.327c-.124-.351,0-.5.313-.578a1.122,1.122,0,0,0,.943-.732c.04-.119.3-.213.466-.236.3-.04.61-.009.915-.021.374-.016.676-.021.828.473.068.22.494.372.786.468C560.86,73.413,561,73.6,560.862,74.03Z" transform="translate(-556.152 -72.336)" fill="#f9b505"/>
      </g>
    </g>
    <g id="Group_16461" data-name="Group 16461" transform="translate(30.844 42.397)">
      <path id="Path_10846" data-name="Path 10846" d="M120.245,163.107V166c0,.222-.085.333-.259.333h-9.092q-1.894,0-1.892-1.989V152.79q0-2.034,1.892-2.035h8.914c.227,0,.344.125.344.379V154c0,.213-.117.321-.344.321h-7.284v1.927h4.9a.323.323,0,0,1,.359.37v2.8a.348.348,0,0,1-.394.394h-4.866v2.974h7.462C120.16,162.786,120.245,162.894,120.245,163.107Z" transform="translate(-109.001 -150.493)" fill="#f9b505"/>
      <path id="Path_10847" data-name="Path 10847" d="M164.489,178.353c0,2.639,0,5.065,0,6.669,0,.3-.026.592-.047,1a.357.357,0,0,0,.064-.23V179.6Zm-2.84,7.745c-.391,0-.537-.157-.586-.364v.055c0,.222.1.332.309.332h2.823C163.008,186.118,162.944,186.106,161.649,186.1Z" transform="translate(-146.331 -170.282)" fill="#f9b505"/>
      <path id="Path_10848" data-name="Path 10848" d="M174.079,150.837V164.5a1.589,1.589,0,0,1-1.368,1.788,2.183,2.183,0,0,1-2.309-1.073l-5.033-7.319-.883-1.461-.023-.038.023,1.9c0,2.639,0,5.065,0,6.668,0,.3-.026.592-.047,1a.273.273,0,0,1-.233.1h-.012c-1.187,0-1.251-.014-2.546-.023-.39,0-.537-.158-.586-.364V152.339a2.094,2.094,0,0,1,.382-1.315,1.863,1.863,0,0,1,1.166-.65l1.225.108a2.547,2.547,0,0,1,.577.291.6.6,0,0,1,.067.05,1.4,1.4,0,0,1,.356.385l4.928,7.138.916,1.525-.05-3.155v-5.878c0-.236.1-.356.312-.356h2.808C173.969,150.482,174.079,150.6,174.079,150.837Z" transform="translate(-146.329 -150.22)" fill="#f9b505"/>
      <path id="Path_10849" data-name="Path 10849" d="M230.163,158.528H227.32c-.239,0-.359.1-.359.309v3.569l-2.452.146a3.382,3.382,0,0,1-2.913-1.394,5.461,5.461,0,0,1-.907-3.295,7.4,7.4,0,0,1,.21-1.834,4.27,4.27,0,0,1,.647-1.44,3.141,3.141,0,0,1,5.4.37.444.444,0,0,0,.572.166l2.63-1.035c.245-.087.291-.283.143-.583a6.211,6.211,0,0,0-6.071-3.677,6.49,6.49,0,0,0-5.068,2.225,8.326,8.326,0,0,0-2.035,5.808,8.51,8.51,0,0,0,2,5.925,6.871,6.871,0,0,0,5.3,2.117l4.187-.321a2.477,2.477,0,0,0,1.44-.732,2.146,2.146,0,0,0,.475-1.469v-4.546C230.518,158.63,230.4,158.528,230.163,158.528Z" transform="translate(-186.526 -149.83)" fill="#f9b505"/>
      <path id="Path_10850" data-name="Path 10850" d="M280.43,150.757h-2.846c-.245,0-.367.117-.367.356V166a.294.294,0,0,0,.332.332h2.881c.23,0,.344-.111.344-.332V151.113C280.774,150.874,280.661,150.757,280.43,150.757Z" transform="translate(-229.617 -150.495)" fill="#f9b505"/>
      <path id="Path_10851" data-name="Path 10851" d="M315.724,150.484h-2.808c-.207,0-.309.117-.309.356v5.878l.047,3.155-.916-1.525-4.925-7.138a1.5,1.5,0,0,0-.423-.434,2.67,2.67,0,0,0-.577-.292l-1.228-.108a1.856,1.856,0,0,0-1.166.647,2.1,2.1,0,0,0-.379,1.315v13.39c0,.222.1.333.309.333h2.82c.207,0,.309-.111.309-.333v-6.19l-.035-3.14.9,1.5,5.033,7.319a2.18,2.18,0,0,0,2.309,1.07,1.586,1.586,0,0,0,1.371-1.784V150.839C316.06,150.6,315.946,150.484,315.724,150.484Z" transform="translate(-248.133 -150.221)" fill="#f9b505"/>
      <path id="Path_10852" data-name="Path 10852" d="M373.029,162.778h-7.462V159.8h4.866a.394.394,0,0,0,.394-.394v-2.8a.321.321,0,0,0-.359-.368h-4.9v-1.927h7.281c.23,0,.347-.108.347-.324v-2.866c0-.254-.117-.382-.347-.382h-2.61a2.5,2.5,0,0,0-1.688.659l-.883.814a2.011,2.011,0,0,1-2.738-.026l-1.006-.924a1.056,1.056,0,0,0-1.659.265,2.946,2.946,0,0,0-.219,1.248v11.556q0,1.986,1.893,1.986h9.091c.172,0,.26-.111.26-.332V163.1C373.289,162.886,373.2,162.778,373.029,162.778Z" transform="translate(-290.442 -150.488)" fill="#f9b505"/>
      <path id="Path_10853" data-name="Path 10853" d="M424.789,162.788h-7.462v-2.977h4.87a.346.346,0,0,0,.391-.391v-2.8c0-.248-.12-.37-.356-.37h-4.9v-1.927h7.284c.23,0,.344-.108.344-.321v-2.869c0-.254-.114-.379-.344-.379H415.7q-1.89,0-1.893,2.035v11.553q0,1.99,1.893,1.989h9.092q.262,0,.262-.332v-2.893C425.052,162.893,424.964,162.788,424.789,162.788Z" transform="translate(-327.555 -150.495)" fill="#f9b505"/>
      <path id="Path_10854" data-name="Path 10854" d="M479.024,165.994l-3.642-5.593a5.006,5.006,0,0,0,1.274-8.319,5.964,5.964,0,0,0-3.869-1.2h-5.319q-1.889,0-1.892,2.023V166.09c0,.222.1.332.309.332h2.892a.289.289,0,0,0,.321-.332v-5.155h2.56l3.449,5.321a.492.492,0,0,0,.429.166h3.283C479.082,166.423,479.149,166.28,479.024,165.994Zm-6.307-8.258H469.1v-3.5h3.619q2.056,0,2.059,1.63Q474.776,157.735,472.717,157.736Z" transform="translate(-364.677 -150.584)" fill="#f9b505"/>
      <path id="Path_10855" data-name="Path 10855" d="M533.6,157.441a6.193,6.193,0,0,0-1.438-.72,16.206,16.206,0,0,0-2.132-.615c-.65-.157-1.169-.291-1.56-.4a5.982,5.982,0,0,1-.784-.262,1.021,1.021,0,0,1-.714-.965q0-1.225,2.012-1.225a4.842,4.842,0,0,1,3.4,1.475c.079.12.222.1.429-.047l2.035-1.892c.19-.143.207-.295.047-.452a8.047,8.047,0,0,0-7.984-2.16,5.375,5.375,0,0,0-1.823.945,4.044,4.044,0,0,0-1.761,3.429,3.889,3.889,0,0,0,1.347,3.2,8.457,8.457,0,0,0,3.5,1.437q1.107.263,1.811.467a4.878,4.878,0,0,1,1.012.379,1.17,1.17,0,0,1,.7,1.108q0,1.439-2.522,1.441a5.342,5.342,0,0,1-2.105-.4,5.063,5.063,0,0,1-1.715-1.222.38.38,0,0,0-.225-.14.2.2,0,0,0-.181.07l-2.059,1.831c-.166.175-.192.336-.081.478a7.389,7.389,0,0,0,6.176,2.735,10.389,10.389,0,0,0,2.761-.332,5.268,5.268,0,0,0,2.021-1.023,4.428,4.428,0,0,0,1.56-3.6A4.081,4.081,0,0,0,533.6,157.441Z" transform="translate(-405.67 -149.859)" fill="#f9b505"/>
    </g>
  </g>
</svg>
