<svg xmlns="http://www.w3.org/2000/svg" width="188.003" height="65.471" viewBox="0 0 188.003 65.471">
  <g id="logo_wite" data-name="logo wite" transform="translate(0 0)">
    <path id="Path_10764" data-name="Path 10764" d="M49.106,101.207a4.153,4.153,0,0,0,4.189-4.18,4.316,4.316,0,0,0-4.039-4.138A4.253,4.253,0,0,0,45,97.049,4.2,4.2,0,0,0,49.106,101.207Z" transform="translate(-30.751 -63.475)" fill="#fff"/>
    <path id="Path_10765" data-name="Path 10765" d="M507.883,117.141a.309.309,0,0,1-.31-.307l0,.307h-.92l1.935.006v-.006Zm.033-5.4h-.31l0,.264A.318.318,0,0,1,507.916,111.744Z" transform="translate(-346.215 -76.359)" fill="#fff"/>
    <path id="Path_10766" data-name="Path 10766" d="M495.629,69.589a2.963,2.963,0,0,1-.16-.362C495.528,69.348,495.58,69.468,495.629,69.589Z" transform="translate(-338.574 -47.306)" fill="#fff"/>
    <path id="Path_10767" data-name="Path 10767" d="M509.869,128.126h-.313l0-.307A.309.309,0,0,0,509.869,128.126Z" transform="translate(-348.2 -87.344)" fill="#fff"/>
    <path id="Path_10768" data-name="Path 10768" d="M509.659,112.008l0-.264h.31A.318.318,0,0,0,509.659,112.008Z" transform="translate(-348.271 -76.359)" fill="#fff"/>
    <path id="Path_10769" data-name="Path 10769" d="M49.106,101.207A4.2,4.2,0,0,1,45,97.049a4.253,4.253,0,0,1,4.255-4.16A4.316,4.316,0,0,1,53.3,97.027,4.153,4.153,0,0,1,49.106,101.207Z" transform="translate(-30.751 -63.475)" fill="#fff"/>
    <path id="Path_10770" data-name="Path 10770" d="M368.273,90.414a4.147,4.147,0,0,1,.1,8.292,4.161,4.161,0,0,1-4.189-4.176A4.058,4.058,0,0,1,368.273,90.414Z" transform="translate(-248.863 -61.784)" fill="#fff"/>
    <g id="Group_16417" data-name="Group 16417" transform="translate(76.715 19.665)">
      <g id="Group_16411" data-name="Group 16411" transform="translate(0 0.001)">
        <path id="Path_10771" data-name="Path 10771" d="M247.234,74.914v-5.4h.206v-.2h-.9V69h-.095v-.375h.095V68.42h-.095v-.372h.095v-.206h-.095v-.375h.095v-.206h-.095v-.375h.095v-.206h-.095v-.372h.095V66.1h-.095v-.375h.095v-.206h-.095V65.15h.095v-.206h-.095V64.57h.095v-.424h.206v-.2h-.842l-.614-1.831v0l0-.007-1.237,1.84h-.842v.2h.206v5.175h-.9v.2h.206v5.4h-.46v.2h.078v7.375a.444.444,0,0,0,.444.444h4.829V75.109h.078v-.2Zm-2.656-6.288h.542V69h-.542Zm0-.206v-.372h.542v.372Zm0-.578v-.375h.542v.375Zm0-.581v-.375h.542v.375Zm0-.581v-.372h.542v.372Zm0-.578v-.375h.542V66.1Zm0-.581V65.15h.542v.372Zm0-.578V64.57h.542v.375Zm1.925,9.1v-.408h.591v.408Zm.591.222v.4H246.5v-.4Zm-.591-.852v-.4h.591v.4Zm0-.626v-.408h.591v.408Zm0-.63v-.4h.591v.4Zm0-.627v-.408h.591v.408Zm-1.439-1.664v.408h-.587v-.408Zm-.587,4.4h.587v.4h-.587Zm0-.222v-.408h.587v.408Zm0-.63v-.4h.587v.4Zm0-.626v-.408h.587v.408Zm0-.63v-.4h.587v.4Zm0-.627v-.408h.587v.408Zm0-.63v-.4h.587v.4Zm1.015,3.364h.587v.4h-.587Zm0-.222v-.408h.587v.408Zm0-.63v-.4h.587v.4Zm0-.626v-.408h.587v.408Zm0-.63v-.4h.587v.4Zm0-.627v-.408h.587v.408Zm0-.63v-.4h.587v.4Zm0-.627v-.408h.587v.408Zm1.6.627H246.5v-.4h.591Zm-.591-.627v-.408h.591v.408Zm-1.945,11.865h-.591v-.4h.591Zm0-.627h-.591v-.4h.591Zm0-.63h-.591v-.4h.591Zm0-.626h-.591v-.4h.591Zm0-.63h-.591v-.4h.591Zm0-.626h-.591v-.4h.591Zm0-.63h-.591v-.4h.591Zm0-.627h-.591v-.4h.591Zm0-.63h-.591v-.4h.591Zm0-.627h-.591v-.408h.591Zm1.015,5.652h-.591v-.4h.591Zm0-.627h-.591v-.4h.591Zm0-.63h-.591v-.4h.591Zm0-.626h-.591v-.4h.591Zm0-.63h-.591v-.4h.591Zm0-.626h-.591v-.4h.591Zm0-.63h-.591v-.4h.591Zm0-.627h-.591v-.4h.591Zm0-.63h-.591v-.4h.591Zm0-.627h-.591v-.408h.591Zm1.012,5.652H246v-.4h.587Zm0-.627H246v-.4h.587Zm0-.63H246v-.4h.587Zm0-.626H246v-.4h.587Zm0-.63H246v-.4h.587Zm0-.626H246v-.4h.587Zm0-.63H246v-.4h.587Zm0-.627H246v-.4h.587Zm0-.63H246v-.4h.587Zm0-.627H246v-.408h.587Zm1.015,5.652h-.587v-.4h.587Zm0-.627h-.587v-.4h.587Zm0-.63h-.587v-.4h.587Zm0-.626h-.587v-.4h.587Zm0-.63h-.587v-.4h.587Zm0-.626h-.587v-.4h.587Zm0-.63h-.587v-.4h.587Zm0-.627h-.587v-.4h.587Zm0-.63h-.587v-.4h.587Zm0-.627h-.587v-.408h.587Zm-3.632-.63v-.4h.591v.4Zm1.015,0v-.4h.591v.4Zm1.015,0v-.4h.587v.4Zm1.015,0v-.4h.587v.4Z" transform="translate(-242.264 -62.106)" fill="#fff"/>
      </g>
      <g id="Group_16416" data-name="Group 16416" transform="translate(0.804)">
        <path id="Path_10772" data-name="Path 10772" d="M250.413,62.1l-.649,2.413h2.291Z" transform="translate(-248.193 -62.103)" fill="#fff"/>
        <path id="Path_10773" data-name="Path 10773" d="M251.649,62.1l-.076,2.413h1.145Z" transform="translate(-249.429 -62.103)" fill="#fff"/>
        <g id="Group_16412" data-name="Group 16412" transform="translate(1.154 1.939)">
          <path id="Path_10774" data-name="Path 10774" d="M248.446,68.227v6.614h.255v-.16h.587v.16h.427v-.16h.587v.16h.424v-.16h.591v.16h.251V68.227ZM248.8,72.6v-.372h.542V72.6Zm.542.206v.375H248.8v-.375Zm-.542-.783V71.65h.542v.375Zm0-.581v-.375h.542v.375Zm0-.581v-.372h.542v.372Zm0-.578v-.375h.542v.375Zm0-.581v-.372h.542v.372Zm0-.578v-.375h.542v.375Zm1.87,3.681h.545v.375h-.545Zm0-.206v-.372h.545V72.6Zm0-.578V71.65h.545v.375Zm0-.581v-.375h.545v.375Zm0-.581v-.372h.545v.372Zm0-.578v-.375h.545v.375Zm0-.581v-.372h.545v.372Zm0-.578v-.375h.545v.375Zm-1.383,5.332H248.7v-.408h.587Zm1.015,0h-.587v-.408h.587Zm1.015,0h-.591v-.408h.591Z" transform="translate(-248.446 -68.227)" fill="#fff"/>
        </g>
        <g id="Group_16413" data-name="Group 16413" transform="translate(2.42 1.939)">
          <path id="Path_10775" data-name="Path 10775" d="M252.445,68.227v6.614h0v-.16h.587v.16h0V68.227Zm.591,6.232h-.587v-.408h.587Z" transform="translate(-252.445 -68.227)" fill="#fff"/>
        </g>
        <rect id="Rectangle_5947" data-name="Rectangle 5947" width="3.538" height="0.197" transform="translate(0.947 1.843)" fill="#fff"/>
        <g id="Group_16414" data-name="Group 16414" transform="translate(0.08 12.809)">
          <path id="Path_10776" data-name="Path 10776" d="M245.056,102.552v8.014h4.656a.618.618,0,0,0,.617-.617v-7.4Zm.819.946v-.4h.591v.4Zm1.015,0v-.4h.591v.4Zm1.015,0v-.4h.587v.4Zm1.6,0h-.587v-.4h.587Zm-3.041,6.282h-.591v-.4h.591Zm0-.627h-.591v-.4h.591Zm0-.63h-.591v-.4h.591Zm0-.626h-.591v-.4h.591Zm0-.63h-.591v-.4h.591Zm0-.626h-.591v-.4h.591Zm0-.63h-.591v-.4h.591Zm0-.627h-.591v-.4h.591Zm0-.63h-.591v-.4h.591Zm0-.627h-.591v-.408h.591Zm1.015,5.652h-.591v-.4h.591Zm0-.627h-.591v-.4h.591Zm0-.63h-.591v-.4h.591Zm0-.626h-.591v-.4h.591Zm0-.63h-.591v-.4h.591Zm0-.626h-.591v-.4h.591Zm0-.63h-.591v-.4h.591Zm0-.627h-.591v-.4h.591Zm0-.63h-.591v-.4h.591Zm0-.627h-.591v-.408h.591Zm1.012,5.652H247.9v-.4h.587Zm0-.627H247.9v-.4h.587Zm0-.63H247.9v-.4h.587Zm0-.626H247.9v-.4h.587Zm0-.63H247.9v-.4h.587Zm0-.626H247.9v-.4h.587Zm0-.63H247.9v-.4h.587Zm0-.627H247.9v-.4h.587Zm0-.63H247.9v-.4h.587Zm0-.627H247.9v-.408h.587Zm1.015,5.652h-.587v-.4h.587Zm0-.627h-.587v-.4h.587Zm0-.63h-.587v-.4h.587Zm0-.626h-.587v-.4h.587Zm0-.63h-.587v-.4h.587Zm0-.626h-.587v-.4h.587Zm0-.63h-.587v-.4h.587Zm0-.627h-.587v-.4h.587Zm0-.63h-.587v-.4h.587Zm0-.627h-.587v-.408h.587Z" transform="translate(-245.056 -102.552)" fill="#fff"/>
        </g>
        <g id="Group_16415" data-name="Group 16415" transform="translate(0.462 7.314)">
          <path id="Path_10777" data-name="Path 10777" d="M246.262,85.2v6.614h4.51V85.2Zm.946,4.849h.587v.4h-.587Zm0-.222v-.408h.587v.408Zm0-.63v-.4h.587v.4Zm0-.626v-.408h.587v.408Zm0-.63v-.4h.587v.4Zm0-.627v-.408h.587v.408Zm0-.63v-.4h.587v.4Zm.587-1.035v.408h-.587v-.408Zm.427,4.4h.587v.4h-.587Zm0-.222v-.408h.587v.408Zm0-.63v-.4h.587v.4Zm0-.626v-.408h.587v.408Zm0-.63v-.4h.587v.4Zm0-.627v-.408h.587v.408Zm0-.63v-.4h.587v.4Zm.587-1.035v.408h-.587v-.408Zm.424,4.4h.591v.4h-.591Zm0-.222v-.408h.591v.408Zm0-.63v-.4h.591v.4Zm0-.626v-.408h.591v.408Zm0-.63v-.4h.591v.4Zm0-.627v-.408h.591v.408Zm0-.63v-.4h.591v.4Zm.591-1.035v.408h-.591v-.408ZM247.29,91.64H246.7v-.4h.591Zm1.015,0h-.591v-.4h.591Zm1.012,0h-.587v-.4h.587Zm1.015,0h-.587v-.4h.587Z" transform="translate(-246.262 -85.199)" fill="#fff"/>
        </g>
        <rect id="Rectangle_5948" data-name="Rectangle 5948" width="5.433" height="0.197" transform="translate(0 12.809)" fill="#fff"/>
        <rect id="Rectangle_5949" data-name="Rectangle 5949" width="4.923" height="0.197" transform="translate(0.255 7.216)" fill="#fff"/>
      </g>
    </g>
    <g id="Group_16424" data-name="Group 16424" transform="translate(67.484 13.705)">
      <g id="Group_16418" data-name="Group 16418">
        <path id="Path_10778" data-name="Path 10778" d="M219.178,59.775V52.828h.255v-.255h-1.1v-.414h-.114v-.48h.114v-.264h-.114v-.483h.114v-.264h-.114v-.483h.114V49.92h-.114v-.48h.114v-.268h-.114v-.48h.114v-.264h-.114v-.483h.114v-.264h-.114V47.2h.114v-.268h-.114v-.48h.114v-.548h.255v-.255h-1.031L216.8,43.28l-1.5,2.372h-1.031v.255h.254v6.666h-1.1v.255h.251v6.947h-.561v.254h.1v9.493a.555.555,0,0,0,.538.571h5.9V60.029h.1v-.254Zm-3.24-8.1h.662v.48h-.662Zm0-.264v-.483h.662v.483Zm0-.747v-.483h.662v.483Zm0-.747v-.48h.662v.48Zm0-.747v-.48h.662v.48Zm0-.744v-.483h.662v.483Zm0-.747V47.2h.662v.48Zm0-.747v-.48h.662v.48Zm2.349,11.721v-.522h.721v.522Zm.721.287v.522h-.721v-.522Zm-.721-1.1v-.522h.721v.522Zm0-.809v-.522h.721v.522Zm0-.809v-.522h.721v.522Zm0-.809V54.9h.721v.522Zm-1.756-2.137V53.8h-.718v-.519Zm-.718,5.662h.718v.522h-.718Zm0-.287v-.522h.718v.522Zm0-.809v-.522h.718v.522Zm0-.809v-.522h.718v.522Zm0-.809v-.522h.718v.522Zm0-.809V54.9h.718v.522Zm0-.809v-.522h.718v.522Zm1.237,4.333h.718v.522h-.718Zm0-.287v-.522h.718v.522Zm0-.809v-.522h.718v.522Zm0-.809v-.522h.718v.522Zm0-.809v-.522h.718v.522Zm0-.809V54.9h.718v.522Zm0-.809v-.522h.718v.522Zm0-.809v-.519h.718V53.8Zm1.958.809h-.721v-.522h.721Zm-.721-.809v-.519h.721V53.8Zm-2.376,15.284h-.718v-.522h.718Zm0-.809h-.718v-.522h.718Zm0-.809h-.718v-.522h.718Zm0-.809h-.718v-.522h.718Zm0-.809h-.718v-.522h.718Zm0-.809h-.718v-.522h.718Zm0-.809h-.718v-.522h.718Zm0-.809h-.718V62.9h.718Zm0-.809h-.718v-.522h.718Zm0-.809h-.718v-.519h.718Zm1.24,7.283h-.721v-.522h.721Zm0-.809h-.721v-.522h.721Zm0-.809h-.721v-.522h.721Zm0-.809h-.721v-.522h.721Zm0-.809h-.721v-.522h.721Zm0-.809h-.721v-.522h.721Zm0-.809h-.721v-.522h.721Zm0-.809h-.721V62.9h.721Zm0-.809h-.721v-.522h.721Zm0-.809h-.721v-.519h.721Zm1.237,7.283h-.718v-.522h.718Zm0-.809h-.718v-.522h.718Zm0-.809h-.718v-.522h.718Zm0-.809h-.718v-.522h.718Zm0-.809h-.718v-.522h.718Zm0-.809h-.718v-.522h.718Zm0-.809h-.718v-.522h.718Zm0-.809h-.718V62.9h.718Zm0-.809h-.718v-.522h.718Zm0-.809h-.718v-.519h.718Zm1.237,7.283h-.718v-.522h.718Zm0-.809h-.718v-.522h.718Zm0-.809h-.718v-.522h.718Zm0-.809h-.718v-.522h.718Zm0-.809h-.718v-.522h.718Zm0-.809h-.718v-.522h.718Zm0-.809h-.718v-.522h.718Zm0-.809h-.718V62.9h.718Zm0-.809h-.718v-.522h.718Zm0-.809h-.718v-.519h.718ZM215.194,61v-.522h.718V61Zm1.237,0v-.522h.721V61Zm1.24,0v-.522h.718V61Zm1.237,0v-.522h.718V61Z" transform="translate(-213.112 -43.28)" fill="#fff"/>
      </g>
      <g id="Group_16423" data-name="Group 16423" transform="translate(0.982 0)">
        <path id="Path_10779" data-name="Path 10779" d="M223.062,43.281l-.792,3.107h2.8Z" transform="translate(-220.353 -43.281)" fill="#fff"/>
        <path id="Path_10780" data-name="Path 10780" d="M224.571,43.281l-.093,3.107h1.4Z" transform="translate(-221.861 -43.281)" fill="#fff"/>
        <g id="Group_16419" data-name="Group 16419" transform="translate(1.409 2.499)">
          <path id="Path_10781" data-name="Path 10781" d="M220.665,51.173V59.69h.31v-.209h.718v.209h.519v-.209h.718v.209h.519v-.209h.721v.209h.307V51.173Zm.434,5.635v-.483h.662v.483Zm.662.264v.48H221.1v-.48Zm-.662-1.012v-.483h.662v.483Zm0-.747v-.48h.662v.48Zm0-.747v-.48h.662v.48Zm0-.744V53.34h.662v.483Zm0-.747V52.6h.662v.48Zm0-.747v-.48h.662v.48Zm2.281,4.745h.666v.48h-.666Zm0-.264v-.483h.666v.483Zm0-.747v-.483h.666v.483Zm0-.747v-.48h.666v.48Zm0-.747v-.48h.666v.48Zm0-.744V53.34h.666v.483Zm0-.747V52.6h.666v.48Zm0-.747v-.48h.666v.48Zm-1.687,6.865h-.718v-.519h.718Zm1.237,0h-.718v-.519h.718Zm1.24,0h-.721v-.519h.721Z" transform="translate(-220.665 -51.173)" fill="#fff"/>
        </g>
        <g id="Group_16420" data-name="Group 16420" transform="translate(2.953 2.499)">
          <path id="Path_10782" data-name="Path 10782" d="M225.539,51.173V59.69h0v-.209h.718v.209h0V51.173Zm.721,8.021h-.718v-.519h.718Z" transform="translate(-225.539 -51.173)" fill="#fff"/>
        </g>
        <rect id="Rectangle_5950" data-name="Rectangle 5950" width="4.319" height="0.254" transform="translate(1.156 2.373)" fill="#fff"/>
        <g id="Group_16421" data-name="Group 16421" transform="translate(0.098 16.494)">
          <path id="Path_10783" data-name="Path 10783" d="M216.523,95.37v10.318h5.684a.773.773,0,0,0,.75-.793V95.37Zm1,1.22v-.522h.718v.522Zm1.237,0v-.522h.721v.522Zm1.24,0v-.522h.718v.522Zm1.955,0h-.718v-.522h.718Zm-3.713,8.089h-.718v-.522h.718Zm0-.809h-.718v-.522h.718Zm0-.809h-.718v-.522h.718Zm0-.809h-.718v-.522h.718Zm0-.809h-.718v-.522h.718Zm0-.809h-.718v-.522h.718Zm0-.809h-.718V99.3h.718Zm0-.809h-.718v-.522h.718Zm0-.809h-.718v-.522h.718Zm0-.809h-.718v-.519h.718Zm1.24,7.283h-.721v-.522h.721Zm0-.809h-.721v-.522h.721Zm0-.809h-.721v-.522h.721Zm0-.809h-.721v-.522h.721Zm0-.809h-.721v-.522h.721Zm0-.809h-.721v-.522h.721Zm0-.809h-.721V99.3h.721Zm0-.809h-.721v-.522h.721Zm0-.809h-.721v-.522h.721Zm0-.809h-.721v-.519h.721Zm1.237,7.283H220v-.522h.718Zm0-.809H220v-.522h.718Zm0-.809H220v-.522h.718Zm0-.809H220v-.522h.718Zm0-.809H220v-.522h.718Zm0-.809H220v-.522h.718Zm0-.809H220V99.3h.718Zm0-.809H220v-.522h.718Zm0-.809H220v-.522h.718Zm0-.809H220v-.519h.718Zm1.237,7.283h-.718v-.522h.718Zm0-.809h-.718v-.522h.718Zm0-.809h-.718v-.522h.718Zm0-.809h-.718v-.522h.718Zm0-.809h-.718v-.522h.718Zm0-.809h-.718v-.522h.718Zm0-.809h-.718V99.3h.718Zm0-.809h-.718v-.522h.718Zm0-.809h-.718v-.522h.718Zm0-.809h-.718v-.519h.718Z" transform="translate(-216.523 -95.37)" fill="#fff"/>
        </g>
        <g id="Group_16422" data-name="Group 16422" transform="translate(0.564 9.42)">
          <path id="Path_10784" data-name="Path 10784" d="M218,73.029v8.513h5.5V73.029Zm1.155,6.242h.718v.522h-.718Zm0-.287v-.522h.718v.522Zm0-.809v-.522h.718v.522Zm0-.809v-.522h.718v.522Zm0-.809v-.522h.718v.522Zm0-.809v-.522h.718v.522Zm0-.809v-.522h.718v.522Zm.718-1.328v.519h-.718V73.61Zm.519,5.662h.718v.522h-.718Zm0-.287v-.522h.718v.522Zm0-.809v-.522h.718v.522Zm0-.809v-.522h.718v.522Zm0-.809v-.522h.718v.522Zm0-.809v-.522h.718v.522Zm0-.809v-.522h.718v.522Zm.718-1.328v.519h-.718V73.61Zm.519,5.662h.721v.522h-.721Zm0-.287v-.522h.721v.522Zm0-.809v-.522h.721v.522Zm0-.809v-.522h.721v.522Zm0-.809v-.522h.721v.522Zm0-.809v-.522h.721v.522Zm0-.809v-.522h.721v.522Zm.721-1.328v.519h-.721V73.61Zm-3.1,7.714h-.718V80.8h.718Zm1.24,0h-.721V80.8h.721Zm1.237,0h-.718V80.8h.718Zm1.237,0h-.718V80.8h.718Z" transform="translate(-217.996 -73.029)" fill="#fff"/>
        </g>
        <rect id="Rectangle_5951" data-name="Rectangle 5951" width="6.631" height="0.254" transform="translate(0 16.495)" fill="#fff"/>
        <rect id="Rectangle_5952" data-name="Rectangle 5952" width="6.01" height="0.254" transform="translate(0.311 9.293)" fill="#fff"/>
      </g>
    </g>
    <path id="Path_10785" data-name="Path 10785" d="M121.452,181.674c0,.072,0,.147,0,.222v-.222Z" transform="translate(-82.991 -124.145)" fill="#fff"/>
    <path id="Path_10786" data-name="Path 10786" d="M121.462,164.438h-.013v-2.157h.01C121.459,163,121.462,163.72,121.462,164.438Z" transform="translate(-82.991 -110.893)" fill="#fff"/>
    <path id="Path_10787" data-name="Path 10787" d="M34.2,84.037c-6.931.052-9.052.02-15.982.042A17.459,17.459,0,0,1,3.276,76.7c-7.71-10.517-1.028-26.013,11.9-27.544.108-.013.219-.026.326-.036A10.562,10.562,0,0,1,17.077,49a22.047,22.047,0,0,1,6.14.761c2.287.747,1.488,4.033-.572,4.484a1.866,1.866,0,0,1-.623.111c-1.651.176-3.272.019-4.921.15-6.042.482-11.258,5-11.659,11.179A12.142,12.142,0,0,0,15.6,78.512a16.984,16.984,0,0,0,2.669.206c8.683.013,10.1.036,18.776-.006,1.093,0,1.495.258,1.465,1.416-.007.248-.01.5-.013.747H36.634A2.176,2.176,0,0,0,34.2,83.149Z" transform="translate(0 -33.481)" fill="#fff"/>
    <path id="Path_10788" data-name="Path 10788" d="M50.028,60.625" transform="translate(-34.186 -41.428)" fill="#fff"/>
    <g id="Group_16431" data-name="Group 16431" transform="translate(30.073 15.414)">
      <g id="Group_16425" data-name="Group 16425" transform="translate(29.619 4.513)">
        <path id="Path_10789" data-name="Path 10789" d="M193.474,75.742v-5.4h.205v-.2h-.9v-.32h-.095v-.375h.095v-.206h-.095v-.372h.095V68.67h-.095V68.3h.095V68.09h-.095v-.375h.095v-.206h-.095v-.372h.095v-.206h-.095v-.375h.095v-.206h-.095v-.372h.095v-.206h-.095V65.4h.095v-.424h.206v-.2h-.842l-.6-1.8v-.007l-.007-.016v0l-.006-.016,0,0v.007l-1.233,1.834h-.842v.2h.206v5.175h-.9v.2h.206v5.4h-.46v.2h.079v2.49h.806v-2.49h.382v.923h4.086v-.923h.078v-.2Zm-2.676.946h-.587v-.4h.587Zm1.015,0h-.591v-.4h.591Zm1.012,0h-.587v-.4h.587Zm1.015,0h-.587v-.4h.587Zm-3.022-7.234h.542v.375h-.542Zm0-.206v-.372h.542v.372Zm0-.578V68.3h.542v.375Zm0-.581v-.375h.542v.375Zm0-.581v-.372h.542v.372Zm0-.578v-.375h.542v.375Zm0-.581v-.372h.542v.372Zm0-.578V65.4h.542v.375Zm1.925,9.1v-.408h.591v.408Zm.591.222v.4h-.591v-.4Zm-.591-.852v-.4h.591v.4Zm0-.627v-.408h.591v.408Zm0-.63v-.4h.591v.4Zm0-.627v-.408h.591v.408ZM191.3,70.7V71.1h-.587V70.7Zm-.587,4.4h.587v.4h-.587Zm0-.222v-.408h.587v.408Zm0-.63v-.4h.587v.4Zm0-.627v-.408h.587v.408Zm0-.63v-.4h.587v.4Zm0-.627v-.408h.587v.408Zm0-.63v-.4h.587v.4Zm1.015,3.364h.587v.4h-.587Zm0-.222v-.408h.587v.408Zm0-.63v-.4h.587v.4Zm0-.627v-.408h.587v.408Zm0-.63v-.4h.587v.4Zm0-.627v-.408h.587v.408Zm0-.63v-.4h.587v.4Zm0-.626V70.7h.587V71.1Zm1.6.626h-.591v-.4h.591Zm-.591-.626V70.7h.591V71.1Z" transform="translate(-188.504 -62.931)" fill="#fff"/>
      </g>
      <g id="Group_16430" data-name="Group 16430">
        <path id="Path_10790" data-name="Path 10790" d="M196.65,62.938,196,65.35h2.291Z" transform="translate(-164.009 -58.422)" fill="#fff"/>
        <path id="Path_10791" data-name="Path 10791" d="M197.886,62.938l-.076,2.413h1.145Z" transform="translate(-165.244 -58.422)" fill="#fff"/>
        <g id="Group_16426" data-name="Group 16426" transform="translate(31.576 6.455)">
          <path id="Path_10792" data-name="Path 10792" d="M194.687,69.062v6.614h.255v-.16h.587v.16h.427v-.16h.587v.16h.424v-.16h.591v.16h.255V69.062Zm.356,4.376v-.372h.542v.372Zm.542.206v.375h-.542v-.375Zm-.542-.783v-.375h.542v.375Zm0-.581V71.9h.542v.375Zm0-.581v-.372h.542V71.7Zm0-.578v-.375h.542v.375Zm0-.581v-.372h.542v.372Zm0-.578v-.375h.542v.375Zm1.87,3.681h.545v.375h-.545Zm0-.206v-.372h.545v.372Zm0-.578v-.375h.545v.375Zm0-.581V71.9h.545v.375Zm0-.581v-.372h.545V71.7Zm0-.578v-.375h.545v.375Zm0-.581v-.372h.545v.372Zm0-.578v-.375h.545v.375Zm-1.383,5.332h-.587v-.408h.587Zm1.015,0h-.587v-.408h.587Zm1.015,0h-.591v-.408h.591Z" transform="translate(-194.687 -69.062)" fill="#fff"/>
        </g>
        <g id="Group_16427" data-name="Group 16427" transform="translate(32.842 6.455)">
          <path id="Path_10793" data-name="Path 10793" d="M198.685,69.062v6.614h0v-.16h.587v.16h0V69.062Zm.591,6.232h-.587v-.408h.587Z" transform="translate(-198.685 -69.062)" fill="#fff"/>
        </g>
        <rect id="Rectangle_5953" data-name="Rectangle 5953" width="3.538" height="0.197" transform="translate(31.369 6.358)" fill="#fff"/>
        <g id="Group_16428" data-name="Group 16428">
          <path id="Path_10794" data-name="Path 10794" d="M191.3,103.387v.2h.382v.923h4.086V111.4h.189a.618.618,0,0,0,.617-.617v-7.4Zm1.409.946h-.587v-.4h.587Zm1.015,0h-.591v-.4h.591Zm1.012,0h-.587v-.4h.587Zm1.015,0h-.587v-.4h.587Z" transform="translate(-160.794 -86.063)" fill="#fff"/>
          <path id="Path_10795" data-name="Path 10795" d="M115.9,97.654V96.9A3.834,3.834,0,0,0,115.9,97.654Zm3.517.434h.255c0-.039,0-.078.007-.114A.305.305,0,0,1,119.416,98.088Zm.291-10.814,0,.352.023,1.769V87.316Zm6.147-20.153V66.2h-.382v2.49h-3.991c-1.1.124-1.387-.31-1.377-1.374.046-5.785.006-11.574.042-17.363.006-.94-.229-1.286-1.23-1.273-3.831.055-7.662-.026-11.493.036A12.643,12.643,0,0,0,95.182,63.672a12.491,12.491,0,0,0,11.956,10.341c2.2.088,5.547.019,7.746,0,.715-.007,1.087.225,1.015.985-.026.281,0,.568,0,.855v5.55a3.225,3.225,0,0,1,2.278-.943,3.169,3.169,0,0,1,1.547.4c-.007-2.092-.016-3.955-.036-5.3-.013-1.145.274-1.582,1.488-1.543l3.935,0h4.829V67.121Zm-18.185,4.226a9.558,9.558,0,1,1,9.557-9.558A9.556,9.556,0,0,1,107.669,71.347Zm19.213,1.883h-.587v-.4h.587Zm0-.626h-.587v-.4h.587Zm0-.63h-.587v-.4h.587Zm0-.626h-.587v-.4h.587Zm0-.63h-.587v-.4h.587Zm0-.627h-.587v-.4h.587Zm0-.63h-.587v-.4h.587Zm0-.627h-.587v-.4h.587Zm0-.63h-.587v-.4h.587Zm0-.626h-.587V67.17h.587Zm1.015,5.651h-.591v-.4h.591Zm0-.626h-.591v-.4h.591Zm0-.63h-.591v-.4h.591Zm0-.626h-.591v-.4h.591Zm0-.63h-.591v-.4h.591Zm0-.627h-.591v-.4h.591Zm0-.63h-.591v-.4h.591Zm0-.627h-.591v-.4h.591Zm0-.63h-.591v-.4h.591Zm0-.626h-.591V67.17h.591Zm1.012,5.651h-.587v-.4h.587Zm0-.626h-.587v-.4h.587Zm0-.63h-.587v-.4h.587Zm0-.626h-.587v-.4h.587Zm0-.63h-.587v-.4h.587Zm0-.627h-.587v-.4h.587Zm0-.63h-.587v-.4h.587Zm0-.627h-.587v-.4h.587Zm0-.63h-.587v-.4h.587Zm0-.626h-.587V67.17h.587Zm1.015,5.651h-.587v-.4h.587Zm0-.626h-.587v-.4h.587Zm0-.63h-.587v-.4h.587Zm0-.626h-.587v-.4h.587Zm0-.63h-.587v-.4h.587Zm0-.627h-.587v-.4h.587Zm0-.63h-.587v-.4h.587Zm0-.627h-.587v-.4h.587Zm0-.63h-.587v-.4h.587Zm0-.626h-.587V67.17h.587Z" transform="translate(-94.97 -48.678)" fill="#fff"/>
        </g>
        <g id="Group_16429" data-name="Group 16429" transform="translate(30.885 11.829)">
          <path id="Path_10796" data-name="Path 10796" d="M192.5,86.034v6.614h4.51V86.034Zm.946,4.849h.587v.4h-.587Zm0-.222v-.408h.587v.408Zm0-.63v-.4h.587v.4Zm0-.627V89h.587V89.4Zm0-.63v-.4h.587v.4Zm0-.627V87.74h.587v.408Zm0-.63v-.4h.587v.4Zm.587-1.034v.408h-.587v-.408Zm.427,4.4h.587v.4h-.587Zm0-.222v-.408h.587v.408Zm0-.63v-.4h.587v.4Zm0-.627V89h.587V89.4Zm0-.63v-.4h.587v.4Zm0-.627V87.74h.587v.408Zm0-.63v-.4h.587v.4Zm.587-1.034v.408h-.587v-.408Zm.424,4.4h.591v.4h-.591Zm0-.222v-.408h.591v.408Zm0-.63v-.4h.591v.4Zm0-.627V89h.591V89.4Zm0-.63v-.4h.591v.4Zm0-.627V87.74h.591v.408Zm0-.63v-.4h.591v.4Zm.591-1.034v.408h-.591v-.408Zm-2.535,5.991h-.587v-.4h.587Zm1.015,0h-.591v-.4h.591Zm1.012,0h-.587v-.4h.587Zm1.015,0h-.587v-.4h.587Z" transform="translate(-192.502 -86.034)" fill="#fff"/>
        </g>
        <rect id="Rectangle_5954" data-name="Rectangle 5954" width="5.433" height="0.196" transform="translate(30.42 17.325)" fill="#fff"/>
        <rect id="Rectangle_5955" data-name="Rectangle 5955" width="4.923" height="0.197" transform="translate(30.676 11.732)" fill="#fff"/>
      </g>
    </g>
    <g id="Group_16434" data-name="Group 16434" transform="translate(84.606 0)">
      <g id="Group_16432" data-name="Group 16432" transform="translate(0 0)">
        <path id="Path_10797" data-name="Path 10797" d="M487.84,82.69h-.31l0,.264A.318.318,0,0,1,487.84,82.69Zm-.343,5.09,0,.307h.313A.309.309,0,0,1,487.5,87.781Zm-9.7.307h8.781l-4.842-.016C480.387,88.078,479.079,88.084,477.793,88.088Zm5.24-18.861a2.991,2.991,0,0,0,.16.362C483.145,69.468,483.092,69.348,483.034,69.227ZM477.271,82.72h.183a1.488,1.488,0,0,0,.333-.029h-.516Z" transform="translate(-410.745 -47.306)" fill="#fff"/>
        <path id="Path_10798" data-name="Path 10798" d="M370.211,33.074l-.506-1.446c-.111-.346-.17-.532-.228-.662-.4-.855-.411-.793-.787-1.524-.193-.378-.424-.8-.584-1.194a6.712,6.712,0,0,0-2.548-3.158c-.082.091-.124.117-.134.153-.284.94-.591,1.876-.845,2.822a2.164,2.164,0,0,1-2.4,1.909c-.623,0-1.243,0-1.863-.01a1.869,1.869,0,0,1-1.935-1.377c-.176-.568-.346-1.139-.525-1.71-.189-.594-.382-1.191-.6-1.853-.284.209-.483.333-.656.49a10.16,10.16,0,0,0-2.871,4.353c-.14.4-.16.388-.362.907-.081.212-.183.486-.339.855h.006l-.522,1.446a8.712,8.712,0,0,0-.372,2.31h-7.505a.313.313,0,0,0,.31-.313c0-2.1,0-4.137,0-6.849,0-.365,0-.721,0-1.07,0-.613-.02-1.211-.062-1.8v-.016c-.069-.741-.18-1.465-.29-2.033a.1.1,0,0,0-.007-.033,10.284,10.284,0,0,0-.277-1.041s0-.006,0-.006a2.014,2.014,0,0,0-.166-.31,3.76,3.76,0,0,0-1.348-1.194.312.312,0,0,1-.157-.209l-.114-.538a.314.314,0,0,1,.179-.349l.016-.01a.314.314,0,0,0,.18-.349l-.408-1.886a.3.3,0,0,0-.323-.244l-.287.016a.312.312,0,0,1-.307-.183l-2.911-6.634s0-.01-.006-.013l-4.464-8.856-.023-.039c.277-.754.483-1.243.483-1.243L334.608,0s-3-.029-4.715,1.573-4.842,5.342-4.842,5.342l.013.013L320.416,12.5l-.02.026-.956-.114a.4.4,0,0,0-.45.427l.1,1.26a.417.417,0,0,1-.075.271c-.147.2-.519.715-1.426,2a.418.418,0,0,1-.421.16c-2.565-.473-3.945,2.343-4.334,3.4-.352.962,1.149,2.522,1.527,2.9a.4.4,0,0,1,.111.2l.522,2.434a.4.4,0,0,0,.13.222l2.2,1.89a.66.66,0,0,0,1-.15l.982-1.579a.4.4,0,0,0,.052-.3l-.415-1.162a.285.285,0,0,1-.016-.157,1.678,1.678,0,0,1,.186-.418c.415-.6,2.033-2.93,2.8-4.059a.385.385,0,0,0,.046-.365,4.3,4.3,0,0,1-.134-2.062,18.5,18.5,0,0,1,1.508-1.521s4.559-4.372,7.44-7.548a.31.31,0,0,1,.493.042c1.3,2.092,5.5,8.915,7.5,12.889a3.793,3.793,0,0,1,.346.715s0,0,0,.007c.059.121.127.225.176.346a.047.047,0,0,1,.007.02,1.305,1.305,0,0,1,.065.206c.16.718.114,3.162.173,5.221.065,2.242.049,4.487,0,6.729a1.118,1.118,0,0,1-.336.61.312.312,0,0,1-.493-.02,1.082,1.082,0,0,1-.258-.561c-.049-2-.036-3.994-.036-5.994-.007-4.092-2.513-6.631-6.624-6.667q-3.671-.034-7.339,0c-2.4.023-2.085-.29-2.095,2.066-.016,3.71,0,7.42,0,11.14a.313.313,0,0,1-.212.3,1.122,1.122,0,0,1-.336.078c-2.61.01-5.221.046-7.828-.026h-3.443l-8.282,7.678a.313.313,0,0,1-.427,0l-7.831-7.5-.095-.092h-.111l-2.389.01c-.884,0-1.2-.29-1.178-1.207.052-2.323.088-4.653-.013-6.973A12.09,12.09,0,0,0,279.68,15.7a113.08,113.08,0,0,0-11.724-.222c-.248,0-.685.519-.708.819-.088,1.136.007,2.284-.059,3.423-.055.943.339,1.171,1.22,1.162,3.182-.036,6.366-.055,9.544.02a6.97,6.97,0,0,1,6.875,6.872c.042,1.507.016,3.018.02,4.526,0,.9,0,1.811,0,2.81a.313.313,0,0,1-.31.313H281.23c-4.281,0-8.562.013-12.847-.026-.9-.006-1.253.258-1.188,1.185a24.445,24.445,0,0,1-.006,3.057c-.052.9.274,1.175,1.191,1.175,9.626-.033,11.581-.01,21.2-.052l1.449-.01a2.1,2.1,0,0,1,1.455.581l6.383,6.115,1.6,1.53A2.213,2.213,0,0,0,303.5,49l1.723-1.592,6.575-6.076a1.97,1.97,0,0,1,1.341-.525h.64c7.064-.026,13.17-.007,19.892-.026h.558c1.286,0,2.594-.01,3.939-.016l4.842.016h.92l0-.307a.309.309,0,0,0,.31.307h25.5v-.065l.515-2.8A8.656,8.656,0,0,0,370.211,33.074Zm-49.2-18.051-.871,1.348a.4.4,0,1,1-.672-.444l1.123-1.684.114.065.229.186A.4.4,0,0,1,321.014,15.023ZM325.67,7.8l-4.056,6-.3.111-.268-1.048a.381.381,0,0,0-.189-.245l4.32-5.188a.308.308,0,0,1,.437-.039.3.3,0,0,1,.111.238A.308.308,0,0,1,325.67,7.8Zm12.781,3.5c-.111.653-.94.346-1.2.232a.3.3,0,0,1-.127-.1l-4.082-5.74a.312.312,0,0,1-.033-.3.746.746,0,0,0,.052-.2,11.929,11.929,0,0,1,.662-2.565.311.311,0,0,1,.571-.036l4.206,8.438C338.487,11.111,338.468,11.2,338.451,11.3Zm1.021,10.618c.059.121.111.241.16.362A2.971,2.971,0,0,1,339.473,21.921Zm-5.58,13.493h-.183c-1.158-.013-2.32,0-3.478,0-1.139,0-2.284.062-3.416-.036a1.213,1.213,0,0,1-.839-.816c-.065-2.767-.062-5.534-.006-8.3a1.083,1.083,0,0,1,.76-.747c1.87-.062,3.743-.085,5.612,0a2.338,2.338,0,0,1,2.382,2.444c.068,2.2.016,4.4.042,6.591.007.506-.166.76-.542.839A1.488,1.488,0,0,1,333.893,35.414Zm10.073.235,0-.264h.31A.318.318,0,0,0,343.966,35.649Zm23.373-.264c-.046.075-.092.147-.137.222a7.11,7.11,0,0,1-1.71,1.873,6.616,6.616,0,0,1-8.073,0,7.2,7.2,0,0,1-1.844-2.095h-.055c0-.029,0-.059.006-.092a7.429,7.429,0,0,1-.953-3.664h13.764A7.478,7.478,0,0,1,367.339,35.385Z" transform="translate(-267.184 0)" fill="#fff"/>
      </g>
      <g id="Group_16433" data-name="Group 16433" transform="translate(91.504 22.906)">
        <path id="Path_10799" data-name="Path 10799" d="M561.423,74.232c-.207.649-.34,1.322-.505,1.984-.225.919-.469,1.115-1.409,1.128-.215,0-.426,0-.641,0-1.84,0-1.838,0-2.265-1.764a14.456,14.456,0,0,0-.4-1.484c-.139-.393-.005-.56.351-.647a1.256,1.256,0,0,0,1.055-.82c.045-.133.333-.238.521-.264.335-.044.683-.01,1.023-.023.419-.018.757-.023.927.529.076.246.552.416.88.523C561.421,73.541,561.575,73.745,561.423,74.232Z" transform="translate(-556.152 -72.336)" fill="#fff"/>
      </g>
    </g>
    <g id="Group_16435" data-name="Group 16435" transform="translate(34.516 47.445)">
      <path id="Path_10800" data-name="Path 10800" d="M121.583,164.577v3.237c0,.248-.095.372-.29.372H111.119q-2.119,0-2.118-2.225V153.032q0-2.276,2.118-2.277h9.975c.255,0,.385.14.385.424v3.211c0,.238-.13.359-.385.359h-8.151v2.157h5.485a.362.362,0,0,1,.4.415v3.129a.389.389,0,0,1-.441.44h-5.446v3.328h8.35C121.489,164.218,121.583,164.339,121.583,164.577Z" transform="translate(-109.001 -150.462)" fill="#fff"/>
      <path id="Path_10801" data-name="Path 10801" d="M164.9,178.353c0,2.953,0,5.668,0,7.463,0,.333-.029.662-.052,1.116a.4.4,0,0,0,.072-.258v-6.924Zm-3.178,8.667c-.437,0-.6-.176-.656-.408v.062c0,.248.117.372.346.372h3.159C163.239,187.042,163.168,187.029,161.719,187.02Z" transform="translate(-144.577 -169.321)" fill="#fff"/>
      <path id="Path_10802" data-name="Path 10802" d="M175.629,150.893V166.18a1.778,1.778,0,0,1-1.53,2,2.443,2.443,0,0,1-2.584-1.2l-5.632-8.19-.989-1.635-.026-.042.026,2.121c0,2.953,0,5.668,0,7.462,0,.333-.029.662-.052,1.116a.305.305,0,0,1-.261.114h-.013c-1.328,0-1.4-.016-2.849-.026-.437,0-.6-.176-.656-.408V152.573a2.344,2.344,0,0,1,.427-1.472,2.086,2.086,0,0,1,1.305-.727l1.371.121a2.85,2.85,0,0,1,.646.326.665.665,0,0,1,.075.055,1.568,1.568,0,0,1,.4.431l5.515,7.988L171.822,161l-.055-3.531v-6.578c0-.264.117-.4.349-.4h3.143C175.506,150.495,175.629,150.628,175.629,150.893Z" transform="translate(-144.575 -150.202)" fill="#fff"/>
      <path id="Path_10803" data-name="Path 10803" d="M231.716,159.563h-3.181c-.268,0-.4.114-.4.346V163.9l-2.744.163a3.784,3.784,0,0,1-3.26-1.56,6.111,6.111,0,0,1-1.015-3.687,8.284,8.284,0,0,1,.235-2.053,4.78,4.78,0,0,1,.725-1.612,3.515,3.515,0,0,1,6.046.415.5.5,0,0,0,.64.186L231.7,154.6c.274-.1.326-.317.16-.653a6.95,6.95,0,0,0-6.794-4.115,7.262,7.262,0,0,0-5.671,2.49,9.318,9.318,0,0,0-2.278,6.5,9.523,9.523,0,0,0,2.238,6.631,7.689,7.689,0,0,0,5.926,2.369l4.686-.359a2.772,2.772,0,0,0,1.612-.819,2.4,2.4,0,0,0,.532-1.644V159.91C232.114,159.678,231.983,159.563,231.716,159.563Z" transform="translate(-182.883 -149.83)" fill="#fff"/>
      <path id="Path_10804" data-name="Path 10804" d="M280.813,150.757h-3.185c-.274,0-.411.13-.411.4v16.661a.329.329,0,0,0,.372.372h3.224c.258,0,.385-.124.385-.372V151.155C281.2,150.887,281.071,150.757,280.813,150.757Z" transform="translate(-223.95 -150.463)" fill="#fff"/>
      <path id="Path_10805" data-name="Path 10805" d="M317.235,150.5h-3.143c-.231,0-.346.13-.346.4v6.578L313.8,161l-1.025-1.706-5.511-7.988a1.678,1.678,0,0,0-.473-.486,2.982,2.982,0,0,0-.646-.326l-1.374-.121a2.077,2.077,0,0,0-1.305.724,2.347,2.347,0,0,0-.424,1.472v14.984c0,.248.114.372.346.372h3.155c.232,0,.346-.124.346-.372v-6.928l-.039-3.514,1.011,1.677,5.632,8.19a2.44,2.44,0,0,0,2.584,1.2,1.775,1.775,0,0,0,1.534-2V150.895C317.61,150.627,317.482,150.5,317.235,150.5Z" transform="translate(-241.596 -150.203)" fill="#fff"/>
      <path id="Path_10806" data-name="Path 10806" d="M374.337,164.21h-8.35v-3.328h5.446a.441.441,0,0,0,.44-.441v-3.129a.359.359,0,0,0-.4-.411h-5.485v-2.157h8.148c.258,0,.388-.121.388-.362v-3.207c0-.284-.13-.427-.388-.427h-2.921a2.8,2.8,0,0,0-1.889.738l-.989.91a2.25,2.25,0,0,1-3.064-.029l-1.126-1.035a1.181,1.181,0,0,0-1.857.3,3.3,3.3,0,0,0-.245,1.4v12.932q0,2.222,2.118,2.222h10.174c.193,0,.291-.124.291-.372v-3.233C374.627,164.331,374.529,164.21,374.337,164.21Z" transform="translate(-281.916 -150.457)" fill="#fff"/>
      <path id="Path_10807" data-name="Path 10807" d="M426.1,164.22h-8.35v-3.332H423.2a.387.387,0,0,0,.437-.437v-3.129c0-.277-.134-.415-.4-.415h-5.488v-2.157H425.9c.258,0,.385-.121.385-.359v-3.211c0-.284-.127-.424-.385-.424h-9.975q-2.115,0-2.118,2.278v12.928q0,2.227,2.118,2.225H426.1q.294,0,.294-.372v-3.237C426.391,164.338,426.293,164.22,426.1,164.22Z" transform="translate(-317.286 -150.463)" fill="#fff"/>
      <path id="Path_10808" data-name="Path 10808" d="M480.625,167.793l-4.076-6.259a5.6,5.6,0,0,0,1.426-9.309,6.674,6.674,0,0,0-4.33-1.344h-5.952q-2.114,0-2.117,2.264V167.9c0,.248.114.372.346.372h3.237a.324.324,0,0,0,.359-.372v-5.769h2.865l3.86,5.955a.551.551,0,0,0,.48.186H480.4C480.69,168.273,480.766,168.113,480.625,167.793Zm-7.058-9.241h-4.049v-3.916h4.049q2.3,0,2.3,1.824Q475.871,158.551,473.567,158.552Z" transform="translate(-352.663 -150.548)" fill="#fff"/>
      <path id="Path_10809" data-name="Path 10809" d="M534.9,158.342a6.938,6.938,0,0,0-1.609-.806,18.128,18.128,0,0,0-2.385-.688q-1.091-.264-1.746-.45a6.683,6.683,0,0,1-.878-.294,1.142,1.142,0,0,1-.8-1.08q0-1.37,2.252-1.37a5.418,5.418,0,0,1,3.808,1.651c.088.134.248.114.48-.052l2.278-2.118c.212-.16.232-.33.052-.506a9.005,9.005,0,0,0-8.934-2.418,6.014,6.014,0,0,0-2.04,1.057,4.526,4.526,0,0,0-1.971,3.838,4.352,4.352,0,0,0,1.508,3.583,9.464,9.464,0,0,0,3.912,1.609q1.238.294,2.026.522a5.458,5.458,0,0,1,1.132.424,1.31,1.31,0,0,1,.783,1.24q0,1.611-2.822,1.612a5.978,5.978,0,0,1-2.356-.447,5.666,5.666,0,0,1-1.919-1.367.426.426,0,0,0-.251-.156.22.22,0,0,0-.2.078l-2.3,2.049c-.186.2-.215.376-.091.535a8.269,8.269,0,0,0,6.911,3.061,11.626,11.626,0,0,0,3.09-.372,5.9,5.9,0,0,0,2.262-1.145,4.956,4.956,0,0,0,1.746-4.033A4.567,4.567,0,0,0,534.9,158.342Z" transform="translate(-391.73 -149.858)" fill="#fff"/>
    </g>
  </g>
</svg>
