<svg xmlns="http://www.w3.org/2000/svg" width="179.612" height="45.713" viewBox="0 0 179.612 45.713">
  <g id="Group_1" data-name="Group 1" transform="translate(-139.028 -64.057)">
    <path id="Path_10370" data-name="Path 10370" d="M26.338,0H21.665V-12.568q0-2.036.176-4.5h-.117a22.129,22.129,0,0,1-.659,2.783L16.143,0H12.275L7.266-14.136a27.507,27.507,0,0,1-.659-2.93H6.475q.19,3.105.19,5.449V0H2.4V-21.006H9.331L13.623-8.555a17.531,17.531,0,0,1,.747,3h.088a30.237,30.237,0,0,1,.835-3.032l4.292-12.422h6.753Zm16.8,0H38.76V-2.153H38.7A4.889,4.889,0,0,1,34.233.366,4.673,4.673,0,0,1,30.8-.872a4.435,4.435,0,0,1-1.252-3.3q0-4.365,5.171-5.039l4.072-.542q0-2.461-2.666-2.461a9.1,9.1,0,0,0-5.1,1.6v-3.486a11.468,11.468,0,0,1,2.644-.879,13.9,13.9,0,0,1,3.054-.381q6.416,0,6.416,6.4ZM38.789-6.094V-7.1l-2.725.352q-2.256.293-2.256,2.036a1.683,1.683,0,0,0,.549,1.3,2.111,2.111,0,0,0,1.487.505,2.74,2.74,0,0,0,2.124-.9A3.254,3.254,0,0,0,38.789-6.094ZM61.289,0H56.675V-8.335q0-3.486-2.49-3.486a2.471,2.471,0,0,0-1.978.923,3.516,3.516,0,0,0-.776,2.344V0H46.8V-15h4.629v2.373h.059a5.3,5.3,0,0,1,4.819-2.739q4.98,0,4.98,6.182ZM77.432,0h-4.38V-2.153h-.059A4.889,4.889,0,0,1,68.525.366,4.673,4.673,0,0,1,65.09-.872a4.435,4.435,0,0,1-1.252-3.3q0-4.365,5.171-5.039l4.072-.542q0-2.461-2.666-2.461a9.1,9.1,0,0,0-5.1,1.6v-3.486a11.468,11.468,0,0,1,2.644-.879,13.9,13.9,0,0,1,3.054-.381q6.416,0,6.416,6.4ZM73.081-6.094V-7.1l-2.725.352Q68.1-6.46,68.1-4.717a1.683,1.683,0,0,0,.549,1.3,2.111,2.111,0,0,0,1.487.505,2.74,2.74,0,0,0,2.124-.9A3.254,3.254,0,0,0,73.081-6.094ZM80.112-.4v-3.75A9.855,9.855,0,0,0,82.39-3.12a7.552,7.552,0,0,0,2.146.337,4.6,4.6,0,0,0,1.941-.337,1.088,1.088,0,0,0,.71-1.025.949.949,0,0,0-.322-.732,3,3,0,0,0-.828-.513,9.392,9.392,0,0,0-1.106-.4q-.6-.176-1.157-.4A11.088,11.088,0,0,1,82.2-6.907a4.552,4.552,0,0,1-1.143-.9,3.541,3.541,0,0,1-.7-1.187,4.735,4.735,0,0,1-.242-1.6,4.11,4.11,0,0,1,.549-2.168,4.487,4.487,0,0,1,1.465-1.487,6.693,6.693,0,0,1,2.095-.85,10.922,10.922,0,0,1,2.454-.271,13.614,13.614,0,0,1,2.021.154,15.088,15.088,0,0,1,2.021.447v3.574a7.3,7.3,0,0,0-1.882-.769,7.94,7.94,0,0,0-1.97-.256,4.365,4.365,0,0,0-.857.081,2.822,2.822,0,0,0-.71.234,1.3,1.3,0,0,0-.483.4.91.91,0,0,0-.176.549,1.015,1.015,0,0,0,.264.7,2.29,2.29,0,0,0,.688.505,6.8,6.8,0,0,0,.945.381q.52.168,1.033.344a13.427,13.427,0,0,1,1.67.7,5.339,5.339,0,0,1,1.282.894,3.509,3.509,0,0,1,.82,1.2,4.269,4.269,0,0,1,.286,1.641,4.279,4.279,0,0,1-.579,2.278A4.633,4.633,0,0,1,89.509-.769,6.975,6.975,0,0,1,87.3.1a12.262,12.262,0,0,1-2.6.271A13.4,13.4,0,0,1,80.112-.4Zm26.66.4h-4.38V-2.153h-.059A4.889,4.889,0,0,1,97.866.366,4.673,4.673,0,0,1,94.431-.872a4.435,4.435,0,0,1-1.252-3.3q0-4.365,5.171-5.039l4.072-.542q0-2.461-2.666-2.461a9.1,9.1,0,0,0-5.1,1.6v-3.486a11.468,11.468,0,0,1,2.644-.879,13.9,13.9,0,0,1,3.054-.381q6.416,0,6.416,6.4Zm-4.351-6.094V-7.1L99.7-6.753q-2.256.293-2.256,2.036a1.683,1.683,0,0,0,.549,1.3,2.111,2.111,0,0,0,1.487.505,2.74,2.74,0,0,0,2.124-.9A3.254,3.254,0,0,0,102.422-6.094Z" transform="translate(138.856 86.004)" fill="#f7a51a"/>
    <path id="Path_10371" data-name="Path 10371" d="M21.57,0H16.242L14.7-4.829H6.978L5.449,0H.151l7.9-21.706h5.8ZM13.578-8.583l-2.331-7.3a9.508,9.508,0,0,1-.363-1.953h-.121a8.279,8.279,0,0,1-.378,1.892L8.022-8.583Zm20.344-2.6a4.149,4.149,0,0,0-2.013-.469,2.9,2.9,0,0,0-2.437,1.143A4.986,4.986,0,0,0,28.593-7.4V0H23.81V-15.5h4.783v2.876h.061q1.135-3.148,4.087-3.148a3.08,3.08,0,0,1,1.181.182ZM47.771-.56a9.458,9.458,0,0,1-4.677.938,7.91,7.91,0,0,1-5.782-2.165A7.476,7.476,0,0,1,35.1-7.372,8.235,8.235,0,0,1,37.471-13.6a8.755,8.755,0,0,1,6.335-2.278,8.128,8.128,0,0,1,3.966.727V-11.1a5.453,5.453,0,0,0-3.345-1.12,4.408,4.408,0,0,0-3.262,1.2,4.49,4.49,0,0,0-1.2,3.323,4.417,4.417,0,0,0,1.15,3.232,4.228,4.228,0,0,0,3.164,1.173,6.313,6.313,0,0,0,3.5-1.12ZM65.784,0H61.016V-8.81q0-3.406-2.482-3.406a2.541,2.541,0,0,0-2.059.954,3.678,3.678,0,0,0-.787,2.422V0H50.9V-22.947h4.783V-13.2h.061a5.435,5.435,0,0,1,4.768-2.679q5.268,0,5.268,6.357Z" transform="translate(252.856 87.004)" fill="#020621"/>
    <path id="Path_10372" data-name="Path 10372" d="M10.141,0H8.688L7.5-3.141H2.75L1.633,0H.172l4.3-11.2H5.828ZM7.07-4.32,5.313-9.094a4.571,4.571,0,0,1-.172-.75H5.109a4.185,4.185,0,0,1-.18.75L3.188-4.32ZM13.346,0H12.065V-11.844h1.281Zm4.323,0H16.388V-11.844h1.281Zm14.24-8-3.68,9.281q-.984,2.484-2.766,2.484a2.932,2.932,0,0,1-.836-.1V2.516a2.375,2.375,0,0,0,.758.141A1.57,1.57,0,0,0,26.839,1.5l.641-1.516L24.354-8h1.422L27.94-1.844q.039.117.164.609h.047q.039-.187.156-.594L30.581-8ZM37.076.188A3.711,3.711,0,0,1,34.244-.934a4.153,4.153,0,0,1-1.059-2.973,4.326,4.326,0,0,1,1.1-3.148,3.96,3.96,0,0,1,2.977-1.133,3.588,3.588,0,0,1,2.793,1.1,4.368,4.368,0,0,1,1,3.055A4.3,4.3,0,0,1,39.978-.965,3.791,3.791,0,0,1,37.076.188Zm.094-7.3a2.437,2.437,0,0,0-1.953.84A3.449,3.449,0,0,0,34.5-3.953a3.262,3.262,0,0,0,.727,2.242,2.469,2.469,0,0,0,1.945.82,2.342,2.342,0,0,0,1.91-.8,3.492,3.492,0,0,0,.668-2.289A3.552,3.552,0,0,0,39.08-6.3,2.332,2.332,0,0,0,37.17-7.109ZM50.024,0H48.743V-1.266h-.031A2.631,2.631,0,0,1,46.243.188q-2.859,0-2.859-3.406V-8h1.273v4.578q0,2.531,1.938,2.531a1.96,1.96,0,0,0,1.543-.691,2.645,2.645,0,0,0,.605-1.809V-8h1.281ZM64.529,0H63.248V-4.562q0-2.547-1.859-2.547a2.017,2.017,0,0,0-1.59.723,2.679,2.679,0,0,0-.629,1.824V0H57.889V-8H59.17v1.328H59.2a2.887,2.887,0,0,1,2.625-1.516,2.448,2.448,0,0,1,2.008.848,3.776,3.776,0,0,1,.7,2.449Zm9.292-3.68H68.173a2.992,2.992,0,0,0,.719,2.063,2.478,2.478,0,0,0,1.891.727,3.931,3.931,0,0,0,2.484-.891v1.2a4.643,4.643,0,0,1-2.789.766A3.381,3.381,0,0,1,67.813-.9a4.461,4.461,0,0,1-.969-3.066A4.375,4.375,0,0,1,67.9-7.012a3.394,3.394,0,0,1,2.629-1.176,3.008,3.008,0,0,1,2.43,1.016,4.234,4.234,0,0,1,.859,2.82ZM72.509-4.766a2.607,2.607,0,0,0-.535-1.727,1.823,1.823,0,0,0-1.465-.617,2.07,2.07,0,0,0-1.539.648,2.943,2.943,0,0,0-.781,1.7ZM82.636-3.68H76.988a2.992,2.992,0,0,0,.719,2.063A2.478,2.478,0,0,0,79.6-.891a3.931,3.931,0,0,0,2.484-.891v1.2a4.643,4.643,0,0,1-2.789.766A3.381,3.381,0,0,1,76.628-.9a4.461,4.461,0,0,1-.969-3.066,4.375,4.375,0,0,1,1.059-3.043,3.394,3.394,0,0,1,2.629-1.176,3.008,3.008,0,0,1,2.43,1.016,4.234,4.234,0,0,1,.859,2.82ZM81.324-4.766a2.607,2.607,0,0,0-.535-1.727,1.823,1.823,0,0,0-1.465-.617,2.07,2.07,0,0,0-1.539.648A2.943,2.943,0,0,0,77-4.766ZM91.85,0H90.569V-1.359h-.031A2.958,2.958,0,0,1,87.787.188a2.988,2.988,0,0,1-2.41-1.074,4.407,4.407,0,0,1-.9-2.926,4.794,4.794,0,0,1,1-3.18,3.3,3.3,0,0,1,2.664-1.2,2.564,2.564,0,0,1,2.4,1.3h.031v-4.953H91.85ZM90.569-3.617V-4.8a2.289,2.289,0,0,0-.641-1.641A2.149,2.149,0,0,0,88.3-7.109a2.212,2.212,0,0,0-1.844.859,3.766,3.766,0,0,0-.672,2.375,3.387,3.387,0,0,0,.645,2.184,2.107,2.107,0,0,0,1.73.8A2.188,2.188,0,0,0,89.9-1.664,2.882,2.882,0,0,0,90.569-3.617Z" transform="translate(138.856 106.004)" fill="#020621"/>
  </g>
</svg>
