<svg xmlns="http://www.w3.org/2000/svg" width="292.305" height="275.875" viewBox="0 0 292.305 275.875">
  <g id="Group_70" data-name="Group 70" transform="translate(-83.697 -64.049)" style="mix-blend-mode: multiply;isolation: isolate">
    <text id="TERRACE_" data-name="TERRACE " transform="translate(202.669 97.874)" fill="#f7f9f9" font-size="6" font-family="Quicksand-Bold, Quicksand" font-weight="700"><tspan x="0" y="0">TERRACE </tspan></text>
    <text id="BEDROOM_" data-name="BEDROOM " transform="translate(303.183 298.756)" fill="#f7f9f9" font-size="6" font-family="Quicksand-Bold, Quicksand" font-weight="700"><tspan x="0" y="0">BEDROOM </tspan></text>
    <text id="DRESSING_ROOM" data-name="DRESSING
ROOM" transform="translate(254.756 276.974)" fill="#f7f9f9" font-size="6" font-family="Quicksand-Bold, Quicksand" font-weight="700"><tspan x="-14.622" y="0">DRESSING</tspan><tspan x="-9.042" y="7">ROOM</tspan></text>
    <text id="BATHROOM_" data-name="BATHROOM " transform="translate(115.881 274.174)" fill="#f7f9f9" font-size="6" font-family="Quicksand-Bold, Quicksand" font-weight="700"><tspan x="0" y="0">BATHROOM </tspan></text>
    <text id="LIVING_ROOM" data-name="LIVING
ROOM" transform="translate(204.653 173.813)" fill="#f7f9f9" font-size="6" font-family="Quicksand-Bold, Quicksand" font-weight="700"><tspan x="-9.663" y="0">LIVING</tspan><tspan x="-9.042" y="7">ROOM</tspan></text>
    <path id="Path_16" data-name="Path 16" d="M171.676,145.2h23.047s1.5-20.758-23.047-20.486" transform="translate(-10.855 -7.499)" fill="none" stroke="#dbdbdb" stroke-linejoin="round" stroke-width="1.098"/>
    <path id="Path_17" data-name="Path 17" d="M167.93,188.634H144.883s-1.5-20.758,23.047-20.486" transform="translate(-7.49 -12.951)" fill="none" stroke="#dbdbdb" stroke-linejoin="round" stroke-width="1.098"/>
    <path id="Path_18" data-name="Path 18" d="M203.657,311.75H180.61s-1.5-20.758,23.047-20.487" transform="translate(-11.974 -28.404)" fill="none" stroke="#dbdbdb" stroke-linejoin="round" stroke-width="1.098"/>
    <path id="Path_19" data-name="Path 19" d="M220.9,374.613V351.566s20.758-1.5,20.486,23.047" transform="translate(-17.033 -35.971)" fill="none" stroke="#dbdbdb" stroke-linejoin="round" stroke-width="1.098"/>
    <path id="Path_20" data-name="Path 20" d="M258.071,234.493h23.047s1.5,20.758-23.047,20.486" transform="translate(-21.699 -21.278)" fill="none" stroke="#dbdbdb" stroke-linejoin="round" stroke-width="1.098"/>
    <path id="Path_21" data-name="Path 21" d="M223.863,148.03V124.983s20.758-1.5,20.486,23.047" transform="translate(-17.405 -7.531)" fill="none" stroke="#dbdbdb" stroke-linejoin="round" stroke-width="1.098"/>
    <rect id="Rectangle_4" data-name="Rectangle 4" width="9.474" height="17.052" transform="translate(315.381 278.576) rotate(-90)" fill="none" stroke="#dbdbdb" stroke-miterlimit="10" stroke-width="1.14"/>
    <g id="Group_31" data-name="Group 31" transform="translate(236.57 307.492)">
      <rect id="Rectangle_5" data-name="Rectangle 5" width="45.677" height="16.354" fill="none" stroke="#dbdbdb" stroke-miterlimit="10" stroke-width="1.098"/>
      <line id="Line_248" data-name="Line 248" y1="16.354" x2="45.677" fill="none" stroke="#dbdbdb" stroke-miterlimit="10" stroke-width="1.098"/>
      <line id="Line_249" data-name="Line 249" x2="45.677" y2="16.354" fill="none" stroke="#dbdbdb" stroke-miterlimit="10" stroke-width="1.098"/>
    </g>
    <g id="Group_32" data-name="Group 32" transform="translate(321.91 64.969)">
      <rect id="Rectangle_6" data-name="Rectangle 6" width="50.294" height="11.821" transform="translate(50.294 11.821) rotate(180)" fill="none" stroke="#dbdbdb" stroke-miterlimit="10" stroke-width="1.193"/>
      <line id="Line_250" data-name="Line 250" x1="50.294" y2="11.821" transform="translate(0 0)" fill="none" stroke="#dbdbdb" stroke-miterlimit="10" stroke-width="1.193"/>
      <line id="Line_251" data-name="Line 251" x1="50.294" y1="11.821" transform="translate(0 0)" fill="none" stroke="#dbdbdb" stroke-miterlimit="10" stroke-width="1.193"/>
    </g>
    <g id="Group_33" data-name="Group 33" transform="translate(271.616 64.969)">
      <rect id="Rectangle_7" data-name="Rectangle 7" width="50.295" height="11.821" transform="translate(50.295 11.821) rotate(180)" fill="none" stroke="#dbdbdb" stroke-miterlimit="10" stroke-width="1.193"/>
      <line id="Line_252" data-name="Line 252" x1="50.295" y2="11.821" transform="translate(0 0)" fill="none" stroke="#dbdbdb" stroke-miterlimit="10" stroke-width="1.193"/>
      <line id="Line_253" data-name="Line 253" x1="50.295" y1="11.821" transform="translate(0 0)" fill="none" stroke="#dbdbdb" stroke-miterlimit="10" stroke-width="1.193"/>
    </g>
    <g id="Group_34" data-name="Group 34" transform="translate(299.011 202.521)">
      <rect id="Rectangle_8" data-name="Rectangle 8" width="60.631" height="49.793" transform="translate(0 60.631) rotate(-90)" fill="none" stroke="#dbdbdb" stroke-miterlimit="10" stroke-width="1.14"/>
      <rect id="Rectangle_9" data-name="Rectangle 9" width="49.793" height="11.477" transform="translate(49.793 11.477) rotate(180)" fill="none" stroke="#dbdbdb" stroke-miterlimit="10" stroke-width="1.14"/>
    </g>
    <rect id="Rectangle_10" data-name="Rectangle 10" width="13.536" height="13.536" transform="translate(367.19 216.057) rotate(180)" fill="none" stroke="#dbdbdb" stroke-miterlimit="10" stroke-width="1.14"/>
    <rect id="Rectangle_11" data-name="Rectangle 11" width="13.536" height="13.536" transform="translate(294.207 216.057) rotate(180)" fill="none" stroke="#dbdbdb" stroke-miterlimit="10" stroke-width="1.14"/>
    <g id="Group_35" data-name="Group 35" transform="translate(236.794 254.192)">
      <path id="Path_22" data-name="Path 22" d="M301.232,281.352h2.774v52.735H258.554V281.352h23.153" transform="translate(-258.554 -281.352)" fill="none" stroke="#dbdbdb" stroke-miterlimit="10" stroke-width="1.483"/>
    </g>
    <path id="Path_23" data-name="Path 23" d="M393.166,325.632v15.194l-90.946-.036v30.352l-57.895-.023" transform="translate(-19.974 -32.718)" fill="none" stroke="#dbdbdb" stroke-miterlimit="10" stroke-width="3"/>
    <line id="Line_254" data-name="Line 254" y2="112.869" transform="translate(373.193 122.913)" fill="none" stroke="#dbdbdb" stroke-miterlimit="10" stroke-width="3"/>
    <path id="Path_24" data-name="Path 24" d="M162.718,95.948h7.454V65.632H382.923V87.094" transform="translate(-9.73 -0.083)" fill="none" stroke="#dbdbdb" stroke-miterlimit="10" stroke-width="3"/>
    <path id="Path_25" data-name="Path 25" d="M203.866,342.827l-12.809-.005V312.506H85.2V100.3h9.747" transform="translate(0 -4.435)" fill="none" stroke="#dbdbdb" stroke-miterlimit="10" stroke-width="3"/>
    <path id="Path_26" data-name="Path 26" d="M246.742,141.085h44.632V65.678" transform="translate(-20.277 -0.089)" fill="none" stroke="#dbdbdb" stroke-miterlimit="10" stroke-width="3"/>
    <path id="Path_27" data-name="Path 27" d="M171.241,148.145v3.291H217.7" transform="translate(-10.8 -10.44)" fill="none" stroke="#dbdbdb" stroke-miterlimit="10" stroke-width="3"/>
    <line id="Line_255" data-name="Line 255" y2="21.355" transform="translate(160.441 95.864)" fill="none" stroke="#dbdbdb" stroke-miterlimit="10" stroke-width="3"/>
    <line id="Line_256" data-name="Line 256" y1="14.202" transform="translate(160.441 140.996)" fill="none" stroke="#dbdbdb" stroke-miterlimit="10" stroke-width="3"/>
    <path id="Path_28" data-name="Path 28" d="M85.2,248.175h75.244v-56.6" transform="translate(0 -15.891)" fill="none" stroke="#dbdbdb" stroke-miterlimit="10" stroke-width="3"/>
    <line id="Line_257" data-name="Line 257" y2="25.178" transform="translate(191.02 282.894)" fill="none" stroke="#dbdbdb" stroke-miterlimit="10" stroke-width="3"/>
    <path id="Path_29" data-name="Path 29" d="M171.241,256.3H201.82v30.577" transform="translate(-10.8 -24.015)" fill="none" stroke="#dbdbdb" stroke-miterlimit="10" stroke-width="3"/>
    <path id="Path_30" data-name="Path 30" d="M257.351,232.879V221.632H394.469" transform="translate(-21.609 -19.664)" fill="none" stroke="#dbdbdb" stroke-miterlimit="10" stroke-width="3"/>
    <path id="Path_31" data-name="Path 31" d="M303.855,332.291l-46.5.036V257.919" transform="translate(-21.609 -24.219)" fill="none" stroke="#dbdbdb" stroke-miterlimit="10" stroke-width="3"/>
    <line id="Line_258" data-name="Line 258" x1="20.486" y1="0.008" transform="translate(203.866 338.392)" fill="none" stroke="#dbdbdb" stroke-linecap="round" stroke-linejoin="round" stroke-width="1" stroke-dasharray="7 11"/>
    <line id="Line_259" data-name="Line 259" x1="0.008" y2="20.486" transform="translate(191.504 261.861)" fill="none" stroke="#dbdbdb" stroke-linecap="round" stroke-linejoin="round" stroke-width="1" stroke-dasharray="7 11"/>
    <line id="Line_260" data-name="Line 260" x1="0.008" y2="20.486" transform="translate(235.739 212.798)" fill="none" stroke="#dbdbdb" stroke-linecap="round" stroke-linejoin="round" stroke-width="1" stroke-dasharray="7 11"/>
    <line id="Line_261" data-name="Line 261" x1="20.486" y1="0.008" transform="translate(259.412 254.196)" fill="none" stroke="#dbdbdb" stroke-linecap="round" stroke-linejoin="round" stroke-width="1" stroke-dasharray="7 11"/>
    <path id="Path_32" data-name="Path 32" d="M284.417,278.041V254.994s20.758-1.5,20.486,23.047" transform="translate(-25.006 -23.85)" fill="none" stroke="#dbdbdb" stroke-linejoin="round" stroke-width="1.098"/>
    <line id="Line_262" data-name="Line 262" x1="0.008" y2="20.486" transform="translate(160.433 155.196)" fill="none" stroke="#dbdbdb" stroke-linecap="round" stroke-linejoin="round" stroke-width="1" stroke-dasharray="7 11"/>
    <line id="Line_263" data-name="Line 263" x1="20.486" y1="0.008" transform="translate(206.308 141.334)" fill="none" stroke="#dbdbdb" stroke-linecap="round" stroke-linejoin="round" stroke-width="1" stroke-dasharray="7 11"/>
    <line id="Line_264" data-name="Line 264" x1="0.008" y2="20.486" transform="translate(160.428 116.935)" fill="none" stroke="#dbdbdb" stroke-linecap="round" stroke-linejoin="round" stroke-width="1" stroke-dasharray="7 11"/>
    <g id="Group_41" data-name="Group 41" transform="translate(85.197 232.284)">
      <g id="Group_36" data-name="Group 36" transform="translate(51.91 58.462)">
        <rect id="Rectangle_12" data-name="Rectangle 12" width="53.46" height="16.354" transform="translate(53.46 16.354) rotate(180)" fill="none" stroke="#dbdbdb" stroke-miterlimit="10" stroke-width="1.098"/>
        <line id="Line_265" data-name="Line 265" x1="53.46" y2="16.354" fill="none" stroke="#dbdbdb" stroke-miterlimit="10" stroke-width="1.098"/>
        <line id="Line_266" data-name="Line 266" x1="53.46" y1="16.354" fill="none" stroke="#dbdbdb" stroke-miterlimit="10" stroke-width="1.098"/>
      </g>
      <g id="Group_37" data-name="Group 37" transform="translate(15.158 53.663)">
        <rect id="Rectangle_13" data-name="Rectangle 13" width="16.731" height="7.017" transform="translate(0 14.681)" fill="none" stroke="#dbdbdb" stroke-miterlimit="10" stroke-width="1.021"/>
        <path id="Path_33" data-name="Path 33" d="M104.841,332.212a9.757,9.757,0,0,1-1.705-5.584c0-4.951,3.508-8.964,7.835-8.964s7.836,4.013,7.836,8.964a9.742,9.742,0,0,1-1.792,5.705" transform="translate(-102.606 -317.664)" fill="none" stroke="#dbdbdb" stroke-miterlimit="10" stroke-width="1.021"/>
      </g>
      <g id="Group_38" data-name="Group 38">
        <path id="Path_34" data-name="Path 34" d="M103.722,281.668a9.382,9.382,0,0,1-9.382-9.382h0a9.382,9.382,0,0,1,9.382-9.382H129.6a9.382,9.382,0,0,1,9.382,9.382h0a9.382,9.382,0,0,1-9.382,9.382Z" transform="translate(-86.345 -257.128)" fill="none" stroke="#dbdbdb" stroke-miterlimit="10" stroke-width="1.098"/>
        <rect id="Rectangle_14" data-name="Rectangle 14" width="60.631" height="30.315" fill="none" stroke="#dbdbdb" stroke-miterlimit="10" stroke-width="1.093"/>
      </g>
      <g id="Group_40" data-name="Group 40" transform="translate(79.796)">
        <ellipse id="Ellipse_1" data-name="Ellipse 1" cx="9.619" cy="6.841" rx="9.619" ry="6.841" fill="none" stroke="#dbdbdb" stroke-miterlimit="10" stroke-width="1.021"/>
        <g id="Group_39" data-name="Group 39" transform="translate(6.546 0.957)">
          <rect id="Rectangle_15" data-name="Rectangle 15" width="1.628" height="5.847" transform="translate(2.259 0.683)" fill="none" stroke="#dbdbdb" stroke-miterlimit="10" stroke-width="1.021"/>
          <rect id="Rectangle_16" data-name="Rectangle 16" width="1.628" height="2.635" fill="none" stroke="#dbdbdb" stroke-miterlimit="10" stroke-width="0.685"/>
          <rect id="Rectangle_17" data-name="Rectangle 17" width="1.628" height="2.635" transform="translate(4.05)" fill="none" stroke="#dbdbdb" stroke-miterlimit="10" stroke-width="0.685"/>
        </g>
      </g>
    </g>
    <g id="Group_47" data-name="Group 47" transform="translate(160.985 91.456)">
      <g id="Group_42" data-name="Group 42" transform="translate(128.809 49.754)">
        <rect id="Rectangle_18" data-name="Rectangle 18" width="26.776" height="53.052" transform="translate(26.776 53.052) rotate(180)" fill="none" stroke="#dbdbdb" stroke-miterlimit="10" stroke-width="1.098"/>
        <path id="Path_35" data-name="Path 35" d="M326.74,152.153v53.052h-7.579V152.153" transform="translate(-319.161 -152.153)" fill="none" stroke="#dbdbdb" stroke-miterlimit="10" stroke-width="1.098"/>
        <line id="Line_267" data-name="Line 267" x1="26.453" transform="translate(0.323 26.526)" fill="none" stroke="#dbdbdb" stroke-miterlimit="10" stroke-width="1.098"/>
      </g>
      <rect id="Rectangle_19" data-name="Rectangle 19" width="18.947" height="34.105" transform="translate(185.059 91.583) rotate(180)" fill="none" stroke="#dbdbdb" stroke-miterlimit="10" stroke-width="1.098"/>
      <g id="Group_43" data-name="Group 43" transform="translate(197.05 45.964)">
        <rect id="Rectangle_20" data-name="Rectangle 20" width="7.16" height="43.57" transform="translate(11.268 51.177) rotate(180)" fill="none" stroke="#dbdbdb" stroke-miterlimit="10" stroke-width="1.098"/>
        <rect id="Rectangle_21" data-name="Rectangle 21" width="15.376" height="58.783" transform="translate(15.376 58.783) rotate(180)" fill="none" stroke="#dbdbdb" stroke-miterlimit="10" stroke-width="0.903"/>
      </g>
      <g id="Group_44" data-name="Group 44" transform="translate(75.278 93.555)">
        <rect id="Rectangle_22" data-name="Rectangle 22" width="46.559" height="16.354" transform="translate(46.559 16.354) rotate(180)" fill="none" stroke="#dbdbdb" stroke-miterlimit="10" stroke-width="1.098"/>
        <line id="Line_268" data-name="Line 268" x1="46.559" y2="16.354" transform="translate(0 0)" fill="none" stroke="#dbdbdb" stroke-miterlimit="10" stroke-width="1.098"/>
        <line id="Line_269" data-name="Line 269" x1="46.559" y1="16.354" transform="translate(0 0)" fill="none" stroke="#dbdbdb" stroke-miterlimit="10" stroke-width="1.098"/>
      </g>
      <g id="Group_45" data-name="Group 45" transform="translate(0 49.251)">
        <rect id="Rectangle_23" data-name="Rectangle 23" width="41.693" height="14.645" transform="translate(41.693 14.645) rotate(180)" fill="none" stroke="#dbdbdb" stroke-miterlimit="10" stroke-width="1.098"/>
        <line id="Line_270" data-name="Line 270" x1="41.693" y2="14.645" transform="translate(0)" fill="none" stroke="#dbdbdb" stroke-miterlimit="10" stroke-width="1.098"/>
        <line id="Line_271" data-name="Line 271" x1="41.693" y1="14.645" transform="translate(0)" fill="none" stroke="#dbdbdb" stroke-miterlimit="10" stroke-width="1.098"/>
      </g>
      <g id="Group_46" data-name="Group 46" transform="translate(134.487)">
        <path id="Path_36" data-name="Path 36" d="M331.071,120.981a5.474,5.474,0,0,1,0-10.948" transform="translate(-325.654 -97.113)" fill="none" stroke="#dbdbdb" stroke-linecap="round" stroke-linejoin="round" stroke-width="1.193"/>
        <path id="Path_37" data-name="Path 37" d="M345.176,100.675a5.474,5.474,0,0,1,10.948,0" transform="translate(-328.104 -95.258)" fill="none" stroke="#dbdbdb" stroke-linecap="round" stroke-linejoin="round" stroke-width="1.193"/>
        <path id="Path_38" data-name="Path 38" d="M364.786,100.675a5.474,5.474,0,0,1,10.948,0" transform="translate(-330.566 -95.258)" fill="none" stroke="#dbdbdb" stroke-linecap="round" stroke-linejoin="round" stroke-width="1.193"/>
        <path id="Path_39" data-name="Path 39" d="M375.734,131.23a5.474,5.474,0,0,1-10.948,0" transform="translate(-330.566 -99.773)" fill="none" stroke="#dbdbdb" stroke-linecap="round" stroke-linejoin="round" stroke-width="1.193"/>
        <path id="Path_40" data-name="Path 40" d="M356.124,131.23a5.474,5.474,0,0,1-10.948,0" transform="translate(-328.104 -99.773)" fill="none" stroke="#dbdbdb" stroke-linecap="round" stroke-linejoin="round" stroke-width="1.193"/>
        <path id="Path_41" data-name="Path 41" d="M390.335,110.033a5.474,5.474,0,0,1,0,10.948" transform="translate(-333.773 -97.113)" fill="none" stroke="#dbdbdb" stroke-linecap="round" stroke-linejoin="round" stroke-width="1.193"/>
        <path id="Path_42" data-name="Path 42" d="M343.888,127.407A12.978,12.978,0,0,1,330.91,114.43h0a12.978,12.978,0,0,1,12.978-12.978h27.091a12.978,12.978,0,0,1,12.978,12.978h0a12.977,12.977,0,0,1-12.978,12.977Z" transform="translate(-326.314 -96.035)" fill="none" stroke="#dbdbdb" stroke-miterlimit="10" stroke-width="1.193"/>
      </g>
    </g>
    <g id="Group_58" data-name="Group 58" transform="translate(85.197 106.253)">
      <text id="KITCHEN" transform="translate(28.348 42.331)" fill="#f7f9f9" font-size="6" font-family="Quicksand-Bold, Quicksand" font-weight="700"><tspan x="0" y="0">KITCHEN</tspan></text>
      <rect id="Rectangle_24" data-name="Rectangle 24" width="22.743" height="22.504" transform="translate(0.116 126.12) rotate(-90)" fill="none" stroke="#dbdbdb" stroke-miterlimit="10" stroke-width="1.098"/>
      <g id="Group_53" data-name="Group 53" transform="translate(0.116 35.089)">
        <rect id="Rectangle_25" data-name="Rectangle 25" width="22.743" height="22.504" transform="translate(0 22.743) rotate(-90)" fill="none" stroke="#dbdbdb" stroke-miterlimit="10" stroke-width="1.098"/>
        <g id="Group_52" data-name="Group 52" transform="translate(3.084 3.372)">
          <g id="Group_48" data-name="Group 48" transform="translate(10.501)">
            <path id="Path_43" data-name="Path 43" d="M103.7,156.16a2.87,2.87,0,1,1-2.839,2.87A2.855,2.855,0,0,1,103.7,156.16Z" transform="translate(-100.864 -156.16)" fill="none" stroke="#dbdbdb" stroke-miterlimit="10" stroke-width="1.098"/>
            <path id="Path_44" data-name="Path 44" d="M103.937,158.042a1.224,1.224,0,1,1-1.211,1.224A1.218,1.218,0,0,1,103.937,158.042Z" transform="translate(-101.098 -156.396)" fill="none" stroke="#dbdbdb" stroke-miterlimit="10" stroke-width="1.098"/>
          </g>
          <g id="Group_49" data-name="Group 49">
            <path id="Path_45" data-name="Path 45" d="M91.7,156.16a2.87,2.87,0,1,1-2.839,2.87A2.855,2.855,0,0,1,91.7,156.16Z" transform="translate(-88.856 -156.16)" fill="none" stroke="#dbdbdb" stroke-miterlimit="10" stroke-width="1.098"/>
            <path id="Path_46" data-name="Path 46" d="M91.929,158.042a1.224,1.224,0,1,1-1.211,1.224A1.218,1.218,0,0,1,91.929,158.042Z" transform="translate(-89.09 -156.396)" fill="none" stroke="#dbdbdb" stroke-miterlimit="10" stroke-width="1.098"/>
          </g>
          <g id="Group_50" data-name="Group 50" transform="translate(10.501 10.237)">
            <path id="Path_47" data-name="Path 47" d="M103.7,167.866a2.87,2.87,0,1,1-2.839,2.87A2.855,2.855,0,0,1,103.7,167.866Z" transform="translate(-100.864 -167.866)" fill="none" stroke="#dbdbdb" stroke-miterlimit="10" stroke-width="1.098"/>
            <path id="Path_48" data-name="Path 48" d="M103.937,169.748a1.224,1.224,0,1,1-1.211,1.224A1.218,1.218,0,0,1,103.937,169.748Z" transform="translate(-101.098 -168.102)" fill="none" stroke="#dbdbdb" stroke-miterlimit="10" stroke-width="1.098"/>
          </g>
          <g id="Group_51" data-name="Group 51" transform="translate(0 10.237)">
            <path id="Path_49" data-name="Path 49" d="M91.7,167.866a2.87,2.87,0,1,1-2.839,2.87A2.855,2.855,0,0,1,91.7,167.866Z" transform="translate(-88.856 -167.866)" fill="none" stroke="#dbdbdb" stroke-miterlimit="10" stroke-width="1.098"/>
            <path id="Path_50" data-name="Path 50" d="M91.929,169.748a1.224,1.224,0,1,1-1.211,1.224A1.218,1.218,0,0,1,91.929,169.748Z" transform="translate(-89.09 -168.102)" fill="none" stroke="#dbdbdb" stroke-miterlimit="10" stroke-width="1.098"/>
          </g>
        </g>
      </g>
      <g id="Group_55" data-name="Group 55" transform="translate(0.116 57.913)">
        <path id="Path_51" data-name="Path 51" d="M85.33,223.693V178.4h22.5v45.288" transform="translate(-85.33 -178.405)" fill="none" stroke="#dbdbdb" stroke-miterlimit="10" stroke-width="1.098"/>
        <g id="Group_54" data-name="Group 54" transform="translate(3.814 16.994)">
          <rect id="Rectangle_26" data-name="Rectangle 26" width="22.087" height="14.214" rx="4.487" transform="translate(0 22.087) rotate(-90)" fill="none" stroke="#dbdbdb" stroke-miterlimit="10" stroke-width="1.098"/>
          <rect id="Rectangle_27" data-name="Rectangle 27" width="1.968" height="6.005" transform="translate(0 12.027) rotate(-90)" fill="none" stroke="#dbdbdb" stroke-miterlimit="10" stroke-width="1.098"/>
        </g>
      </g>
      <g id="Group_56" data-name="Group 56" transform="translate(57.387 73.123)">
        <rect id="Rectangle_28" data-name="Rectangle 28" width="53.46" height="18.57" transform="translate(18.57 0) rotate(90)" fill="none" stroke="#dbdbdb" stroke-miterlimit="10" stroke-width="1.171"/>
        <line id="Line_272" data-name="Line 272" x2="18.57" y2="53.46" transform="translate(0)" fill="none" stroke="#dbdbdb" stroke-miterlimit="10" stroke-width="1.171"/>
        <line id="Line_273" data-name="Line 273" x1="18.57" y2="53.46" transform="translate(0)" fill="none" stroke="#dbdbdb" stroke-miterlimit="10" stroke-width="1.171"/>
      </g>
      <g id="Group_57" data-name="Group 57" transform="translate(23.594)">
        <path id="Path_52" data-name="Path 52" d="M146.44,140.378a4.658,4.658,0,0,1-9.315,0" transform="translate(-115.309 -115.719)" fill="none" stroke="#dbdbdb" stroke-miterlimit="10" stroke-width="1.193"/>
        <path id="Path_53" data-name="Path 53" d="M132.445,140.378a4.658,4.658,0,0,1-9.315,0" transform="translate(-113.553 -115.719)" fill="none" stroke="#dbdbdb" stroke-miterlimit="10" stroke-width="1.193"/>
        <path id="Path_54" data-name="Path 54" d="M123.13,116.788a4.658,4.658,0,0,1,9.315,0" transform="translate(-113.553 -112.179)" fill="none" stroke="#dbdbdb" stroke-miterlimit="10" stroke-width="1.193"/>
        <path id="Path_55" data-name="Path 55" d="M137.125,116.788a4.658,4.658,0,0,1,9.315,0" transform="translate(-115.309 -112.179)" fill="none" stroke="#dbdbdb" stroke-miterlimit="10" stroke-width="1.193"/>
        <path id="Path_56" data-name="Path 56" d="M143.138,117.447a10.028,10.028,0,0,1,10.028,10.028h0A10.027,10.027,0,0,1,143.138,137.5H122.206a10.027,10.027,0,0,1-10.028-10.027h0a10.028,10.028,0,0,1,10.028-10.028Z" transform="translate(-112.178 -112.84)" fill="none" stroke="#dbdbdb" stroke-miterlimit="10" stroke-width="1.193"/>
      </g>
      <path id="Path_57" data-name="Path 57" d="M107.817,149.565s.954-19.079-22.62-19.079" transform="translate(-85.197 -114.477)" fill="none" stroke="#dbdbdb" stroke-miterlimit="10" stroke-width="1.098"/>
    </g>
    <line id="Line_274" data-name="Line 274" y2="2.988" transform="translate(95.836 94.443)" fill="none" stroke="#dbdbdb" stroke-miterlimit="10" stroke-width="1"/>
    <g id="Group_59" data-name="Group 59" transform="translate(95.554 93.797)">
      <line id="Line_275" data-name="Line 275" y2="2.988" transform="translate(2.25 0.647)" fill="none" stroke="#dbdbdb" stroke-miterlimit="10" stroke-width="1"/>
      <line id="Line_276" data-name="Line 276" y2="2.988" transform="translate(4.218 0.647)" fill="none" stroke="#dbdbdb" stroke-miterlimit="10" stroke-width="1"/>
      <line id="Line_277" data-name="Line 277" y2="2.988" transform="translate(6.185 0.647)" fill="none" stroke="#dbdbdb" stroke-miterlimit="10" stroke-width="1"/>
      <line id="Line_278" data-name="Line 278" y2="2.988" transform="translate(8.153 0.647)" fill="none" stroke="#dbdbdb" stroke-miterlimit="10" stroke-width="1"/>
      <line id="Line_279" data-name="Line 279" y2="2.988" transform="translate(10.12 0.647)" fill="none" stroke="#dbdbdb" stroke-miterlimit="10" stroke-width="1"/>
      <line id="Line_280" data-name="Line 280" y2="2.988" transform="translate(12.088 0.647)" fill="none" stroke="#dbdbdb" stroke-miterlimit="10" stroke-width="1"/>
      <line id="Line_281" data-name="Line 281" y2="2.988" transform="translate(14.055 0.647)" fill="none" stroke="#dbdbdb" stroke-miterlimit="10" stroke-width="1"/>
      <line id="Line_282" data-name="Line 282" y2="2.988" transform="translate(16.023 0.647)" fill="none" stroke="#dbdbdb" stroke-miterlimit="10" stroke-width="1"/>
      <line id="Line_283" data-name="Line 283" y2="2.988" transform="translate(17.991 0.647)" fill="none" stroke="#dbdbdb" stroke-miterlimit="10" stroke-width="1"/>
      <line id="Line_284" data-name="Line 284" y2="2.988" transform="translate(19.958 0.647)" fill="none" stroke="#dbdbdb" stroke-miterlimit="10" stroke-width="1"/>
      <line id="Line_285" data-name="Line 285" y2="2.988" transform="translate(21.926 0.647)" fill="none" stroke="#dbdbdb" stroke-miterlimit="10" stroke-width="1"/>
      <line id="Line_286" data-name="Line 286" y2="2.988" transform="translate(23.893 0.647)" fill="none" stroke="#dbdbdb" stroke-miterlimit="10" stroke-width="1"/>
      <line id="Line_287" data-name="Line 287" y2="2.988" transform="translate(25.861 0.647)" fill="none" stroke="#dbdbdb" stroke-miterlimit="10" stroke-width="1"/>
      <line id="Line_288" data-name="Line 288" y2="2.988" transform="translate(27.829 0.647)" fill="none" stroke="#dbdbdb" stroke-miterlimit="10" stroke-width="1"/>
      <line id="Line_289" data-name="Line 289" y2="2.988" transform="translate(29.796 0.647)" fill="none" stroke="#dbdbdb" stroke-miterlimit="10" stroke-width="1"/>
      <line id="Line_290" data-name="Line 290" y2="2.988" transform="translate(31.764 0.647)" fill="none" stroke="#dbdbdb" stroke-miterlimit="10" stroke-width="1"/>
      <line id="Line_291" data-name="Line 291" y2="2.988" transform="translate(33.731 0.647)" fill="none" stroke="#dbdbdb" stroke-miterlimit="10" stroke-width="1"/>
      <line id="Line_292" data-name="Line 292" y2="2.988" transform="translate(35.699 0.647)" fill="none" stroke="#dbdbdb" stroke-miterlimit="10" stroke-width="1"/>
      <line id="Line_293" data-name="Line 293" y2="2.988" transform="translate(37.666 0.647)" fill="none" stroke="#dbdbdb" stroke-miterlimit="10" stroke-width="1"/>
      <line id="Line_294" data-name="Line 294" y2="2.988" transform="translate(39.634 0.647)" fill="none" stroke="#dbdbdb" stroke-miterlimit="10" stroke-width="1"/>
      <line id="Line_295" data-name="Line 295" y2="2.988" transform="translate(41.602 0.647)" fill="none" stroke="#dbdbdb" stroke-miterlimit="10" stroke-width="1"/>
      <line id="Line_296" data-name="Line 296" y2="2.988" transform="translate(43.569 0.647)" fill="none" stroke="#dbdbdb" stroke-miterlimit="10" stroke-width="1"/>
      <line id="Line_297" data-name="Line 297" y2="2.988" transform="translate(45.537 0.647)" fill="none" stroke="#dbdbdb" stroke-miterlimit="10" stroke-width="1"/>
      <line id="Line_298" data-name="Line 298" y2="2.988" transform="translate(47.504 0.647)" fill="none" stroke="#dbdbdb" stroke-miterlimit="10" stroke-width="1"/>
      <line id="Line_299" data-name="Line 299" y2="2.988" transform="translate(49.472 0.647)" fill="none" stroke="#dbdbdb" stroke-miterlimit="10" stroke-width="1"/>
      <line id="Line_300" data-name="Line 300" y2="2.988" transform="translate(51.44 0.647)" fill="none" stroke="#dbdbdb" stroke-miterlimit="10" stroke-width="1"/>
      <line id="Line_301" data-name="Line 301" y2="2.988" transform="translate(53.407 0.647)" fill="none" stroke="#dbdbdb" stroke-miterlimit="10" stroke-width="1"/>
      <rect id="Rectangle_29" data-name="Rectangle 29" width="4.136" height="57.433" transform="translate(57.433 0) rotate(90)" fill="none" stroke="#dbdbdb" stroke-miterlimit="10" stroke-width="1.483"/>
      <line id="Line_302" data-name="Line 302" y2="2.988" transform="translate(2.25 0.647)" fill="none" stroke="#dbdbdb" stroke-miterlimit="10" stroke-width="1"/>
      <line id="Line_303" data-name="Line 303" y2="2.988" transform="translate(4.218 0.647)" fill="none" stroke="#dbdbdb" stroke-miterlimit="10" stroke-width="1"/>
      <line id="Line_304" data-name="Line 304" y2="2.988" transform="translate(6.185 0.647)" fill="none" stroke="#dbdbdb" stroke-miterlimit="10" stroke-width="1"/>
      <line id="Line_305" data-name="Line 305" y2="2.988" transform="translate(8.153 0.647)" fill="none" stroke="#dbdbdb" stroke-miterlimit="10" stroke-width="1"/>
      <line id="Line_306" data-name="Line 306" y2="2.988" transform="translate(10.12 0.647)" fill="none" stroke="#dbdbdb" stroke-miterlimit="10" stroke-width="1"/>
      <line id="Line_307" data-name="Line 307" y2="2.988" transform="translate(12.088 0.647)" fill="none" stroke="#dbdbdb" stroke-miterlimit="10" stroke-width="1"/>
      <line id="Line_308" data-name="Line 308" y2="2.988" transform="translate(14.055 0.647)" fill="none" stroke="#dbdbdb" stroke-miterlimit="10" stroke-width="1"/>
      <line id="Line_309" data-name="Line 309" y2="2.988" transform="translate(16.023 0.647)" fill="none" stroke="#dbdbdb" stroke-miterlimit="10" stroke-width="1"/>
      <line id="Line_310" data-name="Line 310" y2="2.988" transform="translate(17.991 0.647)" fill="none" stroke="#dbdbdb" stroke-miterlimit="10" stroke-width="1"/>
      <line id="Line_311" data-name="Line 311" y2="2.988" transform="translate(19.958 0.647)" fill="none" stroke="#dbdbdb" stroke-miterlimit="10" stroke-width="1"/>
      <line id="Line_312" data-name="Line 312" y2="2.988" transform="translate(21.926 0.647)" fill="none" stroke="#dbdbdb" stroke-miterlimit="10" stroke-width="1"/>
      <line id="Line_313" data-name="Line 313" y2="2.988" transform="translate(23.893 0.647)" fill="none" stroke="#dbdbdb" stroke-miterlimit="10" stroke-width="1"/>
      <line id="Line_314" data-name="Line 314" y2="2.988" transform="translate(25.861 0.647)" fill="none" stroke="#dbdbdb" stroke-miterlimit="10" stroke-width="1"/>
      <line id="Line_315" data-name="Line 315" y2="2.988" transform="translate(27.829 0.647)" fill="none" stroke="#dbdbdb" stroke-miterlimit="10" stroke-width="1"/>
      <line id="Line_316" data-name="Line 316" y2="2.988" transform="translate(29.796 0.647)" fill="none" stroke="#dbdbdb" stroke-miterlimit="10" stroke-width="1"/>
      <line id="Line_317" data-name="Line 317" y2="2.988" transform="translate(31.764 0.647)" fill="none" stroke="#dbdbdb" stroke-miterlimit="10" stroke-width="1"/>
      <line id="Line_318" data-name="Line 318" y2="2.988" transform="translate(33.731 0.647)" fill="none" stroke="#dbdbdb" stroke-miterlimit="10" stroke-width="1"/>
      <line id="Line_319" data-name="Line 319" y2="2.988" transform="translate(35.699 0.647)" fill="none" stroke="#dbdbdb" stroke-miterlimit="10" stroke-width="1"/>
      <line id="Line_320" data-name="Line 320" y2="2.988" transform="translate(37.666 0.647)" fill="none" stroke="#dbdbdb" stroke-miterlimit="10" stroke-width="1"/>
      <line id="Line_321" data-name="Line 321" y2="2.988" transform="translate(39.634 0.647)" fill="none" stroke="#dbdbdb" stroke-miterlimit="10" stroke-width="1"/>
      <line id="Line_322" data-name="Line 322" y2="2.988" transform="translate(41.602 0.647)" fill="none" stroke="#dbdbdb" stroke-miterlimit="10" stroke-width="1"/>
      <line id="Line_323" data-name="Line 323" y2="2.988" transform="translate(43.569 0.647)" fill="none" stroke="#dbdbdb" stroke-miterlimit="10" stroke-width="1"/>
      <line id="Line_324" data-name="Line 324" y2="2.988" transform="translate(45.537 0.647)" fill="none" stroke="#dbdbdb" stroke-miterlimit="10" stroke-width="1"/>
      <line id="Line_325" data-name="Line 325" y2="2.988" transform="translate(47.504 0.647)" fill="none" stroke="#dbdbdb" stroke-miterlimit="10" stroke-width="1"/>
      <line id="Line_326" data-name="Line 326" y2="2.988" transform="translate(49.472 0.647)" fill="none" stroke="#dbdbdb" stroke-miterlimit="10" stroke-width="1"/>
      <line id="Line_327" data-name="Line 327" y2="2.988" transform="translate(51.44 0.647)" fill="none" stroke="#dbdbdb" stroke-miterlimit="10" stroke-width="1"/>
      <line id="Line_328" data-name="Line 328" y2="2.988" transform="translate(53.407 0.647)" fill="none" stroke="#dbdbdb" stroke-miterlimit="10" stroke-width="1"/>
      <line id="Line_329" data-name="Line 329" y2="2.988" transform="translate(55.32 0.647)" fill="none" stroke="#dbdbdb" stroke-miterlimit="10" stroke-width="1"/>
    </g>
    <g id="Group_61" data-name="Group 61" transform="translate(371.125 87.156)">
      <rect id="Rectangle_30" data-name="Rectangle 30" width="4.136" height="35.672" fill="none" stroke="#dbdbdb" stroke-miterlimit="10" stroke-width="1.483"/>
      <g id="Group_60" data-name="Group 60" transform="translate(0.501 2.25)">
        <line id="Line_330" data-name="Line 330" x1="2.988" fill="none" stroke="#dbdbdb" stroke-miterlimit="10" stroke-width="1"/>
        <line id="Line_331" data-name="Line 331" x1="2.988" transform="translate(0 1.968)" fill="none" stroke="#dbdbdb" stroke-miterlimit="10" stroke-width="1"/>
        <line id="Line_332" data-name="Line 332" x1="2.988" transform="translate(0 3.935)" fill="none" stroke="#dbdbdb" stroke-miterlimit="10" stroke-width="1"/>
        <line id="Line_333" data-name="Line 333" x1="2.988" transform="translate(0 5.903)" fill="none" stroke="#dbdbdb" stroke-miterlimit="10" stroke-width="1"/>
        <line id="Line_334" data-name="Line 334" x1="2.988" transform="translate(0 7.87)" fill="none" stroke="#dbdbdb" stroke-miterlimit="10" stroke-width="1"/>
        <line id="Line_335" data-name="Line 335" x1="2.988" transform="translate(0 9.838)" fill="none" stroke="#dbdbdb" stroke-miterlimit="10" stroke-width="1"/>
        <line id="Line_336" data-name="Line 336" x1="2.988" transform="translate(0 11.805)" fill="none" stroke="#dbdbdb" stroke-miterlimit="10" stroke-width="1"/>
        <line id="Line_337" data-name="Line 337" x1="2.988" transform="translate(0 13.773)" fill="none" stroke="#dbdbdb" stroke-miterlimit="10" stroke-width="1"/>
        <line id="Line_338" data-name="Line 338" x1="2.988" transform="translate(0 15.741)" fill="none" stroke="#dbdbdb" stroke-miterlimit="10" stroke-width="1"/>
        <line id="Line_339" data-name="Line 339" x1="2.988" transform="translate(0 17.708)" fill="none" stroke="#dbdbdb" stroke-miterlimit="10" stroke-width="1"/>
        <line id="Line_340" data-name="Line 340" x1="2.988" transform="translate(0 19.676)" fill="none" stroke="#dbdbdb" stroke-miterlimit="10" stroke-width="1"/>
        <line id="Line_341" data-name="Line 341" x1="2.988" transform="translate(0 21.643)" fill="none" stroke="#dbdbdb" stroke-miterlimit="10" stroke-width="1"/>
        <line id="Line_342" data-name="Line 342" x1="2.988" transform="translate(0 23.611)" fill="none" stroke="#dbdbdb" stroke-miterlimit="10" stroke-width="1"/>
        <line id="Line_343" data-name="Line 343" x1="2.988" transform="translate(0 25.579)" fill="none" stroke="#dbdbdb" stroke-miterlimit="10" stroke-width="1"/>
        <line id="Line_344" data-name="Line 344" x1="2.988" transform="translate(0 27.546)" fill="none" stroke="#dbdbdb" stroke-miterlimit="10" stroke-width="1"/>
        <line id="Line_345" data-name="Line 345" x1="2.988" transform="translate(0 29.514)" fill="none" stroke="#dbdbdb" stroke-miterlimit="10" stroke-width="1"/>
        <line id="Line_346" data-name="Line 346" x1="2.988" transform="translate(0 31.481)" fill="none" stroke="#dbdbdb" stroke-miterlimit="10" stroke-width="1"/>
        <line id="Line_347" data-name="Line 347" x1="2.988" transform="translate(0 33.449)" fill="none" stroke="#dbdbdb" stroke-miterlimit="10" stroke-width="1"/>
        <line id="Line_348" data-name="Line 348" x1="2.988" fill="none" stroke="#dbdbdb" stroke-miterlimit="10" stroke-width="1"/>
        <line id="Line_349" data-name="Line 349" x1="2.988" transform="translate(0 1.968)" fill="none" stroke="#dbdbdb" stroke-miterlimit="10" stroke-width="1"/>
        <line id="Line_350" data-name="Line 350" x1="2.988" transform="translate(0 3.935)" fill="none" stroke="#dbdbdb" stroke-miterlimit="10" stroke-width="1"/>
        <line id="Line_351" data-name="Line 351" x1="2.988" transform="translate(0 5.903)" fill="none" stroke="#dbdbdb" stroke-miterlimit="10" stroke-width="1"/>
        <line id="Line_352" data-name="Line 352" x1="2.988" transform="translate(0 7.87)" fill="none" stroke="#dbdbdb" stroke-miterlimit="10" stroke-width="1"/>
        <line id="Line_353" data-name="Line 353" x1="2.988" transform="translate(0 9.838)" fill="none" stroke="#dbdbdb" stroke-miterlimit="10" stroke-width="1"/>
        <line id="Line_354" data-name="Line 354" x1="2.988" transform="translate(0 11.805)" fill="none" stroke="#dbdbdb" stroke-miterlimit="10" stroke-width="1"/>
        <line id="Line_355" data-name="Line 355" x1="2.988" transform="translate(0 13.773)" fill="none" stroke="#dbdbdb" stroke-miterlimit="10" stroke-width="1"/>
        <line id="Line_356" data-name="Line 356" x1="2.988" transform="translate(0 15.741)" fill="none" stroke="#dbdbdb" stroke-miterlimit="10" stroke-width="1"/>
        <line id="Line_357" data-name="Line 357" x1="2.988" transform="translate(0 17.708)" fill="none" stroke="#dbdbdb" stroke-miterlimit="10" stroke-width="1"/>
        <line id="Line_358" data-name="Line 358" x1="2.988" transform="translate(0 19.676)" fill="none" stroke="#dbdbdb" stroke-miterlimit="10" stroke-width="1"/>
        <line id="Line_359" data-name="Line 359" x1="2.988" transform="translate(0 21.643)" fill="none" stroke="#dbdbdb" stroke-miterlimit="10" stroke-width="1"/>
        <line id="Line_360" data-name="Line 360" x1="2.988" transform="translate(0 23.611)" fill="none" stroke="#dbdbdb" stroke-miterlimit="10" stroke-width="1"/>
        <line id="Line_361" data-name="Line 361" x1="2.988" transform="translate(0 25.579)" fill="none" stroke="#dbdbdb" stroke-miterlimit="10" stroke-width="1"/>
        <line id="Line_362" data-name="Line 362" x1="2.988" transform="translate(0 27.546)" fill="none" stroke="#dbdbdb" stroke-miterlimit="10" stroke-width="1"/>
        <line id="Line_363" data-name="Line 363" x1="2.988" transform="translate(0 29.514)" fill="none" stroke="#dbdbdb" stroke-miterlimit="10" stroke-width="1"/>
        <line id="Line_364" data-name="Line 364" x1="2.988" transform="translate(0 31.481)" fill="none" stroke="#dbdbdb" stroke-miterlimit="10" stroke-width="1"/>
        <line id="Line_365" data-name="Line 365" x1="2.988" transform="translate(0 33.449)" fill="none" stroke="#dbdbdb" stroke-miterlimit="10" stroke-width="1"/>
      </g>
    </g>
    <g id="Group_62" data-name="Group 62" transform="translate(370.979 235.713)">
      <line id="Line_366" data-name="Line 366" x1="2.988" transform="translate(0.501 2.25)" fill="none" stroke="#dbdbdb" stroke-miterlimit="10" stroke-width="1"/>
      <line id="Line_367" data-name="Line 367" x1="2.988" transform="translate(0.501 4.218)" fill="none" stroke="#dbdbdb" stroke-miterlimit="10" stroke-width="1"/>
      <line id="Line_368" data-name="Line 368" x1="2.988" transform="translate(0.501 6.185)" fill="none" stroke="#dbdbdb" stroke-miterlimit="10" stroke-width="1"/>
      <line id="Line_369" data-name="Line 369" x1="2.988" transform="translate(0.501 8.153)" fill="none" stroke="#dbdbdb" stroke-miterlimit="10" stroke-width="1"/>
      <line id="Line_370" data-name="Line 370" x1="2.988" transform="translate(0.501 10.12)" fill="none" stroke="#dbdbdb" stroke-miterlimit="10" stroke-width="1"/>
      <line id="Line_371" data-name="Line 371" x1="2.988" transform="translate(0.501 12.088)" fill="none" stroke="#dbdbdb" stroke-miterlimit="10" stroke-width="1"/>
      <line id="Line_372" data-name="Line 372" x1="2.988" transform="translate(0.501 14.055)" fill="none" stroke="#dbdbdb" stroke-miterlimit="10" stroke-width="1"/>
      <line id="Line_373" data-name="Line 373" x1="2.988" transform="translate(0.501 16.023)" fill="none" stroke="#dbdbdb" stroke-miterlimit="10" stroke-width="1"/>
      <line id="Line_374" data-name="Line 374" x1="2.988" transform="translate(0.501 17.991)" fill="none" stroke="#dbdbdb" stroke-miterlimit="10" stroke-width="1"/>
      <line id="Line_375" data-name="Line 375" x1="2.988" transform="translate(0.501 19.958)" fill="none" stroke="#dbdbdb" stroke-miterlimit="10" stroke-width="1"/>
      <line id="Line_376" data-name="Line 376" x1="2.988" transform="translate(0.501 21.926)" fill="none" stroke="#dbdbdb" stroke-miterlimit="10" stroke-width="1"/>
      <line id="Line_377" data-name="Line 377" x1="2.988" transform="translate(0.501 23.893)" fill="none" stroke="#dbdbdb" stroke-miterlimit="10" stroke-width="1"/>
      <line id="Line_378" data-name="Line 378" x1="2.988" transform="translate(0.501 25.861)" fill="none" stroke="#dbdbdb" stroke-miterlimit="10" stroke-width="1"/>
      <line id="Line_379" data-name="Line 379" x1="2.988" transform="translate(0.501 27.829)" fill="none" stroke="#dbdbdb" stroke-miterlimit="10" stroke-width="1"/>
      <line id="Line_380" data-name="Line 380" x1="2.988" transform="translate(0.501 29.796)" fill="none" stroke="#dbdbdb" stroke-miterlimit="10" stroke-width="1"/>
      <line id="Line_381" data-name="Line 381" x1="2.988" transform="translate(0.501 31.764)" fill="none" stroke="#dbdbdb" stroke-miterlimit="10" stroke-width="1"/>
      <line id="Line_382" data-name="Line 382" x1="2.988" transform="translate(0.501 33.731)" fill="none" stroke="#dbdbdb" stroke-miterlimit="10" stroke-width="1"/>
      <line id="Line_383" data-name="Line 383" x1="2.988" transform="translate(0.501 35.699)" fill="none" stroke="#dbdbdb" stroke-miterlimit="10" stroke-width="1"/>
      <line id="Line_384" data-name="Line 384" x1="2.988" transform="translate(0.501 37.666)" fill="none" stroke="#dbdbdb" stroke-miterlimit="10" stroke-width="1"/>
      <line id="Line_385" data-name="Line 385" x1="2.988" transform="translate(0.501 39.634)" fill="none" stroke="#dbdbdb" stroke-miterlimit="10" stroke-width="1"/>
      <line id="Line_386" data-name="Line 386" x1="2.988" transform="translate(0.501 41.602)" fill="none" stroke="#dbdbdb" stroke-miterlimit="10" stroke-width="1"/>
      <line id="Line_387" data-name="Line 387" x1="2.988" transform="translate(0.501 43.569)" fill="none" stroke="#dbdbdb" stroke-miterlimit="10" stroke-width="1"/>
      <line id="Line_388" data-name="Line 388" x1="2.988" transform="translate(0.501 45.537)" fill="none" stroke="#dbdbdb" stroke-miterlimit="10" stroke-width="1"/>
      <line id="Line_389" data-name="Line 389" x1="2.988" transform="translate(0.501 47.504)" fill="none" stroke="#dbdbdb" stroke-miterlimit="10" stroke-width="1"/>
      <line id="Line_390" data-name="Line 390" x1="2.988" transform="translate(0.501 49.472)" fill="none" stroke="#dbdbdb" stroke-miterlimit="10" stroke-width="1"/>
      <line id="Line_391" data-name="Line 391" x1="2.988" transform="translate(0.501 51.44)" fill="none" stroke="#dbdbdb" stroke-miterlimit="10" stroke-width="1"/>
      <line id="Line_392" data-name="Line 392" x1="2.988" transform="translate(0.501 53.407)" fill="none" stroke="#dbdbdb" stroke-miterlimit="10" stroke-width="1"/>
      <rect id="Rectangle_31" data-name="Rectangle 31" width="4.136" height="57.433" transform="translate(4.136 57.433) rotate(180)" fill="none" stroke="#dbdbdb" stroke-miterlimit="10" stroke-width="1.483"/>
      <line id="Line_393" data-name="Line 393" x1="2.988" transform="translate(0.501 2.25)" fill="none" stroke="#dbdbdb" stroke-miterlimit="10" stroke-width="1"/>
      <line id="Line_394" data-name="Line 394" x1="2.988" transform="translate(0.501 4.218)" fill="none" stroke="#dbdbdb" stroke-miterlimit="10" stroke-width="1"/>
      <line id="Line_395" data-name="Line 395" x1="2.988" transform="translate(0.501 6.185)" fill="none" stroke="#dbdbdb" stroke-miterlimit="10" stroke-width="1"/>
      <line id="Line_396" data-name="Line 396" x1="2.988" transform="translate(0.501 8.153)" fill="none" stroke="#dbdbdb" stroke-miterlimit="10" stroke-width="1"/>
      <line id="Line_397" data-name="Line 397" x1="2.988" transform="translate(0.501 10.12)" fill="none" stroke="#dbdbdb" stroke-miterlimit="10" stroke-width="1"/>
      <line id="Line_398" data-name="Line 398" x1="2.988" transform="translate(0.501 12.088)" fill="none" stroke="#dbdbdb" stroke-miterlimit="10" stroke-width="1"/>
      <line id="Line_399" data-name="Line 399" x1="2.988" transform="translate(0.501 14.055)" fill="none" stroke="#dbdbdb" stroke-miterlimit="10" stroke-width="1"/>
      <line id="Line_400" data-name="Line 400" x1="2.988" transform="translate(0.501 16.023)" fill="none" stroke="#dbdbdb" stroke-miterlimit="10" stroke-width="1"/>
      <line id="Line_401" data-name="Line 401" x1="2.988" transform="translate(0.501 17.991)" fill="none" stroke="#dbdbdb" stroke-miterlimit="10" stroke-width="1"/>
      <line id="Line_402" data-name="Line 402" x1="2.988" transform="translate(0.501 19.958)" fill="none" stroke="#dbdbdb" stroke-miterlimit="10" stroke-width="1"/>
      <line id="Line_403" data-name="Line 403" x1="2.988" transform="translate(0.501 21.926)" fill="none" stroke="#dbdbdb" stroke-miterlimit="10" stroke-width="1"/>
      <line id="Line_404" data-name="Line 404" x1="2.988" transform="translate(0.501 23.893)" fill="none" stroke="#dbdbdb" stroke-miterlimit="10" stroke-width="1"/>
      <line id="Line_405" data-name="Line 405" x1="2.988" transform="translate(0.501 25.861)" fill="none" stroke="#dbdbdb" stroke-miterlimit="10" stroke-width="1"/>
      <line id="Line_406" data-name="Line 406" x1="2.988" transform="translate(0.501 27.829)" fill="none" stroke="#dbdbdb" stroke-miterlimit="10" stroke-width="1"/>
      <line id="Line_407" data-name="Line 407" x1="2.988" transform="translate(0.501 29.796)" fill="none" stroke="#dbdbdb" stroke-miterlimit="10" stroke-width="1"/>
      <line id="Line_408" data-name="Line 408" x1="2.988" transform="translate(0.501 31.764)" fill="none" stroke="#dbdbdb" stroke-miterlimit="10" stroke-width="1"/>
      <line id="Line_409" data-name="Line 409" x1="2.988" transform="translate(0.501 33.731)" fill="none" stroke="#dbdbdb" stroke-miterlimit="10" stroke-width="1"/>
      <line id="Line_410" data-name="Line 410" x1="2.988" transform="translate(0.501 35.699)" fill="none" stroke="#dbdbdb" stroke-miterlimit="10" stroke-width="1"/>
      <line id="Line_411" data-name="Line 411" x1="2.988" transform="translate(0.501 37.666)" fill="none" stroke="#dbdbdb" stroke-miterlimit="10" stroke-width="1"/>
      <line id="Line_412" data-name="Line 412" x1="2.988" transform="translate(0.501 39.634)" fill="none" stroke="#dbdbdb" stroke-miterlimit="10" stroke-width="1"/>
      <line id="Line_413" data-name="Line 413" x1="2.988" transform="translate(0.501 41.602)" fill="none" stroke="#dbdbdb" stroke-miterlimit="10" stroke-width="1"/>
      <line id="Line_414" data-name="Line 414" x1="2.988" transform="translate(0.501 43.569)" fill="none" stroke="#dbdbdb" stroke-miterlimit="10" stroke-width="1"/>
      <line id="Line_415" data-name="Line 415" x1="2.988" transform="translate(0.501 45.537)" fill="none" stroke="#dbdbdb" stroke-miterlimit="10" stroke-width="1"/>
      <line id="Line_416" data-name="Line 416" x1="2.988" transform="translate(0.501 47.504)" fill="none" stroke="#dbdbdb" stroke-miterlimit="10" stroke-width="1"/>
      <line id="Line_417" data-name="Line 417" x1="2.988" transform="translate(0.501 49.472)" fill="none" stroke="#dbdbdb" stroke-miterlimit="10" stroke-width="1"/>
      <line id="Line_418" data-name="Line 418" x1="2.988" transform="translate(0.501 51.44)" fill="none" stroke="#dbdbdb" stroke-miterlimit="10" stroke-width="1"/>
      <line id="Line_419" data-name="Line 419" x1="2.988" transform="translate(0.501 53.407)" fill="none" stroke="#dbdbdb" stroke-miterlimit="10" stroke-width="1"/>
      <line id="Line_420" data-name="Line 420" x1="2.988" transform="translate(0.501 55.32)" fill="none" stroke="#dbdbdb" stroke-miterlimit="10" stroke-width="1"/>
    </g>
  </g>
</svg>
