<svg xmlns="http://www.w3.org/2000/svg" width="333" height="323.423" viewBox="0 0 333 323.423">
  <g id="Newsletter-amico" transform="translate(-13.44 -30.318)">
    <g id="freepik--Floor--inject-63" transform="translate(13.44 161.482)">
      <ellipse id="freepik--floor--inject-63-2" data-name="freepik--floor--inject-63" cx="166.5" cy="96.129" rx="166.5" ry="96.129" transform="translate(0 0)" fill="#f5f5f5"/>
    </g>
    <g id="freepik--Shadows--inject-63" transform="translate(25.144 178.061)">
      <path id="freepik--Shadow--inject-63" d="M199.5,391.649l-68.512-39.574c-1.7-.975-1.7-2.558,0-3.533L205.243,305.7a6.763,6.763,0,0,1,6.12,0L279.91,345.27c1.689.975,1.689,2.551,0,3.533l-74.286,42.846A6.763,6.763,0,0,1,199.5,391.649Z" transform="translate(-59.252 -257.253)" fill="#e0e0e0"/>
      <ellipse id="freepik--shadow--inject-63-2" data-name="freepik--shadow--inject-63" cx="32.26" cy="18.628" rx="32.26" ry="18.628" transform="translate(225.873 93.911)" fill="#e0e0e0"/>
      <path id="freepik--shadow--inject-63-3" data-name="freepik--shadow--inject-63" d="M59.936,354.56,31.216,337.982c-1.618-.933-1.618-2.452,0-3.385l167.051-96.447a6.494,6.494,0,0,1,5.865,0l28.719,16.579c1.618.94,1.618,2.452,0,3.385L65.8,354.56A6.452,6.452,0,0,1,59.936,354.56Z" transform="translate(-30.002 -237.45)" fill="#e0e0e0"/>
    </g>
    <g id="freepik--Device--inject-63" transform="translate(46.477 34.981)">
      <g id="freepik--device--inject-63-2" data-name="freepik--device--inject-63">
        <path id="Path_30" data-name="Path 30" d="M200.726,328.457l24.691-14.275c2.544-1.47,3.816-3.4,3.816-5.321v-3.434l-25.617-14.444a5.441,5.441,0,0,1-2.459-4.24V260.39L158.05,285.307v26.338a5.441,5.441,0,0,0,2.459,4.24L182.3,328.443C187.384,331.4,195.638,331.4,200.726,328.457Z" transform="translate(-88.895 -101.098)" fill="#263238"/>
        <path id="Path_31" data-name="Path 31" d="M168.4,325.4v3.42l-7.908-4.551a5.441,5.441,0,0,1-2.452-4.24V293.682l8.212-4.742c.177,2.085.36,4.24.53,6.36l-5.759,3.336V318.31a5.406,5.406,0,0,0,2.452,4.24Z" transform="translate(-88.892 -109.473)"/>
        <path id="Path_32" data-name="Path 32" d="M162.25,311.978a5.42,5.42,0,0,0,2.459,4.24l18.812,10.84c5.1,2.94,13.349,2.94,18.437,0l24.7-14.275c5.1-2.933,5.1-7.7,0-10.6l-18.826-10.848a5.427,5.427,0,0,1-2.459-4.24V267.38L162.264,292.3Z" transform="translate(-90.127 -103.149)" fill="#455a64"/>
        <path id="Path_33" data-name="Path 33" d="M212.85,294.213h0l-5-2.89a5.428,5.428,0,0,1-2.459-4.24v-19.7L162.28,292.3v19.681a5.42,5.42,0,0,0,2.459,4.24l4.947,2.827Z" transform="translate(-90.135 -103.149)" fill="#37474f"/>
        <path id="Path_34" data-name="Path 34" d="M243.306,324.12v3.449c0,1.929-1.279,3.844-3.816,5.321L214.8,347.144a18.493,18.493,0,0,1-8.8,2.184v-3.385a18.494,18.494,0,0,0,8.8-2.184l24.691-14.282C242.041,327.978,243.306,326.049,243.306,324.12Z" transform="translate(-102.959 -119.792)" fill="#37474f"/>
        <path id="Path_35" data-name="Path 35" d="M63.088,273.378a6.586,6.586,0,0,0,5.957-.113L235.821,176.98a6.784,6.784,0,0,0,3.074-5.321V40.846a6.572,6.572,0,0,0-2.862-5.208,6.572,6.572,0,0,0-5.95.113L63.307,132.035a6.77,6.77,0,0,0-3.067,5.314V268.2a6.6,6.6,0,0,0,2.848,5.18Z" transform="translate(-60.205 -34.981)" fill="#455a64"/>
        <path id="Path_36" data-name="Path 36" d="M71.424,274.781,238.2,178.5a6.791,6.791,0,0,0,3.067-5.321V42.369c0-1.957-1.371-2.756-3.067-1.774L71.424,136.866a6.791,6.791,0,0,0-3.074,5.321V272.993C68.35,274.972,69.728,275.764,71.424,274.781Z" transform="translate(-62.584 -36.504)" fill="#37474f"/>
        <path id="Path_37" data-name="Path 37" d="M68.578,371.519a6.657,6.657,0,0,1-5.5-.113,6.607,6.607,0,0,1-2.883-5.222V358l5.766,3.336v8.183C65.956,371.307,67.123,372.134,68.578,371.519Z" transform="translate(-60.19 -129.73)" fill="#37474f"/>
        <path id="Path_38" data-name="Path 38" d="M68.35,321.271v8.176c0,1.957,1.413,2.756,3.074,1.774L238.2,234.936a6.791,6.791,0,0,0,3.039-5.335v-8.19Z" transform="translate(-62.584 -89.665)" fill="#455a64"/>
        <path id="Path_39" data-name="Path 39" d="M76.51,256.619V148.031a4.07,4.07,0,0,1,1.844-3.187L236.049,53.8c1.018-.587,1.844-.113,1.844,1.06V163.444a4.07,4.07,0,0,1-1.844,3.194l-157.7,91.048C77.33,258.273,76.51,257.792,76.51,256.619Z" transform="translate(-64.977 -40.426)" fill="#ba68c8"/>
        <path id="Path_40" data-name="Path 40" d="M76.51,256.619V148.031a4.07,4.07,0,0,1,1.844-3.187L236.049,53.8c1.018-.587,1.844-.113,1.844,1.06V163.444a4.07,4.07,0,0,1-1.844,3.194l-157.7,91.048C77.33,258.273,76.51,257.792,76.51,256.619Z" transform="translate(-64.977 -40.426)" fill="#ba68c8"/>
        <path id="Path_41" data-name="Path 41" d="M76.51,256.619V148.031a4.07,4.07,0,0,1,1.844-3.187L236.049,53.8c1.018-.587,1.844-.113,1.844,1.06V163.444a4.07,4.07,0,0,1-1.844,3.194l-157.7,91.048C77.33,258.273,76.51,257.792,76.51,256.619Z" transform="translate(-64.977 -40.426)" fill="#fff" opacity="0.8"/>
        <path id="Path_42" data-name="Path 42" d="M189.637,296.245a5.653,5.653,0,0,0-2.537,4.4c0,1.618,1.138,2.276,2.537,1.463a5.6,5.6,0,0,0,2.544-4.4C192.181,296.09,191.043,295.433,189.637,296.245Z" transform="translate(-97.416 -111.513)" fill="#ba68c8"/>
        <path id="Path_43" data-name="Path 43" d="M66.861,178.871a6.523,6.523,0,0,0-.9,3.032V307.819l-5.766-3.336v-125.9a6.282,6.282,0,0,1,.9-3.032Z" transform="translate(-60.19 -76.213)" fill="#263238"/>
      </g>
    </g>
    <g id="freepik--Device--inject-63-3" data-name="freepik--Device--inject-63" transform="translate(78.221 30.318)">
      <g id="freepik--device--inject-63-4" data-name="freepik--device--inject-63">
        <path id="Path_30-2" data-name="Path 30" d="M200.726,328.457l24.691-14.275c2.544-1.47,3.816-3.4,3.816-5.321v-3.434l-25.617-14.444a5.441,5.441,0,0,1-2.459-4.24V260.39L158.05,285.307v26.338a5.441,5.441,0,0,0,2.459,4.24L182.3,328.443C187.384,331.4,195.638,331.4,200.726,328.457Z" transform="translate(-88.895 -101.098)" fill="#263238"/>
        <path id="Path_31-2" data-name="Path 31" d="M168.4,325.4v3.42l-7.908-4.551a5.441,5.441,0,0,1-2.452-4.24V293.682l8.212-4.742c.177,2.085.36,4.24.53,6.36l-5.759,3.336V318.31a5.406,5.406,0,0,0,2.452,4.24Z" transform="translate(-88.892 -109.473)"/>
        <path id="Path_32-2" data-name="Path 32" d="M162.25,311.978a5.42,5.42,0,0,0,2.459,4.24l18.812,10.84c5.1,2.94,13.349,2.94,18.437,0l24.7-14.275c5.1-2.933,5.1-7.7,0-10.6l-18.826-10.848a5.427,5.427,0,0,1-2.459-4.24V267.38L162.264,292.3Z" transform="translate(-90.127 -103.149)" fill="#455a64"/>
        <path id="Path_33-2" data-name="Path 33" d="M212.85,294.213h0l-5-2.89a5.428,5.428,0,0,1-2.459-4.24v-19.7L162.28,292.3v19.681a5.42,5.42,0,0,0,2.459,4.24l4.947,2.827Z" transform="translate(-90.135 -103.149)" fill="#37474f"/>
        <path id="Path_34-2" data-name="Path 34" d="M243.306,324.12v3.449c0,1.929-1.279,3.844-3.816,5.321L214.8,347.144a18.493,18.493,0,0,1-8.8,2.184v-3.385a18.494,18.494,0,0,0,8.8-2.184l24.691-14.282C242.041,327.978,243.306,326.049,243.306,324.12Z" transform="translate(-102.959 -119.792)" fill="#37474f"/>
        <path id="Path_35-2" data-name="Path 35" d="M63.088,273.378a6.586,6.586,0,0,0,5.957-.113L235.821,176.98a6.784,6.784,0,0,0,3.074-5.321V40.846a6.572,6.572,0,0,0-2.862-5.208,6.572,6.572,0,0,0-5.95.113L63.307,132.035a6.77,6.77,0,0,0-3.067,5.314V268.2a6.6,6.6,0,0,0,2.848,5.18Z" transform="translate(-60.205 -34.981)" fill="#455a64"/>
        <path id="Path_36-2" data-name="Path 36" d="M71.424,274.781,238.2,178.5a6.791,6.791,0,0,0,3.067-5.321V42.369c0-1.957-1.371-2.756-3.067-1.774L71.424,136.866a6.791,6.791,0,0,0-3.074,5.321V272.993C68.35,274.972,69.728,275.764,71.424,274.781Z" transform="translate(-62.584 -36.504)" fill="#37474f"/>
        <path id="Path_37-2" data-name="Path 37" d="M68.578,371.519a6.657,6.657,0,0,1-5.5-.113,6.607,6.607,0,0,1-2.883-5.222V358l5.766,3.336v8.183C65.956,371.307,67.123,372.134,68.578,371.519Z" transform="translate(-60.19 -129.73)" fill="#37474f"/>
        <path id="Path_38-2" data-name="Path 38" d="M68.35,321.271v8.176c0,1.957,1.413,2.756,3.074,1.774L238.2,234.936a6.791,6.791,0,0,0,3.039-5.335v-8.19Z" transform="translate(-62.584 -89.665)" fill="#455a64"/>
        <path id="Path_39-2" data-name="Path 39" d="M76.51,256.619V148.031a4.07,4.07,0,0,1,1.844-3.187L236.049,53.8c1.018-.587,1.844-.113,1.844,1.06V163.444a4.07,4.07,0,0,1-1.844,3.194l-157.7,91.048C77.33,258.273,76.51,257.792,76.51,256.619Z" transform="translate(-64.977 -40.426)" fill="#ba68c8"/>
        <path id="Path_40-2" data-name="Path 40" d="M76.51,256.619V148.031a4.07,4.07,0,0,1,1.844-3.187L236.049,53.8c1.018-.587,1.844-.113,1.844,1.06V163.444a4.07,4.07,0,0,1-1.844,3.194l-157.7,91.048C77.33,258.273,76.51,257.792,76.51,256.619Z" transform="translate(-64.977 -40.426)" fill="#ba68c8"/>
        <path id="Path_41-2" data-name="Path 41" d="M76.51,256.619V148.031a4.07,4.07,0,0,1,1.844-3.187L236.049,53.8c1.018-.587,1.844-.113,1.844,1.06V163.444a4.07,4.07,0,0,1-1.844,3.194l-157.7,91.048C77.33,258.273,76.51,257.792,76.51,256.619Z" transform="translate(-64.977 -40.426)" fill="#fff" opacity="0.8"/>
        <path id="Path_42-2" data-name="Path 42" d="M189.637,296.245a5.653,5.653,0,0,0-2.537,4.4c0,1.618,1.138,2.276,2.537,1.463a5.6,5.6,0,0,0,2.544-4.4C192.181,296.09,191.043,295.433,189.637,296.245Z" transform="translate(-97.416 -111.513)" fill="#ba68c8"/>
        <path id="Path_43-2" data-name="Path 43" d="M66.861,178.871a6.523,6.523,0,0,0-.9,3.032V307.819l-5.766-3.336v-125.9a6.282,6.282,0,0,1,.9-3.032Z" transform="translate(-60.19 -76.213)" fill="#263238"/>
      </g>
    </g>
    <g id="freepik--Newsletter--inject-63" transform="translate(90.136 72.222)">
      <g id="freepik--newsletter--inject-63-2" data-name="freepik--newsletter--inject-63" transform="translate(0 0)">
        <g id="freepik--Envelope--inject-63" transform="translate(0 0)">
          <path id="Path_44" data-name="Path 44" d="M121.991,173.564l94.257-54.414,3.774,2.177A3.936,3.936,0,0,1,221.8,124.4v69.551a3.922,3.922,0,0,1-1.774,3.067l-90.744,52.351a3.965,3.965,0,0,1-3.533,0l-2-1.159a3.922,3.922,0,0,1-1.774-3.067Z" transform="translate(-121.97 -96.911)" fill="#ba68c8"/>
          <path id="Path_45" data-name="Path 45" d="M121.991,173.564l94.257-54.414,3.774,2.177A3.936,3.936,0,0,1,221.8,124.4v69.551a3.922,3.922,0,0,1-1.774,3.067l-90.744,52.351a3.965,3.965,0,0,1-3.533,0l-2-1.159a3.922,3.922,0,0,1-1.774-3.067Z" transform="translate(-121.97 -96.911)" fill="#f4b762"/>
          <path id="Path_49" data-name="Path 49" d="M123.3,184.71a4.5,4.5,0,0,1,.247-.41A4.511,4.511,0,0,0,123.3,184.71Z" transform="translate(-122.36 -116.021)" fill="#ba68c8"/>
          <path id="Path_50" data-name="Path 50" d="M189.64,87.906l.247-.226Z" transform="translate(-141.819 -87.68)" fill="#ba68c8"/>
          <path id="Path_51" data-name="Path 51" d="M122.42,186.622a8.88,8.88,0,0,1,.375-1.032A8.88,8.88,0,0,0,122.42,186.622Z" transform="translate(-122.102 -116.399)" fill="#ba68c8"/>
          <path id="Path_52" data-name="Path 52" d="M123,185.38c.064-.141.127-.276.2-.41A1.459,1.459,0,0,0,123,185.38Z" transform="translate(-122.272 -116.217)" fill="#ba68c8"/>
          <path id="Path_53" data-name="Path 53" d="M123,185.59Z" transform="translate(-122.272 -116.399)" opacity="0.2"/>
          <path id="Path_54" data-name="Path 54" d="M122.42,187.047h0v0Z" transform="translate(-122.102 -116.825)" opacity="0.2"/>
          <path id="Path_55" data-name="Path 55" d="M189.99,87.69Z" transform="translate(-141.922 -87.683)" opacity="0.2"/>
          <path id="Path_56" data-name="Path 56" d="M123.249,184.974a.289.289,0,0,1,0-.064A.289.289,0,0,0,123.249,184.974Z" transform="translate(-122.345 -116.2)" opacity="0.2"/>
          <path id="Path_57" data-name="Path 57" d="M189.31,88.293a2.92,2.92,0,0,1,.233-.283,2.918,2.918,0,0,0-.233.283Z" transform="translate(-141.722 -87.777)" opacity="0.2"/>
          <path id="Path_60" data-name="Path 60" d="M167.7,202.131a36.549,36.549,0,0,1,2.89,14.261v2.749L135.38,237.515h0V195.2a10.6,10.6,0,0,1,.276-2.424h0c.071-.311.163-.615.254-.919l.155-.452a9.8,9.8,0,0,1,.594-1.3,10.353,10.353,0,0,1,1.357-1.95c.148-.177.311-.346.473-.509s.339-.325.516-.481a10.734,10.734,0,0,1,12.473-1.251s.622-.254,1.767-.707a36.8,36.8,0,0,1,12.423,12.826A37.962,37.962,0,0,1,167.7,202.131Z" transform="translate(-125.903 -116.072)" fill="#e0e0e0"/>
          <path id="Path_61" data-name="Path 61" d="M309.343,361.025,232.81,405.313v-4.155l76.526-44.287Z" transform="translate(-154.482 -166.64)" fill="#f5f5f5"/>
          <path id="Path_62" data-name="Path 62" d="M167.1,201.458a37.977,37.977,0,0,0-2.028-4.092q-.841-1.449-1.809-2.827c-.177-.254-.36-.509-.551-.756s-.339-.459-.516-.707-.3-.382-.452-.565l-.148-.184-.58-.707a3.6,3.6,0,0,0-.269-.3c-.148-.177-.311-.353-.466-.523-.353-.389-.707-.77-1.1-1.131-.212-.219-.424-.431-.643-.629a2.3,2.3,0,0,0-.191-.184l-.594-.544c-.233-.212-.466-.417-.707-.615s-.389-.332-.594-.495a3.378,3.378,0,0,0-.3-.24c-.226-.184-.459-.36-.707-.537s-.6-.452-.912-.707a9.825,9.825,0,0,0-.947-.65l-.961-.622-.184-.113-.827-.495c-.247-.141-.5-.276-.749-.4a14.211,14.211,0,0,0-1.321-.558,13.266,13.266,0,0,0-1.5-.431l-.5-.1a12.256,12.256,0,0,0-2.021-.17h-.544a7.45,7.45,0,0,0-.8.064l-.445.057-.29.042a2.746,2.746,0,0,0-.332.064h-.042l-.495.113a3.724,3.724,0,0,0-.375.106l-.191.057q-.2.057-.4.127a9.659,9.659,0,0,0-1.06.41c-.212.092-.424.2-.636.3a.916.916,0,0,0-.184.1c-.113.057-.233.12-.346.191l-.332.2a11.973,11.973,0,0,0-1.173.813s-.042.035-.057.049c-.191.155-.382.311-.572.488h0l-.4.375c-.078.071-.148.148-.219.219a12.889,12.889,0,0,0-.982,1.159c-.127.17-.247.339-.36.516s-.269.41-.4.629h0a6.869,6.869,0,0,0-.346.636,9.228,9.228,0,0,0-.4.89c-.057.141-.12.29-.17.445s-.049.134-.071.2c-.078.226-.141.452-.2.707s-.12.452-.163.707h0a4.537,4.537,0,0,0-.092.466,1.537,1.537,0,0,0,0,.177c0,.155-.049.3-.064.452s-.042.4-.049.608,0,.558,0,.848v33.758h3.632V194.533a8.6,8.6,0,0,1,12.911-7.455,33.214,33.214,0,0,1,13.766,15.42l4.311,1.025C167.648,202.829,167.379,202.137,167.1,201.458Z" transform="translate(-125.304 -115.399)" fill="#ebebeb"/>
          <path id="Path_63" data-name="Path 63" d="M221.36,220.563a.854.854,0,0,1-.1.141l-39.284-12.452a6.77,6.77,0,0,0-8.48,2.608l-41.991,62.414-1.555.9h0a1.265,1.265,0,0,1-1.2.134L171.935,210a6.8,6.8,0,0,1,8.48-2.615Z" transform="translate(-123.959 -122.625)" fill="#ba68c8"/>
          <path id="Path_64" data-name="Path 64" d="M169.621,220.832l.1-.085L131.5,277.118l-1.555.9h0a1.286,1.286,0,0,1-1.2.134l39.383-58.23Z" transform="translate(-123.956 -126.469)" fill="#fff" opacity="0.4"/>
          <path id="Path_65" data-name="Path 65" d="M239.288,220.549a.858.858,0,0,1-.1.141L199.9,208.231a6.763,6.763,0,0,0-8.48,2.615l-1.555-.9a6.784,6.784,0,0,1,8.48-2.6Z" transform="translate(-141.887 -122.61)" fill="#fff" opacity="0.4"/>
          <path id="Path_66" data-name="Path 66" d="M224.4,124.315h0c-.085-.509-.353-.65-.707-.41a2.041,2.041,0,0,0-.452.466l-.2.276-38.761,58.93-5.788,8.063a3.3,3.3,0,0,1-3.187,1.194l-5-1.187-38.161-14.042a1.943,1.943,0,0,0-.777,0,1.412,1.412,0,0,0-.29.092l1.413-.834,36.563,13.427,4.812,1.724a3.286,3.286,0,0,0,3.187-1.194l5.788-8.056L221.8,123.559a1.555,1.555,0,0,1,.438-.4l-3.371-1.943,1.413-.813,2.332,1.343A4.042,4.042,0,0,1,224.4,124.315Z" transform="translate(-124.642 -97.278)" fill="#ba68c8"/>
          <path id="Path_67" data-name="Path 67" d="M200.561,209.464l-5.788,8.063a3.3,3.3,0,0,1-3.187,1.194l-5-1.187.1-.085.24-.382,3.272.777a3.286,3.286,0,0,0,3.187-1.194l5.731-7.971Z" transform="translate(-140.925 -123.172)" fill="#fff" opacity="0.4"/>
          <path id="Path_68" data-name="Path 68" d="M244.141,121.653l-2.332-1.343-1.413.813,3.371,1.943h0a1.484,1.484,0,0,0-.438.4l-38.952,59.205-.057.078h0l1.413.784,38.761-58.93.2-.276a2.043,2.043,0,0,1,.452-.466c.346-.24.615-.1.707.41h0A4.042,4.042,0,0,0,244.141,121.653Z" transform="translate(-146.125 -97.251)" opacity="0.1"/>
          <path id="Path_69" data-name="Path 69" d="M130.282,200.948,122,196.15v71.579a3.922,3.922,0,0,0,1.774,3.067l2,1.152a3.943,3.943,0,0,0,3.533,0l1-.579Z" transform="translate(-121.979 -119.497)" fill="#ba68c8"/>
          <path id="Path_70" data-name="Path 70" d="M130.282,200.948,122,196.15v71.579a3.922,3.922,0,0,0,1.774,3.067l2,1.152a3.943,3.943,0,0,0,3.533,0l1-.579Z" transform="translate(-121.979 -119.497)" fill="#f9be5a" opacity="0.92"/>
          <path id="Path_71" data-name="Path 71" d="M222.677,126.41v68.774a3.533,3.533,0,0,1-.551,1.795,3.675,3.675,0,0,1-1.039,1.159l-.064.042-.12.078-90.709,52.365h0a1.684,1.684,0,0,1-.346.163,2.248,2.248,0,0,1,0-.318V180.93a1.541,1.541,0,0,1,1.993-1.569L170,193.4l5,1.187a3.3,3.3,0,0,0,3.187-1.194l5.788-8.063Z" transform="translate(-124.279 -99.04)" fill="#455a64"/>
          <path id="Path_72" data-name="Path 72" d="M224.069,126.167v69.558a3.61,3.61,0,0,1-.551,1.795,3.872,3.872,0,0,1-1.039,1.166h-.071a1.072,1.072,0,0,1-.113.078l-90.709,52.365h0a1.265,1.265,0,0,1-1.208.141,1.074,1.074,0,0,1-.53-.848,2.254,2.254,0,0,1,0-.318V180.567A1.541,1.541,0,0,1,131.84,179L170,193.04l5,1.187a3.3,3.3,0,0,0,3.187-1.194l5.788-8.063,38.761-58.93.2-.276C223.532,124.867,224.069,125.058,224.069,126.167Z" transform="translate(-124.279 -98.685)" fill="#f7a51a"/>
          <path id="Path_73" data-name="Path 73" d="M244.743,223.587l.12-.078.064-.042a3.761,3.761,0,0,0,1.039-1.159,3.61,3.61,0,0,0,.551-1.767L206.37,209.8l26.854,20.423Z" transform="translate(-146.726 -123.501)" fill="#ba68c8"/>
          <path id="Path_74" data-name="Path 74" d="M244.743,223.587l.12-.078.064-.042a3.761,3.761,0,0,0,1.039-1.159,3.61,3.61,0,0,0,.551-1.767L206.37,209.8l26.854,20.423Z" transform="translate(-146.726 -123.501)" opacity="0.2"/>
          <path id="Path_75" data-name="Path 75" d="M129.794,278.317a1.222,1.222,0,0,0,.551,1.166,1.237,1.237,0,0,0,1.208-.134h0l31.235-18.027,7.13-40.062L129.78,277.172Z" transform="translate(-124.261 -126.862)" fill="#fff" opacity="0.36"/>
          <path id="Path_76" data-name="Path 76" d="M173.74,212.178l-43.432,64.364a1.222,1.222,0,0,1-.551-1.166v-1.152l42.4-62.894h0Z" transform="translate(-124.252 -123.949)" fill="#fff" opacity="0.28"/>
          <path id="Path_77" data-name="Path 77" d="M223.74,221.773a3.759,3.759,0,0,1-1.039,1.159l-.064.042-90.829,52.443h0a1.237,1.237,0,0,1-1.208.134l43.439-64.371a6.819,6.819,0,0,1,8.537-2.622Z" transform="translate(-124.501 -122.966)" fill="#f7a51a"/>
          <path id="Path_78" data-name="Path 78" d="M223.74,227.207a3.675,3.675,0,0,1-1.039,1.159l-.064.042-90.829,52.443h0a1.279,1.279,0,0,1-1.208.134l1.208-1.922,89.246-51.5.071-.042a3.611,3.611,0,0,0,.94-1.018Z" transform="translate(-124.501 -128.399)" fill="#f4b762"/>
          <path id="Path_80" data-name="Path 80" d="M130.46,199.057l-1.442.834-1.456-.841-3.583-2.064,1.392-.827Z" transform="translate(-122.56 -119.5)" fill="#ba68c8"/>
          <path id="Path_81" data-name="Path 81" d="M130.53,199.086l-5.116-2.926-1.413.827,3.583,2.064,1.456.841h0l.276-.085a1.943,1.943,0,0,1,.777,0l2.9,1.074,33.292,12.254.523-.77Z" transform="translate(-122.565 -119.5)" fill="#f7a51a" opacity="0.92"/>
        </g>
        <path id="Path_82" data-name="Path 82" d="M282.653,287.475l-76.526,44.287-15.292-8.834a36.683,36.683,0,0,1-18.374-31.8V197.565a36.542,36.542,0,0,0-2.883-14.261,37.963,37.963,0,0,0-2.028-4.092,36.669,36.669,0,0,0-13.427-13.427,12.077,12.077,0,0,0-11.7-.3l9.116-5.258,33.624-19.412,33.179-19.278.1-.057a12.105,12.105,0,0,1,12.211,0,36.7,36.7,0,0,1,18.374,31.8v93.571a36.705,36.705,0,0,0,18.374,31.8Z" transform="translate(-127.968 -97.111)" fill="#fff"/>
        <path id="Path_83" data-name="Path 83" d="M224.55,119.824v.707A11.357,11.357,0,0,1,230.3,122.1a35.97,35.97,0,0,1,18,31.172v93.578A37.531,37.531,0,0,0,267,279.251l14.24,8.226-75.113,43.461-14.946-8.629a36.04,36.04,0,0,1-17.964-31.164V197.559a37.383,37.383,0,0,0-18.741-32.387,12.721,12.721,0,0,0-6.452-1.753H147.4l4.487-2.586,33.624-19.419,33.214-19.278.085-.049a11.533,11.533,0,0,1,5.759-1.562v-.707m0,0a12.254,12.254,0,0,0-6.113,1.654l-.1.057-33.2,19.285-33.624,19.412-9.116,5.258a12.268,12.268,0,0,1,5.6-1.364,12.056,12.056,0,0,1,6.1,1.661,36.669,36.669,0,0,1,13.427,13.427,37.962,37.962,0,0,1,2.028,4.092,36.542,36.542,0,0,1,2.933,14.261v93.585a36.684,36.684,0,0,0,18.374,31.8l15.293,8.833L282.7,287.49l-15.3-8.833a36.7,36.7,0,0,1-18.374-31.8V153.271a36.705,36.705,0,0,0-18.374-31.8,12.148,12.148,0,0,0-6.1-1.66Z" transform="translate(-127.968 -97.104)" fill="#f5f5f5"/>
        <path id="Path_84" data-name="Path 84" d="M216.167,358.35l-15.292-8.862a36.691,36.691,0,0,1-18.374-31.8V224.152a36.564,36.564,0,0,0-2.12-12.2l-4.311-1.025.233.537a32.81,32.81,0,0,1,2.544,12.685v93.585a40.457,40.457,0,0,0,20.162,34.924l15.37,8.841,1.788,1Z" transform="translate(-137.839 -123.832)" fill="#f0f0f0"/>
        <path id="Path_85" data-name="Path 85" d="M210.631,182.1,243.6,163.087a1.258,1.258,0,0,0,.523-1.519c-.445-1.081-.954-2.12-1.5-3.18-.474-.883-.975-1.745-1.512-2.586a1.124,1.124,0,0,0-1.5-.353l-32.974,19.031a.919.919,0,0,0-.431,1.258l.466.707a37.674,37.674,0,0,1,2.12,3.908c.191.417.382.841.558,1.272a.9.9,0,0,0,1.279.48Z" transform="translate(-146.648 -107.514)" fill="#f7a51a"/>
        <path id="Path_86" data-name="Path 86" d="M180.93,171.888l60.831-35.108a.784.784,0,0,0,.184-1.293l-.629-.608a1.505,1.505,0,0,0-1.7-.184L178.81,169.81a.707.707,0,0,0-.141,1.251l.622.6A1.413,1.413,0,0,0,180.93,171.888Z" transform="translate(-138.508 -101.418)" fill="#e0e0e0"/>
        <path id="Path_87" data-name="Path 87" d="M171.352,165.428c-.389-.269-.777-.537-1.18-.8-.6-.389-1.215-.763-1.844-1.117a8.889,8.889,0,0,0-.869-.445c-.488-.226-.488-.615,0-.912l60.859-35.136a3.477,3.477,0,0,1,1.046-.481l.127.049a14.445,14.445,0,0,1,1.76.862c.947.558,1.873,1.159,2.763,1.788a.643.643,0,0,1-.064,1.159L173.1,165.527a1.788,1.788,0,0,1-1.753-.1Z" transform="translate(-135.205 -99.079)" fill="#ba68c8"/>
        <path id="Path_88" data-name="Path 88" d="M171.352,165.428c-.389-.269-.777-.537-1.18-.8-.6-.389-1.215-.763-1.844-1.117a8.889,8.889,0,0,0-.869-.445c-.488-.226-.488-.615,0-.912l60.859-35.136a3.477,3.477,0,0,1,1.046-.481l.127.049a14.445,14.445,0,0,1,1.76.862c.947.558,1.873,1.159,2.763,1.788a.643.643,0,0,1-.064,1.159L173.1,165.527a1.788,1.788,0,0,1-1.753-.1Z" transform="translate(-135.205 -99.079)" opacity="0.4"/>
        <path id="Path_89" data-name="Path 89" d="M236.529,214.382V188.235c0-.841-.042-3.06-.134-3.887a34.836,34.836,0,0,0-.481-3.844.707.707,0,0,0-1.117-.509l-39.878,23.016a1.59,1.59,0,0,0-.707,1.569,36.883,36.883,0,0,1,.565,6.077v27.822c0,.579.41.82.919.53L235.617,216A2.028,2.028,0,0,0,236.529,214.382Z" transform="translate(-143.155 -114.719)" fill="#ba68c8"/>
        <path id="Path_90" data-name="Path 90" d="M236.529,214.382V188.235c0-.841-.042-3.06-.134-3.887a34.836,34.836,0,0,0-.481-3.844.707.707,0,0,0-1.117-.509l-39.878,23.016a1.59,1.59,0,0,0-.707,1.569,36.883,36.883,0,0,1,.565,6.077v27.822c0,.579.41.82.919.53L235.617,216A2.028,2.028,0,0,0,236.529,214.382Z" transform="translate(-143.155 -114.719)" fill="#fff" opacity="0.8"/>
        <path id="Path_91" data-name="Path 91" d="M224.582,208.68l-6.968,13.964,2.53,3.314-14.169-12.105L195,240.749v6.19c0,.579.41.82.919.53l39.934-23.016a2.028,2.028,0,0,0,.912-1.59V218.8Z" transform="translate(-143.391 -123.172)" fill="#f7a51a"/>
        <path id="Path_92" data-name="Path 92" d="M215.619,253.632l32.945-19.024c.509-.29.919-.057.919.53v4.509a2.021,2.021,0,0,1-.919,1.59l-32.945,19.052c-.509.29-.919.057-.919-.53V255.25A2.021,2.021,0,0,1,215.619,253.632Z" transform="translate(-149.17 -130.741)" fill="#f7a51a"/>
        <path id="Path_93" data-name="Path 93" d="M205.8,270.049,252.658,243c.509-.3.919-.057.919.53v1.194a2.028,2.028,0,0,1-.919,1.59L205.8,273.349c-.509.3-.919.057-.919-.53v-1.194A2.042,2.042,0,0,1,205.8,270.049Z" transform="translate(-146.289 -133.201)" fill="#e0e0e0"/>
        <path id="Path_94" data-name="Path 94" d="M201.219,280.678l52.7-30.43c.509-.29.919-.057.919.53v1.194a2.021,2.021,0,0,1-.919,1.59l-52.7,30.43c-.509.29-.919.056-.919-.53v-1.194A2.035,2.035,0,0,1,201.219,280.678Z" transform="translate(-144.946 -135.329)" fill="#e0e0e0"/>
        <path id="Path_95" data-name="Path 95" d="M195.962,306.534l16.254-9.385c.5-.29.912-.049.912.53v17.759a2.028,2.028,0,0,1-.912,1.59l-16.254,9.385c-.5.29-.912.057-.912-.53V308.124A2.028,2.028,0,0,1,195.962,306.534Z" transform="translate(-143.406 -149.086)" fill="#ba68c8"/>
        <path id="Path_96" data-name="Path 96" d="M195.962,306.534l16.254-9.385c.5-.29.912-.049.912.53v17.759a2.028,2.028,0,0,1-.912,1.59l-16.254,9.385c-.5.29-.912.057-.912-.53V308.124A2.028,2.028,0,0,1,195.962,306.534Z" transform="translate(-143.406 -149.086)" fill="#6e8b93"/>
        <path id="Path_97" data-name="Path 97" d="M227.469,288.344l16.254-9.385c.509-.29.919-.049.919.53v17.766a2.042,2.042,0,0,1-.919,1.59l-16.254,9.378c-.509.29-.919.056-.919-.53V289.934a2.021,2.021,0,0,1,.919-1.59Z" transform="translate(-152.646 -143.75)" fill="#f7a51a"/>
        <path id="Path_98" data-name="Path 98" d="M258.969,270.155l16.254-9.378c.509-.3.919-.057.919.53v17.759a2.028,2.028,0,0,1-.919,1.59l-16.254,9.378c-.509.29-.919.057-.919-.53V271.745A2.021,2.021,0,0,1,258.969,270.155Z" transform="translate(-161.885 -138.416)" fill="#ba68c8"/>
        <path id="Path_99" data-name="Path 99" d="M258.969,270.155l16.254-9.378c.509-.3.919-.057.919.53v17.759a2.028,2.028,0,0,1-.919,1.59l-16.254,9.378c-.509.29-.919.057-.919-.53V271.745A2.021,2.021,0,0,1,258.969,270.155Z" transform="translate(-161.885 -138.416)" fill="#6e8b93"/>
        <path id="Path_100" data-name="Path 100" d="M256.169,303.633l-53.821,31.094c-.509.29-.919.049-.919-.53V333a2.042,2.042,0,0,1,.919-1.59l53.821-31.094c.5-.29.919-.05.919.53v1.194A2.021,2.021,0,0,1,256.169,303.633Z" transform="translate(-145.277 -150.016)" fill="#e0e0e0"/>
        <path id="Path_101" data-name="Path 101" d="M202.647,343.926l53.828-31.094a1.774,1.774,0,0,0,.8-1.583c-.035-.346-.064-.707-.092-1.046a.594.594,0,0,0-.975-.523L202.4,340.775a1.88,1.88,0,0,0-.869,1.583c0,.353.05.707.085,1.06a.636.636,0,0,0,1.032.509Z" transform="translate(-145.307 -152.756)" fill="#e0e0e0"/>
        <path id="Path_102" data-name="Path 102" d="M231.128,343.254l-32.959,19.031a1.413,1.413,0,0,0-.608,1.548,36.747,36.747,0,0,0,14.515,19.158,1.88,1.88,0,0,0,1.8.049L246.866,364a.594.594,0,0,0,0-1.1,36.789,36.789,0,0,1-14.508-19.151.806.806,0,0,0-1.23-.488Z" transform="translate(-144.129 -162.606)" fill="#ba68c8"/>
        <path id="Path_103" data-name="Path 103" d="M231.128,343.254l-32.959,19.031a1.413,1.413,0,0,0-.608,1.548,36.747,36.747,0,0,0,14.515,19.158,1.88,1.88,0,0,0,1.8.049L246.866,364a.594.594,0,0,0,0-1.1,36.789,36.789,0,0,1-14.508-19.151.806.806,0,0,0-1.23-.488Z" transform="translate(-144.129 -162.606)" fill="#fff" opacity="0.8"/>
        <path id="Path_104" data-name="Path 104" d="M251.518,368.123a36.829,36.829,0,0,1-5.894-4.9c-5.5-.452-14.247-2.276-14.247-2.276l-2.565,8.7,5.88,2.071c-5,.4-20.388-3.314-20.388-3.314-1.11,5.258-1.053,14.275-1,17.243a35.711,35.711,0,0,0,3.4,2.572,1.88,1.88,0,0,0,1.8.049l32.988-19.045a.594.594,0,0,0,.028-1.1Z" transform="translate(-148.753 -167.836)" fill="#f7a51a" opacity="0.8"/>
        <path id="Path_105" data-name="Path 105" d="M239.574,353.992a2.466,2.466,0,0,0,3.222.848,2.332,2.332,0,0,0,.784-3.081,2.389,2.389,0,0,0-3.138-.989A2.466,2.466,0,0,0,239.574,353.992Z" transform="translate(-156.384 -164.779)" fill="#224d5c" opacity="0.8"/>
        <path id="Path_106" data-name="Path 106" d="M263.106,344.15l19.08-11a.982.982,0,0,0,.325-1.413c-.65-1.011-1.258-2.056-1.809-3.131a.989.989,0,0,0-1.413-.424l-19.052,11a1.138,1.138,0,0,0-.445,1.484c.551,1.074,1.159,2.12,1.809,3.138A1.145,1.145,0,0,0,263.106,344.15Z" transform="translate(-162.362 -158.181)" fill="#f7a51a"/>
        <path id="Path_107" data-name="Path 107" d="M263.785,352.859l26.02-15.017a.813.813,0,0,0,.2-1.307l-.537-.615a1.329,1.329,0,0,0-1.6-.283L261.856,350.69a.855.855,0,0,0-.24,1.343c.177.2.353.41.537.608A1.364,1.364,0,0,0,263.785,352.859Z" transform="translate(-162.865 -160.367)" fill="#e0e0e0"/>
        <path id="Path_108" data-name="Path 108" d="M267.523,357.924l.707.594a1.682,1.682,0,0,0,1.76.12l26.048-15.01a.664.664,0,0,0,.085-1.18c-.254-.2-.495-.4-.707-.6a1.611,1.611,0,0,0-1.724-.17l-26.048,15.017a.707.707,0,0,0-.12,1.23Z" transform="translate(-164.575 -162.132)" fill="#e0e0e0"/>
        <path id="Path_109" data-name="Path 109" d="M248.322,384.945l32.988-19.038a1.993,1.993,0,0,1,1.83,0l1.039.594c.509.3.509.77,0,1.06l-32.988,19.045a2.007,2.007,0,0,1-1.837,0l-1.032-.594C247.813,385.695,247.813,385.235,248.322,384.945Z" transform="translate(-158.92 -169.225)" fill="#e0e0e0"/>
        <path id="Path_110" data-name="Path 110" d="M235.332,195.368l32.952-19.031c.509-.3.919-.057.919.53v4.509a2.028,2.028,0,0,1-.919,1.59L235.339,201.99c-.509.29-.919.057-.919-.53v-4.5A2.028,2.028,0,0,1,235.332,195.368Z" transform="translate(-154.954 -113.648)" fill="#fafafa"/>
        <path id="Path_111" data-name="Path 111" d="M234.774,202.324a.805.805,0,0,1-.41-.106.982.982,0,0,1-.445-.9v-4.5a2.4,2.4,0,0,1,1.088-1.894l32.952-19a.9.9,0,0,1,1.449.834v4.509a2.382,2.382,0,0,1-1.1,1.894l-32.924,19a1.18,1.18,0,0,1-.615.17Zm.587-6.791a1.7,1.7,0,0,0-.707,1.286v4.5c0,.17.049.261.092.29s.141,0,.29-.071l32.952-19.017a1.71,1.71,0,0,0,.742-1.286v-4.509c0-.177-.049-.261-.092-.29a.361.361,0,0,0-.3.064Z" transform="translate(-154.806 -113.508)" fill="#e0e0e0"/>
        <path id="Path_112" data-name="Path 112" d="M235.332,209.509l32.952-19.031c.509-.29.919-.057.919.53v4.509a2.021,2.021,0,0,1-.919,1.59l-32.945,19.024c-.509.3-.919.057-.919-.53v-4.5a2.042,2.042,0,0,1,.912-1.59Z" transform="translate(-154.954 -117.797)" fill="#fafafa"/>
        <path id="Path_113" data-name="Path 113" d="M234.774,216.459a.749.749,0,0,1-.41-.113.982.982,0,0,1-.445-.9v-4.5a2.4,2.4,0,0,1,1.088-1.894l32.952-19.031a.9.9,0,0,1,1.449.834v4.509a2.4,2.4,0,0,1-1.1,1.9l-32.924,19.017A1.123,1.123,0,0,1,234.774,216.459Zm33.772-25.907a.446.446,0,0,0-.233.085l-32.924,19.031a1.7,1.7,0,0,0-.707,1.279v4.5c0,.177.049.261.092.29s.141,0,.29-.064l32.952-19.024a1.689,1.689,0,0,0,.742-1.286v-4.509c0-.17-.049-.261-.092-.29Z" transform="translate(-154.806 -117.644)" fill="#e0e0e0"/>
      </g>
    </g>
    <g id="freepik--Plants--inject-63" transform="translate(61.946 239.194)">
      <g id="freepik--plants--inject-63-2" data-name="freepik--plants--inject-63">
        <path id="Path_114" data-name="Path 114" d="M110.782,373.1l6.19-3.6s2.12-13.49,0-25.151c-2.975-16.395-14.31-21.808-18.338-20.084s-4.869,6.629,2.707,15.978C105.778,345.739,110.562,357.83,110.782,373.1Z" transform="translate(-86.048 -323.957)" fill="#ba68c8"/>
        <g id="Group_57" data-name="Group 57" transform="translate(9.559)">
          <path id="Path_115" data-name="Path 115" d="M110.782,373.1l6.19-3.6s2.12-13.49,0-25.151c-2.975-16.395-14.31-21.808-18.338-20.084s-4.869,6.629,2.707,15.978C105.778,345.739,110.562,357.83,110.782,373.1Z" transform="translate(-95.607 -323.957)" fill="#f7a51a"/>
        </g>
        <path id="Path_116" data-name="Path 116" d="M115.854,367.112h0a.367.367,0,0,1-.325-.4c1.774-15.455-4.805-32.189-11.922-38.825a.367.367,0,1,1,.495-.537c7.229,6.784,13.936,23.744,12.141,39.44A.367.367,0,0,1,115.854,367.112Z" transform="translate(-88.35 -324.914)" fill="#fff"/>
        <path id="Path_117" data-name="Path 117" d="M93.076,386.934c-.806.48-2.558-.375-3.208-.792a7.829,7.829,0,0,1-2.657-2.9,7.321,7.321,0,0,1-.707-4.36A17.547,17.547,0,0,1,87,376.546l.6-2.276a5.852,5.852,0,0,0,.276-2.283c-.233-1.533-1.625-2.586-2.89-3.491-1.413-1-2.869-2.325-2.9-4.184a6.537,6.537,0,0,1,1.548-3.929c.862-1.145,1.894-2.162,2.671-3.364a4.551,4.551,0,0,0,.862-2.912,4.736,4.736,0,0,0-.664-1.788,26.142,26.142,0,0,1-2.063-3.569,3.645,3.645,0,0,1,.544-3.865,4.29,4.29,0,0,1,3.138-.9c1.965.085,3.866,1.47,5.427,2.551s2.777,2.565,4.565,3.194c2.339.834,5.448.346,7,2.735,1.35,2.071.375,4.388.24,6.586-.212,3.533,3.116,4.862,4.749,7.427a4.558,4.558,0,0,1,.615,2.827,13.554,13.554,0,0,1-1.074,4.8,47.013,47.013,0,0,1-2.622,4.763C106.969,378.927,93.2,386.856,93.076,386.934Z" transform="translate(-82.08 -329.825)" fill="#020621"/>
        <path id="Path_118" data-name="Path 118" d="M104.044,383.379h0a.368.368,0,0,1-.36-.375c.269-14.593-6.975-30.528-12.077-35.094a.367.367,0,0,1,0-.516.36.36,0,0,1,.516,0c5.208,4.65,12.593,20.847,12.324,35.645A.375.375,0,0,1,104.044,383.379Z" transform="translate(-84.843 -330.8)" fill="#fff"/>
        <path id="Path_119" data-name="Path 119" d="M101,373.15a.184.184,0,0,1-.106,0,49.375,49.375,0,0,0-10.6-1.456.382.382,0,0,1-.36-.375.353.353,0,0,1,.375-.36,50,50,0,0,1,10.805,1.484.367.367,0,0,1,.254.459A.353.353,0,0,1,101,373.15Z" transform="translate(-84.383 -337.744)" fill="#fff"/>
      </g>
    </g>
    <g id="freepik--speech-bubble--inject-63" transform="translate(230.054 83.236)">
      <g id="freepik--speach-bubble--inject-63" transform="translate(0 0)">
        <path id="Path_120" data-name="Path 120" d="M369.024,103.516,333.8,123.826a2.29,2.29,0,0,0-1.046,1.8v42.761a2.29,2.29,0,0,0,1.053,1.795l1.9,1.074a2.339,2.339,0,0,0,2.12,0l35.228-20.3a2.3,2.3,0,0,0,1.046-1.809V106.392a2.289,2.289,0,0,0-1.046-1.795l-1.908-1.074A2.339,2.339,0,0,0,369.024,103.516Z" transform="translate(-323.715 -103.266)" fill="#ba68c8"/>
        <path id="Path_121" data-name="Path 121" d="M338.41,171.627V128.873a2.3,2.3,0,0,1,1.046-1.809l35.228-20.3c.579-.332,1.046-.064,1.046.6v42.754a2.3,2.3,0,0,1-1.046,1.809l-35.228,20.3C338.876,172.56,338.41,172.291,338.41,171.627Z" transform="translate(-325.375 -104.249)" fill="#f7a51a"/>
        <path id="Path_122" data-name="Path 122" d="M337.8,180.086a2.389,2.389,0,0,1-2.12,0l-1.873-1.032a2.254,2.254,0,0,1-1.053-1.788v-42.8a2.163,2.163,0,0,1,.332-1.06l3.979,2.3a2.078,2.078,0,0,0-.311,1.025v42.754C336.75,180.093,337.167,180.468,337.8,180.086Z" transform="translate(-323.715 -112.108)" fill="#f5b13f"/>
        <path id="Path_123" data-name="Path 123" d="M374.2,106.2c-.085-.523-.509-.707-1.032-.41l-35.228,20.3a2.078,2.078,0,0,0-.707.784l-3.986-2.3a2.021,2.021,0,0,1,.707-.707l35.235-20.31a2.3,2.3,0,0,1,2.12,0l1.9,1.074A2.268,2.268,0,0,1,374.2,106.2Z" transform="translate(-323.861 -103.277)" fill="#f5b13f"/>
        <path id="Path_124" data-name="Path 124" d="M324.314,169.784c-.657-.389-3.724-2.12-3.887-2.219a.975.975,0,0,1-.205-1.491L329.092,155,333,157.24l-8.862,11.067a.989.989,0,0,0,.177,1.477Z" transform="translate(-319.965 -118.44)" fill="#ba68c8"/>
        <path id="Path_125" data-name="Path 125" d="M324.314,169.784c-.657-.389-3.724-2.12-3.887-2.219a.975.975,0,0,1-.205-1.491L329.092,155,333,157.24l-8.862,11.067a.989.989,0,0,0,.177,1.477Z" transform="translate(-319.965 -118.44)" fill="#f5b13f"/>
        <path id="Path_126" data-name="Path 126" d="M334.616,158.19l-8.862,11.067a.933.933,0,0,0,.594,1.6l8.268.9,2.537-6.982Z" transform="translate(-321.581 -119.376)" fill="#f7a51a"/>
      </g>
    </g>
  </g>
</svg>
