<svg xmlns="http://www.w3.org/2000/svg" xmlns:xlink="http://www.w3.org/1999/xlink" width="274.653" height="225.394" viewBox="0 0 274.653 225.394">
  <defs>
    <linearGradient id="linear-gradient" x1="0.5" y1="1" x2="0.5" gradientUnits="objectBoundingBox">
      <stop offset="0" stop-color="#fff"/>
      <stop offset="1" stop-color="#fff" stop-opacity="0"/>
    </linearGradient>
    <linearGradient id="linear-gradient-2" y1="0" y2="1" xlink:href="#linear-gradient"/>
    <clipPath id="clip-path">
      <path id="Path_8894" data-name="Path 8894" d="M361.569,322.325v4.723c0,.354-.248.5-.555.322l-4.958-2.826a1.226,1.226,0,0,1-.555-.961V318.86c0-.354.25-.5.555-.319,1.353.78,3.606,2.043,4.958,2.823A1.226,1.226,0,0,1,361.569,322.325Z" transform="translate(-355.5 -318.464)" fill="#455a64"/>
    </clipPath>
  </defs>
  <g id="Group_16243" data-name="Group 16243" transform="translate(-382.371 -494.156)">
    <circle id="Ellipse_262" data-name="Ellipse 262" cx="82.5" cy="82.5" r="82.5" transform="translate(433.358 502.896) rotate(18)" opacity="0.47" fill="url(#linear-gradient)" style="mix-blend-mode: soft-light;isolation: isolate"/>
    <circle id="Ellipse_263" data-name="Ellipse 263" cx="82.5" cy="82.5" r="82.5" transform="translate(574.523 494.156) rotate(60)" opacity="0.37" fill="url(#linear-gradient-2)" style="mix-blend-mode: soft-light;isolation: isolate"/>
    <g id="Wallet-amico_1_" data-name="Wallet-amico (1)" transform="translate(470.847 499.104)">
      <g id="freepik--Floor--inject-19" transform="translate(26.13 128.141)">
        <path id="freepik--floor--inject-19-2" data-name="freepik--floor--inject-19" d="M0,31.788Z" transform="translate(0 -25.502)" fill="#f5f5f5"/>
      </g>
      <g id="freepik--Plants--inject-19" transform="translate(26.553 93.21)">
        <g id="freepik--plants--inject-19-2" data-name="freepik--plants--inject-19">
          <path id="Path_8828" data-name="Path 8828" d="M49.155,224.118l2.3-1.252a39.211,39.211,0,0,0,.512-11.172c-.993-7.287-5.885-9.9-7.7-9.209s-2.279,2.826.863,7.094A24.117,24.117,0,0,1,49.155,224.118Z" transform="translate(-38.455 -202.379)" fill="#fff3f3"/>
          <g id="Group_15853" data-name="Group 15853" transform="translate(4.387)" opacity="0.72">
            <path id="Path_8829" data-name="Path 8829" d="M49.155,224.118l2.3-1.252a39.211,39.211,0,0,0,.512-11.172c-.993-7.287-5.885-9.9-7.7-9.209s-2.279,2.826.863,7.094A24.117,24.117,0,0,1,49.155,224.118Z" transform="translate(-42.842 -202.379)" fill="#1bcf88"/>
          </g>
          <path id="Path_8830" data-name="Path 8830" d="M55.567,224.072h-.023a.161.161,0,0,1-.144-.178c.731-6.829-2.23-14.193-5.4-17.1a.161.161,0,0,1,0-.227.164.164,0,0,1,.23,0c3.212,2.95,6.23,10.435,5.491,17.359A.161.161,0,0,1,55.567,224.072Z" transform="translate(-43.523 -205.326)" fill="#fff"/>
          <path id="Path_8831" data-name="Path 8831" d="M32.981,248.968c-.342.236-1.117-.158-1.413-.325a3.436,3.436,0,0,1-1.237-1.217,3.215,3.215,0,0,1-.435-1.905,7.54,7.54,0,0,1,.164-1.042c.069-.337.141-.676.21-1.016a2.518,2.518,0,0,0,.066-1.013c-.138-.673-.777-1.1-1.358-1.471A2.5,2.5,0,0,1,27.6,239.2a2.878,2.878,0,0,1,.576-1.767c.351-.527.783-1,1.094-1.551a1.986,1.986,0,0,0,.314-1.3,2.109,2.109,0,0,0-.322-.766,11.165,11.165,0,0,1-.993-1.525,1.623,1.623,0,0,1,.147-1.727,1.882,1.882,0,0,1,1.378-.458,3.229,3.229,0,0,1,1.347.36c1.353.622,2.213,2.1,3.635,2.553a13.918,13.918,0,0,0,1.7.288,2.009,2.009,0,0,1,1.439.835c.576.97-.259,2.288.181,3.332.388.927,1.338,1.217,1.922,2.035a2.043,2.043,0,0,1,.345,1.214A5.983,5.983,0,0,1,40,242.864a16.946,16.946,0,0,1-.771,1.747C39.206,244.634,33.033,248.934,32.981,248.968Z" transform="translate(-27.599 -222.13)" fill="#1bcf88"/>
          <path id="Path_8832" data-name="Path 8832" d="M42.757,249.165h0a.161.161,0,0,1-.17-.155c-.23-6.441-3.8-13.293-6.159-15.183a.162.162,0,0,1,.2-.253c2.406,1.928,6.043,8.9,6.282,15.425A.164.164,0,0,1,42.757,249.165Z" transform="translate(-33.844 -224.571)" fill="#fff"/>
          <path id="Path_8833" data-name="Path 8833" d="M40.981,259.954a.1.1,0,0,1-.049,0,21.9,21.9,0,0,0-4.717-.391.161.161,0,0,1-.167-.155.155.155,0,0,1,.155-.167,22.037,22.037,0,0,1,4.8.4.164.164,0,0,1,.121.2A.155.155,0,0,1,40.981,259.954Z" transform="translate(-33.617 -242.871)" fill="#fff"/>
        </g>
        <g id="freepik--plants--inject-19-3" data-name="freepik--plants--inject-19" transform="translate(116.952 0.654)">
          <path id="Path_8834" data-name="Path 8834" d="M438.251,229.455l-2.676-1.7a56.813,56.813,0,0,1-1.551-9.569c-.337-6.331,2.1-14.481,7.174-13.451s-.97,8.458-1.727,13.992S438.251,229.455,438.251,229.455Z" transform="translate(-433.993 -204.652)" fill="#fff3f3"/>
          <path id="Path_8835" data-name="Path 8835" d="M438.251,229.455l-2.676-1.7a56.813,56.813,0,0,1-1.551-9.569c-.337-6.331,2.1-14.481,7.174-13.451,3.942.8,1.182,5.451-.714,10.364a16.945,16.945,0,0,0-1.013,3.628C438.715,224.266,438.251,229.455,438.251,229.455Z" transform="translate(-433.993 -204.652)" fill="#1bcf88" opacity="0.83"/>
          <path id="Path_8836" data-name="Path 8836" d="M441.438,233.963h0a.164.164,0,0,0,.132-.19c-2.59-13.813,3.261-21.828,3.318-21.909a.164.164,0,1,0-.262-.2c-.06.081-5.989,8.225-3.379,22.159a.164.164,0,0,0,.19.135Z" transform="translate(-438.687 -209.594)" fill="#fff"/>
          <path id="Path_8837" data-name="Path 8837" d="M448.24,249.789l-2.014-1.151a20.773,20.773,0,0,1,.319-8.786c1.045-4.417,4.688-8.507,6.907-8.1s2.383,1.9,1.6,3.617S448.5,241.913,448.24,249.789Z" transform="translate(-442.483 -223.932)" fill="#1bcf88"/>
          <path id="Path_8838" data-name="Path 8838" d="M449.749,252.2h0a.164.164,0,0,0,.138-.187c-1.373-8.766,5.96-15.946,6.043-16.018a.164.164,0,0,0,0-.233.167.167,0,0,0-.233,0c-.075.072-7.528,7.373-6.13,16.306A.164.164,0,0,0,449.749,252.2Z" transform="translate(-444.961 -226.776)" fill="#fff"/>
        </g>
      </g>
      <g id="freepik--Shadows--inject-19" transform="translate(43.97 116.817)">
        <path id="freepik--shadow--inject-19" d="M255.646,327.73a2.771,2.771,0,0,1-2.014-.82L224.658,296.56a6.8,6.8,0,0,1-1.928-4.694,6.49,6.49,0,0,1,.066-.915,6.72,6.72,0,0,1,3.364-4.855l.863-.5a9.977,9.977,0,0,1,9.445,0l40.626,23.443,2.155,1.229a1.6,1.6,0,0,1,0,2.927l-2.573,1.465a4.121,4.121,0,0,1-1.983.475h0a3.792,3.792,0,0,1-1.35-.23l-34.778-13.578,20.864,21.848a1.922,1.922,0,0,1-.463,3.094l-2.014,1.134A2.641,2.641,0,0,1,255.646,327.73Z" transform="translate(-183.992 -284.41)" fill="#e0e0e0"/>
      </g>
      <g id="freepik--Character--inject-19" transform="translate(34.773 49.863)">
        <g id="freepik--character--inject-19-2" data-name="freepik--character--inject-19">
          <path id="Path_8839" data-name="Path 8839" d="M174.4,108.8a5.286,5.286,0,0,1,5.062,2.055c1.137,1.373,6.489,10.987,6.489,10.987s11.105.288,13.221.955a6.7,6.7,0,0,1,3.741,2.59,3.628,3.628,0,0,1,.247,2.812c-.288,1.186-1.9.938-2.768,0a11.224,11.224,0,0,0-2.737-2.147c-.906-.512-9.871.121-12.311.147s-2.9-.987-4.394-3.013-4.728-6.748-4.728-6.748Z" transform="translate(-140.374 -92.368)" fill="#b16668"/>
          <path id="Path_8840" data-name="Path 8840" d="M171.64,108.545c2.377-.2,3.957-.049,5.321,1.263s6.006,9.629,6.006,9.629-.642,2.63-4.579,3.212l-5.954-7.98Z" transform="translate(-138.408 -92.151)" fill="#455a64"/>
          <g id="freepik--character--inject-19-3" data-name="freepik--character--inject-19" transform="translate(20.274)">
            <g id="freepik--Botom--inject-19" transform="translate(0 37.267)">
              <path id="Path_8841" data-name="Path 8841" d="M129.083,344.284a3.732,3.732,0,0,0,3.353.1l.812-6.579L129,336.83Z" transform="translate(-128.313 -292.057)" fill="#b16668"/>
              <path id="Path_8842" data-name="Path 8842" d="M170.765,333.762c.8,1.885,1.977,1.269,3.761.132l.118-6.5-4.6-.317Z" transform="translate(-157.543 -285.113)" fill="#b16668"/>
              <path id="Path_8843" data-name="Path 8843" d="M134.564,370.234a1.823,1.823,0,0,1-.066,1.117,3.068,3.068,0,0,1-2.242.883,5.516,5.516,0,0,1-3.24-.668,2.219,2.219,0,0,1-1.151-1.816,4.445,4.445,0,0,0-.288-2.058c-.314-.541-.74-1.073-.843-1.364a3.756,3.756,0,0,1-.046-1.609Z" transform="translate(-126.616 -311.921)" fill="#263238"/>
              <path id="Path_8844" data-name="Path 8844" d="M131.214,358.317a3.555,3.555,0,0,0,.135.837,7.513,7.513,0,0,0,.757,1.669,6.847,6.847,0,0,0,.524.791c.386.483.863.886,1.275,1.353a2.693,2.693,0,0,1,.763,1.649c.026,1.033-1.105,1.35-1.971,1.476a6.331,6.331,0,0,1-2.794-.222,2.57,2.57,0,0,1-1.822-2.112c-.04-.288-.014-.576-.04-.863a4.064,4.064,0,0,0-.745-1.827,5.333,5.333,0,0,1-.576-1,3.173,3.173,0,0,1,.178-1.986c.164-.547.288-1.2.481-1.151v.351c.058.124.2.207.233.348a2.5,2.5,0,0,0,.144.429,1.128,1.128,0,0,0,.443.518c.023-.388.049-.777.072-1.166a.411.411,0,0,1,.435-.475,7.325,7.325,0,0,1,2.21-.115.417.417,0,0,1,.288.138.432.432,0,0,1,.04.265A10.093,10.093,0,0,0,131.214,358.317Z" transform="translate(-126.613 -306.269)" fill="#37474f"/>
              <path id="Path_8845" data-name="Path 8845" d="M137.419,369.465a3,3,0,0,0-1.707-.288,2.808,2.808,0,0,0-1.35.429.311.311,0,0,1-.394-.043h0a.288.288,0,0,1,.043-.437,2.912,2.912,0,0,1,1.52-.512,3.067,3.067,0,0,1,1.494.161S137.543,369.126,137.419,369.465Z" transform="translate(-131.794 -314.689)" fill="#f5f5f5"/>
              <path id="Path_8846" data-name="Path 8846" d="M140.006,373.283a3.836,3.836,0,0,0-1.894-.25,2.705,2.705,0,0,0-1.315.455.3.3,0,0,1-.391-.04h0a.288.288,0,0,1,.04-.437,2.976,2.976,0,0,1,1.554-.555c1.151-.049,1.456.2,1.456.2A.964.964,0,0,1,140.006,373.283Z" transform="translate(-133.529 -317.425)" fill="#f5f5f5"/>
              <path id="Path_8847" data-name="Path 8847" d="M134.064,364.65a2.86,2.86,0,0,1,1.439.167c.2.121.325.446.19.524a2.673,2.673,0,0,0-1.284-.216,3.812,3.812,0,0,0-1.26.308c-.1.04-.222.1-.325.153a.288.288,0,0,1-.377-.13h0a.259.259,0,0,1,.109-.328A3.741,3.741,0,0,1,134.064,364.65Z" transform="translate(-130.753 -311.851)" fill="#f5f5f5"/>
              <path id="Path_8848" data-name="Path 8848" d="M179.956,358.75a1.252,1.252,0,0,1-.078.915,4.6,4.6,0,0,1-3.453.829,7.868,7.868,0,0,1-3.871-1.482,4.478,4.478,0,0,0-2.389-.691c-.95-.081-2.15-.576-2.343-1.03a2.058,2.058,0,0,1,.066-1.191Z" transform="translate(-155.913 -305.781)" fill="#263238"/>
              <path id="Path_8849" data-name="Path 8849" d="M172.48,344.014l.5-.164a.409.409,0,0,1,.288-.026c.121.049.164.193.19.319a4.894,4.894,0,0,0,.184.829,2.015,2.015,0,0,0,.512.576,8.724,8.724,0,0,0,1.485,1.022c.607.348,1.206.625,1.836.93a17.624,17.624,0,0,1,2,.863,1.364,1.364,0,0,1-.075,2.253,6.677,6.677,0,0,1-4.671.184c-1.085-.342-2.268-1.551-3.7-1.707-.912-.1-2.636-.409-3.206-1.12-.207-.317.112-1.283.377-2.121.288-.912.435-2.389.737-2.3.049.489.268.532.42.794a5.558,5.558,0,0,1,.308.74,1.307,1.307,0,0,0,.458.645.607.607,0,0,0,.742-.02c.288-.271.132-.763.34-1.091a1.131,1.131,0,0,1,.656-.4Z" transform="translate(-155.911 -296.841)" fill="#37474f"/>
              <path id="Path_8850" data-name="Path 8850" d="M186.19,351.009a.843.843,0,0,0-.662-.472,2.444,2.444,0,0,0-1.626.558.34.34,0,0,0,.032.576h0a.34.34,0,0,0,.391-.032,2.616,2.616,0,0,1,1.865-.63Z" transform="translate(-167.313 -301.807)" fill="#f5f5f5"/>
              <path id="Path_8851" data-name="Path 8851" d="M189.949,353.785a.973.973,0,0,0-.789-.435,3.057,3.057,0,0,0-1.778.6.334.334,0,0,0,.029.547h0a.325.325,0,0,0,.377-.032,2.622,2.622,0,0,1,2.161-.685Z" transform="translate(-169.802 -303.823)" fill="#f5f5f5"/>
              <path id="Path_8852" data-name="Path 8852" d="M194.938,356.287a1.105,1.105,0,0,0-.82-.4,2.933,2.933,0,0,0-1.707.616.334.334,0,0,0,.029.547h0a.325.325,0,0,0,.377-.032A2.507,2.507,0,0,1,194.938,356.287Z" transform="translate(-173.384 -305.632)" fill="#f5f5f5"/>
              <path id="Path_8853" data-name="Path 8853" d="M130.064,182.715c-.452,7.212-1.186,25.259-1.186,25.259-.1.895-.432,3.54-.6,6.771-.239,4.688.135,15.037.135,15.037a5.06,5.06,0,0,0,4,.317s2.668-15.252,3.52-19.857c.751-4.046,2.21-13.814,2.21-13.814l.685,11.995a38.276,38.276,0,0,0,.158,6.446c.268,2.138,1.491,11.419,1.491,11.419a8.222,8.222,0,0,0,4.366-.04s.639-15.563.734-17.534c.109-2.245.576-27.463.576-27.463Z" transform="translate(-127.745 -181.25)" fill="#455a64"/>
              <path id="Path_8854" data-name="Path 8854" d="M162.76,215.1,164,209.223a8.44,8.44,0,0,0,4.651-1.773s-.337,1.609-4.086,2.469l-1.246,5.954-.124,5.548Z" transform="translate(-152.358 -199.91)" fill="#263238"/>
            </g>
            <path id="Path_8855" data-name="Path 8855" d="M133.922,109.6c-1.416.25-1.511.953-1.822,2.36a11.5,11.5,0,0,0-.36,3.453l.728,8.374-.288,9.514c2.282,2.484,11.646,3.272,16.628-.366,0,0-.055-15.724-.288-18.248-.4-4.409-2.4-5.974-5.333-5.966l-5.019.429Z" transform="translate(-130.242 -92.325)" fill="#fff3f3"/>
            <path id="Path_8856" data-name="Path 8856" d="M133.922,109.6c-1.416.25-1.511.953-1.822,2.36a11.5,11.5,0,0,0-.36,3.453l.728,8.374-.288,9.514c2.282,2.484,11.646,3.272,16.628-.366,0,0-.055-15.724-.288-18.248-.4-4.409-2.4-5.974-5.333-5.966l-5.019.429Z" transform="translate(-130.242 -92.325)" fill="#fff" opacity="0.5"/>
            <path id="Path_8857" data-name="Path 8857" d="M157.83,61.939a4.455,4.455,0,1,0,4.438-4.469A4.455,4.455,0,0,0,157.83,61.939Z" transform="translate(-148.846 -55.824)" fill="#263238"/>
            <path id="Path_8858" data-name="Path 8858" d="M146.481,69.72l-.95-2.555a1.672,1.672,0,0,0-1.381.492c-.593.61-.256,2.509.492,4.371a38.8,38.8,0,0,0,1.025,3.945,1.531,1.531,0,0,0,.889.711Z" transform="translate(-138.887 -62.721)" fill="#263238"/>
            <path id="Path_8859" data-name="Path 8859" d="M144.978,67c-.271.164-.662-.357-1-.708a1.185,1.185,0,0,0-1.983.328,2.493,2.493,0,0,0,1.358,3c1.491.46,1.7-.489,1.7-.489l.132,5.373a4.787,4.787,0,0,0,3.623,2.731c2.642.348,2.092-1.827,1.22-2.878V72.714a9.384,9.384,0,0,0,2.014.1,2.728,2.728,0,0,0,2.107-2.227c.53-1.905.725-3.453.259-7.195-.509-4.1-5.284-4.13-7.856-2.5S144.978,67,144.978,67Z" transform="translate(-137.462 -57.542)" fill="#b16668"/>
            <path id="Path_8860" data-name="Path 8860" d="M149.836,61.567c-.432-.124-.745-.812-1.027-1.068-.472-.426.121-4.317.121-4.317a1.834,1.834,0,0,1,.446-1.96c.642-.711,1.727-.794,3.557-1.091.906-.144,1.974-.216,2.878-.383a9.14,9.14,0,0,0,2.673-.863.806.806,0,0,1,.509-.132.481.481,0,0,1,.322.271.915.915,0,0,1,.075.423,1.686,1.686,0,0,1-.078.446c-.029.086-.2.348-.167.423.092.187.8-.127.941-.17a.109.109,0,0,1,.161.06,1.727,1.727,0,0,1-.083,1.491,5.042,5.042,0,0,1-2.53,2.153,6.953,6.953,0,0,1-3.453.478A6.618,6.618,0,0,1,152.711,57a4.1,4.1,0,0,1-.322.5,2.26,2.26,0,0,1-.475.417,2.032,2.032,0,0,1-.576.265c-.21.055-.412.029-.527.256a1.1,1.1,0,0,0-.086.475l-.043,1.422a2.3,2.3,0,0,1-.095.717.788.788,0,0,1-.481.5A.466.466,0,0,1,149.836,61.567Z" transform="translate(-142.291 -51.751)" fill="#263238"/>
            <path id="Path_8861" data-name="Path 8861" d="M159.189,99.246a18.742,18.742,0,0,1-3.3-.935A2.818,2.818,0,0,1,154.7,97.16a3.891,3.891,0,0,0,.676,1.378c.627.8,3.816,1.373,3.816,1.373Z" transform="translate(-146.617 -84.092)" fill="#9a4a4d"/>
            <path id="Path_8862" data-name="Path 8862" d="M166.249,81.5a.489.489,0,1,1-.481-.5A.5.5,0,0,1,166.249,81.5Z" transform="translate(-154.146 -72.583)" fill="#263238"/>
            <path id="Path_8863" data-name="Path 8863" d="M163.706,76.717l-1.085.705a.679.679,0,0,1,.2-.918.633.633,0,0,1,.886.213Z" transform="translate(-152.187 -69.31)" fill="#263238"/>
            <path id="Path_8864" data-name="Path 8864" d="M165.607,93.09l1.727.737a.953.953,0,0,1-1.266.5.909.909,0,0,1-.46-1.24Z" transform="translate(-154.318 -81.194)" fill="#9a4a4d"/>
            <path id="Path_8865" data-name="Path 8865" d="M166.141,95.84a1.076,1.076,0,0,0,.423.078.826.826,0,0,0-.814-.708.662.662,0,0,0-.13.014A.881.881,0,0,0,166.141,95.84Z" transform="translate(-154.395 -82.703)" fill="#f28f8f"/>
            <path id="Path_8866" data-name="Path 8866" d="M181.263,76.932,180.23,76.3a.576.576,0,0,1,.812-.219A.636.636,0,0,1,181.263,76.932Z" transform="translate(-164.8 -69.021)" fill="#263238"/>
            <path id="Path_8867" data-name="Path 8867" d="M180.029,81.5a.489.489,0,1,1-.492-.5A.5.5,0,0,1,180.029,81.5Z" transform="translate(-163.96 -72.583)" fill="#263238"/>
            <path id="Path_8868" data-name="Path 8868" d="M173.48,81.85,173.558,85l1.66-.512Z" transform="translate(-159.993 -73.188)" fill="#9a4a4d"/>
          </g>
          <path id="Path_8869" data-name="Path 8869" d="M76,126.177c1.459-2.3,3.557-6.564,3.557-6.564a11.729,11.729,0,0,0,.478-7.793,11.221,11.221,0,0,0-1.177.227c-2.014.576-2.59.863-3.58,2.535-.783,1.324-3.318,7.946-4.294,10.006l-4.757-4.317c-1.125-1.117-1.289-2.59-1.957-3.56s-1.479-1.281-2.256-2.115-1.042-1.439-1.41-.843.449,1.79.576,2.075,1.042,1.027-.259.817-3.617-2.014-4.193-2.374-.679.4-.458.927-.032,1.876.345,2.748a3.776,3.776,0,0,0,1.764,2.081c1.05.694,3.4,1.321,4.469,2.3s3.589,4.167,5.12,6.089c1.948,2.443,3.661,3.574,5.246,1.778A32.7,32.7,0,0,0,76,126.177Z" transform="translate(-56.165 -94.533)" fill="#b16668"/>
          <path id="Path_8870" data-name="Path 8870" d="M117.869,111.583a5.327,5.327,0,0,0-5.707,3.255c-1.456,3.2-3.522,8.452-3.522,8.452s2.452,3.24,5.108,2.95l4.009-7.6S118.911,114.651,117.869,111.583Z" transform="translate(-93.539 -94.351)" fill="#455a64"/>
        </g>
      </g>
      <g id="freepik--Wallet--inject-19" transform="translate(85.01 81.323)">
        <g id="freepik--wallet--inject-19-2" data-name="freepik--wallet--inject-19" transform="translate(0 0)">
          <path id="Path_8871" data-name="Path 8871" d="M403.08,287a.863.863,0,0,0,.365-.806V251.278a2.546,2.546,0,0,0-.365-1.229l2.164-1.249a2.544,2.544,0,0,1,.366,1.226v34.919a.863.863,0,0,1-.366.806Z" transform="translate(-353.481 -223.554)" fill="#263238"/>
          <path id="Path_8872" data-name="Path 8872" d="M285.664,192.9a2.541,2.541,0,0,0-.881-.93l-39.515-22.815a5.511,5.511,0,0,0-4.984,0l-.863.5a2.216,2.216,0,0,0-1.2,1.911v37.8a2.225,2.225,0,0,1,1.2-1.914l.863-.5a5.511,5.511,0,0,1,4.984,0l39.509,22.815a.76.76,0,0,0,1.246-.719V194.129A2.547,2.547,0,0,0,285.664,192.9Z" transform="translate(-236.064 -166.405)" fill="#37474f"/>
          <path id="Path_8873" data-name="Path 8873" d="M232.995,166.879a2.138,2.138,0,0,1,1.094-2.558l.863-.5a5.511,5.511,0,0,1,4.984,0l39.507,22.815a2.55,2.55,0,0,1,.881.93l2.164-1.249a2.591,2.591,0,0,0-.881-.932l-40.594-23.431a7.666,7.666,0,0,0-7.143,0l-.863.495a4.441,4.441,0,0,0-2.233,3.206,4,4,0,0,0-.043.576,4.507,4.507,0,0,0,1.292,3.1l1.563-1.491a2.532,2.532,0,0,1-.59-.961" transform="translate(-230.73 -161.073)" fill="#455a64"/>
          <path id="Path_8874" data-name="Path 8874" d="M287.4,203.7v-4.786l-39.688-22.907a2.685,2.685,0,0,0-2.492,0l-.432.247a1.108,1.108,0,0,0-.6.955v8.279Z" transform="translate(-240.316 -171.494)" fill="#fff3f3"/>
          <path id="Path_8875" data-name="Path 8875" d="M287.4,203.7v-4.786l-39.688-22.907a2.685,2.685,0,0,0-2.492,0l-.432.247a1.108,1.108,0,0,0-.6.955v8.279Z" transform="translate(-240.316 -171.494)" opacity="0.2"/>
          <path id="Path_8876" data-name="Path 8876" d="M245.58,172.431a3.842,3.842,0,0,0-3.571,0l-.429.247a2.219,2.219,0,0,0-1.119,1.594,2.018,2.018,0,0,0-.02.288v1.3l1.079,1.128v-2.4a1.105,1.105,0,0,1,.6-.955l.432-.247a2.754,2.754,0,0,1,2.492,0l39.688,22.907,1.082-.624Z" transform="translate(-237.646 -168.848)" fill="#fff3f3"/>
          <path id="Path_8877" data-name="Path 8877" d="M245.58,172.431a3.842,3.842,0,0,0-3.571,0l-.429.247a2.219,2.219,0,0,0-1.119,1.594,2.018,2.018,0,0,0-.02.288v1.3l1.079,1.128v-2.4a1.105,1.105,0,0,1,.6-.955l.432-.247a2.754,2.754,0,0,1,2.492,0l39.688,22.907,1.082-.624Z" transform="translate(-237.646 -168.848)" opacity="0.3"/>
          <path id="Path_8878" data-name="Path 8878" d="M394.34,254.824l1.082-.624v5.957l-1.082-.642Z" transform="translate(-347.256 -227.4)" fill="#fff3f3"/>
          <path id="Path_8879" data-name="Path 8879" d="M394.34,254.824l1.082-.624v5.957l-1.082-.642Z" transform="translate(-347.256 -227.4)" opacity="0.4"/>
          <path id="Path_8880" data-name="Path 8880" d="M292.113,242.313V215.429l-39.578-22.873a2.679,2.679,0,0,0-2.674,0l-1,.576v25.647l42.016,24.254a.832.832,0,0,0,1.237-.719Z" transform="translate(-243.643 -183.241)" fill="#263238"/>
          <g id="freepik--Card--inject-19" transform="translate(7.635 7.922)">
            <g id="freepik--card--inject-19-2" data-name="freepik--card--inject-19">
              <path id="Path_8881" data-name="Path 8881" d="M294.248,238.747l.679-.391a.863.863,0,0,0,.386-.671V210.058a.863.863,0,0,0-.386-.673L259.1,188.693a.863.863,0,0,0-.774,0l-.679.391a.863.863,0,0,0-.388.671v27.627a.863.863,0,0,0,.386.671l35.829,20.694a.863.863,0,0,0,.774,0Z" transform="translate(-257.26 -188.602)" fill="#fff3f3"/>
              <path id="Path_8882" data-name="Path 8882" d="M294.248,238.747l.679-.391a.863.863,0,0,0,.386-.671V210.058a.863.863,0,0,0-.386-.673L259.1,188.693a.863.863,0,0,0-.774,0l-.679.391a.863.863,0,0,0-.388.671v27.627a.863.863,0,0,0,.386.671l35.829,20.694a.863.863,0,0,0,.774,0Z" transform="translate(-257.26 -188.602)" fill="#fff" opacity="0.7"/>
              <path id="Path_8883" data-name="Path 8883" d="M293.474,212.388,257.648,191.7c-.213-.124-.388-.023-.388.224V219.55a.863.863,0,0,0,.386.671l35.829,20.694c.213.124.386.023.386-.222V213.067A.863.863,0,0,0,293.474,212.388Z" transform="translate(-257.26 -190.77)" fill="#fff3f3"/>
              <path id="Path_8884" data-name="Path 8884" d="M293.474,212.388,257.648,191.7c-.213-.124-.388-.023-.388.224V219.55a.863.863,0,0,0,.386.671l35.829,20.694c.213.124.386.023.386-.222V213.067A.863.863,0,0,0,293.474,212.388Z" transform="translate(-257.26 -190.77)" fill="#fff3f3"/>
              <path id="Path_8885" data-name="Path 8885" d="M293.474,212.388,257.648,191.7c-.213-.124-.388-.023-.388.224V219.55a.863.863,0,0,0,.386.671l35.829,20.694c.213.124.386.023.386-.222V213.067A.863.863,0,0,0,293.474,212.388Z" transform="translate(-257.26 -190.77)" fill="#fff" opacity="0.5"/>
              <path id="Path_8886" data-name="Path 8886" d="M258.61,191.83c2.941,1.8,5.9,3.566,8.872,5.321l8.921,5.215,8.982,5.128,4.51,2.532,4.533,2.492L290,209.839l-4.446-2.642-8.921-5.215-8.99-5.128C264.648,195.162,261.64,193.476,258.61,191.83Z" transform="translate(-258.221 -190.901)" fill="#fff"/>
              <path id="Path_8887" data-name="Path 8887" d="M383.487,262.647l1.439-.837a.746.746,0,0,1,.115.38v27.627a.864.864,0,0,1-.383.673l-.679.391a.863.863,0,0,1-.7.035c.178.058.311-.046.311-.262V263.027A.748.748,0,0,0,383.487,262.647Z" transform="translate(-347.014 -240.742)" fill="#fff3f3"/>
              <path id="Path_8888" data-name="Path 8888" d="M384.44,274.937l1.453-.837v7.223l-1.453.829Z" transform="translate(-347.84 -249.495)" fill="#fff3f3"/>
              <path id="Path_8889" data-name="Path 8889" d="M384.44,274.937l1.453-.837v7.223l-1.453.829Z" transform="translate(-347.84 -249.495)" opacity="0.2"/>
            </g>
            <path id="Path_8890" data-name="Path 8890" d="M257.26,203.56l36.6,21.138v7.215l-36.6-21.137Z" transform="translate(-257.26 -199.255)" opacity="0.2"/>
            <g id="freepik--Cards--inject-19" transform="translate(1.868 15.011)">
              <path id="Path_8891" data-name="Path 8891" d="M361.569,322.325v4.723c0,.354-.248.5-.555.322l-4.958-2.826a1.226,1.226,0,0,1-.555-.961V318.86c0-.354.25-.5.555-.319,1.353.78,3.606,2.043,4.958,2.823A1.226,1.226,0,0,1,361.569,322.325Z" transform="translate(-329.096 -296.102)" fill="#455a64"/>
              <g id="Group_15854" data-name="Group 15854" transform="translate(26.404 22.361)" clip-path="url(#clip-path)">
                <path id="Path_8892" data-name="Path 8892" d="M359.817,326.294l.127-.219L351.8,321.41l-.127.216Z" transform="translate(-352.772 -320.562)" fill="#fff"/>
                <rect id="Rectangle_5578" data-name="Rectangle 5578" width="0.25" height="2.406" transform="translate(3.865 3.821)" fill="#fff"/>
                <rect id="Rectangle_5579" data-name="Rectangle 5579" width="0.25" height="2.403" transform="translate(1.954 2.767)" fill="#fff"/>
                <path id="Path_8893" data-name="Path 8893" d="M359.817,334.674l.127-.219L351.8,329.79l-.127.216Z" transform="translate(-352.772 -326.53)" fill="#fff"/>
              </g>
              <path id="Path_8895" data-name="Path 8895" d="M308.991,243.089a2.705,2.705,0,0,1-.3-1.3,1.168,1.168,0,0,1,.288-.947c.19-.144.481-.106.863.106a2.49,2.49,0,0,1,.42.305,1.951,1.951,0,0,1,.319.36.147.147,0,0,1,.032.086.106.106,0,0,1-.017.06l-.112.2c-.014.02-.029.029-.046.02a.289.289,0,0,1-.052-.058,1.654,1.654,0,0,0-.481-.429q-.328-.19-.509-.043a.835.835,0,0,0-.181.645,1.819,1.819,0,0,0,.19.863,1.315,1.315,0,0,0,.515.547.791.791,0,0,0,.5.138.106.106,0,0,1,.055,0,.153.153,0,0,1,.043.072l.124.357a.2.2,0,0,1,0,.058c0,.017,0,.032-.04.043a.984.984,0,0,1-.765-.207A2.233,2.233,0,0,1,308.991,243.089Z" transform="translate(-295.756 -240.761)" fill="#455a64"/>
              <path id="Path_8896" data-name="Path 8896" d="M316.434,246.792a.33.33,0,0,1-.035-.158v-2.512q0-.095.035-.121c.02-.02.058-.014.109.017l.8.463a1.522,1.522,0,0,1,.809,1.407.89.89,0,0,1-.095.458.317.317,0,0,1-.288.155l.334,1.168a.289.289,0,0,1,0,.063c0,.052-.023.066-.066.04l-.354-.2a.216.216,0,0,1-.066-.055.2.2,0,0,1-.037-.086l-.288-1.1-.38-.219v.832c0,.06,0,.1-.032.118s-.058,0-.109-.02l-.239-.135A.265.265,0,0,1,316.434,246.792Zm.837-.99c.121.069.21.089.27.055s.092-.121.092-.268a.762.762,0,0,0-.083-.371.633.633,0,0,0-.247-.245l-.38-.219v.849Z" transform="translate(-301.248 -243.06)" fill="#455a64"/>
              <path id="Path_8897" data-name="Path 8897" d="M323.439,250.847a.368.368,0,0,1-.032-.158v-2.515a.172.172,0,0,1,.032-.121c.023-.017.06,0,.109.017l1.321.763a.259.259,0,0,1,.107.1.373.373,0,0,1,.026.153v.158a.19.19,0,0,1-.026.124c-.02.017-.055,0-.107-.017l-.938-.544v.665l.656.38a.25.25,0,0,1,.1.1.327.327,0,0,1,.029.153v.15c0,.063,0,.107-.029.124s-.055,0-.1-.02l-.656-.377v.673l.935.541a.225.225,0,0,1,.1.1.334.334,0,0,1,.029.155v.153c0,.066,0,.107-.029.121s-.052,0-.1-.02l-1.318-.76A.288.288,0,0,1,323.439,250.847Z" transform="translate(-306.238 -245.949)" fill="#455a64"/>
              <path id="Path_8898" data-name="Path 8898" d="M329.781,254.507a.331.331,0,0,1-.035-.158v-2.515a.158.158,0,0,1,.035-.121c.02-.017.058,0,.109.017l.668.386a2.147,2.147,0,0,1,.826.826,2.547,2.547,0,0,1,.288,1.258q0,.737-.288.924c-.19.124-.466.083-.823-.124l-.668-.386A.245.245,0,0,1,329.781,254.507Zm.8,0q.288.164.423.035a.956.956,0,0,0,.138-.639,1.878,1.878,0,0,0-.138-.8,1.051,1.051,0,0,0-.423-.452l-.314-.178v1.853Z" transform="translate(-310.753 -248.556)" fill="#455a64"/>
              <path id="Path_8899" data-name="Path 8899" d="M337.361,258.884a.319.319,0,0,1-.035-.155v-2.515a.158.158,0,0,1,.035-.121c.02-.017.058,0,.109.017l.239.138a.251.251,0,0,1,.109.109.322.322,0,0,1,.032.158v2.515c0,.063,0,.1-.032.121s-.058,0-.109-.02l-.239-.138A.25.25,0,0,1,337.361,258.884Z" transform="translate(-316.152 -251.675)" fill="#455a64"/>
              <path id="Path_8900" data-name="Path 8900" d="M340.527,260.728a.331.331,0,0,1-.032-.158v-2.184l-.524-.288a.288.288,0,0,1-.1-.1.34.34,0,0,1-.029-.155v-.158c0-.063,0-.1.029-.121s.055,0,.1.017l1.571.906a.247.247,0,0,1,.106.1.351.351,0,0,1,.032.158v.155c0,.063,0,.1-.032.118s-.055,0-.106-.017l-.506-.314v2.184c0,.063,0,.1-.035.118s-.058,0-.112-.02l-.236-.135A.288.288,0,0,1,340.527,260.728Z" transform="translate(-317.942 -252.722)" fill="#455a64"/>
              <path id="Path_8901" data-name="Path 8901" d="M350.984,267.337a2.654,2.654,0,0,1-.305-1.292c0-.489.1-.806.288-.947s.483-.109.863.1a2.417,2.417,0,0,1,.42.305,2.047,2.047,0,0,1,.319.36.133.133,0,0,1,.032.086.1.1,0,0,1-.017.063l-.112.193c0,.023-.029.029-.043.02a.191.191,0,0,1-.055-.055,1.591,1.591,0,0,0-.481-.432c-.219-.124-.389-.138-.509-.04a.832.832,0,0,0-.181.645,1.8,1.8,0,0,0,.19.863,1.33,1.33,0,0,0,.518.55.78.78,0,0,0,.5.138.08.08,0,0,1,.055,0,.138.138,0,0,1,.043.072l.127.354a.2.2,0,0,1,0,.06c0,.017,0,.029-.037.04a.983.983,0,0,1-.768-.2A2.2,2.2,0,0,1,350.984,267.337Z" transform="translate(-325.662 -258.033)" fill="#455a64"/>
              <path id="Path_8902" data-name="Path 8902" d="M357.9,271.9a.22.22,0,0,1,0-.06l.823-2.141a.124.124,0,0,1,.049-.072.092.092,0,0,1,.081.017l.23.135a.2.2,0,0,1,.078.069.5.5,0,0,1,.046.13l.826,3.091a.4.4,0,0,1,0,.072c0,.049-.02.063-.058.04l-.386-.222a.178.178,0,0,1-.063-.058.316.316,0,0,1-.037-.092l-.147-.576-.771-.446-.144.417a.051.051,0,0,1-.037.049.1.1,0,0,1-.066-.017l-.383-.222A.112.112,0,0,1,357.9,271.9Zm1.338-.23-.265-1.071-.265.763Z" transform="translate(-330.805 -261.315)" fill="#455a64"/>
              <path id="Path_8903" data-name="Path 8903" d="M366.328,275.607a.331.331,0,0,1-.032-.158v-2.515a.161.161,0,0,1,.032-.121c.023-.017.06,0,.109.017l.806.466a1.522,1.522,0,0,1,.809,1.407.846.846,0,0,1-.1.455.317.317,0,0,1-.288.158l.334,1.168a.255.255,0,0,1,0,.063c0,.052-.02.063-.066.037l-.351-.2a.228.228,0,0,1-.069-.052.289.289,0,0,1-.037-.089l-.288-1.1-.377-.219v.817a.164.164,0,0,1-.032.121c-.023.017-.058,0-.112-.02l-.239-.138A.287.287,0,0,1,366.328,275.607Zm.837-.99c.121.069.213.086.273.055s.089-.124.089-.271a.751.751,0,0,0-.081-.368.668.668,0,0,0-.25-.247l-.377-.216v.846Z" transform="translate(-336.784 -263.584)" fill="#455a64"/>
              <path id="Path_8904" data-name="Path 8904" d="M373.334,279.654a.325.325,0,0,1-.034-.155v-2.515q0-.095.034-.121c.023-.017.058,0,.109.017l.668.386a2.121,2.121,0,0,1,.826.823,2.556,2.556,0,0,1,.288,1.258c0,.492-.095.8-.288.927s-.466.083-.823-.124l-.671-.374A.268.268,0,0,1,373.334,279.654Zm.8,0q.288.164.423.035c.092-.083.138-.288.138-.636a1.871,1.871,0,0,0-.138-.8,1.036,1.036,0,0,0-.423-.452l-.311-.181v1.853Z" transform="translate(-341.773 -266.468)" fill="#455a64"/>
              <g id="Group_15855" data-name="Group 15855" transform="translate(12.932)" opacity="0.15">
                <path id="Path_8905" data-name="Path 8905" d="M308.991,243.089a2.705,2.705,0,0,1-.3-1.3,1.168,1.168,0,0,1,.288-.947c.19-.144.481-.106.863.106a2.49,2.49,0,0,1,.42.305,1.951,1.951,0,0,1,.319.36.147.147,0,0,1,.032.086.106.106,0,0,1-.017.06l-.112.2c-.014.02-.029.029-.046.02a.289.289,0,0,1-.052-.058,1.654,1.654,0,0,0-.481-.429q-.328-.19-.509-.043a.835.835,0,0,0-.181.645,1.819,1.819,0,0,0,.19.863,1.315,1.315,0,0,0,.515.547.791.791,0,0,0,.5.138.106.106,0,0,1,.055,0,.153.153,0,0,1,.043.072l.124.357a.2.2,0,0,1,0,.058c0,.017,0,.032-.04.043a.984.984,0,0,1-.765-.207A2.233,2.233,0,0,1,308.991,243.089Z" transform="translate(-308.688 -240.761)" fill="#455a64"/>
                <path id="Path_8906" data-name="Path 8906" d="M316.434,246.792a.33.33,0,0,1-.035-.158v-2.512q0-.095.035-.121c.02-.02.058-.014.109.017l.8.463a1.522,1.522,0,0,1,.809,1.407.89.89,0,0,1-.095.458.317.317,0,0,1-.288.155l.334,1.168a.289.289,0,0,1,0,.063c0,.052-.023.066-.066.04l-.354-.2a.216.216,0,0,1-.066-.055.2.2,0,0,1-.037-.086l-.288-1.1-.38-.219v.832c0,.06,0,.1-.032.118s-.058,0-.109-.02l-.239-.135A.265.265,0,0,1,316.434,246.792Zm.837-.99c.121.069.21.089.27.055s.092-.121.092-.268a.762.762,0,0,0-.083-.371.633.633,0,0,0-.247-.245l-.38-.219v.849Z" transform="translate(-314.18 -243.06)" fill="#455a64"/>
                <path id="Path_8907" data-name="Path 8907" d="M323.439,250.847a.368.368,0,0,1-.032-.158v-2.515a.172.172,0,0,1,.032-.121c.023-.017.06,0,.109.017l1.321.763a.259.259,0,0,1,.107.1.373.373,0,0,1,.026.153v.158a.19.19,0,0,1-.026.124c-.02.017-.055,0-.107-.017l-.938-.544v.665l.656.38a.25.25,0,0,1,.1.1.327.327,0,0,1,.029.153v.15c0,.063,0,.107-.029.124s-.055,0-.1-.02l-.656-.377v.673l.935.541a.225.225,0,0,1,.1.1.334.334,0,0,1,.029.155v.153c0,.066,0,.107-.029.121s-.052,0-.1-.02l-1.318-.76A.288.288,0,0,1,323.439,250.847Z" transform="translate(-319.171 -245.949)" fill="#455a64"/>
                <path id="Path_8908" data-name="Path 8908" d="M329.781,254.507a.331.331,0,0,1-.035-.158v-2.515a.158.158,0,0,1,.035-.121c.02-.017.058,0,.109.017l.668.386a2.147,2.147,0,0,1,.826.826,2.547,2.547,0,0,1,.288,1.258q0,.737-.288.924c-.19.124-.466.083-.823-.124l-.668-.386A.245.245,0,0,1,329.781,254.507Zm.8,0q.288.164.423.035a.956.956,0,0,0,.138-.639,1.878,1.878,0,0,0-.138-.8,1.051,1.051,0,0,0-.423-.452l-.314-.178v1.853Z" transform="translate(-323.686 -248.556)" fill="#455a64"/>
                <path id="Path_8909" data-name="Path 8909" d="M337.361,258.884a.319.319,0,0,1-.035-.155v-2.515a.158.158,0,0,1,.035-.121c.02-.017.058,0,.109.017l.239.138a.251.251,0,0,1,.109.109.322.322,0,0,1,.032.158v2.515c0,.063,0,.1-.032.121s-.058,0-.109-.02l-.239-.138A.25.25,0,0,1,337.361,258.884Z" transform="translate(-329.084 -251.675)" fill="#455a64"/>
                <path id="Path_8910" data-name="Path 8910" d="M340.527,260.728a.331.331,0,0,1-.032-.158v-2.184l-.524-.288a.288.288,0,0,1-.1-.1.34.34,0,0,1-.029-.155v-.158c0-.063,0-.1.029-.121s.055,0,.1.017l1.571.906a.247.247,0,0,1,.106.1.351.351,0,0,1,.032.158v.155c0,.063,0,.1-.032.118s-.055,0-.106-.017l-.506-.314v2.184c0,.063,0,.1-.035.118s-.058,0-.112-.02l-.236-.135A.288.288,0,0,1,340.527,260.728Z" transform="translate(-330.874 -252.722)" fill="#455a64"/>
                <path id="Path_8911" data-name="Path 8911" d="M350.984,267.337a2.654,2.654,0,0,1-.305-1.292c0-.489.1-.806.288-.947s.483-.109.863.1a2.417,2.417,0,0,1,.42.305,2.047,2.047,0,0,1,.319.36.133.133,0,0,1,.032.086.1.1,0,0,1-.017.063l-.112.193c0,.023-.029.029-.043.02a.191.191,0,0,1-.055-.055,1.591,1.591,0,0,0-.481-.432c-.219-.124-.389-.138-.509-.04a.832.832,0,0,0-.181.645,1.8,1.8,0,0,0,.19.863,1.33,1.33,0,0,0,.518.55.78.78,0,0,0,.5.138.08.08,0,0,1,.055,0,.138.138,0,0,1,.043.072l.127.354a.2.2,0,0,1,0,.06c0,.017,0,.029-.037.04a.983.983,0,0,1-.768-.2A2.2,2.2,0,0,1,350.984,267.337Z" transform="translate(-338.594 -258.033)" fill="#455a64"/>
                <path id="Path_8912" data-name="Path 8912" d="M357.9,271.9a.22.22,0,0,1,0-.06l.823-2.141a.124.124,0,0,1,.049-.072.092.092,0,0,1,.081.017l.23.135a.2.2,0,0,1,.078.069.5.5,0,0,1,.046.13l.826,3.091a.4.4,0,0,1,0,.072c0,.049-.02.063-.058.04l-.386-.222a.178.178,0,0,1-.063-.058.316.316,0,0,1-.037-.092l-.147-.576-.771-.446-.144.417a.051.051,0,0,1-.037.049.1.1,0,0,1-.066-.017l-.383-.222A.112.112,0,0,1,357.9,271.9Zm1.338-.23-.265-1.071-.265.763Z" transform="translate(-343.737 -261.315)" fill="#455a64"/>
                <path id="Path_8913" data-name="Path 8913" d="M366.328,275.607a.331.331,0,0,1-.032-.158v-2.515a.161.161,0,0,1,.032-.121c.023-.017.06,0,.109.017l.806.466a1.522,1.522,0,0,1,.809,1.407.846.846,0,0,1-.1.455.317.317,0,0,1-.288.158l.334,1.168a.255.255,0,0,1,0,.063c0,.052-.02.063-.066.037l-.351-.2a.228.228,0,0,1-.069-.052.289.289,0,0,1-.037-.089l-.288-1.1-.377-.219v.817a.164.164,0,0,1-.032.121c-.023.017-.058,0-.112-.02l-.239-.138A.287.287,0,0,1,366.328,275.607Zm.837-.99c.121.069.213.086.273.055s.089-.124.089-.271a.751.751,0,0,0-.081-.368.668.668,0,0,0-.25-.247l-.377-.216v.846Z" transform="translate(-349.716 -263.584)" fill="#455a64"/>
                <path id="Path_8914" data-name="Path 8914" d="M373.334,279.654a.325.325,0,0,1-.034-.155v-2.515q0-.095.034-.121c.023-.017.058,0,.109.017l.668.386a2.121,2.121,0,0,1,.826.823,2.556,2.556,0,0,1,.288,1.258c0,.492-.095.8-.288.927s-.466.083-.823-.124l-.671-.374A.268.268,0,0,1,373.334,279.654Zm.8,0q.288.164.423.035c.092-.083.138-.288.138-.636a1.871,1.871,0,0,0-.138-.8,1.036,1.036,0,0,0-.423-.452l-.311-.181v1.853Z" transform="translate(-354.706 -266.468)" fill="#455a64"/>
              </g>
              <path id="Path_8915" data-name="Path 8915" d="M274.954,269.077l1.413.817a.728.728,0,0,1,.334.576v.432c0,.213-.15.288-.334.193l-1.413-.817a.734.734,0,0,1-.334-.576v-.432C274.62,269.057,274.77,268.971,274.954,269.077Z" transform="translate(-271.492 -260.896)" fill="#fff3f3"/>
              <path id="Path_8916" data-name="Path 8916" d="M264.114,262.817l1.413.817a.734.734,0,0,1,.334.576v.432c0,.213-.15.288-.334.193l-1.413-.817a.734.734,0,0,1-.334-.576v-.432C263.78,262.8,263.93,262.711,264.114,262.817Z" transform="translate(-263.771 -256.437)" fill="#fff3f3"/>
              <path id="Path_8917" data-name="Path 8917" d="M282.045,283.838,264.433,273.67c-.305-.178-.553-.035-.553.319v.521a1.229,1.229,0,0,0,.553.961l17.612,10.164c.308.178.555.035.555-.319V284.8A1.215,1.215,0,0,0,282.045,283.838Z" transform="translate(-263.843 -264.145)" fill="#fff3f3"/>
              <path id="Path_8918" data-name="Path 8918" d="M274.954,269.077l1.413.817a.728.728,0,0,1,.334.576v.432c0,.213-.15.288-.334.193l-1.413-.817a.734.734,0,0,1-.334-.576v-.432C274.62,269.057,274.77,268.971,274.954,269.077Z" transform="translate(-271.492 -260.896)" fill="#455a64"/>
              <path id="Path_8919" data-name="Path 8919" d="M264.114,262.817l1.413.817a.734.734,0,0,1,.334.576v.432c0,.213-.15.288-.334.193l-1.413-.817a.734.734,0,0,1-.334-.576v-.432C263.78,262.8,263.93,262.711,264.114,262.817Z" transform="translate(-263.771 -256.437)" fill="#455a64"/>
              <path id="Path_8920" data-name="Path 8920" d="M282.045,283.838,264.433,273.67c-.305-.178-.553-.035-.553.319v.521a1.229,1.229,0,0,0,.553.961l17.612,10.164c.308.178.555.035.555-.319V284.8A1.215,1.215,0,0,0,282.045,283.838Z" transform="translate(-263.843 -264.145)" fill="#455a64"/>
              <path id="Path_8921" data-name="Path 8921" d="M264.11,245.784l.066.037a.863.863,0,0,1,.36.691V247.9c0,.265-.161.391-.365.288l-.055-.029a.835.835,0,0,1-.365-.679v-1.416C263.759,245.792,263.92,245.668,264.11,245.784Z" transform="translate(-263.75 -244.308)" fill="#fafafa"/>
              <path id="Path_8922" data-name="Path 8922" d="M270.6,249.542l.063.037a.863.863,0,0,1,.363.688v1.39c0,.268-.164.394-.365.288l-.058-.032a.832.832,0,0,1-.365-.679v-1.419C270.24,249.548,270.4,249.427,270.6,249.542Z" transform="translate(-268.372 -246.984)" fill="#fafafa"/>
              <path id="Path_8923" data-name="Path 8923" d="M277.108,253.294l.066.037a.863.863,0,0,1,.36.691v1.387c0,.265-.164.391-.365.288l-.055-.029a.829.829,0,0,1-.365-.679v-1.416C276.737,253.3,276.9,253.178,277.108,253.294Z" transform="translate(-273.007 -249.656)" fill="#fafafa"/>
              <path id="Path_8924" data-name="Path 8924" d="M283.53,257.052l.066.037a.863.863,0,0,1,.36.688v1.387c0,.268-.164.394-.366.288l-.055-.032a.835.835,0,0,1-.365-.679v-1.419C283.17,257.058,283.331,256.937,283.53,257.052Z" transform="translate(-277.581 -252.333)" fill="#fafafa"/>
              <path id="Path_8925" data-name="Path 8925" d="M294.37,263.234l.066.037a.864.864,0,0,1,.36.691v1.387c0,.265-.164.391-.365.288l-.055-.029a.834.834,0,0,1-.365-.679v-1.416C294.007,263.242,294.171,263.118,294.37,263.234Z" transform="translate(-285.302 -256.736)" fill="#fafafa"/>
              <path id="Path_8926" data-name="Path 8926" d="M300.823,266.992l.066.037a.863.863,0,0,1,.36.688V269.1c0,.265-.164.391-.365.288l-.058-.029a.835.835,0,0,1-.366-.679v-1.433C300.463,267,300.615,266.877,300.823,266.992Z" transform="translate(-289.896 -259.412)" fill="#fafafa"/>
              <path id="Path_8927" data-name="Path 8927" d="M307.293,270.743l.063.037a.863.863,0,0,1,.363.691v1.387c0,.265-.164.391-.365.288l-.058-.032a.832.832,0,0,1-.365-.676v-1.422C306.93,270.752,307.091,270.628,307.293,270.743Z" transform="translate(-294.504 -262.084)" fill="#fafafa"/>
              <path id="Path_8928" data-name="Path 8928" d="M313.76,274.5l.066.037a.863.863,0,0,1,.36.688v1.4c0,.265-.164.391-.365.288l-.055-.029a.835.835,0,0,1-.366-.679v-1.416C313.4,274.509,313.573,274.388,313.76,274.5Z" transform="translate(-299.112 -264.762)" fill="#fafafa"/>
              <path id="Path_8929" data-name="Path 8929" d="M324.6,280.683l.066.037a.863.863,0,0,1,.36.691V282.8c0,.265-.164.391-.365.288l-.055-.032a.832.832,0,0,1-.365-.676v-1.416C324.24,280.688,324.4,280.567,324.6,280.683Z" transform="translate(-306.832 -269.163)" fill="#fafafa"/>
              <path id="Path_8930" data-name="Path 8930" d="M331.108,284.442l.066.037a.863.863,0,0,1,.36.688v1.387c0,.265-.161.391-.365.288l-.055-.029a.835.835,0,0,1-.366-.679v-1.416C330.733,284.448,330.895,284.327,331.108,284.442Z" transform="translate(-311.466 -271.841)" fill="#fafafa"/>
              <path id="Path_8931" data-name="Path 8931" d="M337.523,288.192l.063.037a.863.863,0,0,1,.363.691V290.3c0,.268-.164.394-.365.288l-.058-.032a.832.832,0,0,1-.365-.679v-1.413C337.16,288.2,337.321,288.077,337.523,288.192Z" transform="translate(-316.034 -274.512)" fill="#fafafa"/>
              <path id="Path_8932" data-name="Path 8932" d="M343.99,291.943l.066.04a.863.863,0,0,1,.36.688v1.387c0,.265-.164.391-.365.288l-.055-.029a.829.829,0,0,1-.365-.679v-1.422C343.627,291.952,343.791,291.828,343.99,291.943Z" transform="translate(-320.642 -277.183)" fill="#fafafa"/>
              <path id="Path_8933" data-name="Path 8933" d="M354.83,298.132l.066.037a.863.863,0,0,1,.36.691v1.384c0,.268-.164.394-.365.288l-.055-.032a.823.823,0,0,1-.365-.679v-1.413C354.47,298.138,354.623,298.017,354.83,298.132Z" transform="translate(-328.363 -281.591)" fill="#fafafa"/>
              <path id="Path_8934" data-name="Path 8934" d="M361.29,301.887l.066.04a.863.863,0,0,1,.36.688V304c0,.265-.164.391-.365.288l-.055-.029a.835.835,0,0,1-.365-.679v-1.416C360.93,301.887,361.091,301.769,361.29,301.887Z" transform="translate(-332.963 -284.264)" fill="#fafafa"/>
              <path id="Path_8935" data-name="Path 8935" d="M367.75,305.642l.066.037a.863.863,0,0,1,.36.688v1.387c0,.268-.161.394-.365.288l-.055-.032a.832.832,0,0,1-.365-.679v-1.416C367.39,305.648,367.566,305.527,367.75,305.642Z" transform="translate(-337.564 -286.94)" fill="#fafafa"/>
              <path id="Path_8936" data-name="Path 8936" d="M374.213,309.394l.063.037a.864.864,0,0,1,.363.691v1.387c0,.265-.164.391-.365.288l-.058-.029a.835.835,0,0,1-.365-.679v-1.416C373.85,309.4,374.011,309.279,374.213,309.394Z" transform="translate(-342.165 -289.612)" fill="#fafafa"/>
            </g>
          </g>
          <path id="Path_8937" data-name="Path 8937" d="M302.747,268.841c0,.791-.561,1.114-1.246.719l-33.745-19.474a2.763,2.763,0,0,1-1.246-2.158V229.11l36.237,20.922Z" transform="translate(-256.213 -209.53)" fill="#fff" opacity="0.35"/>
          <path id="Path_8938" data-name="Path 8938" d="M232.022,219.894l28.22,29.552c.288.308.576.4.742.288s.25-.325.25-.691v-34.9a3.687,3.687,0,0,0-.288-1.278,3.741,3.741,0,0,0-.719-1.2L232.022,182.1a4.507,4.507,0,0,1-1.292-3.1v37.791A4.507,4.507,0,0,0,232.022,219.894Z" transform="translate(-230.73 -173.841)" fill="#37474f"/>
          <path id="Path_8939" data-name="Path 8939" d="M237.374,202.761a.144.144,0,0,1-.144-.144v-.432a.144.144,0,0,1,.092-.132.141.141,0,0,1,.155.032l.288.314a.144.144,0,0,1,0,.2.141.141,0,0,1-.2,0l-.052-.052v.055a.144.144,0,0,1-.138.155Z" transform="translate(-235.359 -190.252)" fill="#455a64"/>
          <path id="Path_8940" data-name="Path 8940" d="M267.028,263.481a.147.147,0,0,1-.144-.144v-.849a.144.144,0,1,1,.288,0v.849A.144.144,0,0,1,267.028,263.481Zm0-2.265a.144.144,0,0,1-.144-.144v-.843a.144.144,0,1,1,.288,0v.849a.144.144,0,0,1-.144.144Zm0-2.265a.144.144,0,0,1-.144-.144v-.849a.144.144,0,0,1,.288,0v.849a.144.144,0,0,1-.144.15Zm0-2.265a.144.144,0,0,1-.144-.144v-.863a.144.144,0,1,1,.288,0v.863a.144.144,0,0,1-.144.15Zm0-2.265a.144.144,0,0,1-.144-.144v-.863a.144.144,0,1,1,.288,0v.863a.144.144,0,0,1-.144.15Zm0-2.265a.144.144,0,0,1-.144-.144v-.849a.147.147,0,0,1,.144-.144.144.144,0,0,1,.144.144v.849a.144.144,0,0,1-.144.15Zm0-2.265a.144.144,0,0,1-.144-.144V248.9a.147.147,0,0,1,.144-.144.144.144,0,0,1,.144.144v.849a.144.144,0,0,1-.144.15Zm0-2.262a.147.147,0,0,1-.144-.144v-.863a.147.147,0,0,1,.144-.144.144.144,0,0,1,.144.144v.863a.144.144,0,0,1-.144.15Zm0-2.265a.147.147,0,0,1-.144-.144v-.849a.144.144,0,0,1,.288,0v.849a.144.144,0,0,1-.144.15Zm0-2.265a.147.147,0,0,1-.144-.144v-.849a.144.144,0,1,1,.288,0v.849a.144.144,0,0,1-.144.15Zm0-2.265a.147.147,0,0,1-.144-.144v-.849a.144.144,0,1,1,.288,0v.849a.144.144,0,0,1-.144.15Zm0-2.265a.144.144,0,0,1-.144-.144v-.846a.144.144,0,1,1,.288,0v.863a.144.144,0,0,1-.144.132Zm0-2.265a.144.144,0,0,1-.144-.144v-.849a.144.144,0,1,1,.288,0v.849a.144.144,0,0,1-.144.15Zm0-2.276a.135.135,0,0,1-.144-.132,1.609,1.609,0,0,0-.127-.521c-.035-.083-.066-.158-.1-.222a.143.143,0,1,1,.256-.129c.035.072.072.153.109.247a1.9,1.9,0,0,1,.147.6.155.155,0,0,1-.144.164Zm-1.151-1.862a.15.15,0,0,1-.1-.046l-.576-.613a.145.145,0,1,1,.21-.2l.576.613a.144.144,0,0,1,0,.2.15.15,0,0,1-.118.046Zm-1.563-1.64a.147.147,0,0,1-.1-.043l-.576-.616a.144.144,0,0,1,.207-.2l.576.616a.144.144,0,0,1-.1.242Zm-1.563-1.638a.141.141,0,0,1-.1-.043l-.576-.616a.144.144,0,0,1,0-.2.141.141,0,0,1,.2,0l.576.616a.144.144,0,0,1-.1.242Zm-1.566-1.637a.138.138,0,0,1-.124-.032l-.576-.613a.144.144,0,1,1,.2-.2l.576.613a.144.144,0,0,1,0,.2.15.15,0,0,1-.092.037Zm-1.563-1.632a.15.15,0,0,1-.1-.046l-.576-.613a.145.145,0,0,1,.21-.2l.576.613a.144.144,0,0,1,0,.2A.15.15,0,0,1,259.623,225.621Zm-1.563-1.64a.147.147,0,0,1-.1-.043l-.576-.616a.144.144,0,0,1,.207-.2l.576.616a.141.141,0,0,1,0,.2.129.129,0,0,1-.115.04Zm-1.563-1.637a.138.138,0,0,1-.1-.043l-.576-.616a.144.144,0,1,1,.207-.2l.576.616a.141.141,0,0,1,0,.2.147.147,0,0,1-.115.04Zm-1.566-1.637a.138.138,0,0,1-.1-.046l-.576-.613a.145.145,0,0,1,.21-.2l.576.613a.144.144,0,0,1,0,.2.15.15,0,0,1-.118.04Zm-1.563-1.64a.147.147,0,0,1-.1-.043l-.576-.613a.144.144,0,0,1,0-.2.141.141,0,0,1,.2,0l.576.613a.144.144,0,0,1,0,.2.153.153,0,0,1-.109.043Zm-1.574-1.629a.141.141,0,0,1-.1-.043l-.576-.616a.141.141,0,0,1,0-.2.144.144,0,0,1,.2,0l.576.616a.141.141,0,0,1,0,.2A.13.13,0,0,1,251.8,217.436ZM250.23,215.8a.147.147,0,0,1-.1-.043l-.576-.622a.144.144,0,1,1,.2-.2l.576.616a.141.141,0,0,1,0,.2.15.15,0,0,1-.1.043Zm-1.563-1.637a.138.138,0,0,1-.1-.046l-.576-.613a.145.145,0,1,1,.21-.2l.576.613a.144.144,0,0,1,0,.2.15.15,0,0,1-.107.032Zm-1.563-1.637a.15.15,0,0,1-.1-.046l-.576-.613a.144.144,0,1,1,.207-.2l.576.616a.144.144,0,0,1,0,.2.141.141,0,0,1-.1.032Zm-1.563-1.64a.147.147,0,0,1-.107-.043l-.576-.616a.141.141,0,0,1,0-.2.144.144,0,0,1,.2,0l.576.616a.141.141,0,0,1,0,.2.135.135,0,0,1-.1.035Zm-1.566-1.637a.138.138,0,0,1-.1-.046l-.576-.613a.145.145,0,0,1,.21-.2l.576.613a.144.144,0,0,1,0,.2.15.15,0,0,1-.106.032Zm-1.563-1.637a.138.138,0,0,1-.1-.046l-.576-.613a.144.144,0,0,1,0-.2.141.141,0,0,1,.2,0l.576.613a.144.144,0,0,1,0,.2.141.141,0,0,1-.1.037Z" transform="translate(-238.537 -193.571)" fill="#455a64"/>
          <path id="Path_8941" data-name="Path 8941" d="M328.664,408.659a.147.147,0,0,1-.1-.043l-.288-.314a.145.145,0,0,1,.21-.2l.049.052v-.072a.144.144,0,1,1,.288,0v.432a.138.138,0,0,1-.089.132A.124.124,0,0,1,328.664,408.659Z" transform="translate(-300.173 -336.896)" fill="#455a64"/>
          <path id="Path_8942" data-name="Path 8942" d="M262.543,265.351a.138.138,0,0,1-.1-.043l-.607-.636a.147.147,0,0,1,0-.2.144.144,0,0,1,.2,0l.607.636a.141.141,0,0,1,0,.2A.147.147,0,0,1,262.543,265.351Zm-1.617-1.692a.138.138,0,0,1-.1-.046l-.607-.633a.145.145,0,1,1,.21-.2l.6.633a.144.144,0,0,1,0,.2.155.155,0,0,1-.1.04Zm-1.6-1.692a.138.138,0,0,1-.1-.046l-.6-.633a.144.144,0,1,1,.2-.2l.6.633a.144.144,0,0,1,0,.2A.149.149,0,0,1,259.323,261.967Zm-1.629-1.7a.144.144,0,0,1-.1-.046l-.607-.636a.144.144,0,0,1,.207-.2l.607.636a.144.144,0,0,1,0,.2A.147.147,0,0,1,257.694,260.263Zm-1.617-1.7a.147.147,0,0,1-.1-.043l-.607-.636a.141.141,0,0,1,0-.2.144.144,0,0,1,.2,0l.6.636a.144.144,0,0,1,0,.2.152.152,0,0,1-.1.052Zm-1.617-1.692a.147.147,0,0,1-.1-.043l-.6-.636a.144.144,0,1,1,.207-.2l.607.636a.141.141,0,0,1,0,.2.135.135,0,0,1-.106.052Zm-1.614-1.692a.141.141,0,0,1-.1-.043l-.613-.633a.144.144,0,0,1,0-.2.141.141,0,0,1,.2,0l.607.633a.144.144,0,0,1,0,.2.141.141,0,0,1-.092.055Zm-1.617-1.692a.138.138,0,0,1-.1-.046l-.607-.633a.145.145,0,1,1,.21-.2l.6.633a.144.144,0,0,1,0,.2.15.15,0,0,1-.1.052ZM249.61,251.8a.138.138,0,0,1-.1-.046l-.6-.633a.144.144,0,1,1,.207-.2l.607.633a.144.144,0,0,1,0,.2.15.15,0,0,1-.106.052ZM248,250.108a.15.15,0,0,1-.1-.046l-.607-.636a.144.144,0,0,1,.207-.2l.607.648a.144.144,0,0,1,0,.2.141.141,0,0,1-.1.04Zm-1.623-1.684a.147.147,0,0,1-.1-.043l-.607-.636a.141.141,0,0,1,0-.2.144.144,0,0,1,.2,0l.6.636a.141.141,0,0,1-.1.242Zm-1.609-1.686a.147.147,0,0,1-.106-.043l-.6-.636a.144.144,0,1,1,.207-.2l.607.636a.141.141,0,0,1,0,.2.135.135,0,0,1-.1.04Zm-1.617-1.692a.147.147,0,0,1-.1-.043l-.607-.636a.144.144,0,0,1,0-.2.141.141,0,0,1,.2,0l.607.633a.144.144,0,0,1,0,.2.141.141,0,0,1-.1.04Zm-1.617-1.692a.138.138,0,0,1-.1-.046l-.607-.633a.145.145,0,1,1,.21-.2l.6.633a.144.144,0,0,1,0,.2.15.15,0,0,1-.1.035Zm-1.614-1.692a.141.141,0,0,1-.106-.046l-.6-.633a.144.144,0,1,1,.207-.2l.607.633a.144.144,0,0,1,0,.2.147.147,0,0,1-.1.035Zm-1.617-1.692a.15.15,0,0,1-.1-.046l-.19-.2a2.77,2.77,0,0,1-.386-.5.138.138,0,0,1,.046-.2.141.141,0,0,1,.2.046,2.726,2.726,0,0,0,.351.452l.187.2a.144.144,0,0,1,0,.2.141.141,0,0,1-.1.035Zm-.924-2.069a.144.144,0,0,1-.144-.144v-.863a.144.144,0,0,1,.288,0v.863a.144.144,0,0,1-.144.138Zm0-2.34a.147.147,0,0,1-.144-.144v-.878a.144.144,0,1,1,.288,0v.878a.144.144,0,0,1-.144.138Zm0-2.343a.144.144,0,0,1-.144-.144V232.2a.147.147,0,0,1,.144-.144.144.144,0,0,1,.144.144v.878a.144.144,0,0,1-.144.138Zm0-2.34a.144.144,0,0,1-.144-.144v-.878a.147.147,0,0,1,.144-.144.144.144,0,0,1,.144.144v.878a.144.144,0,0,1-.144.138Zm0-2.34a.144.144,0,0,1-.144-.144v-.878a.144.144,0,1,1,.288,0v.878a.144.144,0,0,1-.144.138Zm0-2.34a.147.147,0,0,1-.144-.144v-.878a.144.144,0,1,1,.288,0v.878a.144.144,0,0,1-.144.138Zm0-2.343a.144.144,0,0,1-.144-.144v-.878a.147.147,0,0,1,.144-.144.144.144,0,0,1,.144.144v.881a.144.144,0,0,1-.144.135Zm0-2.34a.144.144,0,0,1-.144-.144v-.878a.147.147,0,0,1,.144-.144.144.144,0,0,1,.144.144v.878a.144.144,0,0,1-.144.138Zm0-2.34a.144.144,0,0,1-.144-.144v-.878a.144.144,0,0,1,.288,0v.878a.144.144,0,0,1-.144.138Zm0-2.34a.147.147,0,0,1-.144-.144v-.878a.144.144,0,0,1,.288,0v.878a.144.144,0,0,1-.144.138Zm0-2.343a.144.144,0,0,1-.144-.144v-.878a.147.147,0,0,1,.144-.144.144.144,0,0,1,.144.144v.878a.144.144,0,0,1-.144.138Zm0-2.34a.144.144,0,0,1-.144-.144v-.878a.147.147,0,0,1,.144-.144.144.144,0,0,1,.144.144v.878a.144.144,0,0,1-.144.138Zm0-2.34a.144.144,0,0,1-.144-.144v-.878a.144.144,0,1,1,.288,0v.878a.144.144,0,0,1-.144.138Z" transform="translate(-235.359 -194.958)" fill="#455a64"/>
          <path id="Path_8943" data-name="Path 8943" d="M337.734,292.76l-1.954,1.131a3.685,3.685,0,0,1,.288,1.278v34.9c0,.365-.095.6-.25.691l1.922-1.111c.158-.089.253-.325.253-.691v-34.9A3.56,3.56,0,0,0,337.734,292.76Z" transform="translate(-305.549 -254.863)" fill="#263238"/>
          <path id="Path_8944" data-name="Path 8944" d="M313.625,335.356a4.651,4.651,0,0,0-1.047-2.8c-.576-.6-1.048-.334-1.048.607a4.636,4.636,0,0,0,1.048,2.8C313.156,336.567,313.625,336.3,313.625,335.356Z" transform="translate(-288.277 -282.975)" fill="#fafafa"/>
          <path id="Path_8945" data-name="Path 8945" d="M411.87,298.95l4.849,2.8-4.849,2.8Z" transform="translate(-359.741 -259.272)" fill="#37474f"/>
          <path id="Path_8946" data-name="Path 8946" d="M415.551,299.056l1.091-.63a.76.76,0,0,0,0-1.439l-4.771-2.757V295.6l3.33,1.922a.236.236,0,0,1,0,.406l-.817.472Z" transform="translate(-359.741 -255.91)" fill="#455a64"/>
          <path id="Path_8947" data-name="Path 8947" d="M394.652,308.633a5.346,5.346,0,0,0-2.492,4.138,1.572,1.572,0,0,0,.685,1.462c.423.239,1.183.682,1.183.682l7.407-4.8a.863.863,0,0,0,.515-.717V304a.863.863,0,0,1-.515.719Z" transform="translate(-345.704 -262.868)" fill="#455a64"/>
          <path id="Path_8948" data-name="Path 8948" d="M398.722,310.973a5.338,5.338,0,0,0-2.492,4.138c0,1.491,1.114,2.055,2.492,1.26l6.78-3.917a.88.88,0,0,0,.518-.717v-5.4a.863.863,0,0,1-.518.719Z" transform="translate(-348.602 -264.535)" fill="#37474f"/>
          <path id="Path_8949" data-name="Path 8949" d="M402.789,324.765c.791-.458,1.439-.086,1.439.826a3.186,3.186,0,0,1-1.439,2.484c-.791.458-1.439.086-1.439-.829A3.165,3.165,0,0,1,402.789,324.765Z" transform="translate(-352.249 -277.518)" fill="#fafafa"/>
          <path id="Path_8950" data-name="Path 8950" d="M265.374,212.161l-28.591-29.949a2.532,2.532,0,0,1-.59-.961l-.973,2.452,28.22,29.57a3.823,3.823,0,0,1,.719,1.2l1.954-1.131A3.584,3.584,0,0,0,265.374,212.161Z" transform="translate(-233.928 -175.443)" fill="#455a64"/>
        </g>
      </g>
      <g id="freepik--Coin--inject-19" transform="translate(31.758 49.099)">
        <g id="freepik--coin--inject-19-2" data-name="freepik--coin--inject-19" transform="translate(0)">
          <path id="Path_8958" data-name="Path 8958" d="M56.5,49.514a3.982,3.982,0,0,0-3.807.15c-3.514,1.692-6.628,6.705-6.976,11.206-.193,2.544.55,4.374,1.868,5.18.337.2,1.646.947,1.957,1.134A4.012,4.012,0,0,0,53.4,67.06c3.514-1.692,6.639-6.705,6.976-11.195.2-2.59-.576-4.429-1.928-5.212C58.121,50.452,56.829,49.7,56.5,49.514Z" transform="translate(-45.685 -49.099)" fill="#fff3f3"/>
          <path id="Path_8959" data-name="Path 8959" d="M56.5,49.514a3.982,3.982,0,0,0-3.807.15c-3.514,1.692-6.628,6.705-6.976,11.206-.193,2.544.55,4.374,1.868,5.18.337.2,1.646.947,1.957,1.134A4.012,4.012,0,0,0,53.4,67.06c3.514-1.692,6.639-6.705,6.976-11.195.2-2.59-.576-4.429-1.928-5.212C58.121,50.452,56.829,49.7,56.5,49.514Z" transform="translate(-45.685 -49.099)" fill="#f7ff00" opacity="0.25"/>
          <path id="Path_8960" data-name="Path 8960" d="M59.848,66.972,49.261,60.86a15.559,15.559,0,0,0-3.545,8.374c-.193,2.544.55,4.374,1.868,5.18.337.2,1.646.947,1.957,1.134a4.012,4.012,0,0,0,3.856-.124C56.2,74.069,58.757,70.6,59.848,66.972Z" transform="translate(-45.685 -57.476)" opacity="0.1"/>
          <path id="Path_8961" data-name="Path 8961" d="M46.321,79.75a13.091,13.091,0,0,0-.576,2.938c-.193,2.544.55,4.374,1.868,5.18.337.2,1.646.947,1.957,1.134a4.012,4.012,0,0,0,3.856-.124,10.821,10.821,0,0,0,3.557-2.973Z" transform="translate(-45.706 -70.929)" opacity="0.1"/>
          <path id="Path_8962" data-name="Path 8962" d="M59.394,53.548c-3.517,1.692-6.639,6.705-6.979,11.2s2.236,6.76,5.756,5.071,6.639-6.705,6.979-11.195S62.922,51.859,59.394,53.548Z" transform="translate(-50.457 -51.87)" fill="#fff3f3"/>
          <path id="Path_8963" data-name="Path 8963" d="M59.394,53.548c-3.517,1.692-6.639,6.705-6.979,11.2s2.236,6.76,5.756,5.071,6.639-6.705,6.979-11.195S62.922,51.859,59.394,53.548Z" transform="translate(-50.457 -51.87)" opacity="0.2"/>
          <path id="Path_8964" data-name="Path 8964" d="M68.447,67.016a10.72,10.72,0,0,1-1.58,4.253A8.793,8.793,0,0,1,63.9,74.306a2.362,2.362,0,0,1-2.826,0,3.614,3.614,0,0,1-.82-3.215,10.648,10.648,0,0,1,1.577-4.253A8.8,8.8,0,0,1,64.8,63.8a2.358,2.358,0,0,1,2.823,0A3.623,3.623,0,0,1,68.447,67.016Z" transform="translate(-56.028 -59.24)" fill="#fff3f3"/>
          <path id="Path_8965" data-name="Path 8965" d="M68.447,67.016a10.72,10.72,0,0,1-1.58,4.253A8.793,8.793,0,0,1,63.9,74.306a2.362,2.362,0,0,1-2.826,0,3.614,3.614,0,0,1-.82-3.215,10.648,10.648,0,0,1,1.577-4.253A8.8,8.8,0,0,1,64.8,63.8a2.358,2.358,0,0,1,2.823,0A3.623,3.623,0,0,1,68.447,67.016Z" transform="translate(-56.028 -59.24)" fill="#c9bd10" opacity="0.4"/>
          <path id="Path_8966" data-name="Path 8966" d="M64.413,55.181c-.973-.863-2.377-.909-3.948-.155a11.7,11.7,0,0,0-4.533,4.415A14.622,14.622,0,0,0,53.7,65.878c-.15,2.014.288,3.589,1.275,4.446s2.374.912,3.948.155a11.66,11.66,0,0,0,4.533-4.409,14.593,14.593,0,0,0,2.23-6.441C65.852,57.618,65.389,56.041,64.413,55.181Zm-1.439,2.337a3.623,3.623,0,0,1,.823,3.215,10.72,10.72,0,0,1-1.586,4.239,8.793,8.793,0,0,1-2.964,3.036,2.362,2.362,0,0,1-2.826,0,3.614,3.614,0,0,1-.82-3.215,10.648,10.648,0,0,1,1.577-4.253A8.8,8.8,0,0,1,60.145,57.5,2.335,2.335,0,0,1,62.974,57.518Z" transform="translate(-51.372 -52.942)" fill="#dca713"/>
          <path id="Path_8967" data-name="Path 8967" d="M65.675,64.945c2.1-1.151,3.54.106,3.215,2.835A10.256,10.256,0,0,1,64.5,74.821c-2.1,1.163-3.54-.092-3.215-2.826A10.28,10.28,0,0,1,65.675,64.945Z" transform="translate(-56.764 -60.081)" opacity="0.2"/>
          <path id="Path_8968" data-name="Path 8968" d="M65.675,64.945c2.1-1.151,3.54.106,3.215,2.835A10.256,10.256,0,0,1,64.5,74.821c-2.1,1.163-3.54-.092-3.215-2.826A10.28,10.28,0,0,1,65.675,64.945Z" transform="translate(-56.764 -60.081)" fill="#fff3f3"/>
          <path id="Path_8969" data-name="Path 8969" d="M65.675,64.945c2.1-1.151,3.54.106,3.215,2.835A10.256,10.256,0,0,1,64.5,74.821c-2.1,1.163-3.54-.092-3.215-2.826A10.28,10.28,0,0,1,65.675,64.945Z" transform="translate(-56.764 -60.081)" fill="#7b6704" opacity="0.6"/>
          <path id="Path_8970" data-name="Path 8970" d="M68.287,67.238A10.3,10.3,0,0,1,63.9,74.28a2.347,2.347,0,0,1-2.19.262,3.755,3.755,0,0,1-.423-2.567,10.271,10.271,0,0,1,4.389-7.039,2.342,2.342,0,0,1,2.187-.262A3.772,3.772,0,0,1,68.287,67.238Z" transform="translate(-56.763 -60.072)" fill="#fff3f3"/>
          <path id="Path_8971" data-name="Path 8971" d="M68.287,67.238A10.3,10.3,0,0,1,63.9,74.28a2.347,2.347,0,0,1-2.19.262,3.755,3.755,0,0,1-.423-2.567,10.271,10.271,0,0,1,4.389-7.039,2.342,2.342,0,0,1,2.187-.262A3.772,3.772,0,0,1,68.287,67.238Z" transform="translate(-56.763 -60.072)" fill="#e5c914" opacity="0.5"/>
          <path id="Path_8972" data-name="Path 8972" d="M69.932,72.381a1.342,1.342,0,0,0-1,0l-.337.121a1.108,1.108,0,0,1,.44-.437c.5-.305.717-.046.768.207l1.217-1.091a1.174,1.174,0,0,0-.124-.337.751.751,0,0,0-.222-.224c-.058-.035-.886-.486-.967-.509a.984.984,0,0,0-.227-.032v-.144l-.8-.435-.955.576v.173l.02.593a2.493,2.493,0,0,0-.981,1.094c-.023.037-.04.072-.06.106a2.417,2.417,0,0,0-.288,1.229h0a.863.863,0,0,0,.331.757c.017,0,.665.354.771.423l.075.04.058.023h0l.066.017h.132a1.71,1.71,0,0,0,.429.006.923.923,0,0,0,.222-.055l.319-.095.095-.032a1.191,1.191,0,0,1-.44.417,1.235,1.235,0,0,1-.288.138l-.452-.262-1.151,1.039a.863.863,0,0,0,.322.446c.141.095.7.383.823.455a.725.725,0,0,0,.337.1v.17l.786.432.967-.576-.032-.763a3.531,3.531,0,0,0,.95-1.059h0a2.432,2.432,0,0,0,.319-1.284.9.9,0,0,0-.325-.786C70.542,72.709,70.032,72.45,69.932,72.381Z" transform="translate(-60.445 -63.629)" fill="#fff3f3"/>
          <path id="Path_8973" data-name="Path 8973" d="M69.932,72.381a1.342,1.342,0,0,0-1,0l-.337.121a1.108,1.108,0,0,1,.44-.437c.5-.305.717-.046.768.207l1.217-1.091a1.174,1.174,0,0,0-.124-.337.751.751,0,0,0-.222-.224c-.058-.035-.886-.486-.967-.509a.984.984,0,0,0-.227-.032v-.144l-.8-.435-.955.576v.173l.02.593a2.493,2.493,0,0,0-.981,1.094c-.023.037-.04.072-.06.106a2.417,2.417,0,0,0-.288,1.229h0a.863.863,0,0,0,.331.757c.017,0,.665.354.771.423l.075.04.058.023h0l.066.017h.132a1.71,1.71,0,0,0,.429.006.923.923,0,0,0,.222-.055l.319-.095.095-.032a1.191,1.191,0,0,1-.44.417,1.235,1.235,0,0,1-.288.138l-.452-.262-1.151,1.039a.863.863,0,0,0,.322.446c.141.095.7.383.823.455a.725.725,0,0,0,.337.1v.17l.786.432.967-.576-.032-.763a3.531,3.531,0,0,0,.95-1.059h0a2.432,2.432,0,0,0,.319-1.284.9.9,0,0,0-.325-.786C70.542,72.709,70.032,72.45,69.932,72.381Z" transform="translate(-60.445 -63.629)" fill="#ffff70" opacity="0.3"/>
          <g id="Group_15856" data-name="Group 15856" transform="translate(6.134 6.446)" opacity="0.1">
            <path id="Path_8974" data-name="Path 8974" d="M74.937,79.729a1.332,1.332,0,0,1,.987-.017c-.17-.1-.665-.357-.771-.423a1.342,1.342,0,0,0-1,0l-.337.115h0a.668.668,0,0,0-.075.325C73.765,80.219,74.315,79.916,74.937,79.729Z" transform="translate(-71.8 -76.978)"/>
            <path id="Path_8975" data-name="Path 8975" d="M72.1,94.15v.17l.786.432h0L72.863,94A1.727,1.727,0,0,1,72.1,94.15Z" transform="translate(-70.632 -87.525)"/>
            <path id="Path_8976" data-name="Path 8976" d="M67.771,91.443,67,91a.863.863,0,0,0,.322.446c.135.092.645.354.8.443A.863.863,0,0,1,67.771,91.443Z" transform="translate(-67 -85.388)"/>
            <path id="Path_8977" data-name="Path 8977" d="M74.147,85.879a.187.187,0,0,0-.178-.109,2.242,2.242,0,0,0-.645.15H73.3a1.191,1.191,0,0,1-.44.417,1.234,1.234,0,0,1-.288.138l.342.187c.069.288.319.365.748.106s.538-.524.53-.754A.4.4,0,0,0,74.147,85.879Z" transform="translate(-70.967 -81.663)"/>
            <path id="Path_8978" data-name="Path 8978" d="M70.97,71.5l.786.435.029.768L71,72.268Z" transform="translate(-69.828 -71.5)"/>
          </g>
          <path id="Path_8979" data-name="Path 8979" d="M70.483,71.751l.023.6a2.463,2.463,0,0,0-.984,1.091c-.023.037-.04.075-.058.109a2.414,2.414,0,0,0-.288,1.229h0c.017.455.17.688.389.789l.058.023h0l.066.017h.132a1.71,1.71,0,0,0,.423,0,.924.924,0,0,0,.222-.055l.319-.095.121-.04a2.058,2.058,0,0,1,.645-.15.187.187,0,0,1,.178.109.4.4,0,0,1,.029.144.913.913,0,0,1-.53.754c-.4.242-.679.193-.748-.106l-1.151,1.048c.207.576.705.728,1.459.409l.032.763.967-.576-.032-.763a3.531,3.531,0,0,0,.95-1.059h0a2.432,2.432,0,0,0,.319-1.284c-.04-1.01-.668-.97-1.335-.777-.622.187-1.171.489-1.191,0a.9.9,0,0,1,.515-.763c.5-.305.717-.046.768.207L73,72.281a1.174,1.174,0,0,0-.132-.368.691.691,0,0,0-.4-.288,1.543,1.543,0,0,0-.99.161L71.427,71l-.95.576Z" transform="translate(-62.415 -64.697)" fill="#e8cd1d"/>
          <path id="Path_8980" data-name="Path 8980" d="M75.749,94.134l-.967.581-.032-.766.124.6Z" transform="translate(-66.386 -81.043)" fill="#f5f5f5"/>
          <path id="Path_8981" data-name="Path 8981" d="M70.861,88.9,69.71,89.948l1.085-.918s.138.538.823-.023c-.429.259-.679.193-.748-.106" transform="translate(-62.796 -77.446)" fill="#f5f5f5"/>
          <path id="Path_8982" data-name="Path 8982" d="M79.459,73.794a1.174,1.174,0,0,0-.13-.337.691.691,0,0,0-.4-.288.777.777,0,0,1,.437.653L78.25,74.9Z" transform="translate(-68.878 -66.243)" fill="#f5f5f5"/>
          <path id="Path_8983" data-name="Path 8983" d="M74.687,71.778l-.1-.636-.883.443.955-.576Z" transform="translate(-65.638 -64.705)" fill="#f5f5f5"/>
          <path id="Path_8984" data-name="Path 8984" d="M62.1,98.985c2.44-1.1,4.6-4.265,4.6-4.265a11.665,11.665,0,0,1-4.547,4.4c-1.574.757-2.976.7-3.948-.155C58.21,98.973,59.62,100.1,62.1,98.985Z" transform="translate(-54.606 -81.591)" fill="#f5f5f5"/>
          <path id="Path_8985" data-name="Path 8985" d="M59.19,58.7a12.64,12.64,0,0,1,5.051-5.18c2.014-.967,3.715-.636,4.74.665,0,0-1.727-2.035-4.751-.466A14.83,14.83,0,0,0,59.19,58.7Z" transform="translate(-55.304 -51.848)" fill="#f5f5f5"/>
        </g>
      </g>
    </g>
  </g>
</svg>
