<svg xmlns="http://www.w3.org/2000/svg" width="176.847" height="196.998" viewBox="0 0 176.847 196.998">
  <g id="Group_16243" data-name="Group 16243" transform="translate(-633.153 -106.002)">
    <g id="Group_15069" data-name="Group 15069" transform="translate(633.153 106.002)">
      <g id="Group_15066" data-name="Group 15066">
        <path id="Path_7261" data-name="Path 7261" d="M619.466,258.521H590.439a4.178,4.178,0,0,1-3.3-1.6h0a4.23,4.23,0,0,1-.792-3.628,73.4,73.4,0,0,0,0-34.088,4.231,4.231,0,0,1,.792-3.628,4.178,4.178,0,0,1,3.3-1.6h29.026a4.231,4.231,0,0,1,4.164,3.551,123.015,123.015,0,0,1,0,37.441A4.231,4.231,0,0,1,619.466,258.521Z" transform="translate(-502.816 -211.893)" fill="#e6e6e6"/>
        <path id="Path_7262" data-name="Path 7262" d="M594.257,219.978a2.007,2.007,0,0,0-1.585.767,2.06,2.06,0,0,0-.383,1.767,75.589,75.589,0,0,1,0,35.107,2.059,2.059,0,0,0,.383,1.766h0a2.006,2.006,0,0,0,1.585.768h29.026a2.032,2.032,0,0,0,2.005-1.7,120.839,120.839,0,0,0,0-36.777,2.032,2.032,0,0,0-2.005-1.7Z" transform="translate(-506.634 -215.709)" fill="#fff"/>
        <path id="Path_7263" data-name="Path 7263" d="M629.712,239.706H614.48a2.186,2.186,0,0,1-2.184-2.184v-.853a2.186,2.186,0,0,1,2.184-2.184h15.232a2.186,2.186,0,0,1,2.184,2.184v.853A2.186,2.186,0,0,1,629.712,239.706Z" transform="translate(-519.397 -224.935)" fill="#e6e6e6"/>
        <path id="Path_7264" data-name="Path 7264" d="M629.712,269.331H614.48a2.186,2.186,0,0,1-2.184-2.184v-.853a2.186,2.186,0,0,1,2.184-2.184h15.232a2.186,2.186,0,0,1,2.184,2.184v.853a2.186,2.186,0,0,1-2.184,2.184Z" transform="translate(-519.397 -243.777)" fill="#e6e6e6"/>
        <path id="Path_7265" data-name="Path 7265" d="M629.712,298.957H614.48a2.186,2.186,0,0,1-2.184-2.184v-.853a2.186,2.186,0,0,1,2.184-2.184h15.232a2.186,2.186,0,0,1,2.184,2.184v.853A2.186,2.186,0,0,1,629.712,298.957Z" transform="translate(-519.397 -262.618)" fill="#e6e6e6"/>
        <path id="Path_7266" data-name="Path 7266" d="M769.466,334.521H740.439a4.178,4.178,0,0,1-3.3-1.6h0a4.23,4.23,0,0,1-.792-3.628,73.394,73.394,0,0,0,0-34.088,4.232,4.232,0,0,1,.792-3.628,4.178,4.178,0,0,1,3.3-1.6h29.026a4.231,4.231,0,0,1,4.164,3.551,123.018,123.018,0,0,1,0,37.441,4.231,4.231,0,0,1-4.164,3.551Z" transform="translate(-598.215 -260.228)" fill="#e6e6e6"/>
        <path id="Path_7267" data-name="Path 7267" d="M744.257,295.978a2.006,2.006,0,0,0-1.585.767,2.06,2.06,0,0,0-.384,1.767,75.589,75.589,0,0,1,0,35.107,2.059,2.059,0,0,0,.383,1.766h0a2.006,2.006,0,0,0,1.585.768h29.026a2.032,2.032,0,0,0,2.005-1.7,120.841,120.841,0,0,0,0-36.777,2.032,2.032,0,0,0-2.005-1.7Z" transform="translate(-602.033 -264.044)" fill="#fff"/>
        <path id="Path_7268" data-name="Path 7268" d="M610.148,420.385H581.121a4.359,4.359,0,0,1-3.443-1.669,4.411,4.411,0,0,1-.826-3.783,73.212,73.212,0,0,0,0-34,4.412,4.412,0,0,1,.826-3.783,4.359,4.359,0,0,1,3.443-1.669h29.026a4.414,4.414,0,0,1,4.344,3.705,123.2,123.2,0,0,1,0,37.5A4.414,4.414,0,0,1,610.148,420.385Z" transform="translate(-496.774 -314.606)" fill="#f2f2f2"/>
        <path id="Path_7269" data-name="Path 7269" d="M779.712,330.706H764.48a2.186,2.186,0,0,1-2.184-2.184v-.853a2.186,2.186,0,0,1,2.184-2.184h15.232a2.186,2.186,0,0,1,2.184,2.184v.853A2.186,2.186,0,0,1,779.712,330.706Z" transform="translate(-614.796 -282.811)" fill="#e6e6e6"/>
        <path id="Path_7270" data-name="Path 7270" d="M779.712,360.331H764.48a2.186,2.186,0,0,1-2.184-2.184v-.853a2.186,2.186,0,0,1,2.184-2.184h15.232a2.186,2.186,0,0,1,2.184,2.184v.853A2.186,2.186,0,0,1,779.712,360.331Z" transform="translate(-614.796 -301.652)" fill="#e6e6e6"/>
        <circle id="Ellipse_231" data-name="Ellipse 231" cx="8.372" cy="8.372" r="8.372" transform="translate(90.569 74.803)" fill="#fff"/>
        <path id="Path_7271" data-name="Path 7271" d="M623.994,426.754h-2.912v-2.912a1.092,1.092,0,1,0-2.184,0v2.912h-2.912a1.092,1.092,0,1,0,0,2.184H618.9v2.912a1.092,1.092,0,1,0,2.184,0v-2.912h2.912a1.092,1.092,0,0,0,0-2.184Z" transform="translate(-521.049 -344.67)" fill="#e6e6e6"/>
        <path id="Path_7272" data-name="Path 7272" d="M628.32,214.438H613.032a1.64,1.64,0,0,1-1.638-1.638v-2.912a1.64,1.64,0,0,1,1.638-1.638H628.32a1.64,1.64,0,0,1,1.638,1.638V212.8A1.64,1.64,0,0,1,628.32,214.438Z" transform="translate(-518.823 -208.25)" fill="#ccc"/>
        <path id="Path_7273" data-name="Path 7273" d="M780.32,291.438H765.032a1.64,1.64,0,0,1-1.638-1.638v-2.912a1.64,1.64,0,0,1,1.638-1.638H780.32a1.64,1.64,0,0,1,1.638,1.638V289.8a1.64,1.64,0,0,1-1.638,1.638Z" transform="translate(-615.494 -257.221)" fill="#ccc"/>
        <path id="Path_7274" data-name="Path 7274" d="M88.595,440.986h4.463l1.4-17.213H88.594Z" transform="translate(-56.345 -269.517)" fill="#ffb8b8"/>
        <path id="Path_7275" data-name="Path 7275" d="M442.552,675.307h8.789a5.6,5.6,0,0,1,5.6,5.6v.182H442.552Z" transform="translate(-411.441 -505.295)" fill="#2f2e41"/>
        <path id="Path_7276" data-name="Path 7276" d="M22.595,440.986h4.463l2.123-17.213H22.594Z" transform="translate(-14.37 -269.517)" fill="#ffb8b8"/>
        <path id="Path_7277" data-name="Path 7277" d="M376.552,675.307h8.789a5.6,5.6,0,0,1,5.6,5.6v.182H376.552Z" transform="translate(-369.465 -505.295)" fill="#2f2e41"/>
        <path id="Path_7278" data-name="Path 7278" d="M375.553,549.214a1.813,1.813,0,0,1-1.228-.48h0a1.805,1.805,0,0,1-.588-1.287l-1.79-64.143,25.412,6.353,7.841,23.521a25.648,25.648,0,0,1,1.291,9.4l-.974,22.8a1.819,1.819,0,0,1-1.818,1.732h-4.262a1.829,1.829,0,0,1-1.8-1.576l-3.046-25.168a13.768,13.768,0,0,0-2.014-5.52l-6-9.492a.364.364,0,0,0-.669.149L381.2,547.4A1.818,1.818,0,0,1,379.5,549l-3.841.214C375.622,549.213,375.588,549.214,375.553,549.214Z" transform="translate(-366.536 -383.182)" fill="#2f2e41"/>
        <circle id="Ellipse_232" data-name="Ellipse 232" cx="8.94" cy="8.94" r="8.94" transform="translate(17.653 40.712)" fill="#ffb8b8"/>
        <path id="Path_7279" data-name="Path 7279" d="M394.184,422.355a1.847,1.847,0,0,1-.456-.058h0l-25.213-6.465a1.82,1.82,0,0,1-1.333-2.117l5.79-31.192a11.362,11.362,0,0,1,6.643-8.2,10.961,10.961,0,0,1,10.289.755c.353.22.709.46,1.057.714a11.27,11.27,0,0,1,4.579,8.929l.46,35.792a1.823,1.823,0,0,1-1.816,1.846Z" transform="translate(-363.483 -313.272)" fill="#1bcf88"/>
        <path id="Path_7280" data-name="Path 7280" d="M376.926,476.854a3.66,3.66,0,0,1,1.534-5.4L377.339,458.5l5.943,3.221.154,11.813a3.68,3.68,0,0,1-6.509,3.325Z" transform="translate(-369.301 -367.405)" fill="#ffb8b8"/>
        <path id="Path_7281" data-name="Path 7281" d="M374.456,417.169a2.005,2.005,0,0,1-1.943-1.514l-2.92-11.606a17.243,17.243,0,0,1,1.369-12.061l6.119-11.969a5.657,5.657,0,0,1,6.846-4.011,5.589,5.589,0,0,1,3.449,2.585,5.667,5.667,0,0,1,.6,4.336l-8.71,19.477.1,11.661a2.009,2.009,0,0,1-1.3,1.895l-2.915,1.082a1.994,1.994,0,0,1-.7.125Z" transform="translate(-364.707 -314.833)" fill="#1bcf88"/>
        <path id="Path_7282" data-name="Path 7282" d="M474.56,470.166a3.66,3.66,0,0,1-3.091-4.685l-10.554-7.6,6.318-2.4,9.053,7.589a3.68,3.68,0,0,1-1.726,7.1Z" transform="translate(-423.119 -365.483)" fill="#ffb8b8"/>
        <path id="Path_7283" data-name="Path 7283" d="M437.963,418.131a2.01,2.01,0,0,1-.9-.212l-10.7-5.357a17.247,17.247,0,0,1-8.249-8.906l-5.081-12.446a5.658,5.658,0,0,1,1.426-7.806,5.588,5.588,0,0,1,4.219-.926,5.668,5.668,0,0,1,3.669,2.37l9.08,19.307,8.906,7.529a2.008,2.008,0,0,1,.585,2.225l-1.081,2.915a2,2,0,0,1-1.877,1.306Z" transform="translate(-392.047 -319.001)" fill="#1bcf88"/>
        <path id="Path_7284" data-name="Path 7284" d="M410.926,334.812c.475.208,1.448-3.577,1.012-4.334-.648-1.126-.61-1.118-1.04-1.863a2.16,2.16,0,0,1,.031-2.42,1.274,1.274,0,0,1,2.1.253c-.164-1.561,1.38-2.815,2.91-3.168s3.142-.134,4.68-.447c1.784-.364,3.641-1.86,2.929-3.822a2.764,2.764,0,0,0-.539-.886,6.818,6.818,0,0,0-3.1-1.7,20.522,20.522,0,0,0-7.215-1.511,10.483,10.483,0,0,0-9.262,6.774,9.517,9.517,0,0,0-.394,1.465,9.826,9.826,0,0,0,6.1,10.792Z" transform="translate(-386.21 -276.082)" fill="#2f2e41"/>
        <path id="Path_7285" data-name="Path 7285" d="M38.9,230.1l.2-11.986,6.349-12.766-5.1,13.1Z" transform="translate(-24.74 -130.597)" opacity="0.2"/>
        <path id="Path_7286" data-name="Path 7286" d="M502.8,472.337l-26.8-11.137a4.178,4.178,0,0,1-2.434-2.743h0a4.23,4.23,0,0,1,.66-3.655A73.4,73.4,0,0,0,487.3,423.323a4.231,4.231,0,0,1,2.124-3.046,4.178,4.178,0,0,1,3.661-.211l26.8,11.137a4.231,4.231,0,0,1,2.483,4.877A123.018,123.018,0,0,1,508,470.656a4.231,4.231,0,0,1-5.208,1.681Z" transform="translate(-431.058 -342.757)" fill="#e6e6e6"/>
        <path id="Path_7287" data-name="Path 7287" d="M496.061,425.9a2.007,2.007,0,0,0-1.758.1,2.06,2.06,0,0,0-1.032,1.484,75.588,75.588,0,0,1-13.47,32.42,2.059,2.059,0,0,0-.324,1.778h0A2.006,2.006,0,0,0,480.647,463l26.8,11.137a2.032,2.032,0,0,0,2.5-.8,120.844,120.844,0,0,0,14.111-33.963,2.032,2.032,0,0,0-1.2-2.338Z" transform="translate(-434.876 -346.575)" fill="#fff"/>
        <path id="Path_7288" data-name="Path 7288" d="M537.452,475.354l-14.066-5.844a2.186,2.186,0,0,1-1.179-2.855l.328-.788a2.186,2.186,0,0,1,2.855-1.179l14.066,5.844a2.186,2.186,0,0,1,1.179,2.855l-.327.788a2.186,2.186,0,0,1-2.855,1.179Z" transform="translate(-461.995 -371.236)" fill="#020621"/>
        <path id="Path_7289" data-name="Path 7289" d="M526.085,502.713l-14.066-5.844a2.186,2.186,0,0,1-1.179-2.855l.327-.788a2.186,2.186,0,0,1,2.855-1.179l14.066,5.844a2.186,2.186,0,0,1,1.179,2.855l-.327.788A2.186,2.186,0,0,1,526.085,502.713Z" transform="translate(-454.765 -388.636)" fill="#020621"/>
        <path id="Path_7290" data-name="Path 7290" d="M552.238,435.377a1.634,1.634,0,0,1-.614-.12l-14.174-5.73a1.64,1.64,0,0,1-.9-2.133l1.091-2.7a1.638,1.638,0,0,1,2.133-.9l14.174,5.73a1.64,1.64,0,0,1,.9,2.133l-1.092,2.7A1.642,1.642,0,0,1,552.238,435.377Z" transform="translate(-471.144 -345.255)" fill="#ccc"/>
        <path id="Path_7291" data-name="Path 7291" d="M408.408,690.478H357.447a.364.364,0,0,1,0-.728h50.961a.364.364,0,0,1,0,.728Z" transform="translate(-357.083 -514.481)" fill="#ccc"/>
      </g>
    </g>
    <g id="Group_15070" data-name="Group 15070" transform="translate(698.666 219)">
      <circle id="Ellipse_230" data-name="Ellipse 230" cx="42" cy="42" r="42" transform="translate(0.334)" fill="#f4f5fa"/>
      <g id="check_2_" data-name="check (2)" transform="translate(8.18 8.949)">
        <path id="Path_7255" data-name="Path 7255" d="M33.435,0A33.435,33.435,0,1,0,66.871,33.435,33.472,33.472,0,0,0,33.435,0Zm0,0" fill="#1bcf88"/>
        <path id="Path_7256" data-name="Path 7256" d="M173.251,170.085,155.14,188.2a2.784,2.784,0,0,1-3.94,0l-9.055-9.055a2.786,2.786,0,1,1,3.94-3.94l7.085,7.085,16.141-16.141a2.786,2.786,0,0,1,3.94,3.94Zm0,0" transform="translate(-122.87 -143.735)" fill="#fafafa"/>
      </g>
    </g>
  </g>
</svg>
