<svg id="sad_1_" data-name="sad (1)" xmlns="http://www.w3.org/2000/svg" width="49" height="49" viewBox="0 0 49 49">
  <g id="Group_15957" data-name="Group 15957" transform="translate(13.043 28.818)">
    <g id="Group_15956" data-name="Group 15956" transform="translate(0 0)">
      <path id="Path_9090" data-name="Path 9090" d="M159.2,303.5a14.99,14.99,0,0,1-22.913,0l3.007-2.369a11.169,11.169,0,0,0,16.905-.008l-.006.008Z" transform="translate(-136.29 -301.122)" fill="#1bcf88"/>
    </g>
  </g>
  <g id="Group_15959" data-name="Group 15959">
    <g id="Group_15958" data-name="Group 15958">
      <path id="Path_9091" data-name="Path 9091" d="M41.824,7.176A24.5,24.5,0,0,0,7.176,41.824,24.5,24.5,0,0,0,41.824,7.176Zm-17.324,38A20.672,20.672,0,1,1,45.171,24.5,20.7,20.7,0,0,1,24.5,45.171Z" fill="#1bcf88"/>
    </g>
  </g>
  <g id="Group_15961" data-name="Group 15961" transform="translate(13.015 14.175)">
    <g id="Group_15960" data-name="Group 15960">
      <circle id="Ellipse_292" data-name="Ellipse 292" cx="3.062" cy="3.062" r="3.062" fill="#1bcf88"/>
    </g>
  </g>
  <g id="Group_15963" data-name="Group 15963" transform="translate(29.859 14.175)">
    <g id="Group_15962" data-name="Group 15962">
      <circle id="Ellipse_293" data-name="Ellipse 293" cx="3.062" cy="3.062" r="3.062" fill="#1bcf88"/>
    </g>
  </g>
</svg>
