<svg xmlns="http://www.w3.org/2000/svg" width="30.644" height="41.991" viewBox="0 0 30.644 41.991">
  <g id="silver-medal_1_" data-name="silver-medal (1)" transform="translate(-69.144)">
    <path id="Path_8992" data-name="Path 8992" d="M170.484,273.12l-.028,19.558,7-4.573,6.989,4.594.028-19.56Z" transform="translate(-92.999 -250.71)" fill="#bbc8ce"/>
    <path id="Path_8993" data-name="Path 8993" d="M219.29,289.355a1.172,1.172,0,0,0-1.188-1.069h-.6a1.128,1.128,0,0,1,.035-2.255l1.688,0a.94.94,0,0,0,.943-.947v-.08a.891.891,0,0,0-.889-.951l-5.052-.008a1.175,1.175,0,0,1-1.193-1.066,1.131,1.131,0,0,1,1.132-1.185l4.684.007a.952.952,0,0,0,.951-.948l-.007-.066v-.014a.99.99,0,0,0-.991-1l-2.628,0a1.175,1.175,0,0,1-1.193-1.074,1.135,1.135,0,0,1,1.132-1.185l2.9,0a.956.956,0,0,0,.943-1v-.029a.957.957,0,0,0-.94-1l-3.13,0a1.172,1.172,0,0,1-1.185-1.066,1.131,1.131,0,0,1,1.132-1.185l7.725.012-.029,19.56-4.381-2.879A1.121,1.121,0,0,0,219.29,289.355Z" transform="translate(-132.085 -250.813)" fill="#bbc8ce"/>
    <circle id="Ellipse_265" data-name="Ellipse 265" cx="15.322" cy="15.322" r="15.322" transform="translate(69.144 0)" fill="#d8d9d8"/>
    <path id="Path_8994" data-name="Path 8994" d="M87.044,26.43h-9.71a1.38,1.38,0,0,1-1.375-1.375c.125-1.113.685-1.564,1.448-1.564h6.73a1.7,1.7,0,0,0,1.732-1.553,1.645,1.645,0,0,0-1.637-1.721H77.1a1.473,1.473,0,0,1,0-2.938h7.459a1.7,1.7,0,0,0,1.721-1.543,1.639,1.639,0,0,0-1.637-1.721H79.184a15.32,15.32,0,0,0,0,28.34h6.936a1.7,1.7,0,0,0,1.721-1.543,1.638,1.638,0,0,0-1.637-1.72h-7.89a1.632,1.632,0,0,1-1.631-1.721,1.7,1.7,0,0,1,1.722-1.545h3.059a1.635,1.635,0,0,0-.047-3.269H76.781a1.363,1.363,0,0,1-1.364-1.375c0-1.015.587-1.49,1.291-1.49H86.949a1.7,1.7,0,0,0,1.732-1.543A1.64,1.64,0,0,0,87.044,26.43Z" transform="translate(-0.499 -12.866)" fill="#e5e5e5"/>
    <path id="Path_8995" data-name="Path 8995" d="M133.521,75.314a10.937,10.937,0,1,1,10.937-10.937A10.95,10.95,0,0,1,133.521,75.314Z" transform="translate(-49.055 -49.055)" fill="#f3f3f3"/>
    <path id="Path_8996" data-name="Path 8996" d="M240.572,64.73a10.942,10.942,0,0,0-10.31-10.906h-1.019A1.3,1.3,0,0,0,227.931,55a1.251,1.251,0,0,0,1.249,1.313H235.2a1.244,1.244,0,0,1,1.243,1.313,1.293,1.293,0,0,1-1.314,1.179h-2.333a1.247,1.247,0,0,0,.035,2.493h3.537a1.04,1.04,0,0,1,1.04,1.048v.087a.984.984,0,0,1-.985,1.048h-7.81a1.3,1.3,0,0,0-1.321,1.176,1.251,1.251,0,0,0,1.249,1.313h7.4a1.051,1.051,0,0,1,1.048,1.048l-.008.072v.016a1.1,1.1,0,0,1-1.1,1.1h-5.133a1.3,1.3,0,0,0-1.321,1.184,1.256,1.256,0,0,0,1.249,1.313h5.436a1.058,1.058,0,0,1,1.04,1.1v.032a1.058,1.058,0,0,1-1.04,1.1h-5.688a1.3,1.3,0,0,0-1.313,1.176,1.25,1.25,0,0,0,1.249,1.313h1.5A10.955,10.955,0,0,0,240.572,64.73Z" transform="translate(-145.169 -49.408)" fill="#fff" opacity="0.5"/>
    <path id="Path_8997" data-name="Path 8997" d="M170.179,95.159h-5.32l-1.645-5.06a.706.706,0,0,0-1.343,0l-1.644,5.06h-5.32a.706.706,0,0,0-.415,1.277l4.3,3.127-1.644,5.06a.706.706,0,0,0,1.087.789l4.3-3.127,4.3,3.127a.706.706,0,0,0,1.087-.789l-1.644-5.06,4.3-3.127A.706.706,0,0,0,170.179,95.159Z" transform="translate(-78.077 -82.259)" fill="#6e8b93"/>
  </g>
</svg>
