<svg id="Group_15926" data-name="Group 15926" xmlns="http://www.w3.org/2000/svg" width="31.68" height="29.36" viewBox="0 0 31.68 29.36">
  <path id="Path_9048" data-name="Path 9048" d="M30.772,228.284a.9.9,0,0,0-.908.908v8.256a4.073,4.073,0,0,1-4.068,4.068H5.883a4.073,4.073,0,0,1-4.068-4.068v-8.391a.908.908,0,0,0-1.815,0v8.391a5.889,5.889,0,0,0,5.883,5.883H25.8a5.889,5.889,0,0,0,5.883-5.883v-8.256A.908.908,0,0,0,30.772,228.284Z" transform="translate(0 -213.971)" fill="#f7a51a"/>
  <path id="Path_9049" data-name="Path 9049" d="M137.87,24.572l4.222-4.222V38.764a.908.908,0,0,0,1.815,0V20.349l4.222,4.222a.913.913,0,0,0,.639.269.875.875,0,0,0,.639-.269.9.9,0,0,0,0-1.284l-5.768-5.768A.918.918,0,0,0,143,17.25a.879.879,0,0,0-.639.269l-5.768,5.768a.906.906,0,0,0,1.277,1.284Z" transform="translate(-127.16 -17.25)" fill="#f7a51a"/>
</svg>
