<svg xmlns="http://www.w3.org/2000/svg" width="675.593" height="334.025" viewBox="0 0 675.593 334.025">
  <g id="Group_16244" data-name="Group 16244" transform="translate(0)">
    <g id="Group_15017" data-name="Group 15017" transform="translate(0 0)">
      <g id="Group_15016" data-name="Group 15016">
        <g id="Group_15001" data-name="Group 15001" transform="translate(225.298 212.736)">
          <path id="Path_7034" data-name="Path 7034" d="M428.071,377.218H570.4a14.118,14.118,0,0,0-2.137-5.18,27.554,27.554,0,0,0-2.052-2.8c-1.371-1.7-2.912-3.33-4.329-4.909a70.146,70.146,0,0,1-6.551-8.572c-1.371-2.1-2.641-4.251-3.841-6.45a136.817,136.817,0,0,1-6.357-13.567c-1.828-4.46-3.554-9.06-6.566-12.823-3.833-4.785-9.385-7.79-14.256-11.507-.255-.194-.5-.387-.751-.581-4.243-3.345-8.177-7.209-13.11-9.377a22.733,22.733,0,0,0-26.1,6.381c-4.042,5.033-5.877,11.8-9.61,16.889a18.056,18.056,0,0,1-3.81,3.91,21.834,21.834,0,0,1-4.693,2.548c-3.516,1.464-7.294,2.47-10.407,4.654a15.806,15.806,0,0,0-1.843,1.51,20.159,20.159,0,0,0-3.152,3.841,38.257,38.257,0,0,0-4.011,8.944c-1.766,5.459-3,11.174-5.947,16.091a19.265,19.265,0,0,1-6.164,6.45c-1.673,1.045-5.839,1.688-6.536,3.825A1.956,1.956,0,0,0,428.071,377.218Z" transform="translate(-428.068 -265.02)" fill="#b0beea"/>
          <path id="Path_7035" data-name="Path 7035" d="M529.468,371.046q9.722,5.61,19.459,11.22h20.249c3.384-8.727.418-24.888-3.361-30.323-1.874-2.687-4.484-4.77-6.6-7.279-3.763-4.468-5.823-10.128-9.176-14.9-.047-.07-.091-.132-.139-.2-1.854-2.695-10.376-11.383-13.257-5.482-1.216,2.493,2.563,8.386,4.894,12.142.589.953,1.084,1.766,1.386,2.354q4.576,8.99,9.493,17.81c1.944,3.5,3.8,8.262.976,11.1-1.177-4.631-2.469-9.478-5.715-12.978a28.626,28.626,0,0,0-6.644-4.855c-1.673-.991-7.767-5.645-11.747-7.263-1.433-.589-2.594-.774-3.183-.263-.937.821-.666,2.439.031,4.1a21.6,21.6,0,0,0,3.136,5.033c2.493,2.8,5.738,4.809,8.518,7.333a30.18,30.18,0,0,1,8.7,14.054,31.716,31.716,0,0,0-15.17-9.664c-2.029-.581-4.615-.759-5.823.96C523.746,366.462,526.8,369.513,529.468,371.046Z" transform="translate(-503.369 -270.068)" fill="#020621"/>
          <path id="Path_7036" data-name="Path 7036" d="M241.228,367.113H470.567a11.859,11.859,0,0,1-2.3-2.393c-1.8-2.625.179-3.361.116-6.543-.186-8.781-1.007-18.755-7.9-24.2-3-2.362-6.737-3.492-10.43-4.685-3.733-1.208-7.411-2.478-10.207-5.134-7.643-7.256-5.227-21.442-13.45-28.047-6.117-4.909-15.2-3.2-22.456-6.172-8.014-3.283-12.529-11.584-17-19s-10.609-15.185-19.235-15.959c-9.912-.9-18.832,7.945-28.713,6.8-3.925-.449-7.968-2.462-11.631-.991-5.684,2.284-5.451,10.338-8.44,15.688-3.1,5.529-9.7,7.96-15.89,9.354s-12.8,2.323-17.748,6.288a21.474,21.474,0,0,0-6.234,8.6c-4.2,9.8-4.065,22.657-11.484,30.641-5.335,5.753-13.706,7.914-19.026,13.675C243.172,350.851,241.894,359.137,241.228,367.113Z" transform="translate(-183.551 -254.915)" fill="#d0def2"/>
          <path id="Path_7037" data-name="Path 7037" d="M30.368,372.556H245.985c0-2.819-2.664-6.678-4.824-8.749-3.864-3.705-8.835-6.35-12.281-10.413A20.538,20.538,0,0,1,227,350.785c-3.082-5.029-3.887-11.082-3.686-17.127a70.852,70.852,0,0,1,.65-7.3c1.27-9.323,3.469-18.965.565-27.962-4.127-12.811-19.444-21.473-33.444-18.914-19.668,3.6-32.19,25.193-52.191,26.392-9.137.545-17.787-3.416-26.436-6.257-7.256-2.39-14.968-4.033-22.619-3.27S74.584,300.6,70.417,306.663c-5.808,8.48-3.849,19.736-7.674,29.153-.17.421-.355.843-.549,1.25A27.291,27.291,0,0,1,50.563,349.23c-4.979,2.7-10.949,4.054-14.922,7.956C31.584,361.191,30.531,366.924,30.368,372.556Z" transform="translate(204.309 -260.358)" fill="#f4f5fa"/>
          <path id="Path_7038" data-name="Path 7038" d="M43.176,347.007a11.24,11.24,0,0,0,1.409,4.352c.217.418.457.836.7,1.239.3.5.612.991.921,1.471,1.409,2.176,2.881,4.429,3.206,7a25.349,25.349,0,0,1,.054,3.345c0,.426.008.836.039,1.254a7.726,7.726,0,0,0,.294,1.618c.991,3.206,4.569,5.041,5.691,8.2a12.855,12.855,0,0,1,.248,5.521,11.778,11.778,0,0,0,.511,4.158h5.863c1.865-3.6,1.711-7.349,5.76-10.121,2.315-1.587,5.2-2.517,6.776-4.832,1.278-1.882,1.371-4.189,1.525-6.5.015-.356.039-.72.077-1.076.008-.225.031-.441.054-.666a11.713,11.713,0,0,1,.619-2.888c1.255-3.361,4.514-5.506,6.482-8.5a11.222,11.222,0,0,0,.905-1.665c.132-.294.248-.6.356-.9a12.68,12.68,0,0,0-.945-10.508,6.374,6.374,0,0,0-1.564-1.858,3.72,3.72,0,0,0-.945-.527c-.055-.022-.116-.039-.17-.054a4.271,4.271,0,0,0-2.958.31c-3.113,1.44-4.1,5.026-5.467,8.34-.07.178-.147.356-.225.527a16.592,16.592,0,0,1-.736,1.541,9.513,9.513,0,0,1-2.339,3.012c-.829.681-1.812,1.162-2.6,1.882a8.526,8.526,0,0,0-2.362,5.467c-.077.635-.132,1.278-.17,1.913-.031.534-.054,1.069-.085,1.6-.17,3.2-.991,6.93-3.925,8.224a22.3,22.3,0,0,0-.3-7.534,8.708,8.708,0,0,0-.479-1.363c-.086-.2-.179-.4-.28-.6-.782-1.471-1.975-2.687-2.8-4.135-1.146-2-1.525-4.305-2.137-6.536-.1-.372-.208-.751-.333-1.115-.085-.279-.186-.55-.287-.821-1.084-2.772-3.725-5.436-6.636-4.8a2.946,2.946,0,0,0-.465.139,3.71,3.71,0,0,0-1.231.689A6.226,6.226,0,0,0,43.176,347.007Z" transform="translate(354.997 -272.969)" fill="#020621"/>
          <path id="Path_7039" data-name="Path 7039" d="M431.191,383.308a23.624,23.624,0,0,0,2.966,1.061c3.082,1.208,4.8,4.391,7.256,6.621h4.894c.194-.372.372-.767.581-1.131a5.076,5.076,0,0,1,3.314-2.385c1.626-.325,3.306.194,4.964.093a6.764,6.764,0,0,0,4.135-1.758,5.683,5.683,0,0,0,.7-.736,2.771,2.771,0,0,0,.7-1.5,1.321,1.321,0,0,0-.774-1.363c-.759-.271-1.5.4-2.253.689a2.248,2.248,0,0,1-.418.108,10.635,10.635,0,0,1-3.33-.372,7.333,7.333,0,0,0-6.728,2.625,23.529,23.529,0,0,0,1.974-4.948,7.938,7.938,0,0,0-.379-5.219c-.457-.929-1.146-1.727-1.587-2.664a12.505,12.505,0,0,1-.829-2.9,13.411,13.411,0,0,0-.426-1.68,12.257,12.257,0,0,0-3.415-4.77c-.519-.5-1.061-.968-1.587-1.44a3.5,3.5,0,0,0-1.471-.906c.24,2.586.472,5.173.712,7.751a52.674,52.674,0,0,0,.875,6.528c.658,2.95,1.835,5.831,1.866,8.851.009.279-.054.635-.325.7a4.967,4.967,0,0,0-2.625-3.152c-.921-.426-1.951-.565-2.865-1.014a18.9,18.9,0,0,1-2.455-1.719,8.932,8.932,0,0,0-3.616-1.479,1.665,1.665,0,0,0-1.269.147,1.474,1.474,0,0,0-.5.751A4.421,4.421,0,0,0,431.191,383.308Z" transform="translate(-319.1 -278.792)" fill="#020621"/>
          <path id="Path_7040" data-name="Path 7040" d="M236.053,367.542a23.974,23.974,0,0,0,4.468,12.5c3.19,4.3,10.346,6.5,10.849,12.382H254.5c.55-4.243,2.594-6.752,5.815-9.834,1.742-1.68,3.446-3.763,2.695-6.28-.155-.395-.782-.643-1.053-.139a18.337,18.337,0,0,1-4.352,5.475,20.231,20.231,0,0,0-3.082,3.167A16.919,16.919,0,0,1,257.6,377a.559.559,0,0,0-.79-.79,15.1,15.1,0,0,0-4.569,7.945,31.906,31.906,0,0,0-7.333-10.949.679.679,0,0,0-1.061.821c1.549,2.919,3.763,5.436,5.444,8.278a16.924,16.924,0,0,1,1.735,4.065,27,27,0,0,0-4.143-3.616,20.579,20.579,0,0,1-6.714-7.465c-1.285-2.586-1.944-5.42-3.244-7.991A.473.473,0,0,0,236.053,367.542Z" transform="translate(27.832 -280.224)" fill="#020621" opacity="0.21"/>
          <path id="Path_7041" data-name="Path 7041" d="M44.088,351.4c.217.418.457.836.7,1.239a22.738,22.738,0,0,1,3.957.139H48.8c1.673,2.61,3.5,5.126,4.305,8.138.38,1.394.6,2.811.86,4.228-.821.542-1.6-.077-3.275-.426a16.482,16.482,0,0,0-1.719-.263c0,.426.008.836.039,1.254a28.563,28.563,0,0,1,3.856.875c.712.2.983.379,1.44.209.124.527.263,1.061.434,1.58.689,2.091,1.572,4.1,2.2,6.2a40.471,40.471,0,0,1,1.51,10.632h1.51a35.477,35.477,0,0,1,1.618-8.626c1.34-3.647,3.6-6.83,5.73-10.082a3.305,3.305,0,0,0,1.472-.232c1.107-.279,2.74-1.285,3.654-1.611a25.635,25.635,0,0,1,3.245-.906c.015-.356.039-.72.077-1.076a24.747,24.747,0,0,0-3.6.968,16.931,16.931,0,0,1-2.586,1.061,5.269,5.269,0,0,1-1.092-.046c.449-.736.9-1.471,1.309-2.23,1.835-3.4,3.19-6.961,4.832-10.423,1.789.031,4.22-1.68,5.691-2.137,1.162-.356,2.331-.65,3.508-.914.132-.294.248-.6.356-.9-.519.085-1.03.178-1.549.287-2.277.472-4.685,1.866-6.915,2.145a2.556,2.556,0,0,1-.341.008c.5-.983,1.014-1.951,1.6-2.9a35.571,35.571,0,0,0,3.275-6.45c.294-.8.759-3.454,1.417-5.459a3.72,3.72,0,0,0-.945-.527c-.055-.022-.116-.039-.17-.054-1.138,2.424-1.7,6.148-2.215,7.279-1.192,2.625-2.9,4.956-4.321,7.449-.96-1.115-1.2-3.376-1.8-4.816-.1-.248-.209-.488-.317-.736a16.592,16.592,0,0,1-.736,1.541c.542,1.3,1.053,2.625,1.556,4a8.5,8.5,0,0,0,.5,1.479c-1.231,2.486-2.122,5.111-3.229,7.658a44.82,44.82,0,0,1-2.741,5.142c-.558-.573-.627-1.5-1.014-2.579a38.78,38.78,0,0,0-2.369-5.343c-.077.635-.132,1.278-.17,1.913.055.108.108.225.163.333a51.6,51.6,0,0,1,2.137,5.769c.1.31.178.937.341,1.417a61.753,61.753,0,0,0-5.211,9.455,32.311,32.311,0,0,0-1.8,7.194,40.058,40.058,0,0,0-.627-4.514c-.774-3.988-2.47-7.682-3.468-11.6.944-1.038,1.951-3.43,2.663-4.274a18.142,18.142,0,0,1,1.494-1.495,8.71,8.71,0,0,0-.479-1.363,16.264,16.264,0,0,0-3.919,4.863c-.07.116-.132.209-.194.31-.844-4.754-2.408-7.689-4.933-11.7-.077-.124-.155-.256-.232-.379a14.872,14.872,0,0,1,4.065-4.36c-.1-.372-.208-.751-.333-1.115a16.005,16.005,0,0,0-2.633,2.168c-.55.581-1.092,1.7-1.7,2.261a26.493,26.493,0,0,1-3.059-9.912,3.71,3.71,0,0,0-1.231.689,24.851,24.851,0,0,0,1.688,6.566,22.34,22.34,0,0,0,1.6,3.121,17.815,17.815,0,0,1-2.981-.163C44.723,351.369,44.405,351.377,44.088,351.4Z" transform="translate(355.495 -273.011)" fill="#d0def2"/>
          <path id="Path_7042" data-name="Path 7042" d="M439.423,384.271a51.923,51.923,0,0,1,4.189,3.849,8.542,8.542,0,0,1,2.137,4.476H447.8a5.552,5.552,0,0,1,2.238-3.531,13.267,13.267,0,0,1,5.382-1.626c.186-.023.263-.317.046-.356a9.544,9.544,0,0,0-6.3,1.541,4.62,4.62,0,0,0-1.4,1.556,59.453,59.453,0,0,0,1.355-8.526c.232-5.25-2.857-8.944-4.2-13.776a.052.052,0,0,0-.1.016,21.714,21.714,0,0,0,1.913,6.172,17.527,17.527,0,0,1,1.069,9.393c-.333,2.354-1.069,4.755-1.494,7.163a6.635,6.635,0,0,0-1.045-2.168,14.251,14.251,0,0,0-5.521-4.576C439.485,383.76,439.191,384.07,439.423,384.271Z" transform="translate(-321.99 -280.398)" fill="#d0def2"/>
        </g>
        <path id="Path_7044" data-name="Path 7044" d="M170.654,408.118c6.817-1.11,14.309-.3,21.218-.294q5.238.008,10.478.014c3.514.009,7.252-.365,10.674.513a.744.744,0,0,1,0,1.423c-3.423.878-7.161.506-10.674.513q-5.24.012-10.478.014c-6.922.009-14.39.818-21.218-.293A.987.987,0,0,1,170.654,408.118Z" transform="translate(353.954 -76.617)" fill="#b0beea" style="mix-blend-mode: multiply;isolation: isolate"/>
        <path id="Path_7046" data-name="Path 7046" d="M271.794,408.126c9.266-1.128,19.449-.308,28.839-.3q7.121.007,14.243.014c4.776.009,9.857-.371,14.509.521a.723.723,0,0,1,0,1.446c-4.652.892-9.733.513-14.509.521q-7.121.012-14.243.014c-9.408.009-19.559.831-28.839-.3A.96.96,0,0,1,271.794,408.126Z" transform="translate(159.282 -76.617)" fill="#b0beea" style="mix-blend-mode: multiply;isolation: isolate"/>
        <path id="Path_7047" data-name="Path 7047" d="M686.992,324.462a.548.548,0,0,0,.361-.135c1.093-.96,2.169-1.973,3.194-3.007a.544.544,0,0,0-.775-.763c-1.009,1.017-2.065,2.012-3.14,2.955a.542.542,0,0,0,.36.95Zm6.12-6.171a.548.548,0,0,0,.413-.188c.948-1.1,1.874-2.244,2.756-3.41a.544.544,0,0,0-.871-.652c-.866,1.146-1.778,2.275-2.71,3.352a.544.544,0,0,0,.413.9Zm5.235-6.934a.543.543,0,0,0,.456-.245c.8-1.212,1.568-2.468,2.289-3.735a.544.544,0,0,0-.948-.535c-.71,1.246-1.468,2.483-2.252,3.676a.54.54,0,0,0,.157.75A.547.547,0,0,0,698.348,311.358Zm-522.368-5.726a.542.542,0,0,0,.052-1.082q-1.871-.182-3.745-.391a.543.543,0,1,0-.12,1.079q1.88.208,3.758.391Zm-8.08-.906a.542.542,0,0,0,.068-1.081q-2.156-.276-4.308-.59a.552.552,0,0,0-.619.459.544.544,0,0,0,.459.616q2.162.314,4.328.592A.479.479,0,0,0,167.9,304.726Zm534.753-.908a.546.546,0,0,0,.491-.3c.641-1.3,1.25-2.644,1.81-3.983a.542.542,0,0,0-.292-.71.548.548,0,0,0-.712.292c-.553,1.319-1.153,2.639-1.784,3.923a.543.543,0,0,0,.488.781Zm-543.38-.349a.542.542,0,0,0,.088-1.077q-2.144-.354-4.283-.748a.554.554,0,0,0-.635.436.544.544,0,0,0,.437.632q2.149.4,4.3.75A.591.591,0,0,0,159.273,303.468Zm-8.571-1.581a.543.543,0,0,0,.11-1.075q-2.129-.435-4.248-.919a.543.543,0,1,0-.242,1.059q2.128.484,4.27.923A.516.516,0,0,0,150.7,301.888Zm-8.5-1.936a.543.543,0,0,0,.133-1.069q-2.108-.532-4.2-1.109a.542.542,0,1,0-.292,1.045q2.1.582,4.224,1.116A.534.534,0,0,0,142.206,299.952Zm-8.395-2.326a.543.543,0,0,0,.159-1.062q-2.078-.633-4.139-1.315a.543.543,0,1,0-.343,1.03q2.071.686,4.163,1.323A.555.555,0,0,0,133.811,297.626Zm572.2-1.813a.544.544,0,0,0,.514-.363c.479-1.361.929-2.762,1.334-4.165a.544.544,0,0,0-1.047-.3c-.4,1.382-.842,2.763-1.316,4.1a.543.543,0,0,0,.514.722Zm-580.468-.934a.542.542,0,0,0,.187-1.053q-2.04-.742-4.059-1.537a.543.543,0,1,0-.4,1.009q2.031.8,4.085,1.548A.554.554,0,0,0,125.543,294.879Zm-8.1-3.2a.542.542,0,0,0,.216-1.04q-1.993-.856-3.959-1.773a.542.542,0,1,0-.462.981q1.979.926,3.988,1.787A.538.538,0,0,0,117.443,291.677ZM109.552,288a.543.543,0,0,0,.247-1.027q-1.933-.978-3.836-2.021a.543.543,0,1,0-.526.95q1.918,1.054,3.867,2.04A.555.555,0,0,0,109.552,288Zm598.875-.52a.545.545,0,0,0,.53-.423c.326-1.414.615-2.857.862-4.285a.545.545,0,0,0-1.074-.183c-.242,1.408-.529,2.829-.849,4.226a.544.544,0,0,0,.408.651A.567.567,0,0,0,708.427,287.476Zm-606.508-3.669a.543.543,0,0,0,.28-1.009q-1.861-1.108-3.686-2.28a.543.543,0,1,0-.591.912q1.84,1.184,3.718,2.3A.549.549,0,0,0,101.919,283.807ZM94.6,279.094a.543.543,0,0,0,.313-.988c-1.171-.818-2.35-1.677-3.5-2.552a.543.543,0,1,0-.661.862c1.164.885,2.353,1.752,3.536,2.579A.545.545,0,0,0,94.6,279.094Zm615.3-.17a.544.544,0,0,0,.541-.48c.168-1.438.3-2.9.393-4.353a.543.543,0,0,0-.509-.574.529.529,0,0,0-.579.507c-.09,1.429-.22,2.875-.388,4.294a.543.543,0,0,0,.478.6A.6.6,0,0,0,709.905,278.924Zm-622.234-5.1a.542.542,0,0,0,.347-.96c-1.116-.922-2.221-1.872-3.281-2.822a.543.543,0,1,0-.73.805c1.073.961,2.188,1.921,3.316,2.852A.543.543,0,0,0,87.672,273.823Zm622.78-3.558a.544.544,0,0,0,.547-.537l0-.8c0-1.188-.026-2.387-.078-3.565a.533.533,0,0,0-.569-.518.542.542,0,0,0-.52.565q.077,1.759.077,3.518l0,.793A.547.547,0,0,0,710.452,270.265ZM81.194,268.02a.544.544,0,0,0,.38-.931c-1.027-1-2.05-2.033-3.041-3.078a.55.55,0,0,0-.771-.023.541.541,0,0,0-.023.767c1,1.059,2.036,2.1,3.072,3.111A.549.549,0,0,0,81.194,268.02Zm-5.983-6.312a.544.544,0,0,0,.412-.9c-.944-1.084-1.876-2.2-2.772-3.32a.544.544,0,0,0-.852.677c.9,1.131,1.847,2.259,2.8,3.355A.544.544,0,0,0,75.211,261.708Zm634.864-.112a.554.554,0,0,0,.543-.6c-.142-1.449-.325-2.907-.543-4.336a.545.545,0,0,0-1.078.163c.216,1.41.4,2.849.536,4.279A.544.544,0,0,0,710.075,261.6ZM69.787,254.917a.544.544,0,0,0,.441-.862c-.848-1.161-1.679-2.354-2.47-3.545a.546.546,0,0,0-.754-.154.54.54,0,0,0-.154.751c.8,1.206,1.64,2.412,2.5,3.586A.544.544,0,0,0,69.787,254.917Zm638.974-1.9a.544.544,0,0,0,.534-.654c-.3-1.421-.64-2.852-1.018-4.251a.545.545,0,0,0-1.052.281c.371,1.381.709,2.791,1,4.194A.544.544,0,0,0,708.761,253.017Zm-643.776-5.34a.545.545,0,0,0,.468-.822c-.741-1.234-1.457-2.5-2.131-3.755a.547.547,0,0,0-.737-.223.541.541,0,0,0-.224.734c.682,1.272,1.407,2.55,2.156,3.8A.548.548,0,0,0,64.986,247.677ZM706.5,244.635a.524.524,0,0,0,.172-.028.542.542,0,0,0,.346-.685c-.458-1.379-.963-2.761-1.5-4.109a.545.545,0,0,0-1.013.4c.529,1.328,1.026,2.69,1.477,4.049A.546.546,0,0,0,706.5,244.635ZM60.885,240.022a.546.546,0,0,0,.492-.775c-.618-1.3-1.208-2.629-1.751-3.942a.545.545,0,0,0-1.008.413c.551,1.33,1.149,2.674,1.774,3.994A.547.547,0,0,0,60.885,240.022Zm642.4-3.449a.533.533,0,0,0,.231-.052.541.541,0,0,0,.262-.721c-.618-1.315-1.286-2.628-1.984-3.9a.545.545,0,0,0-.957.52c.688,1.255,1.345,2.548,1.954,3.842A.546.546,0,0,0,703.286,236.573ZM57.567,232a.547.547,0,0,0,.181-.031.542.542,0,0,0,.333-.692c-.479-1.355-.927-2.735-1.33-4.1a.546.546,0,0,0-.675-.367.54.54,0,0,0-.369.673c.406,1.386.86,2.785,1.347,4.158A.544.544,0,0,0,57.567,232Zm641.541-3.04a.542.542,0,0,0,.459-.832c-.782-1.233-1.612-2.451-2.466-3.62a.545.545,0,0,0-.882.639c.84,1.15,1.657,2.348,2.426,3.562A.547.547,0,0,0,699.108,228.961ZM299.523,228.1q.818,0,1.635-.012a.546.546,0,0,0,.537-.551.537.537,0,0,0-.553-.535q-2.167.031-4.336-.021a.526.526,0,0,0-.559.529.543.543,0,0,0,.531.556Q298.149,228.1,299.523,228.1Zm5.982-.157c1.481-.077,2.951-.184,4.4-.317a.543.543,0,0,0,.493-.589.53.53,0,0,0-.593-.491c-1.432.132-2.887.237-4.326.312a.543.543,0,0,0,.029,1.085Zm-13.068-.062a.542.542,0,0,0,.034-1.084c-1.436-.089-2.891-.206-4.323-.349a.553.553,0,0,0-.6.485.543.543,0,0,0,.487.6c1.446.143,2.915.262,4.365.351Zm21.744-.733a.534.534,0,0,0,.073-.006c1.448-.19,2.905-.41,4.329-.655a.544.544,0,0,0,.444-.627.549.549,0,0,0-.63-.443c-1.41.243-2.852.461-4.286.649a.543.543,0,0,0,.07,1.082Zm-30.413-.131a.542.542,0,0,0,.074-1.079c-1.433-.2-2.874-.424-4.286-.674a.543.543,0,1,0-.19,1.069c1.426.252,2.881.48,4.327.679A.563.563,0,0,0,283.767,227.017Zm39-1.346a.484.484,0,0,0,.114-.013c1.419-.3,2.853-.639,4.263-1a.543.543,0,1,0-.272-1.052c-1.395.359-2.815.692-4.22.991a.543.543,0,0,0,.115,1.074Zm-47.586-.165a.543.543,0,0,0,.116-1.074c-1.413-.3-2.833-.638-4.223-.993a.542.542,0,1,0-.27,1.05c1.4.358,2.837.7,4.262,1A.585.585,0,0,0,275.185,225.506ZM55.121,223.673a.513.513,0,0,0,.124-.015.542.542,0,0,0,.406-.651c-.326-1.391-.617-2.812-.863-4.222a.551.551,0,0,0-.63-.441.543.543,0,0,0-.444.627c.251,1.432.545,2.873.877,4.283A.544.544,0,0,0,55.121,223.673Zm276.086-.169a.534.534,0,0,0,.158-.024c1.391-.418,2.793-.874,4.167-1.351a.543.543,0,1,0-.361-1.025c-1.358.474-2.744.923-4.121,1.338a.542.542,0,0,0,.158,1.062Zm-64.464-.154a.542.542,0,0,0,.154-1.063c-1.382-.409-2.772-.85-4.132-1.31a.543.543,0,1,0-.352,1.027c1.374.465,2.778.909,4.174,1.323A.563.563,0,0,0,266.743,223.351Zm427.239-1.4a.548.548,0,0,0,.349-.126.542.542,0,0,0,.068-.765c-.94-1.12-1.926-2.215-2.93-3.259a.549.549,0,0,0-.77-.016.541.541,0,0,0-.016.767c.986,1.025,1.956,2.1,2.88,3.2A.545.545,0,0,0,693.982,221.95Zm-354.549-1.31a.563.563,0,0,0,.2-.038c1.352-.536,2.709-1.109,4.033-1.7a.543.543,0,1,0-.446-.99c-1.311.588-2.654,1.154-3.991,1.685a.542.542,0,0,0,.2,1.047Zm-80.941-.081a.542.542,0,0,0,.195-1.049q-1.21-.463-2.409-.953-.8-.326-1.613-.671a.549.549,0,0,0-.714.287.543.543,0,0,0,.288.713q.818.345,1.626.677,1.21.494,2.432.961A.553.553,0,0,0,258.492,220.559Zm-8.022-3.4a.543.543,0,0,0,.23-1.035q-1.942-.9-3.907-1.887a.549.549,0,0,0-.732.239.542.542,0,0,0,.24.729q1.979,1,3.939,1.9A.543.543,0,0,0,250.47,217.16Zm96.909-.082a.534.534,0,0,0,.245-.059c1.3-.653,2.6-1.344,3.87-2.053a.543.543,0,1,0-.535-.945c-1.252.7-2.539,1.384-3.824,2.029a.543.543,0,0,0,.245,1.028Zm340.574-1.387a.542.542,0,0,0,.367-.944c-1.035-.938-2.156-1.9-3.331-2.845a.544.544,0,0,0-.687.844c1.159.936,2.265,1.879,3.285,2.8A.546.546,0,0,0,687.953,215.692Zm-634.324-.566a.567.567,0,0,0,.063,0,.543.543,0,0,0,.479-.6q-.159-1.381-.266-2.772c-.039-.508-.071-1.013-.093-1.518a.545.545,0,0,0-1.088.047c.023.519.053,1.037.1,1.555q.108,1.409.269,2.812A.544.544,0,0,0,53.629,215.125Zm189.064-1.885a.543.543,0,0,0,.263-1.018c-1.28-.7-2.546-1.424-3.763-2.152a.548.548,0,0,0-.746.186.54.54,0,0,0,.187.744c1.229.735,2.505,1.465,3.8,2.173A.558.558,0,0,0,242.693,213.241Zm112.283-.414a.544.544,0,0,0,.288-.082c1.257-.777,2.49-1.582,3.669-2.392a.544.544,0,1,0-.62-.893c-1.164.8-2.382,1.6-3.625,2.363a.543.543,0,0,0,.288,1ZM681.2,210.211a.543.543,0,0,0,.325-.979c-1.171-.866-2.357-1.709-3.553-2.541a.544.544,0,1,0-.623.891q1.781,1.236,3.527,2.521A.539.539,0,0,0,681.2,210.211ZM235.222,208.77a.547.547,0,0,0,.456-.245.541.541,0,0,0-.157-.751c-1.225-.8-2.426-1.628-3.569-2.453a.547.547,0,0,0-.76.121.54.54,0,0,0,.121.757c1.156.834,2.37,1.67,3.611,2.482A.544.544,0,0,0,235.222,208.77Zm126.921-.879a.542.542,0,0,0,.333-.113c1.174-.9,2.316-1.836,3.395-2.772a.544.544,0,1,0-.716-.818c-1.063.922-2.188,1.841-3.345,2.732a.543.543,0,0,0,.333.972ZM53.256,206.457a.544.544,0,0,0,.544-.521c.057-1.411.174-2.85.347-4.279a.544.544,0,0,0-.474-.6.553.553,0,0,0-.607.475c-.177,1.457-.3,2.926-.353,4.366a.542.542,0,0,0,.522.564Zm620.807-1.231a.543.543,0,0,0,.305-.993l-3.615-2.424a.548.548,0,0,0-.756.147.541.541,0,0,0,.146.753l3.615,2.423A.55.55,0,0,0,674.063,205.227Zm-445.892-1.562a.542.542,0,0,0,.342-.965c-1.142-.92-2.246-1.864-3.282-2.8a.543.543,0,1,0-.734.8c1.052.956,2.172,1.915,3.332,2.849A.547.547,0,0,0,228.171,203.664Zm140.532-1.48a.547.547,0,0,0,.385-.157c1.044-1.032,2.056-2.107,3.007-3.194a.539.539,0,0,0-.052-.765.546.546,0,0,0-.768.052c-.934,1.068-1.93,2.123-2.956,3.136a.543.543,0,0,0,.384.928Zm298.143-1.828a.549.549,0,0,0,.449-.233.541.541,0,0,0-.137-.755q-1.787-1.234-3.539-2.509a.543.543,0,1,0-.645.874q1.761,1.29,3.562,2.526A.542.542,0,0,0,666.846,200.356ZM54.3,197.849a.544.544,0,0,0,.534-.436c.281-1.389.618-2.8,1-4.186a.544.544,0,0,0-1.049-.29c-.395,1.413-.739,2.847-1.023,4.262a.542.542,0,0,0,.426.639A.578.578,0,0,0,54.3,197.849Zm167.448-.046a.543.543,0,0,0,.395-.916c-1.015-1.064-1.971-2.151-2.84-3.23a.549.549,0,0,0-.766-.083.542.542,0,0,0-.085.763c.889,1.1,1.866,2.212,2.9,3.3A.543.543,0,0,0,221.748,197.8Zm152.673-2.16a.546.546,0,0,0,.437-.218c.861-1.152,1.7-2.365,2.49-3.608a.544.544,0,0,0-.92-.581c-.776,1.219-1.6,2.411-2.444,3.541a.543.543,0,0,0,.436.867Zm285.414-.443a.549.549,0,0,0,.426-.2.541.541,0,0,0-.086-.763c-.946-.755-1.854-1.512-2.7-2.248l-.611-.535a.547.547,0,0,0-.769.05.541.541,0,0,0,.049.765l.614.536c.856.748,1.776,1.514,2.736,2.279A.544.544,0,0,0,659.836,195.2Zm-443.531-4.165a.544.544,0,0,0,.449-.851l-2.468-3.579a.544.544,0,0,0-.9.615l2.468,3.579A.545.545,0,0,0,216.305,191.036Zm436.967-1.54a.542.542,0,0,0,.369-.941q-1.594-1.465-3.164-2.968a.547.547,0,0,0-.77.015.541.541,0,0,0,.015.767q1.577,1.512,3.18,2.983A.549.549,0,0,0,653.272,189.5Zm-596.647-.012a.544.544,0,0,0,.513-.363c.475-1.338,1-2.689,1.573-4.016a.545.545,0,0,0-1-.426c-.578,1.349-1.116,2.721-1.6,4.082a.541.541,0,0,0,.332.692A.559.559,0,0,0,56.625,189.484Zm322.462-1.156a.544.544,0,0,0,.479-.284c.68-1.255,1.339-2.571,1.961-3.91a.545.545,0,0,0-.99-.455c-.611,1.32-1.26,2.614-1.93,3.849a.543.543,0,0,0,.479.8Zm-167.723-4.448a.543.543,0,0,0,.448-.852q-1.246-1.789-2.5-3.561a.547.547,0,0,0-.76-.129.541.541,0,0,0-.129.757q1.257,1.766,2.5,3.552A.547.547,0,0,0,211.363,183.881Zm435.629-.4a.547.547,0,0,0,.384-.158.541.541,0,0,0,0-.767q-1.531-1.532-3.032-3.1a.543.543,0,0,0-.788.749q1.507,1.576,3.048,3.117A.539.539,0,0,0,646.992,183.481ZM60.044,181.5a.545.545,0,0,0,.487-.3c.639-1.271,1.33-2.549,2.052-3.8a.542.542,0,0,0-.2-.741.548.548,0,0,0-.745.2c-.733,1.269-1.433,2.565-2.083,3.855a.544.544,0,0,0,.487.786Zm322.7-1.039a.546.546,0,0,0,.507-.344c.527-1.327,1.036-2.7,1.517-4.1a.545.545,0,0,0-1.032-.354c-.475,1.376-.978,2.739-1.5,4.051a.541.541,0,0,0,.306.7A.535.535,0,0,0,382.748,180.46ZM640.983,177.2a.544.544,0,0,0,.4-.908q-1.462-1.6-2.889-3.233a.544.544,0,0,0-.823.712q1.436,1.643,2.905,3.252A.546.546,0,0,0,640.983,177.2Zm-434.664-.4a.544.544,0,0,0,.44-.863q-1.29-1.759-2.611-3.49a.544.544,0,0,0-.866.658q1.316,1.719,2.6,3.473A.545.545,0,0,0,206.32,176.8ZM64.393,173.967a.546.546,0,0,0,.457-.246c.781-1.2,1.609-2.392,2.461-3.555a.545.545,0,0,0-.882-.639c-.861,1.178-1.7,2.389-2.493,3.6a.542.542,0,0,0,.16.751A.548.548,0,0,0,64.393,173.967Zm321.2-1.715a.543.543,0,0,0,.521-.386q.632-2.082,1.2-4.195a.545.545,0,0,0-1.052-.281q-.564,2.1-1.186,4.162a.542.542,0,0,0,.363.676A.579.579,0,0,0,385.589,172.252Zm249.675-1.607a.543.543,0,0,0,.419-.889q-1.387-1.664-2.735-3.363a.547.547,0,0,0-.765-.09.541.541,0,0,0-.089.763q1.354,1.707,2.75,3.384A.548.548,0,0,0,635.264,170.645Zm-434.228-.75a.543.543,0,0,0,.425-.883q-1.368-1.7-2.786-3.358a.548.548,0,0,0-.768-.061.542.542,0,0,0-.06.765q1.406,1.643,2.764,3.333A.545.545,0,0,0,201.037,169.895Zm-131.509-2.95a.543.543,0,0,0,.424-.2c.9-1.107,1.845-2.213,2.808-3.288a.543.543,0,0,0-.811-.723c-.977,1.087-1.933,2.207-2.844,3.328a.543.543,0,0,0,.423.884Zm318.333-3.08a.543.543,0,0,0,.529-.415q.517-2.108,1-4.236a.545.545,0,0,0-1.063-.24q-.484,2.118-1,4.22a.542.542,0,0,0,.4.655A.552.552,0,0,0,387.861,163.865Zm242-.03a.536.536,0,0,0,.326-.109.542.542,0,0,0,.109-.759q-1.307-1.73-2.568-3.491a.548.548,0,0,0-.76-.127.541.541,0,0,0-.128.757q1.269,1.772,2.584,3.513A.546.546,0,0,0,629.862,163.835Zm-434.485-.54a.543.543,0,0,0,.4-.909c-1.008-1.1-2.025-2.16-3.02-3.157a.547.547,0,0,0-.77,0,.541.541,0,0,0,0,.767c.985.987,1.992,2.038,2.99,3.125A.548.548,0,0,0,195.377,163.3ZM75.337,160.47a.548.548,0,0,0,.389-.162c1.013-1.026,2.059-2.036,3.109-3a.542.542,0,0,0,.031-.767.548.548,0,0,0-.769-.029c-1.064.978-2.123,2-3.149,3.039a.543.543,0,0,0,.389.922Zm113.9-3.325a.543.543,0,0,0,.369-.942c-1.084-.993-2.193-1.96-3.3-2.875a.543.543,0,1,0-.7.833c1.09.9,2.186,1.859,3.255,2.84A.548.548,0,0,0,189.234,157.145Zm435.565-.377a.549.549,0,0,0,.3-.094.541.541,0,0,0,.146-.753q-1.217-1.792-2.386-3.616a.544.544,0,0,0-.918.585q1.175,1.834,2.4,3.639A.547.547,0,0,0,624.8,156.768ZM389.805,155.4a.545.545,0,0,0,.533-.428l.925-4.243a.545.545,0,0,0-1.065-.231l-.925,4.243a.542.542,0,0,0,.417.646A.51.51,0,0,0,389.805,155.4Zm-308.072-.816a.538.538,0,0,0,.35-.128c1.1-.92,2.238-1.827,3.381-2.694a.544.544,0,0,0-.661-.863c-1.156.877-2.305,1.795-3.419,2.726a.54.54,0,0,0-.067.765A.547.547,0,0,0,81.733,154.581ZM182.542,151.6a.542.542,0,0,0,.326-.978c-1.109-.826-2.246-1.631-3.38-2.389l-.2-.134a.548.548,0,0,0-.757.153.542.542,0,0,0,.153.751l.2.132c1.116.748,2.238,1.54,3.333,2.356A.545.545,0,0,0,182.542,151.6Zm437.567-2.145a.544.544,0,0,0,.466-.823q-1.119-1.855-2.188-3.737a.547.547,0,0,0-.743-.206.542.542,0,0,0-.205.74q1.076,1.9,2.2,3.763A.545.545,0,0,0,620.109,149.451ZM88.66,149.326a.549.549,0,0,0,.31-.1c1.191-.817,2.412-1.61,3.628-2.357a.541.541,0,0,0,.177-.746.55.55,0,0,0-.75-.177c-1.232.757-2.468,1.56-3.675,2.386a.543.543,0,0,0,.309.99Zm303-2.415a.545.545,0,0,0,.531-.424q.473-2.116.969-4.226a.544.544,0,0,0-1.061-.247q-.5,2.113-.971,4.238a.542.542,0,0,0,.412.647A.532.532,0,0,0,391.662,146.911Zm-216.368-.127a.542.542,0,0,0,.276-1.01c-1.254-.736-2.546-1.448-3.838-2.115a.543.543,0,1,0-.5.964c1.275.658,2.549,1.36,3.787,2.086A.546.546,0,0,0,175.294,146.784Zm-79.215-2.013a.549.549,0,0,0,.261-.067c1.272-.692,2.569-1.354,3.854-1.967a.543.543,0,1,0-.472-.979c-1.3.621-2.616,1.292-3.905,1.993a.543.543,0,0,0,.262,1.019Zm71.48-1.978a.543.543,0,0,0,.224-1.038c-1.318-.594-2.679-1.163-4.045-1.691a.543.543,0,1,0-.395,1.011c1.346.521,2.689,1.083,3.991,1.669A.552.552,0,0,0,167.559,142.793Zm448.265-.9a.531.531,0,0,0,.254-.064.54.54,0,0,0,.226-.733q-1.013-1.912-1.974-3.853a.544.544,0,0,0-.977.48q.966,1.955,1.988,3.88A.545.545,0,0,0,615.824,141.893Zm-511.88-.863a.545.545,0,0,0,.207-.042c1.345-.548,2.707-1.055,4.049-1.508a.543.543,0,1,0-.349-1.028c-1.364.461-2.748.976-4.113,1.532a.543.543,0,0,0,.207,1.046Zm55.5-1.382a.543.543,0,0,0,.171-1.059c-1.377-.452-2.79-.875-4.2-1.258a.543.543,0,1,0-.288,1.048c1.393.378,2.788.8,4.148,1.241A.537.537,0,0,0,159.438,139.647Zm234.228-1.183a.544.544,0,0,0,.528-.408q.538-2.1,1.127-4.176a.544.544,0,0,0-1.048-.3q-.6,2.089-1.135,4.2a.542.542,0,0,0,.528.677Zm-281.475-.222a.515.515,0,0,0,.144-.02c1.38-.377,2.8-.72,4.2-1.02a.543.543,0,1,0-.229-1.061c-1.428.305-2.864.653-4.263,1.035a.542.542,0,0,0,.144,1.065Zm38.839-.877a.542.542,0,0,0,.116-1.072c-1.424-.309-2.874-.584-4.308-.818a.543.543,0,1,0-.178,1.071c1.418.231,2.849.5,4.254.807A.509.509,0,0,0,151.031,137.365Zm-30.32-.942a.534.534,0,0,0,.086-.007c1.41-.221,2.853-.406,4.292-.55a.544.544,0,0,0,.487-.6.566.566,0,0,0-.6-.485c-1.458.147-2.923.335-4.352.559a.542.542,0,0,0,.083,1.078Zm21.724-.46a.543.543,0,0,0,.059-1.083c-1.447-.159-2.917-.283-4.371-.367a.53.53,0,0,0-.575.51.543.543,0,0,0,.512.573c1.435.083,2.887.206,4.314.364A.549.549,0,0,0,142.435,135.963Zm-13.056-.416c1.307-.03,2.6-.09,3.876-.09h.477a.543.543,0,1,0,.007-1.085l-.484,0c-1.292,0-2.6.031-3.9.091a.544.544,0,0,0-.518.569A.539.539,0,0,0,129.379,135.547Zm482.6-1.443a.542.542,0,0,0,.494-.767q-.9-1.967-1.74-3.961a.545.545,0,0,0-1.006.419q.848,2.011,1.755,3.991A.544.544,0,0,0,611.976,134.1Zm-215.922-3.983a.546.546,0,0,0,.52-.377c.451-1.406.924-2.779,1.4-4.083a.545.545,0,0,0-1.023-.373c-.485,1.317-.962,2.7-1.419,4.124a.543.543,0,0,0,.353.683A.557.557,0,0,0,396.055,130.121ZM608.6,126.1a.543.543,0,0,0,.508-.737q-.778-2.018-1.491-4.06a.545.545,0,0,0-1.029.357q.719,2.058,1.5,4.092A.547.547,0,0,0,608.6,126.1Zm-209.538-4.12a.546.546,0,0,0,.5-.332c.573-1.349,1.178-2.668,1.8-3.92a.541.541,0,0,0-.248-.726.547.547,0,0,0-.73.247c-.627,1.269-1.24,2.607-1.822,3.975a.542.542,0,0,0,.289.711A.556.556,0,0,0,399.065,121.982ZM605.74,117.9a.571.571,0,0,0,.162-.024.542.542,0,0,0,.357-.679q-.646-2.064-1.223-4.147a.545.545,0,0,0-1.05.289q.581,2.1,1.233,4.181A.544.544,0,0,0,605.74,117.9Zm-202.823-3.7a.548.548,0,0,0,.473-.273c.71-1.234,1.475-2.466,2.271-3.66a.541.541,0,0,0-.152-.752.547.547,0,0,0-.755.151c-.81,1.215-1.586,2.466-2.309,3.721a.542.542,0,0,0,.2.741A.548.548,0,0,0,402.917,114.2Zm200.5-4.664a.548.548,0,0,0,.53-.67q-.508-2.1-.944-4.219a.544.544,0,0,0-1.066.218q.439,2.136.951,4.255A.546.546,0,0,0,603.42,109.537ZM407.733,106.98a.546.546,0,0,0,.434-.214c.866-1.13,1.783-2.252,2.727-3.334a.544.544,0,0,0-.823-.712c-.958,1.1-1.891,2.238-2.771,3.387a.544.544,0,0,0,.433.872Zm193.935-5.945a.5.5,0,0,0,.092-.008.543.543,0,0,0,.446-.626q-.364-2.13-.656-4.271a.545.545,0,0,0-1.08.146q.294,2.16.661,4.309A.545.545,0,0,0,601.668,101.035Zm-188.23-.6a.542.542,0,0,0,.389-.163c1-1.011,2.048-2.014,3.122-2.979a.543.543,0,1,0-.73-.805c-1.091.98-2.157,2-3.17,3.024a.543.543,0,0,0,.389.923Zm6.463-5.817a.539.539,0,0,0,.341-.12c1.115-.892,2.275-1.77,3.448-2.609a.542.542,0,0,0,.124-.757.547.547,0,0,0-.76-.125c-1.189.851-2.365,1.74-3.495,2.646a.542.542,0,0,0,.341.965Zm180.6-2.185a.555.555,0,0,0,.543-.6q-.218-2.149-.359-4.307a.545.545,0,0,0-1.087.07q.143,2.175.361,4.345A.544.544,0,0,0,600.5,92.434ZM426.98,89.552a.536.536,0,0,0,.294-.087c1.2-.766,2.446-1.521,3.7-2.242a.543.543,0,1,0-.542-.941c-1.276.729-2.538,1.494-3.751,2.27a.543.543,0,0,0,.295,1Zm7.56-4.33a.531.531,0,0,0,.248-.06c1.269-.649,2.583-1.284,3.9-1.887a.543.543,0,1,0-.455-.987c-1.334.61-2.663,1.253-3.946,1.909a.542.542,0,0,0,.249,1.025Zm163.45-.054c1.3,0,2.585-.032,3.807-.094a.542.542,0,0,0,.516-.57.529.529,0,0,0-.572-.513c-1.2.06-2.464.09-3.751.09l-.573,0a.543.543,0,1,0-.009,1.086Zm-4.934-.133a.543.543,0,0,0,.028-1.085q-2.167-.113-4.329-.3a.542.542,0,1,0-.093,1.08c1.453.124,2.909.228,4.365.3Zm13.052-.325a.638.638,0,0,0,.066,0c1.489-.18,2.951-.418,4.345-.707a.542.542,0,1,0-.222-1.062c-1.365.282-2.8.514-4.255.691a.543.543,0,0,0,.065,1.082Zm-21.813-.4a.575.575,0,0,0,.578-.48.512.512,0,0,0-.442-.594s-2.91-.322-4.324-.493a.543.543,0,1,0-.132,1.078q2.13.257,4.261.485A.516.516,0,0,0,584.3,84.305Zm15.637-.532a.544.544,0,0,0,.544-.559q-.054-1.8-.055-3.611l0-.71a.545.545,0,0,0-1.089-.008l0,.718q0,1.824.055,3.644A.542.542,0,0,0,599.933,83.774Zm-24.214-.5a.543.543,0,0,0,.071-1.082q-2.156-.286-4.312-.593a.543.543,0,1,0-.154,1.075q2.162.307,4.322.594A.517.517,0,0,0,575.719,83.273Zm38.91-.347a.571.571,0,0,0,.162-.024q.922-.286,1.836-.615c.773-.28,1.549-.592,2.3-.928a.543.543,0,1,0-.444-.992c-.732.326-1.483.629-2.231.9q-.889.321-1.789.6a.543.543,0,0,0,.162,1.061Zm-47.539-.879a.542.542,0,0,0,.081-1.078q-2.153-.326-4.3-.663a.543.543,0,1,0-.171,1.072q2.156.338,4.312.663A.489.489,0,0,0,567.09,82.047ZM442.468,81.6a.537.537,0,0,0,.205-.04c1.325-.538,2.687-1.061,4.052-1.552a.541.541,0,0,0,.326-.695.548.548,0,0,0-.7-.325c-1.377.495-2.754,1.022-4.092,1.567a.54.54,0,0,0-.3.706A.546.546,0,0,0,442.468,81.6Zm116.011-.9a.542.542,0,0,0,.087-1.078q-2.149-.348-4.3-.7a.542.542,0,1,0-.177,1.07q2.149.354,4.3.7A.562.562,0,0,0,558.479,80.7Zm64.088-1.307a.545.545,0,0,0,.282-.079,34.827,34.827,0,0,0,3.629-2.525.54.54,0,0,0,.085-.762.546.546,0,0,0-.766-.086,33.667,33.667,0,0,1-3.513,2.444.542.542,0,0,0,.283,1.006Zm-72.689-.105a.543.543,0,0,0,.089-1.078l-4.3-.711a.543.543,0,1,0-.177,1.071l4.3.71A.594.594,0,0,0,549.878,79.287Zm-99.208-.644a.551.551,0,0,0,.165-.027c1.361-.431,2.761-.847,4.161-1.233a.541.541,0,0,0,.379-.668.547.547,0,0,0-.671-.378c-1.413.391-2.826.809-4.2,1.246a.542.542,0,0,0,.166,1.06Zm90.608-.771a.542.542,0,0,0,.087-1.078q-2.153-.348-4.306-.69a.543.543,0,1,0-.171,1.072q2.149.34,4.3.689A.576.576,0,0,0,541.278,77.872Zm-8.61-1.357a.543.543,0,0,0,.081-1.079q-2.156-.326-4.315-.638a.543.543,0,1,0-.157,1.075q2.155.309,4.308.637A.674.674,0,0,0,532.668,76.516Zm-73.6-.2a.544.544,0,0,0,.128-.016q2.109-.5,4.239-.933a.543.543,0,1,0-.217-1.063q-2.146.433-4.276.941a.543.543,0,0,0,.126,1.071Zm64.967-1.04a.543.543,0,0,0,.072-1.08q-2.163-.289-4.329-.556a.542.542,0,1,0-.133,1.076q2.16.267,4.317.556A.518.518,0,0,0,524.039,75.278Zm75.935-.188a.544.544,0,0,0,.544-.526c.042-1.366.092-2.82.168-4.332a.542.542,0,0,0-.516-.569.526.526,0,0,0-.572.514c-.077,1.52-.128,2.981-.168,4.354a.542.542,0,0,0,.528.558Zm-132.358-.5a.6.6,0,0,0,.091-.007q2.142-.359,4.291-.644a.543.543,0,1,0-.144-1.076q-2.167.288-4.327.649a.542.542,0,0,0,.089,1.077Zm47.771-.371a.542.542,0,0,0,.059-1.082q-2.172-.237-4.344-.443a.542.542,0,1,0-.1,1.079q2.165.2,4.328.441A.542.542,0,0,0,515.386,74.221Zm113.964-.243a.544.544,0,0,0,.395-.169,29.469,29.469,0,0,0,2.811-3.418.544.544,0,0,0-.895-.621,28.24,28.24,0,0,1-2.707,3.291.543.543,0,0,0,.4.916Zm-153.1-.536c1.5-.148,2.938-.268,4.378-.366a.542.542,0,1,0-.074-1.082q-2.176.146-4.357.365a.543.543,0,0,0,.053,1.083Zm30.456-.035a.543.543,0,0,0,.042-1.084q-2.177-.168-4.357-.3a.543.543,0,1,0-.065,1.084C503.774,73.2,506.694,73.407,506.707,73.407Zm-8.7-.506a.543.543,0,0,0,.021-1.085q-2.182-.083-4.368-.119a.528.528,0,0,0-.552.534.543.543,0,0,0,.536.551C495.091,72.8,498.006,72.9,498.006,72.9Zm-13.066-.047c.557-.01,3.45-.083,4.357-.09a.546.546,0,0,0,.541-.548.538.538,0,0,0-.55-.538c-.913.008-3.824.072-4.366.091a.543.543,0,0,0,.019,1.085Zm149.354-5.977a.545.545,0,0,0,.493-.312,23.453,23.453,0,0,0,1.511-4.173.545.545,0,0,0-1.056-.268A22.4,22.4,0,0,1,633.8,66.1a.544.544,0,0,0,.492.774Zm-33.857-.465a.544.544,0,0,0,.542-.5c.132-1.5.295-2.942.484-4.287a.544.544,0,0,0-1.078-.15c-.193,1.364-.357,2.825-.491,4.343a.543.543,0,0,0,.5.588Zm35.975-7.9a.545.545,0,0,0,.544-.522c.008-.217.013-.433.013-.651a18.037,18.037,0,0,0-.413-3.8.545.545,0,0,0-1.065.229,16.867,16.867,0,0,1,.388,3.567c0,.2,0,.407-.012.61a.544.544,0,0,0,.524.563Zm-34.735-.7a.542.542,0,0,0,.531-.429c.316-1.468.683-2.864,1.093-4.149a.544.544,0,0,0-1.037-.328c-.421,1.319-.8,2.748-1.12,4.249a.543.543,0,0,0,.418.645A.562.562,0,0,0,601.677,57.815ZM634.634,50.1a.556.556,0,0,0,.229-.051.541.541,0,0,0,.265-.72,21.244,21.244,0,0,0-2.293-3.817.546.546,0,0,0-.762-.107.54.54,0,0,0-.109.759,20.307,20.307,0,0,1,2.177,3.62A.544.544,0,0,0,634.634,50.1Zm-30.269-.526a.546.546,0,0,0,.493-.311,22.544,22.544,0,0,1,2.155-3.646.544.544,0,0,0-.88-.64,23.75,23.75,0,0,0-2.26,3.822.543.543,0,0,0,.259.723A.556.556,0,0,0,604.365,49.574Zm25.07-6.365a.542.542,0,0,0,.355-.953,18.642,18.642,0,0,0-3.707-2.5.543.543,0,1,0-.5.967,17.54,17.54,0,0,1,3.491,2.353A.542.542,0,0,0,629.435,43.209Zm-19.9-.528a.547.547,0,0,0,.347-.125,14.9,14.9,0,0,1,3.561-2.181.543.543,0,1,0-.434-.995,16.007,16.007,0,0,0-3.822,2.339.541.541,0,0,0-.072.764A.547.547,0,0,0,609.533,42.681Zm12.2-3.312a.542.542,0,0,0,.1-1.076,14.261,14.261,0,0,0-4.51-.127.543.543,0,1,0,.145,1.076,13.1,13.1,0,0,1,4.163.118A.509.509,0,0,0,621.735,39.369Z" transform="translate(-52.713 -38.044)" fill="#d0def2"/>
        <path id="Path_7105" data-name="Path 7105" d="M389.014,176.993h44.324c11.888,0,49.245,1.767,52.692-1.532,7.681-7.352-15.034-9.343-18.149-7.152a11.652,11.652,0,0,0-8.464-21.048c-8.989,1.373-13.141,12-20.78,16.93,1.968-4.546-2.976-9.917-7.911-9.481s-8.7,5.065-9.662,9.925c-2.834-1.711-6.005-3.39-9.28-2.908s-6.155,4.247-4.514,7.123a97.9,97.9,0,0,0-22.974,2.524c-2.02.468-4.415,1.421-4.664,3.479C379.234,178.143,385.774,177.692,389.014,176.993Z" transform="translate(-82.454 -22.949)" fill="#f4f5fa"/>
        <path id="Path_7106" data-name="Path 7106" d="M167.121,123.162H132.649c-9.246,0-38.3,1.374-40.98-1.192-5.974-5.718,11.693-7.266,14.115-5.562a9.062,9.062,0,0,1,6.583-16.37c6.992,1.067,10.221,9.329,16.162,13.166-1.531-3.536,2.315-7.713,6.152-7.373s6.767,3.938,7.514,7.719c2.2-1.33,4.67-2.637,7.218-2.262s4.785,3.3,3.511,5.54a76.186,76.186,0,0,1,17.867,1.963c1.571.365,3.433,1.106,3.627,2.706C174.728,124.056,169.641,123.706,167.121,123.162Z" transform="translate(454.643 -13.443)" fill="#f4f5fa"/>
        <g id="Group_15010" data-name="Group 15010" transform="translate(620.094 156.273)">
          <path id="Path_7142" data-name="Path 7142" d="M40.713,212.249c-4.327-2.648-6.972-6.18-6.972-10.06,0-8.213,11.84-14.871,26.444-14.871s26.443,6.658,26.443,14.871S74.789,217.06,60.185,217.06a43.177,43.177,0,0,1-13.042-1.936c-3.33,5.639-10.578,6.025-10.578,6.025C40.13,219.048,40.684,214.59,40.713,212.249Z" transform="translate(-33.741 -187.319)" fill="#f4f5fa"/>
          <g id="Group_15009" data-name="Group 15009" transform="translate(13.551 13.279)">
            <path id="Path_7143" data-name="Path 7143" d="M55.172,206.427a2.114,2.114,0,0,0-.14-.777,1.826,1.826,0,0,0-.395-.616,1.857,1.857,0,0,0-.616-.414,2.072,2.072,0,0,0-.808-.153,2.1,2.1,0,0,0-.821.153,1.869,1.869,0,0,0-.617.414,1.836,1.836,0,0,0-.394.616,2.22,2.22,0,0,0,0,1.553,1.906,1.906,0,0,0,.394.623,1.746,1.746,0,0,0,.617.414,2.178,2.178,0,0,0,.821.146,2.144,2.144,0,0,0,.808-.146,1.736,1.736,0,0,0,.616-.414,1.9,1.9,0,0,0,.395-.623A2.113,2.113,0,0,0,55.172,206.427Z" transform="translate(-29.386 -204.467)" fill="#020621"/>
            <path id="Path_7144" data-name="Path 7144" d="M69.283,206.427a2.114,2.114,0,0,0-.139-.777,1.813,1.813,0,0,0-1.012-1.031,2.068,2.068,0,0,0-.808-.153,2.1,2.1,0,0,0-.821.153,1.861,1.861,0,0,0-.617.414,1.824,1.824,0,0,0-.394.616,2.22,2.22,0,0,0,0,1.553,1.893,1.893,0,0,0,.394.623,1.739,1.739,0,0,0,.617.414,2.178,2.178,0,0,0,.821.146,2.14,2.14,0,0,0,.808-.146,1.732,1.732,0,0,0,.617-.414,1.908,1.908,0,0,0,.395-.623A2.113,2.113,0,0,0,69.283,206.427Z" transform="translate(-54.425 -204.467)" fill="#020621"/>
            <path id="Path_7145" data-name="Path 7145" d="M83.394,206.427a2.1,2.1,0,0,0-.14-.777,1.824,1.824,0,0,0-.394-.616,1.861,1.861,0,0,0-.617-.414,2.068,2.068,0,0,0-.808-.153,2.1,2.1,0,0,0-.821.153,1.861,1.861,0,0,0-.617.414,1.824,1.824,0,0,0-.394.616,2.22,2.22,0,0,0,0,1.553,1.893,1.893,0,0,0,.394.623,1.739,1.739,0,0,0,.617.414,2.175,2.175,0,0,0,.821.146,2.14,2.14,0,0,0,.808-.146,1.739,1.739,0,0,0,.617-.414,1.893,1.893,0,0,0,.394-.623A2.1,2.1,0,0,0,83.394,206.427Z" transform="translate(-79.463 -204.467)" fill="#020621"/>
          </g>
        </g>
        <g id="Group_15011" data-name="Group 15011" transform="translate(460.961 89.449)">
          <path id="Path_7146" data-name="Path 7146" d="M221.176,242.687a11.4,11.4,0,0,0,12.244-11.352q.01-2.563-.075-4.949a71.8,71.8,0,0,0-1.852-14.218,52.844,52.844,0,0,0-4.637-12.357,71.024,71.024,0,0,0-7.768-11.593q-3.514-4.553-6.476-8.851a61.332,61.332,0,0,1-4.994-8.6,42.3,42.3,0,0,1-3.049-8.807,32.442,32.442,0,0,1-.63-9.622q1.8-23.731,17.146-22.57a12.92,12.92,0,0,1,5.439,1.77,14.735,14.735,0,0,1,4.86,4.727,24.492,24.492,0,0,1,3.265,7.822l.022.094A15.77,15.77,0,0,0,248.8,156.169l9.7.735a15.326,15.326,0,0,0,16.305-17.883A55.87,55.87,0,0,0,273.083,132a49.757,49.757,0,0,0-10.64-18.958,49.054,49.054,0,0,0-16.961-11.933,67.958,67.958,0,0,0-21.834-5.156,69.19,69.19,0,0,0-23.656,1.923A45.8,45.8,0,0,0,169.358,124a68.808,68.808,0,0,0-5.645,23.584A52.114,52.114,0,0,0,165,164.541a68.072,68.072,0,0,0,5.609,14.644,99.847,99.847,0,0,0,8.551,13.511c3.289,4.394,6.722,8.824,10.132,13.416a43.878,43.878,0,0,1,4.626,7.782,38.36,38.36,0,0,1,2.682,7.993,52.9,52.9,0,0,1,1.12,8.8l0,.093a11.423,11.423,0,0,0,10.513,10.923ZM233.3,287.338a23.52,23.52,0,0,0-.906-8.786,20.5,20.5,0,0,0-3.883-7.225,20.8,20.8,0,0,0-6.542-5.142,23.08,23.08,0,0,0-8.894-2.389,23.49,23.49,0,0,0-9.3,1.01,20.848,20.848,0,0,0-7.242,4.1,20.567,20.567,0,0,0-4.926,6.558A24.878,24.878,0,0,0,190.3,292.8a21.341,21.341,0,0,0,3.877,7.3,19.482,19.482,0,0,0,6.542,5.14,24.422,24.422,0,0,0,9.044,2.329,24.012,24.012,0,0,0,9.147-.951,19.442,19.442,0,0,0,7.242-4.1,21.261,21.261,0,0,0,4.933-6.628A23.545,23.545,0,0,0,233.3,287.338Z" transform="translate(-163.531 -95.702)" fill="#224d5c"/>
          <path id="Path_7147" data-name="Path 7147" d="M215.413,242.687a11.4,11.4,0,0,0,12.244-11.352q.01-2.563-.076-4.949a71.737,71.737,0,0,0-1.852-14.218,52.774,52.774,0,0,0-4.637-12.357,70.969,70.969,0,0,0-7.767-11.593q-3.515-4.553-6.476-8.851a61.416,61.416,0,0,1-4.995-8.6,42.4,42.4,0,0,1-3.049-8.807,32.416,32.416,0,0,1-.629-9.622q1.8-23.731,17.146-22.57a12.923,12.923,0,0,1,5.439,1.77,14.735,14.735,0,0,1,4.86,4.727,24.492,24.492,0,0,1,3.265,7.822l.022.094a15.77,15.77,0,0,0,14.128,11.983l9.7.735a15.326,15.326,0,0,0,16.305-17.883A55.86,55.86,0,0,0,267.319,132a49.736,49.736,0,0,0-10.64-18.958,49.044,49.044,0,0,0-16.96-11.933,67.957,67.957,0,0,0-21.834-5.156,69.187,69.187,0,0,0-23.656,1.923A45.8,45.8,0,0,0,163.594,124a68.791,68.791,0,0,0-5.645,23.584,52.072,52.072,0,0,0,1.286,16.962,68.071,68.071,0,0,0,5.608,14.644A99.927,99.927,0,0,0,173.4,192.7c3.289,4.394,6.722,8.824,10.131,13.416a43.886,43.886,0,0,1,4.627,7.782,38.364,38.364,0,0,1,2.682,7.993,52.826,52.826,0,0,1,1.119,8.8l0,.093a11.422,11.422,0,0,0,10.513,10.923Zm12.124,44.651a23.552,23.552,0,0,0-.906-8.786,20.484,20.484,0,0,0-3.884-7.225,20.782,20.782,0,0,0-6.542-5.142,23.072,23.072,0,0,0-8.893-2.389,23.49,23.49,0,0,0-9.3,1.01,20.841,20.841,0,0,0-7.242,4.1,20.545,20.545,0,0,0-4.926,6.558,24.878,24.878,0,0,0-1.314,17.337,21.341,21.341,0,0,0,3.877,7.3,19.482,19.482,0,0,0,6.542,5.14A24.418,24.418,0,0,0,204,307.565a24.009,24.009,0,0,0,9.147-.951,19.436,19.436,0,0,0,7.242-4.1,21.261,21.261,0,0,0,4.933-6.628A23.53,23.53,0,0,0,227.537,287.338Z" transform="translate(-153.304 -95.702)" fill="#224d5c"/>
          <path id="Path_7148" data-name="Path 7148" d="M166.831,114.24c-.582-.784.559-1.882,1.341-1.34,4.3,2.973,8,7.264,11.378,11.23,3.013,3.54,5.706,7.446,6.868,12.009.969,3.8.956,8.158-1.18,11.577-1.386,2.219-4.035,4.526-6.724,3.314a.347.347,0,0,1-.07-.542c3.111-2.442,5.4-4.015,5.8-8.378.365-3.99-1.079-7.888-3.135-11.237C177.236,124.569,171.192,120.114,166.831,114.24Z" transform="translate(-77.951 -99.55)" fill="#224d5c"/>
          <path id="Path_7149" data-name="Path 7149" d="M219.46,347.256c4.852-2.949,8.09-6.393,8.186-12.433.094-5.905-2.843-10.5-7.36-13.973a.529.529,0,0,1,.406-.962c12.77,2.967,12.9,27.5-.75,29.15C218.949,349.157,218.716,347.709,219.46,347.256Z" transform="translate(-161.678 -146.285)" fill="#224d5c"/>
        </g>
        <g id="Group_15013" data-name="Group 15013" transform="translate(374.667 89.207)">
          <path id="Path_7155" data-name="Path 7155" d="M453.567,288.265a24.092,24.092,0,0,0-2.527-8.539,20.342,20.342,0,0,0-5.162-6.451,20.812,20.812,0,0,0-7.38-3.842,23.5,23.5,0,0,0-9.326-.684,23.089,23.089,0,0,0-8.8,2.7,20.833,20.833,0,0,0-6.359,5.368,20.4,20.4,0,0,0-3.619,7.428,24.153,24.153,0,0,0-.589,8.884,23.583,23.583,0,0,0,2.517,8.467,20.513,20.513,0,0,0,5.153,6.381,19.926,19.926,0,0,0,7.375,3.77,24,24,0,0,0,9.174.63,24.427,24.427,0,0,0,8.956-2.644,19.9,19.9,0,0,0,6.366-5.3,20.444,20.444,0,0,0,3.626-7.357A23.514,23.514,0,0,0,453.567,288.265Zm-26.921-41.6a17.3,17.3,0,0,0,15.339-18.545l-8.5-108.773A17.3,17.3,0,0,0,414.326,103.5l-7.1.788a17.3,17.3,0,0,0-15.214,19.67l15.592,107.984A17.3,17.3,0,0,0,426.646,246.664Z" transform="translate(-391.837 -103.389)" fill="#224d5c"/>
          <path id="Path_7156" data-name="Path 7156" d="M448.68,288.265a24.108,24.108,0,0,0-2.527-8.539,20.35,20.35,0,0,0-5.161-6.451,20.816,20.816,0,0,0-7.381-3.842,23.494,23.494,0,0,0-9.325-.684,23.089,23.089,0,0,0-8.8,2.7,20.814,20.814,0,0,0-6.359,5.368,20.415,20.415,0,0,0-3.619,7.428,24.153,24.153,0,0,0-.589,8.884,23.583,23.583,0,0,0,2.518,8.467,20.513,20.513,0,0,0,5.153,6.381,19.917,19.917,0,0,0,7.374,3.77,24,24,0,0,0,9.174.63,24.427,24.427,0,0,0,8.956-2.644,19.907,19.907,0,0,0,6.365-5.3,20.457,20.457,0,0,0,3.627-7.357A23.53,23.53,0,0,0,448.68,288.265Zm-26.921-41.6A17.3,17.3,0,0,0,437.1,228.119l-8.5-108.773A17.3,17.3,0,0,0,409.439,103.5l-7.1.788a17.3,17.3,0,0,0-15.214,19.67l15.593,107.984A17.3,17.3,0,0,0,421.759,246.664Z" transform="translate(-383.164 -103.389)" fill="#224d5c"/>
          <path id="Path_7157" data-name="Path 7157" d="M397,353.154c5.183-3.3,8.984-8.433,8.592-14.847-.389-6.382-4.625-10.058-9.053-13.982-.19-.169-.05-.572.222-.537,6.687.867,11.063,8.266,11.492,14.518a17.413,17.413,0,0,1-10.354,16.981C396.632,355.817,395.929,353.833,397,353.154Z" transform="translate(-349.961 -153.122)" fill="#224d5c"/>
          <path id="Path_7158" data-name="Path 7158" d="M414.6,111.975c10.522,1.278,10.2,13.785,11.061,21.755q1.078,9.955,2.153,19.911c.733,6.821,1.977,13.807,1.82,20.677a.492.492,0,0,1-.963.13c-2.505-10.41-2.719-21.661-3.845-32.294-.595-5.614-1.112-11.243-1.785-16.848-.739-6.158-2.812-10.058-8.653-12.553A.421.421,0,0,1,414.6,111.975Z" transform="translate(-385.056 -105.326)" fill="#224d5c"/>
        </g>
        <g id="Group_15014" data-name="Group 15014" transform="translate(432.843 176.481)">
          <path id="Path_7159" data-name="Path 7159" d="M336.375,396.626a18.758,18.758,0,0,0-.75,2.882q-.044.237-.09.5c-.1.533-.2,1.141-.285,1.816-.091.623-9.081,1.261-10.063.585s.157-.99.157-.99a13.969,13.969,0,0,0,4.968-1.457c2.619-1.711,2.8-11.72,2.8-11.72C336.07,380.508,341.609,372.923,336.375,396.626Z" transform="translate(-323.773 -247.031)" fill="#f5a784"/>
          <path id="Path_7160" data-name="Path 7160" d="M286.629,405.305c-1,.691-10.183.038-10.273-.608-.09-.683-.218-1.3-.293-1.846-.008-.053-.015-.1-.022-.142-.36-2.672-.907-7.486-.907-7.486s2.445-2.652,4.291-.093c0,0-.225,6.6,1.974,7.669.09.045.187.091.307.142a17.678,17.678,0,0,0,4.773,1.351S287.628,404.614,286.629,405.305Z" transform="translate(-233.822 -250.048)" fill="#f5a784"/>
          <path id="Path_7161" data-name="Path 7161" d="M279.878,375.6s2.679,1.99,6.876.4c0,0,3.972-17.942,7.349-33.738.395-1.843,6.489-17.98,9.083-24.957.588-1.572.991-2.679,1.115-3.059a1.794,1.794,0,0,1,1.1-1.154c.619-.209,1.386-.046,1.711,1.727.054.31.155,1.138.279,2.37,1.169,11.429,4.987,58.053,4.987,58.053s3.516.674,6.04-.55c0,0,2.741-35.388,3.074-58.494.031-1.541.039-3.035.039-4.452,0-4.228-.108-7.7-.333-9.989l-28.868-1.146s-7.4,36.58-8.007,40.251C283.154,347.828,279.878,375.6,279.878,375.6Z" transform="translate(-271.988 -228.971)" fill="#05004a"/>
          <path id="Path_7162" data-name="Path 7162" d="M339.387,405.006q-.044.237-.09.5c-.1.533-.2,1.141-.285,1.816-.091.623-9.081,1.261-10.063.585s.157-.99.157-.99a13.968,13.968,0,0,0,4.968-1.457A11.1,11.1,0,0,0,339.387,405.006Z" transform="translate(-327.535 -252.528)" fill="#05004a"/>
          <path id="Path_7163" data-name="Path 7163" d="M285.723,407.838c-1,.691-10.183.038-10.273-.608-.09-.683-.218-1.3-.293-1.846-.008-.053-.015-.1-.022-.142a18.31,18.31,0,0,0,5.666.232,17.678,17.678,0,0,0,4.773,1.351S286.721,407.148,285.723,407.838Z" transform="translate(-232.915 -252.581)" fill="#05004a"/>
          <path id="Path_7164" data-name="Path 7164" d="M279.878,316.67a101.158,101.158,0,0,0,14.132.635c.588-1.572.991-2.679,1.115-3.059a1.794,1.794,0,0,1,1.1-1.154c.619-.209,1.386-.046,1.711,1.727.054.31.155,1.138.279,2.37,5.73-.217,10.918-.674,14.1-.991.031-1.541.039-3.035.039-4.452,0-4.228-.108-7.7-.333-9.989l-28.643-1.138-.681,2.2C282.108,305.69,281.04,310.925,279.878,316.67Z" transform="translate(-262.812 -228.973)" fill="#040038"/>
          <path id="Path_7165" data-name="Path 7165" d="M328.625,248.268c1.628-3.169-43-20.63-20.951-30.1,7.188-3.086,21.276-5.887,21.276-5.887s2.2,2.5.465,4.882c0,0-14.909,5.026-17.376,6.795s13.842,8.1,21.065,9.445C337.58,234.239,328.1,249.293,328.625,248.268Z" transform="translate(-301.541 -209.04)" fill="#f5a784"/>
          <path id="Path_7166" data-name="Path 7166" d="M295.544,211.672s1.35-.465,2.966-1.221,5.145-2.449,6.452-2.352a3.206,3.206,0,0,1,.565.271,1.294,1.294,0,0,1,.142.094,3.247,3.247,0,0,1,.874.872c.02.029.043.061.064.094a3.19,3.19,0,0,1,.442,1.062c.008.036.014.071.021.107a4.584,4.584,0,0,1,.093,1.088,24.662,24.662,0,0,0-4.584,2.589s2.426-.408,2.9.2l.064.524s-2.561.737-3.671,1.17a7.394,7.394,0,0,1-5.431-.311S294.325,213.367,295.544,211.672Z" transform="translate(-269.463 -208.095)" fill="#f5a784"/>
          <path id="Path_7167" data-name="Path 7167" d="M300.4,221.061a1.586,1.586,0,0,0,.162-.617,16.251,16.251,0,0,0-.039-4.006,7.552,7.552,0,0,0-.514-2.253,6.2,6.2,0,0,0-3.1-2.745,16.278,16.278,0,0,0-8.63-1.568,5.051,5.051,0,0,0-1.961.506,2.157,2.157,0,0,0-1.163,1.579,3.68,3.68,0,0,0,.187,1.285c.733,2.871-.11,5.708.881,8.461.3.846.361.974.855.944,2.634-.163,5.268-.361,7.894-.614a35.619,35.619,0,0,0,4.576-.583C300.029,221.337,300.264,221.277,300.4,221.061Z" transform="translate(-255.2 -208.479)" fill="#05004a"/>
          <path id="Path_7168" data-name="Path 7168" d="M305.706,223.067a1.486,1.486,0,0,0-2.4,0c-1.2,1.439.84,4.2,2.4,4.317A34.216,34.216,0,0,0,305.706,223.067Z" transform="translate(-274.106 -211.329)" fill="#e0855c"/>
          <path id="Path_7169" data-name="Path 7169" d="M306.792,241.007A70.163,70.163,0,0,0,302.5,254.77c-.465,2.874-2.236,12.743-2.236,12.743-10.169,2.792-21.343,0-21.343,0s-6.138-25.755-1.419-28.795a10.485,10.485,0,0,1,3.767-1.072,48.667,48.667,0,0,1,6.109-.4l.135-1.486c0-.015.345-3.67.345-3.67a10.461,10.461,0,0,0,8.422-2.057,28.578,28.578,0,0,0-.347,3.378c-.045.75-.075,1.486-.1,2.123-.03,1.111-.038,1.914-.038,1.914a23.624,23.624,0,0,1,3.955.4,21.544,21.544,0,0,1,6.814,2.469A.552.552,0,0,1,306.792,241.007Z" transform="translate(-254.071 -213.045)" fill="#f5a784"/>
          <path id="Path_7170" data-name="Path 7170" d="M298.02,230.034c-1.306,5.93-7.271,5.523-8.672,4.738l.25-2.682A10.44,10.44,0,0,0,298.02,230.034Z" transform="translate(-255.811 -213.045)" fill="#e0855c"/>
          <path id="Path_7171" data-name="Path 7171" d="M288.841,217.367c-.8.829-.863,2.689-.93,4.747-.2,6.227,1.664,8.172,4.845,8.514s6.508-.88,7.193-6.655c.342-2.887.708-5.554-.343-6.8C298.04,215.312,291.288,214.822,288.841,217.367Z" transform="translate(-256.966 -209.792)" fill="#f5a784"/>
          <path id="Path_7172" data-name="Path 7172" d="M285.5,224.862s.974-2.579,2.51-1.213-.586,5.263-2.936,4.974C285.076,228.624,284.753,225.744,285.5,224.862Z" transform="translate(-242.962 -211.515)" fill="#f5a784"/>
          <path id="Path_7173" data-name="Path 7173" d="M270.488,243.3a3.966,3.966,0,0,1,2.781,1.794c1.967,2.97,6.116,24.939,6.124,29.354.015,7.822-3.678,21.751-3.678,21.751s-3.256.7-4.485-1.983c0,0,1.01-17.028.675-20.045s-3.249-14.974-4.586-20C266.15,249.766,266.431,242.8,270.488,243.3Z" transform="translate(-219.662 -216.033)" fill="#f5a784"/>
          <path id="Path_7174" data-name="Path 7174" d="M288.055,225.28a2.174,2.174,0,0,0-.933.61,2.616,2.616,0,0,0-.685.872c-.04.1.105.168.176.1.2-.185.359-.407.544-.607a1.231,1.231,0,0,0,.451.356c.142.052.246-.124.184-.24a1.106,1.106,0,0,0-.372-.355,5.728,5.728,0,0,0,.741-.556A.11.11,0,0,0,288.055,225.28Z" transform="translate(-243.724 -211.972)" fill="#e0855c"/>
          <path id="Path_7175" data-name="Path 7175" d="M300.412,223.378s-.538.2-.456-.753c.073-.856.456-.741.456-.741s.375,0,.317.747S300.412,223.378,300.412,223.378Z" transform="translate(-266.734 -211.205)" fill="#05004a"/>
          <path id="Path_7176" data-name="Path 7176" d="M293.366,223.378s-.538.2-.456-.753c.073-.856.456-.741.456-.741s.374,0,.318.747S293.366,223.378,293.366,223.378Z" transform="translate(-254.232 -211.205)" fill="#05004a"/>
          <path id="Path_7177" data-name="Path 7177" d="M298.446,225.713c-.273-.041-.9.122-1.027-.173a7.96,7.96,0,0,1,.394-1.941,24.631,24.631,0,0,0,.627-2.574.051.051,0,0,0-.1-.026,30,30,0,0,0-1.248,4.7.135.135,0,0,0,.129.17c.4-.007.788.077,1.188.08C298.547,225.954,298.585,225.734,298.446,225.713Z" transform="translate(-262.322 -211.001)" fill="#e0855c"/>
          <path id="Path_7178" data-name="Path 7178" d="M300.9,220.034c-.386-.2-1.107-.249-1.387.153a.119.119,0,0,0,.1.179c.192-.009.361-.1.553-.118a1.558,1.558,0,0,1,.6.093A.168.168,0,0,0,300.9,220.034Z" transform="translate(-266.632 -210.755)" fill="#05004a"/>
          <path id="Path_7179" data-name="Path 7179" d="M293.895,220.547c-.219-.547-1.175-.6-1.583-.26a.154.154,0,0,0,.067.256,3.5,3.5,0,0,0,.737.007,2.438,2.438,0,0,1,.591.186A.153.153,0,0,0,293.895,220.547Z" transform="translate(-253.954 -210.798)" fill="#05004a"/>
          <path id="Path_7180" data-name="Path 7180" d="M274.537,298.148c-.751,4.391,35.093-1.541,34.892-3.516-1.309-12.978-2.439-34.033-2.439-34.033s-.016-1.092-.007-2.881c.022.163.038.248.038.248l1.525,6.636a14.084,14.084,0,0,0,9.277-2.524s-1.875-8.185-4.043-15.789c-1.533-5.374-4.4-7.232-5.707-7.813a2.9,2.9,0,0,0-.465-.178l-.225-.07a42.191,42.191,0,0,0-5.9-.7s1.014,5.5-5.568,6.024c-7.426.6-7.023-6.334-7.023-6.334s-14.527-4.662-16.935-6.257a33.56,33.56,0,0,0-5.242,10.283s9,4.507,13.287,10.082c.023.829.054,1.34.054,1.34S279.268,270.566,274.537,298.148Z" transform="translate(-258.091 -213.254)" fill="#39c"/>
          <path id="Path_7181" data-name="Path 7181" d="M278.752,309.333s-.194,1.416-.249,3.2-.134,5.7-.809,6.819a3.184,3.184,0,0,1-.5.383,1.146,1.146,0,0,1-.149.084,3.241,3.241,0,0,1-1.172.387l-.114.015a3.191,3.191,0,0,1-1.148-.084l-.1-.03a4.6,4.6,0,0,1-1.014-.407,24.688,24.688,0,0,0-.243-5.259s-.73,2.349-1.485,2.5l-.5-.179s.5-2.618.611-3.8a7.394,7.394,0,0,1,2.727-4.708S277.789,307.48,278.752,309.333Z" transform="translate(-222.547 -230.659)" fill="#f5a784"/>
          <path id="Path_7182" data-name="Path 7182" d="M276.281,322.07l-.1-.03a39.984,39.984,0,0,0,.134-5.344.033.033,0,0,1,.064-.01A12.854,12.854,0,0,1,276.281,322.07Z" transform="translate(-224.213 -232.594)" fill="#e0855c"/>
          <path id="Path_7183" data-name="Path 7183" d="M274.673,322.172l-.114.015a40.787,40.787,0,0,0,.139-5.344c0-.035.054-.045.059-.01A12.728,12.728,0,0,1,274.673,322.172Z" transform="translate(-221.343 -232.627)" fill="#e0855c"/>
          <path id="Path_7184" data-name="Path 7184" d="M273.063,321.667a1.022,1.022,0,0,1-.149.084,42.744,42.744,0,0,0,.109-5.056.03.03,0,0,1,.06-.01A11.609,11.609,0,0,1,273.063,321.667Z" transform="translate(-218.412 -232.594)" fill="#e0855c"/>
          <path id="Path_7185" data-name="Path 7185" d="M295.534,229.412c.584.032,1.127.273,1.72.3a5.819,5.819,0,0,1,1.531-.033c-.351.42-1.141.391-1.641.372a2.807,2.807,0,0,1-1.683-.463A.1.1,0,0,1,295.534,229.412Z" transform="translate(-261.285 -212.905)" fill="#e0855c"/>
          <path id="Path_7186" data-name="Path 7186" d="M314.467,244.238s9,4.507,13.287,10.082l.845-5.931Z" transform="translate(-305.841 -216.251)" fill="#2c88b5"/>
        </g>
      </g>
    </g>
    <g id="Group_15019" data-name="Group 15019" transform="translate(382.641 113.953)">
      <path id="Path_7150" data-name="Path 7150" d="M568.081,152.322a22.89,22.89,0,0,1,6.23,39.471,10.352,10.352,0,0,0,3.01,10.464s-6.989-1.068-9.112-7.036a22.887,22.887,0,1,1-.128-42.9Z" transform="translate(-537.267 -150.903)" fill="#b0beea"/>
      <path id="Path_7151" data-name="Path 7151" d="M545.8,170.824h32.226a.774.774,0,0,0,0-1.549H545.8a.774.774,0,1,0,0,1.549Z" transform="translate(-539.018 -155.048)" fill="#fff"/>
      <path id="Path_7152" data-name="Path 7152" d="M545.8,177.718h32.226a.774.774,0,0,0,0-1.549H545.8a.774.774,0,1,0,0,1.549Z" transform="translate(-539.018 -156.604)" fill="#fff"/>
      <path id="Path_7153" data-name="Path 7153" d="M545.8,184.611h32.226a.774.774,0,0,0,0-1.549H545.8a.774.774,0,1,0,0,1.549Z" transform="translate(-539.018 -158.159)" fill="#fff"/>
      <path id="Path_7154" data-name="Path 7154" d="M545.8,191.5h19.55a.774.774,0,0,0,0-1.549H545.8a.774.774,0,0,0,0,1.549Z" transform="translate(-526.342 -159.715)" fill="#fff"/>
    </g>
  </g>
</svg>
