<svg xmlns="http://www.w3.org/2000/svg" xmlns:xlink="http://www.w3.org/1999/xlink" width="401" height="85.088" viewBox="0 0 401 85.088">
  <defs>
    <filter id="Rectangle_118" x="0" y="0" width="81.859" height="81.859" filterUnits="userSpaceOnUse">
      <feOffset dy="3" input="SourceAlpha"/>
      <feGaussianBlur stdDeviation="3" result="blur"/>
      <feFlood flood-opacity="0.161"/>
      <feComposite operator="in" in2="blur"/>
      <feComposite in="SourceGraphic"/>
    </filter>
    <filter id="Ellipse_21" x="357" y="40.864" width="44" height="44" filterUnits="userSpaceOnUse">
      <feOffset dy="3" input="SourceAlpha"/>
      <feGaussianBlur stdDeviation="3" result="blur-2"/>
      <feFlood flood-opacity="0.161"/>
      <feComposite operator="in" in2="blur-2"/>
      <feComposite in="SourceGraphic"/>
    </filter>
    <filter id="Path_19" x="145.106" y="29.203" width="101.189" height="40.813" filterUnits="userSpaceOnUse">
      <feOffset dy="3" input="SourceAlpha"/>
      <feGaussianBlur stdDeviation="3" result="blur-3"/>
      <feFlood flood-opacity="0.161"/>
      <feComposite operator="in" in2="blur-3"/>
      <feComposite in="SourceGraphic"/>
    </filter>
  </defs>
  <g id="Group_16243" data-name="Group 16243" transform="translate(-130 -845.136)">
    <g transform="matrix(1, 0, 0, 1, 130, 845.14)" filter="url(#Rectangle_118)">
      <g id="Rectangle_118-2" data-name="Rectangle 118" transform="translate(9 44.14) rotate(-56)" fill="none" stroke="#f7a51a" stroke-width="2">
        <rect width="46" height="46" stroke="none"/>
        <rect x="1" y="1" width="44" height="44" fill="none"/>
      </g>
    </g>
    <g transform="matrix(1, 0, 0, 1, 130, 845.14)" filter="url(#Ellipse_21)">
      <g id="Ellipse_21-2" data-name="Ellipse 21" transform="translate(366 46.86)" fill="none" stroke="#bbc8ce" stroke-width="2">
        <circle cx="13" cy="13" r="13" stroke="none"/>
        <circle cx="13" cy="13" r="12" fill="none"/>
      </g>
    </g>
    <g transform="matrix(1, 0, 0, 1, 130, 845.14)" filter="url(#Path_19)">
      <path id="Path_19-2" data-name="Path 19" d="M11323.554,572.039l31.259-15.63s14.849,17.193,15.63,15.63,20.317-20.318,20.317-20.318l14.849,14.067" transform="translate(-11169 -515.14)" fill="none" stroke="#d5d5d5" stroke-width="2"/>
    </g>
    <g id="Group_69" data-name="Group 69" transform="translate(366.429 854.354)">
      <g id="Group_36" data-name="Group 36" transform="translate(51.91 58.462)">
        <rect id="Rectangle_12" data-name="Rectangle 12" width="53.46" height="16.354" transform="translate(53.46 16.354) rotate(180)" fill="none" stroke="#dbdbdb" stroke-miterlimit="10" stroke-width="1.098"/>
        <line id="Line_265" data-name="Line 265" x1="53.46" y2="16.354" fill="none" stroke="#dbdbdb" stroke-miterlimit="10" stroke-width="1.098"/>
        <line id="Line_266" data-name="Line 266" x1="53.46" y1="16.354" fill="none" stroke="#dbdbdb" stroke-miterlimit="10" stroke-width="1.098"/>
      </g>
      <g id="Group_37" data-name="Group 37" transform="translate(15.158 53.663)">
        <rect id="Rectangle_13" data-name="Rectangle 13" width="16.731" height="7.017" transform="translate(0 14.681)" fill="none" stroke="#dbdbdb" stroke-miterlimit="10" stroke-width="1.021"/>
        <path id="Path_33" data-name="Path 33" d="M104.841,332.212a9.757,9.757,0,0,1-1.705-5.584c0-4.951,3.508-8.964,7.835-8.964s7.836,4.013,7.836,8.964a9.742,9.742,0,0,1-1.792,5.705" transform="translate(-102.606 -317.664)" fill="none" stroke="#dbdbdb" stroke-miterlimit="10" stroke-width="1.021"/>
      </g>
      <g id="Group_38" data-name="Group 38">
        <path id="Path_34" data-name="Path 34" d="M103.722,281.668a9.382,9.382,0,0,1-9.382-9.382h0a9.382,9.382,0,0,1,9.382-9.382H129.6a9.382,9.382,0,0,1,9.382,9.382h0a9.382,9.382,0,0,1-9.382,9.382Z" transform="translate(-86.345 -257.128)" fill="none" stroke="#dbdbdb" stroke-miterlimit="10" stroke-width="1.098"/>
        <rect id="Rectangle_14" data-name="Rectangle 14" width="60.631" height="30.315" fill="none" stroke="#dbdbdb" stroke-miterlimit="10" stroke-width="1.093"/>
      </g>
      <g id="Group_40" data-name="Group 40" transform="translate(79.796)">
        <ellipse id="Ellipse_1" data-name="Ellipse 1" cx="9.619" cy="6.841" rx="9.619" ry="6.841" fill="none" stroke="#dbdbdb" stroke-miterlimit="10" stroke-width="1.021"/>
        <g id="Group_39" data-name="Group 39" transform="translate(6.546 0.957)">
          <rect id="Rectangle_15" data-name="Rectangle 15" width="1.628" height="5.847" transform="translate(2.259 0.683)" fill="none" stroke="#dbdbdb" stroke-miterlimit="10" stroke-width="1.021"/>
          <rect id="Rectangle_16" data-name="Rectangle 16" width="1.628" height="2.635" fill="none" stroke="#dbdbdb" stroke-miterlimit="10" stroke-width="0.685"/>
          <rect id="Rectangle_17" data-name="Rectangle 17" width="1.628" height="2.635" transform="translate(4.05)" fill="none" stroke="#dbdbdb" stroke-miterlimit="10" stroke-width="0.685"/>
        </g>
      </g>
    </g>
  </g>
</svg>
